<?xml version="1.0" encoding="UTF-8"?>
<!--Generator: Apple Native CoreSVG 149-->
<!DOCTYPE svg
PUBLIC "-//W3C//DTD SVG 1.1//EN"
       "http://www.w3.org/Graphics/SVG/1.1/DTD/svg11.dtd">
<svg version="1.1" xmlns="http://www.w3.org/2000/svg" xmlns:xlink="http://www.w3.org/1999/xlink" width="3300" height="2200">
 <!--glyph: "uni1002DA.medium", point size: 100.000000, font version: "Version 16.0d18e1", template writer version: "8"-->
 <g id="Notes">
  <rect height="2200" id="artboard" style="fill:white;opacity:1" width="3300" x="0" y="0"/>
  <line id="" style="fill:none;stroke:black;opacity:1;stroke-width:0.5;" x1="263" x2="3036" y1="292" y2="292"/>
  <text style="stroke:none;fill:black;font-family:-apple-system,&quot;SF Pro Display&quot;,&quot;SF Pro Text&quot;,Helvetica,sans-serif;font-weight:bold;" transform="matrix(1 0 0 1 263 322)">Weight/Scale Variations</text>
  <text style="stroke:none;fill:black;font-family:-apple-system,&quot;SF Pro Display&quot;,&quot;SF Pro Text&quot;,Helvetica,sans-serif;text-anchor:middle;" transform="matrix(1 0 0 1 559.711 322)">Ultralight</text>
  <text style="stroke:none;fill:black;font-family:-apple-system,&quot;SF Pro Display&quot;,&quot;SF Pro Text&quot;,Helvetica,sans-serif;text-anchor:middle;" transform="matrix(1 0 0 1 856.422 322)">Thin</text>
  <text style="stroke:none;fill:black;font-family:-apple-system,&quot;SF Pro Display&quot;,&quot;SF Pro Text&quot;,Helvetica,sans-serif;text-anchor:middle;" transform="matrix(1 0 0 1 1153.13 322)">Light</text>
  <text style="stroke:none;fill:black;font-family:-apple-system,&quot;SF Pro Display&quot;,&quot;SF Pro Text&quot;,Helvetica,sans-serif;text-anchor:middle;" transform="matrix(1 0 0 1 1449.84 322)">Regular</text>
  <text style="stroke:none;fill:black;font-family:-apple-system,&quot;SF Pro Display&quot;,&quot;SF Pro Text&quot;,Helvetica,sans-serif;text-anchor:middle;" transform="matrix(1 0 0 1 1746.56 322)">Medium</text>
  <text style="stroke:none;fill:black;font-family:-apple-system,&quot;SF Pro Display&quot;,&quot;SF Pro Text&quot;,Helvetica,sans-serif;text-anchor:middle;" transform="matrix(1 0 0 1 2043.27 322)">Semibold</text>
  <text style="stroke:none;fill:black;font-family:-apple-system,&quot;SF Pro Display&quot;,&quot;SF Pro Text&quot;,Helvetica,sans-serif;text-anchor:middle;" transform="matrix(1 0 0 1 2339.98 322)">Bold</text>
  <text style="stroke:none;fill:black;font-family:-apple-system,&quot;SF Pro Display&quot;,&quot;SF Pro Text&quot;,Helvetica,sans-serif;text-anchor:middle;" transform="matrix(1 0 0 1 2636.69 322)">Heavy</text>
  <text style="stroke:none;fill:black;font-family:-apple-system,&quot;SF Pro Display&quot;,&quot;SF Pro Text&quot;,Helvetica,sans-serif;text-anchor:middle;" transform="matrix(1 0 0 1 2933.4 322)">Black</text>
  <line id="" style="fill:none;stroke:black;opacity:1;stroke-width:0.5;" x1="263" x2="3036" y1="1903" y2="1903"/>
  <g id="" transform="matrix(1 0 0 1 263 1933)">
   <path d="M9.24805 0.830078C13.5547 0.830078 17.1387-2.74414 17.1387-7.05078C17.1387-11.3574 13.5449-14.9316 9.23828-14.9316C4.94141-14.9316 1.36719-11.3574 1.36719-7.05078C1.36719-2.74414 4.95117 0.830078 9.24805 0.830078ZM9.24805-0.654297C5.70312-0.654297 2.87109-3.49609 2.87109-7.05078C2.87109-10.6055 5.69336-13.4473 9.23828-13.4473C12.793-13.4473 15.6348-10.6055 15.6445-7.05078C15.6543-3.49609 12.8027-0.654297 9.24805-0.654297ZM6.39648-6.31836L8.50586-6.31836L8.50586-4.19922C8.50586-3.75977 8.79883-3.45703 9.22852-3.45703C9.67773-3.45703 9.9707-3.75977 9.9707-4.19922L9.9707-6.31836L12.0996-6.31836C12.5391-6.31836 12.8418-6.61133 12.8418-7.04102C12.8418-7.48047 12.5391-7.7832 12.0996-7.7832L9.9707-7.7832L9.9707-9.89258C9.9707-10.3418 9.67773-10.6445 9.22852-10.6445C8.79883-10.6445 8.50586-10.3418 8.50586-9.89258L8.50586-7.7832L6.39648-7.7832C5.94727-7.7832 5.64453-7.48047 5.64453-7.04102C5.64453-6.61133 5.94727-6.31836 6.39648-6.31836Z"/>
  </g>
  <g id="" transform="matrix(1 0 0 1 281.506 1933)">
   <path d="M11.709 2.91016C17.1582 2.91016 21.6699-1.61133 21.6699-7.05078C21.6699-12.5 17.1484-17.0117 11.6992-17.0117C6.25977-17.0117 1.74805-12.5 1.74805-7.05078C1.74805-1.61133 6.26953 2.91016 11.709 2.91016ZM11.709 1.25C7.09961 1.25 3.41797-2.44141 3.41797-7.05078C3.41797-11.6602 7.08984-15.3516 11.6992-15.3516C16.3086-15.3516 20-11.6602 20.0098-7.05078C20.0195-2.44141 16.3184 1.25 11.709 1.25ZM7.98828-6.23047L10.8789-6.23047L10.8789-3.32031C10.8789-2.83203 11.2109-2.5 11.6895-2.5C12.1777-2.5 12.5195-2.83203 12.5195-3.32031L12.5195-6.23047L15.4297-6.23047C15.918-6.23047 16.25-6.5625 16.25-7.04102C16.25-7.5293 15.918-7.87109 15.4297-7.87109L12.5195-7.87109L12.5195-10.7617C12.5195-11.2695 12.1777-11.6016 11.6895-11.6016C11.2109-11.6016 10.8789-11.2598 10.8789-10.7617L10.8789-7.87109L7.98828-7.87109C7.48047-7.87109 7.14844-7.5293 7.14844-7.04102C7.14844-6.5625 7.49023-6.23047 7.98828-6.23047Z"/>
  </g>
  <g id="" transform="matrix(1 0 0 1 304.924 1933)">
   <path d="M14.9707 5.66406C21.9336 5.66406 27.6953-0.0976562 27.6953-7.05078C27.6953-14.0137 21.9238-19.7754 14.9609-19.7754C8.00781-19.7754 2.25586-14.0137 2.25586-7.05078C2.25586-0.0976562 8.01758 5.66406 14.9707 5.66406ZM14.9707 3.84766C8.93555 3.84766 4.08203-1.01562 4.08203-7.05078C4.08203-13.0957 8.92578-17.9492 14.9609-17.9492C21.0059-17.9492 25.8594-13.0957 25.8691-7.05078C25.8789-1.01562 21.0156 3.84766 14.9707 3.84766ZM10.0586-6.14258L14.0625-6.14258L14.0625-2.12891C14.0625-1.5918 14.4336-1.2207 14.9512-1.2207C15.4883-1.2207 15.8594-1.5918 15.8594-2.12891L15.8594-6.14258L19.8828-6.14258C20.4102-6.14258 20.791-6.51367 20.791-7.03125C20.791-7.56836 20.4199-7.94922 19.8828-7.94922L15.8594-7.94922L15.8594-11.9531C15.8594-12.5098 15.4883-12.8809 14.9512-12.8809C14.4336-12.8809 14.0625-12.5 14.0625-11.9531L14.0625-7.94922L10.0586-7.94922C9.50195-7.94922 9.13086-7.56836 9.13086-7.03125C9.13086-6.51367 9.51172-6.14258 10.0586-6.14258Z"/>
  </g>
  <text style="stroke:none;fill:black;font-family:-apple-system,&quot;SF Pro Display&quot;,&quot;SF Pro Text&quot;,Helvetica,sans-serif;font-weight:bold;" transform="matrix(1 0 0 1 263 1953)">Design Variations</text>
  <text style="stroke:none;fill:black;font-family:-apple-system,&quot;SF Pro Display&quot;,&quot;SF Pro Text&quot;,Helvetica,sans-serif;" transform="matrix(1 0 0 1 263 1971)">Symbols are supported in up to nine weights and three scales.</text>
  <text style="stroke:none;fill:black;font-family:-apple-system,&quot;SF Pro Display&quot;,&quot;SF Pro Text&quot;,Helvetica,sans-serif;" transform="matrix(1 0 0 1 263 1989)">For optimal layout with text and other symbols, vertically align</text>
  <text style="stroke:none;fill:black;font-family:-apple-system,&quot;SF Pro Display&quot;,&quot;SF Pro Text&quot;,Helvetica,sans-serif;" transform="matrix(1 0 0 1 263 2007)">symbols with the adjacent text.</text>
  <line id="" style="fill:none;stroke:#00AEEF;stroke-width:0.5;opacity:1.0;" x1="776" x2="776" y1="1919" y2="1933"/>
  <g id="" transform="matrix(1 0 0 1 776 1933)">
   <path d="M3.31055 0.126953C3.82812 0.126953 4.08203-0.0683594 4.26758-0.605469L5.52734-4.0625L11.2891-4.0625L12.5488-0.605469C12.7344-0.0683594 12.9883 0.126953 13.4961 0.126953C14.0137 0.126953 14.3457-0.185547 14.3457-0.673828C14.3457-0.839844 14.3164-0.986328 14.2383-1.20117L9.6582-13.3887C9.43359-13.9941 9.0332-14.2871 8.4082-14.2871C7.80273-14.2871 7.39258-13.9941 7.17773-13.3984L2.59766-1.19141C2.51953-0.976562 2.49023-0.830078 2.49023-0.664062C2.49023-0.175781 2.80273 0.126953 3.31055 0.126953ZM6.00586-5.53711L8.37891-12.1094L8.42773-12.1094L10.8008-5.53711Z"/>
  </g>
  <line id="" style="fill:none;stroke:#00AEEF;stroke-width:0.5;opacity:1.0;" x1="792.836" x2="792.836" y1="1919" y2="1933"/>
  <text style="stroke:none;fill:black;font-family:-apple-system,&quot;SF Pro Display&quot;,&quot;SF Pro Text&quot;,Helvetica,sans-serif;font-weight:bold;" transform="matrix(1 0 0 1 776 1953)">Margins</text>
  <text style="stroke:none;fill:black;font-family:-apple-system,&quot;SF Pro Display&quot;,&quot;SF Pro Text&quot;,Helvetica,sans-serif;" transform="matrix(1 0 0 1 776 1971)">Leading and trailing margins on the left and right side of each symbol</text>
  <text style="stroke:none;fill:black;font-family:-apple-system,&quot;SF Pro Display&quot;,&quot;SF Pro Text&quot;,Helvetica,sans-serif;" transform="matrix(1 0 0 1 776 1989)">can be adjusted by modifying the x-location of the margin guidelines.</text>
  <text style="stroke:none;fill:black;font-family:-apple-system,&quot;SF Pro Display&quot;,&quot;SF Pro Text&quot;,Helvetica,sans-serif;" transform="matrix(1 0 0 1 776 2007)">Modifications are automatically applied proportionally to all</text>
  <text style="stroke:none;fill:black;font-family:-apple-system,&quot;SF Pro Display&quot;,&quot;SF Pro Text&quot;,Helvetica,sans-serif;" transform="matrix(1 0 0 1 776 2025)">scales and weights.</text>
  <g id="" transform="matrix(1 0 0 1 1289 1933)">
   <path d="M2.8418 1.86523L4.54102 3.57422C5.40039 4.44336 6.38672 4.38477 7.31445 3.35938L17.4902-7.85156C17.7539-7.76367 18.0273-7.7832 18.3398-7.8418L19.4043-8.03711L20.0684-7.36328L20.0293-6.80664C19.9902-6.30859 20.1172-5.92773 20.6055-5.44922L21.3672-4.70703C21.8457-4.22852 22.4609-4.19922 22.9297-4.66797L25.8398-7.58789C26.3086-8.05664 26.2891-8.65234 25.8105-9.13086L25.0391-9.89258C24.5605-10.3711 24.1895-10.5273 23.7109-10.4883L23.1348-10.4395L22.4902-11.0742L22.7344-12.1973C22.8613-12.7637 22.7051-13.2031 22.1191-13.7891L19.9219-15.9766C16.582-19.2969 12.1484-19.2188 9.25781-16.3281C8.83789-15.918 8.80859-15.3418 9.04297-14.9512C9.27734-14.5898 9.73633-14.3555 10.3809-14.5215C11.8457-14.8633 13.3691-14.9219 14.7949-13.9844L14.209-12.5293C14.0137-12.0508 13.9844-11.6504 14.1113-11.2891L3.04688-0.898438C2.06055 0.0195312 1.98242 0.996094 2.8418 1.86523ZM10.752-15.957C13.1836-17.7344 16.4746-17.4316 18.7012-15.2051L21.1328-12.793C21.3672-12.5586 21.4062-12.373 21.3379-12.0312L21.0156-10.5469L22.5195-9.0625L23.5059-9.12109C23.7598-9.13086 23.8379-9.11133 24.0332-8.91602L24.6094-8.33984L22.168-5.89844L21.5918-6.47461C21.3965-6.66992 21.3672-6.74805 21.377-7.01172L21.4453-7.98828L19.9512-9.47266L18.4277-9.21875C18.1055-9.15039 17.959-9.17969 17.7148-9.41406L15.7129-11.416C15.459-11.6504 15.4297-11.8164 15.5859-12.1875L16.4648-14.2773C14.9023-15.7324 12.8711-16.3574 10.8398-15.7617C10.6836-15.7227 10.625-15.8496 10.752-15.957ZM5.27344 2.30469L4.10156 1.14258C3.63281 0.683594 3.74023 0.341797 4.14062-0.0195312L14.9512-10.1953L16.416-8.71094L6.42578 2.27539C6.07422 2.67578 5.74219 2.77344 5.27344 2.30469Z"/>
  </g>
  <text style="stroke:none;fill:black;font-family:-apple-system,&quot;SF Pro Display&quot;,&quot;SF Pro Text&quot;,Helvetica,sans-serif;font-weight:bold;" transform="matrix(1 0 0 1 1289 1953)">Exporting</text>
  <text style="stroke:none;fill:black;font-family:-apple-system,&quot;SF Pro Display&quot;,&quot;SF Pro Text&quot;,Helvetica,sans-serif;" transform="matrix(1 0 0 1 1289 1971)">Symbols should be outlined when exporting to ensure the</text>
  <text style="stroke:none;fill:black;font-family:-apple-system,&quot;SF Pro Display&quot;,&quot;SF Pro Text&quot;,Helvetica,sans-serif;" transform="matrix(1 0 0 1 1289 1989)">design is preserved when submitting to Xcode.</text>
  <text id="template-version" style="stroke:none;fill:black;font-family:-apple-system,&quot;SF Pro Display&quot;,&quot;SF Pro Text&quot;,Helvetica,sans-serif;text-anchor:end;" transform="matrix(1 0 0 1 3036 1933)">Template v.2.0</text>
  <text style="stroke:none;fill:black;font-family:-apple-system,&quot;SF Pro Display&quot;,&quot;SF Pro Text&quot;,Helvetica,sans-serif;text-anchor:end;" transform="matrix(1 0 0 1 3036 1951)">Requires Xcode 12 or greater</text>
  <text style="stroke:none;fill:black;font-family:-apple-system,&quot;SF Pro Display&quot;,&quot;SF Pro Text&quot;,Helvetica,sans-serif;text-anchor:end;" transform="matrix(1 0 0 1 3036 1969)">Generated from bell.fill</text>
  <text style="stroke:none;fill:black;font-family:-apple-system,&quot;SF Pro Display&quot;,&quot;SF Pro Text&quot;,Helvetica,sans-serif;text-anchor:end;" transform="matrix(1 0 0 1 3036 1987)">Typeset at 100 points</text>
  <text style="stroke:none;fill:black;font-family:-apple-system,&quot;SF Pro Display&quot;,&quot;SF Pro Text&quot;,Helvetica,sans-serif;" transform="matrix(1 0 0 1 263 726)">Small</text>
  <text style="stroke:none;fill:black;font-family:-apple-system,&quot;SF Pro Display&quot;,&quot;SF Pro Text&quot;,Helvetica,sans-serif;" transform="matrix(1 0 0 1 263 1156)">Medium</text>
  <text style="stroke:none;fill:black;font-family:-apple-system,&quot;SF Pro Display&quot;,&quot;SF Pro Text&quot;,Helvetica,sans-serif;" transform="matrix(1 0 0 1 263 1586)">Large</text>
 </g>
 <g id="Guides">
  <g id="H-reference" style="fill:#27AAE1;stroke:none;" transform="matrix(1 0 0 1 339 696)">
   <path d="M0.976562 0L3.66211 0L12.9883-24.4629L45.752-24.4629L55.127 0L57.7637 0L30.6152-70.459L28.125-70.459ZM29.3457-67.1387L29.4434-67.1387L44.873-26.709L13.8672-26.709Z"/>
  </g>
  <line id="Baseline-S" style="fill:none;stroke:#27AAE1;opacity:1;stroke-width:0.5;" x1="263" x2="3036" y1="696" y2="696"/>
  <line id="Capline-S" style="fill:none;stroke:#27AAE1;opacity:1;stroke-width:0.5;" x1="263" x2="3036" y1="625.541" y2="625.541"/>
  <g id="H-reference" style="fill:#27AAE1;stroke:none;" transform="matrix(1 0 0 1 339 1126)">
   <path d="M0.976562 0L3.66211 0L12.9883-24.4629L45.752-24.4629L55.127 0L57.7637 0L30.6152-70.459L28.125-70.459ZM29.3457-67.1387L29.4434-67.1387L44.873-26.709L13.8672-26.709Z"/>
  </g>
  <line id="Baseline-M" style="fill:none;stroke:#27AAE1;opacity:1;stroke-width:0.5;" x1="263" x2="3036" y1="1126" y2="1126"/>
  <line id="Capline-M" style="fill:none;stroke:#27AAE1;opacity:1;stroke-width:0.5;" x1="263" x2="3036" y1="1055.54" y2="1055.54"/>
  <g id="H-reference" style="fill:#27AAE1;stroke:none;" transform="matrix(1 0 0 1 339 1556)">
   <path d="M0.976562 0L3.66211 0L12.9883-24.4629L45.752-24.4629L55.127 0L57.7637 0L30.6152-70.459L28.125-70.459ZM29.3457-67.1387L29.4434-67.1387L44.873-26.709L13.8672-26.709Z"/>
  </g>
  <line id="Baseline-L" style="fill:none;stroke:#27AAE1;opacity:1;stroke-width:0.5;" x1="263" x2="3036" y1="1556" y2="1556"/>
  <line id="Capline-L" style="fill:none;stroke:#27AAE1;opacity:1;stroke-width:0.5;" x1="263" x2="3036" y1="1485.54" y2="1485.54"/>
  <line id="left-margin" style="fill:none;stroke:#00AEEF;stroke-width:0.5;opacity:1.0;" x1="1393.42" x2="1393.42" y1="1030.79" y2="1150.12"/>
  <line id="right-margin" style="fill:none;stroke:#00AEEF;stroke-width:0.5;opacity:1.0;" x1="1506.27" x2="1506.27" y1="1030.79" y2="1150.12"/>
 </g>
 <g id="Symbols">
  <g id="Black-L" transform="matrix(1 0 0 1 2855.96 1556)">
   <path d="M26.0742 5.41992L128.76 5.41992C137.158 5.41992 142.627 0.244141 142.627-7.42188C142.627-15.1367 137.402-21.0449 131.152-25.9766C126.074-29.8828 125.146-38.8184 123.486-49.9023C121.191-70.2148 113.232-85.791 98.1445-91.3574C94.8242-99.8535 86.8652-105.957 77.4414-105.957C68.0176-105.957 60.0586-99.8535 56.7383-91.3574C41.6016-85.791 33.6914-70.2148 31.3965-49.9023C29.6875-38.8184 28.8086-29.8828 23.7305-25.9766C17.4316-21.0449 12.2559-15.1367 12.2559-7.42188C12.2559 0.244141 17.7246 5.41992 26.0742 5.41992ZM77.4414 34.0332C90.0879 34.0332 99.4141 25.4395 100.146 15.0391L54.7363 15.0391C55.4688 25.4395 64.7461 34.0332 77.4414 34.0332Z"/>
  </g>
  <g id="Heavy-L" transform="matrix(1 0 0 1 2560.35 1556)">
   <path d="M25.1465 5.66406L127.539 5.66406C135.156 5.66406 140.039 1.07422 140.039-5.71289C140.039-13.0859 134.619-18.9453 128.564-24.0234C123.535-28.2227 122.705-37.5 121.191-48.0469C119.238-68.8477 111.67-84.4727 96.2891-89.9902C93.2617-98.4863 85.6934-104.639 76.3672-104.639C67.041-104.639 59.4238-98.4863 56.3965-89.9902C41.0156-84.4727 33.4473-68.8477 31.4941-48.0469C30.0293-37.5 29.1504-28.2227 24.1699-24.0234C18.1152-18.9453 12.6465-13.0859 12.6465-5.71289C12.6465 1.07422 17.5781 5.66406 25.1465 5.66406ZM76.3672 33.1543C88.4766 33.1543 97.3633 24.8047 98.1445 14.8926L54.5898 14.8926C55.3223 24.8047 64.209 33.1543 76.3672 33.1543Z"/>
  </g>
  <g id="Bold-L" transform="matrix(1 0 0 1 2264.83 1556)">
   <path d="M24.0723 5.95703L126.172 5.95703C132.91 5.95703 137.158 2.05078 137.158-3.75977C137.158-10.791 131.445-16.5527 125.635-21.8262C120.752-26.3184 119.922-35.9863 118.652-46.0449C117.09-67.334 109.912-82.959 94.2383-88.4766C91.5039-96.9238 84.3262-103.125 75.1465-103.125C65.9668-103.125 58.7891-96.9238 56.0547-88.4766C40.3809-82.959 33.2031-67.334 31.6406-46.0449C30.3711-35.9863 29.541-26.3184 24.6094-21.8262C18.7988-16.5527 13.1348-10.791 13.1348-3.75977C13.1348 2.05078 17.3828 5.95703 24.0723 5.95703ZM75.1465 32.2266C86.6699 32.2266 95.0684 24.1699 95.8984 14.6973L54.3457 14.6973C55.2246 24.1699 63.623 32.2266 75.1465 32.2266Z"/>
  </g>
  <g id="Semibold-L" transform="matrix(1 0 0 1 1968.95 1556)">
   <path d="M23.3398 6.15234L125.244 6.15234C131.348 6.15234 135.205 2.68555 135.205-2.44141C135.205-9.22852 129.297-14.8926 123.633-20.3125C118.799-25.0488 117.969-35.0098 116.895-44.6289C115.576-66.2598 108.691-81.9336 92.8223-87.4512C90.332-95.8496 83.3984-102.1 74.3164-102.1C65.1855-102.1 58.3008-95.8496 55.8105-87.4512C39.8926-81.9336 33.0078-66.2598 31.7383-44.6289C30.6152-35.0098 29.834-25.0488 24.9512-20.3125C19.3359-14.8926 13.4277-9.22852 13.4277-2.44141C13.4277 2.68555 17.2363 6.15234 23.3398 6.15234ZM74.3164 31.543C85.4004 31.543 93.457 23.7305 94.3848 14.5508L54.248 14.5508C55.127 23.7305 63.1836 31.543 74.3164 31.543Z"/>
  </g>
  <g id="Medium-L" transform="matrix(1 0 0 1 1672.87 1556)">
   <path d="M22.8027 6.34766L124.512 6.34766C130.176 6.34766 133.691 3.22266 133.691-1.46484C133.691-8.05664 127.637-13.6719 122.119-19.1406C117.285-24.0234 116.553-34.2285 115.527-43.5547C114.453-65.4785 107.812-81.1523 91.6992-86.6699C89.4043-95.0195 82.7148-101.318 73.6816-101.318C64.6484-101.318 57.959-95.0195 55.6152-86.6699C39.5508-81.1523 32.9102-65.4785 31.7871-43.5547C30.8105-34.2285 30.0293-24.0234 25.1953-19.1406C19.6777-13.6719 13.6719-8.05664 13.6719-1.46484C13.6719 3.22266 17.1387 6.34766 22.8027 6.34766ZM73.6816 31.0547C84.4727 31.0547 92.2852 23.3887 93.2129 14.4531L54.1016 14.4531C55.0781 23.3887 62.8906 31.0547 73.6816 31.0547Z"/>
  </g>
  <g id="Regular-L" transform="matrix(1 0 0 1 1376.99 1556)">
   <path d="M22.0703 6.54297L123.584 6.54297C128.662 6.54297 131.738 3.85742 131.738-0.146484C131.738-6.49414 125.488-12.0605 120.166-17.627C115.381-22.7539 114.648-33.2031 113.818-42.1387C112.988-64.4043 106.592-80.127 90.332-85.6445C88.1836-93.9941 81.7871-100.293 72.8516-100.293C63.916-100.293 57.5195-93.9941 55.3711-85.6445C39.1113-80.127 32.7148-64.4043 31.8848-42.1387C31.0547-33.2031 30.3223-22.7539 25.5371-17.627C20.166-12.0605 13.9648-6.49414 13.9648-0.146484C13.9648 3.85742 17.041 6.54297 22.0703 6.54297ZM72.8516 30.4199C83.252 30.4199 90.6738 22.9004 91.6992 14.3066L54.0039 14.3066C54.9805 22.9004 62.4512 30.4199 72.8516 30.4199Z"/>
  </g>
  <g id="Light-L" transform="matrix(1 0 0 1 1080.26 1556)">
   <path d="M20.9961 6.25L124.756 6.25C128.613 6.25 131.006 4.10156 131.006 0.878906C131.006-5.51758 125-10.9375 119.824-16.5527C114.209-22.7051 114.014-35.1562 112.646-46.4355C111.328-66.0645 104.98-80.4688 89.3555-85.2539C87.5977-93.7988 81.3477-99.8535 72.9004-99.8535C64.4043-99.8535 58.1543-93.7988 56.3965-85.2539C40.7715-80.4688 34.4238-66.0645 33.1055-46.4355C31.7871-35.1562 31.543-22.7051 25.9277-16.5527C20.752-10.9375 14.7461-5.51758 14.7461 0.878906C14.7461 4.10156 17.1387 6.25 20.9961 6.25ZM72.9004 28.2715C82.8125 28.2715 89.8438 21.1914 91.0645 12.9395L54.6875 12.9395C55.9082 21.1914 62.9395 28.2715 72.9004 28.2715Z"/>
  </g>
  <g id="Thin-L" transform="matrix(1 0 0 1 783.497 1556)">
   <path d="M19.5801 5.85938L126.27 5.85938C128.516 5.85938 130.029 4.39453 130.029 2.19727C130.029-4.24805 124.316-9.52148 119.385-15.0879C112.646-22.6074 113.135-37.793 111.133-52.0996C109.131-68.2129 102.832-80.957 88.0859-84.7656C86.8164-93.5547 80.8105-99.2676 72.9004-99.2676C65.0391-99.2676 59.0332-93.5547 57.7637-84.7656C42.9688-80.957 36.7188-68.2129 34.7168-52.0996C32.7148-37.793 33.1543-22.6074 26.4648-15.0879C21.4844-9.52148 15.7715-4.24805 15.7715 2.19727C15.7715 4.39453 17.334 5.85938 19.5801 5.85938ZM72.9004 25.4883C82.3242 25.4883 88.7207 18.9453 90.2832 11.084L55.5664 11.084C57.0801 18.9453 63.5254 25.4883 72.9004 25.4883Z"/>
  </g>
  <g id="Ultralight-L" transform="matrix(1 0 0 1 486.786 1556)">
   <path d="M18.8477 5.66406L127.002 5.66406C128.467 5.66406 129.541 4.54102 129.541 2.83203C129.541-3.61328 123.975-8.78906 119.141-14.3066C111.865-22.5586 112.695-39.1113 110.352-55.0293C108.008-69.3359 101.758-81.25 87.4023-84.5215C86.377-93.457 80.5176-98.9746 72.9492-98.9746C65.3809-98.9746 59.4727-93.457 58.4473-84.5215C44.1406-81.25 37.8418-69.3359 35.5469-55.0293C33.2031-39.1113 33.9844-22.5586 26.7578-14.3066C21.875-8.78906 16.3086-3.61328 16.3086 2.83203C16.3086 4.54102 17.3828 5.66406 18.8477 5.66406ZM72.9492 24.0234C82.0312 24.0234 88.1836 17.8223 89.8438 10.1074L56.0059 10.1074C57.7148 17.8223 63.8184 24.0234 72.9492 24.0234Z"/>
  </g>
  <g id="Black-M" transform="matrix(1 0 0 1 2871.88 1126)">
   <path d="M20.9473-4.24805L102.1-4.24805C108.984-4.24805 113.623-8.78906 113.623-15.4785C113.623-21.9238 110.059-26.5137 104.98-30.127C100.537-33.3008 100.049-40.8691 98.1934-51.3672C95.7031-65.0879 89.0625-76.416 78.0762-80.3223C75.3418-87.0605 68.75-91.6016 61.5234-91.6016C54.2969-91.6016 47.7539-87.0605 44.9707-80.3223C33.9844-76.416 27.3438-65.0879 24.8535-51.3672C22.998-40.8691 22.5586-33.3008 18.0664-30.127C12.9883-26.5137 9.42383-21.9238 9.42383-15.4785C9.42383-8.78906 14.0625-4.24805 20.9473-4.24805ZM61.5234 18.457C71.875 18.457 79.4434 11.6699 79.9805 3.22266L43.0664 3.22266C43.6523 11.6699 51.2207 18.457 61.5234 18.457Z"/>
  </g>
  <g id="Heavy-M" transform="matrix(1 0 0 1 2576.36 1126)">
   <path d="M20.2148-3.90625L100.439-3.90625C106.787-3.90625 110.986-7.91016 110.986-13.8672C110.986-19.9219 107.129-24.5117 102.246-28.2715C98.0469-31.4941 97.5098-38.8672 95.9961-48.2422C93.9941-63.1348 87.7441-74.8535 76.3184-78.9551C73.7793-85.5957 67.5293-90.2832 60.3027-90.2832C53.125-90.2832 46.875-85.5957 44.3359-78.9551C32.9102-74.8535 26.6602-63.1348 24.6582-48.2422C23.1445-38.8672 22.6074-31.4941 18.4082-28.2715C13.5254-24.5117 9.61914-19.9219 9.61914-13.8672C9.61914-7.91016 13.8184-3.90625 20.2148-3.90625ZM60.3027 18.0664C70.166 18.0664 77.3926 11.4746 77.9785 3.36914L42.6758 3.36914C43.2617 11.4746 50.4883 18.0664 60.3027 18.0664Z"/>
  </g>
  <g id="Bold-M" transform="matrix(1 0 0 1 2280.99 1126)">
   <path d="M19.3359-3.4668L98.6328-3.4668C104.346-3.4668 108.057-6.93359 108.057-12.0117C108.057-17.7246 103.809-22.2168 99.1211-26.1719C95.3125-29.4434 94.6289-36.6699 93.5059-44.7754C92.0898-60.9863 86.2793-73.1445 74.3164-77.3926C72.0215-83.9844 66.2109-88.7695 58.9844-88.7695C51.7578-88.7695 45.9473-83.9844 43.6523-77.3926C31.6406-73.1445 25.8789-60.9863 24.4141-44.7754C23.3398-36.6699 22.6562-29.4434 18.7988-26.1719C14.1602-22.2168 9.91211-17.7246 9.91211-12.0117C9.91211-6.93359 13.5742-3.4668 19.3359-3.4668ZM58.9844 17.6758C68.2617 17.6758 75.0977 11.2305 75.6836 3.61328L42.2363 3.61328C42.8711 11.2305 49.6582 17.6758 58.9844 17.6758Z"/>
  </g>
  <g id="Semibold-M" transform="matrix(1 0 0 1 1985.23 1126)">
   <path d="M18.75-3.17383L97.3633-3.17383C102.686-3.17383 106.006-6.25 106.006-10.791C106.006-16.1621 101.514-20.6543 97.0215-24.7559C93.4082-28.0762 92.627-35.1562 91.7969-42.334C90.7715-59.5215 85.2539-71.9238 72.9492-76.3672C70.8008-82.8613 65.2344-87.7441 58.0566-87.7441C50.8301-87.7441 45.3125-82.8613 43.1641-76.3672C30.8105-71.9238 25.293-59.5215 24.2676-42.334C23.4375-35.1562 22.7051-28.0762 19.0918-24.7559C14.5508-20.6543 10.0586-16.1621 10.0586-10.791C10.0586-6.25 13.4277-3.17383 18.75-3.17383ZM58.0566 17.3828C66.9922 17.3828 73.4863 11.084 74.1211 3.71094L41.9434 3.71094C42.5781 11.084 49.1211 17.3828 58.0566 17.3828Z"/>
  </g>
  <g id="Medium-M" transform="matrix(1 0 0 1 1689.21 1126)">
   <path d="M18.3105-2.97852L96.3867-2.97852C101.416-2.97852 104.492-5.71289 104.492-9.81445C104.492-14.9902 99.8047-19.4336 95.4102-23.6328C91.9434-27.002 91.1621-34.0332 90.5273-40.5273C89.7461-58.3984 84.5215-70.9961 71.875-75.5371C69.873-81.9824 64.5508-86.9629 57.3242-86.9629C50.1465-86.9629 44.8242-81.9824 42.7734-75.5371C30.1758-70.9961 24.9023-58.3984 24.1699-40.5273C23.5352-34.0332 22.7051-27.002 19.2871-23.6328C14.8926-19.4336 10.2051-14.9902 10.2051-9.81445C10.2051-5.71289 13.2812-2.97852 18.3105-2.97852ZM57.3242 17.1387C66.0156 17.1387 72.3145 10.9375 72.9492 3.85742L41.748 3.85742C42.3828 10.9375 48.6816 17.1387 57.3242 17.1387Z"/>
  </g>
  <g id="Regular-M" transform="matrix(1 0 0 1 1393.42 1126)">
   <path d="M17.7246-2.68555L95.1172-2.68555C99.707-2.68555 102.49-5.07812 102.49-8.59375C102.49-13.4766 97.5098-17.8711 93.3105-22.2168C90.0879-25.5859 89.209-32.5195 88.8184-38.1348C88.4766-56.8848 83.4961-69.8242 70.5078-74.5117C68.6523-80.8594 63.623-85.9375 56.3965-85.9375C49.2188-85.9375 44.1406-80.8594 42.334-74.5117C29.3457-69.8242 24.3652-56.8848 24.0234-38.1348C23.6328-32.5195 22.7539-25.5859 19.5312-22.2168C15.2832-17.8711 10.3516-13.4766 10.3516-8.59375C10.3516-5.07812 13.0859-2.68555 17.7246-2.68555ZM56.3965 16.8457C64.6973 16.8457 70.752 10.791 71.3867 3.95508L41.4551 3.95508C42.0898 10.791 48.1445 16.8457 56.3965 16.8457Z"/>
  </g>
  <g id="Light-M" transform="matrix(1 0 0 1 1096.69 1126)">
   <path d="M16.748-2.97852L96.1426-2.97852C99.6582-2.97852 101.855-4.88281 101.855-7.71484C101.855-12.6465 97.0703-16.8945 92.9688-21.2402C89.0137-25.5371 88.623-34.3262 87.793-41.9922C87.0117-58.3984 82.0801-70.1172 69.6777-74.1699C68.1152-80.7129 63.2324-85.498 56.4453-85.498C49.6582-85.498 44.7754-80.7129 43.2617-74.1699C30.8105-70.1172 25.9277-58.3984 25.0977-41.9922C24.2676-34.3262 23.877-25.5371 19.9219-21.2402C15.8203-16.8945 11.084-12.6465 11.084-7.71484C11.084-4.88281 13.2324-2.97852 16.748-2.97852ZM56.4453 14.9414C64.3555 14.9414 69.9707 9.27734 70.8496 2.73438L42.041 2.73438C42.9199 9.27734 48.5352 14.9414 56.4453 14.9414Z"/>
  </g>
  <g id="Thin-M" transform="matrix(1 0 0 1 799.928 1126)">
   <path d="M15.4785-3.32031L97.5098-3.32031C99.6094-3.32031 100.977-4.58984 100.977-6.54297C100.977-11.4746 96.4844-15.625 92.5781-19.9219C87.6465-25.4395 87.8418-36.6699 86.4258-47.0703C85.0586-60.3516 80.1758-70.5566 68.5059-73.7305C67.4316-80.4688 62.7441-85.0098 56.4941-85.0098C50.2441-85.0098 45.5566-80.4688 44.4824-73.7305C32.8125-70.5566 27.9297-60.3516 26.5137-47.0703C25.1465-36.6699 25.3418-25.4395 20.3613-19.9219C16.5039-15.625 12.0117-11.4746 12.0117-6.54297C12.0117-4.58984 13.3789-3.32031 15.4785-3.32031ZM56.4941 12.4023C63.916 12.4023 68.9941 7.27539 70.1172 1.02539L42.8711 1.02539C43.9941 7.27539 49.0723 12.4023 56.4941 12.4023Z"/>
  </g>
  <g id="Ultralight-M" transform="matrix(1 0 0 1 503.193 1126)">
   <path d="M14.8438-3.4668L98.1934-3.4668C99.5605-3.4668 100.537-4.44336 100.537-5.9082C100.537-10.8887 96.1914-14.9414 92.3828-19.2383C86.9141-25.3906 87.4512-37.8418 85.7422-49.6582C84.0332-61.3281 79.1992-70.8008 67.9199-73.4863C67.0898-80.3711 62.4512-84.7168 56.4941-84.7168C50.5371-84.7168 45.9473-80.3711 45.1172-73.4863C33.8379-70.8008 29.0039-61.3281 27.2949-49.6582C25.5859-37.8418 26.0742-25.3906 20.6543-19.2383C16.8457-14.9414 12.5-10.8887 12.5-5.9082C12.5-4.44336 13.4277-3.4668 14.8438-3.4668ZM56.4941 11.1328C63.6719 11.1328 68.5059 6.25 69.7754 0.195312L43.2617 0.195312C44.5312 6.25 49.3652 11.1328 56.4941 11.1328Z"/>
  </g>
  <g id="Black-S" transform="matrix(1 0 0 1 2885.3 696)">
   <path d="M16.3574-10.9375L79.834-10.9375C85.2051-10.9375 88.8184-14.4531 88.8184-19.6289C88.8184-24.6582 85.9863-28.2715 82.0312-31.1035C78.5645-33.5938 78.1738-39.4531 76.7578-47.5586C74.8535-58.4473 69.6777-67.3828 61.0352-70.459C58.8867-75.7324 53.7598-79.2969 48.0957-79.2969C42.4316-79.2969 37.3047-75.7324 35.1562-70.459C26.5137-67.3828 21.3379-58.4473 19.4336-47.5586C18.0176-39.4531 17.627-33.5938 14.1602-31.1035C10.2051-28.2715 7.37305-24.6582 7.37305-19.6289C7.37305-14.4531 10.9863-10.9375 16.3574-10.9375ZM48.0957 6.83594C56.1523 6.83594 62.0605 1.51367 62.5-5.07812L33.6914-5.07812C34.1309 1.51367 40.0391 6.83594 48.0957 6.83594Z"/>
  </g>
  <g id="Heavy-S" transform="matrix(1 0 0 1 2589.52 696)">
   <path d="M15.8691-10.6445L78.4668-10.6445C83.5449-10.6445 86.8652-13.8184 86.8652-18.5059C86.8652-23.2422 83.7891-26.8066 79.9316-29.7852C76.8066-32.2266 76.2695-37.7441 75.1953-44.7266C73.7305-56.7871 68.8477-66.1621 59.7656-69.4336C57.7637-74.6094 52.8809-78.3203 47.168-78.3203C41.4551-78.3203 36.6211-74.6094 34.5703-69.4336C25.4883-66.1621 20.6543-56.7871 19.1406-44.7266C18.0664-37.7441 17.5293-32.2266 14.4043-29.7852C10.5469-26.8066 7.4707-23.2422 7.4707-18.5059C7.4707-13.8184 10.791-10.6445 15.8691-10.6445ZM47.168 6.73828C54.8828 6.73828 60.5957 1.51367 61.0352-4.78516L33.3496-4.78516C33.7891 1.51367 39.4531 6.73828 47.168 6.73828Z"/>
  </g>
  <g id="Bold-S" transform="matrix(1 0 0 1 2293.84 696)">
   <path d="M15.332-10.2539L76.9531-10.2539C81.6895-10.2539 84.7168-13.0859 84.7168-17.2363C84.7168-21.6309 81.2988-25.1953 77.6367-28.3203C74.8047-30.6641 74.1699-35.8398 73.4375-41.6016C72.4609-54.9805 67.9199-64.7949 58.3496-68.3105C56.4941-73.3887 51.9043-77.1973 46.1426-77.1973C40.3809-77.1973 35.791-73.3887 33.9355-68.3105C24.3652-64.7949 19.8242-54.9805 18.8477-41.6016C18.1152-35.8398 17.4805-30.6641 14.6484-28.3203C10.9863-25.1953 7.56836-21.6309 7.56836-17.2363C7.56836-13.0859 10.5957-10.2539 15.332-10.2539ZM46.1426 6.64062C53.5156 6.64062 58.9355 1.5625 59.375-4.49219L32.9102-4.49219C33.3496 1.5625 38.7695 6.64062 46.1426 6.64062Z"/>
  </g>
  <g id="Semibold-S" transform="matrix(1 0 0 1 1997.83 696)">
   <path d="M14.9902-10.0098L75.8789-10.0098C80.4199-10.0098 83.2031-12.5488 83.2031-16.3574C83.2031-20.5566 79.5898-24.0723 76.0254-27.2949C73.4375-29.5898 72.7051-34.5215 72.2168-39.4531C71.582-53.7109 67.2363-63.8184 57.373-67.5293C55.6152-72.5586 51.2207-76.4648 45.4102-76.4648C39.6484-76.4648 35.2539-72.5586 33.4961-67.5293C23.584-63.8184 19.2871-53.7109 18.6523-39.4531C18.1641-34.5215 17.3828-29.5898 14.8438-27.2949C11.2305-24.0723 7.61719-20.5566 7.61719-16.3574C7.61719-12.5488 10.4492-10.0098 14.9902-10.0098ZM45.4102 6.5918C52.5391 6.5918 57.7637 1.5625 58.2031-4.29688L32.666-4.29688C33.0566 1.5625 38.3301 6.5918 45.4102 6.5918Z"/>
  </g>
  <g id="Medium-S" transform="matrix(1 0 0 1 1701.66 696)">
   <path d="M14.6973-9.86328L75.0488-9.86328C79.4434-9.86328 82.0801-12.207 82.0801-15.6738C82.0801-19.7266 78.3203-23.2422 74.8047-26.5137C72.4121-28.7598 71.582-33.5449 71.2891-37.793C70.8984-52.7344 66.748-63.0859 56.6406-66.9434C54.9316-71.9238 50.6836-75.8789 44.873-75.8789C39.0625-75.8789 34.8633-71.9238 33.1543-66.9434C22.998-63.0859 18.8965-52.7344 18.457-37.793C18.1641-33.5449 17.334-28.7598 14.9414-26.5137C11.4746-23.2422 7.71484-19.7266 7.71484-15.6738C7.71484-12.207 10.3516-9.86328 14.6973-9.86328ZM44.873 6.54297C51.8066 6.54297 56.9336 1.5625 57.3242-4.10156L32.4219-4.10156C32.8613 1.5625 37.9395 6.54297 44.873 6.54297Z"/>
  </g>
  <g id="Regular-S" transform="matrix(1 0 0 1 1405.66 696)">
   <path d="M14.3555-9.61914L74.0234-9.61914C78.1738-9.61914 80.6152-11.6699 80.6152-14.7949C80.6152-18.6035 76.6113-22.1191 73.2422-25.5371C71.0449-27.7344 70.166-32.2754 70.0684-35.6445C70.0195-51.5137 66.1133-62.1582 55.6641-66.1621C54.0527-71.0449 50.0488-75.1465 44.1895-75.1465C38.3301-75.1465 34.3262-71.0449 32.7148-66.1621C22.2656-62.1582 18.3594-51.5137 18.2617-35.6445C18.2129-32.2754 17.2852-27.7344 15.1367-25.5371C11.7188-22.1191 7.76367-18.6035 7.76367-14.7949C7.76367-11.6699 10.2051-9.61914 14.3555-9.61914ZM44.1895 6.49414C50.8789 6.49414 55.7617 1.5625 56.2012-3.90625L32.1777-3.90625C32.5684 1.5625 37.5 6.49414 44.1895 6.49414Z"/>
  </g>
  <g id="Light-S" transform="matrix(1 0 0 1 1108.92 696)">
   <path d="M13.4766-9.86328L74.9512-9.86328C78.125-9.86328 80.0293-11.5234 80.0293-14.0137C80.0293-17.8711 76.2207-21.2402 72.9492-24.6582C70.166-27.6855 69.6289-33.8379 69.1895-39.0625C68.7012-52.7832 64.8438-62.4512 54.9316-65.8691C53.6133-70.8984 49.707-74.8047 44.2383-74.8047C38.7207-74.8047 34.8633-70.8984 33.5449-65.8691C23.584-62.4512 19.7266-52.7832 19.2383-39.0625C18.7988-33.8379 18.2617-27.6855 15.4785-24.6582C12.207-21.2402 8.39844-17.8711 8.39844-14.0137C8.39844-11.5234 10.3027-9.86328 13.4766-9.86328ZM44.2383 4.78516C50.5371 4.78516 55.127 0.244141 55.7129-5.0293L32.7148-5.0293C33.3008 0.244141 37.8906 4.78516 44.2383 4.78516Z"/>
  </g>
  <g id="Thin-S" transform="matrix(1 0 0 1 812.16 696)">
   <path d="M12.4023-10.1562L76.123-10.1562C78.0762-10.1562 79.2969-11.2793 79.2969-12.9883C79.2969-16.8457 75.7324-20.1172 72.6074-23.4863C68.9453-27.5879 68.9941-35.8887 68.0176-43.5547C66.9922-54.541 63.1836-62.8418 53.9062-65.4785C52.9785-70.752 49.2676-74.3164 44.2383-74.3164C39.2578-74.3164 35.5469-70.752 34.6191-65.4785C25.3418-62.8418 21.5332-54.541 20.5078-43.5547C19.5312-35.8887 19.5801-27.5879 15.8691-23.4863C12.793-20.1172 9.22852-16.8457 9.22852-12.9883C9.22852-11.2793 10.4492-10.1562 12.4023-10.1562ZM44.2383 2.58789C50.1465 2.58789 54.248-1.5625 55.0781-6.49414L33.4473-6.49414C34.2773-1.5625 38.3789 2.58789 44.2383 2.58789Z"/>
  </g>
  <g id="Ultralight-S" transform="matrix(1 0 0 1 515.424 696)">
   <path d="M11.8164-10.3027L76.7578-10.3027C78.0273-10.3027 78.9062-11.1816 78.9062-12.4512C78.9062-16.3086 75.4395-19.5312 72.4609-22.9004C68.3105-27.5391 68.6523-36.9629 67.3828-45.8496C66.1133-55.4199 62.3047-63.0371 53.418-65.2832C52.6855-70.6055 49.0234-74.0723 44.2871-74.0723C39.5508-74.0723 35.8887-70.6055 35.1562-65.2832C26.2695-63.0371 22.4609-55.4199 21.1914-45.8496C19.9219-36.9629 20.2637-27.5391 16.1133-22.9004C13.1348-19.5312 9.66797-16.3086 9.66797-12.4512C9.66797-11.1816 10.5469-10.3027 11.8164-10.3027ZM44.2871 1.41602C49.9512 1.41602 53.8086-2.49023 54.7852-7.22656L33.7891-7.22656C34.7656-2.49023 38.623 1.41602 44.2871 1.41602Z"/>
  </g>
 </g>
</svg>
