<?xml version="1.0" encoding="UTF-8"?>
<!--Generator: Apple Native CoreSVG 149-->
<!DOCTYPE svg
PUBLIC "-//W3C//DTD SVG 1.1//EN"
       "http://www.w3.org/Graphics/SVG/1.1/DTD/svg11.dtd">
<svg version="1.1" xmlns="http://www.w3.org/2000/svg" xmlns:xlink="http://www.w3.org/1999/xlink" width="3300" height="2200">
 <!--glyph: "uni10031F.medium", point size: 100.000000, font version: "Version 16.0d18e1", template writer version: "8"-->
 <g id="Notes">
  <rect height="2200" id="artboard" style="fill:white;opacity:1" width="3300" x="0" y="0"/>
  <line id="" style="fill:none;stroke:black;opacity:1;stroke-width:0.5;" x1="263" x2="3036" y1="292" y2="292"/>
  <text style="stroke:none;fill:black;font-family:-apple-system,&quot;SF Pro Display&quot;,&quot;SF Pro Text&quot;,Helvetica,sans-serif;font-weight:bold;" transform="matrix(1 0 0 1 263 322)">Weight/Scale Variations</text>
  <text style="stroke:none;fill:black;font-family:-apple-system,&quot;SF Pro Display&quot;,&quot;SF Pro Text&quot;,Helvetica,sans-serif;text-anchor:middle;" transform="matrix(1 0 0 1 559.711 322)">Ultralight</text>
  <text style="stroke:none;fill:black;font-family:-apple-system,&quot;SF Pro Display&quot;,&quot;SF Pro Text&quot;,Helvetica,sans-serif;text-anchor:middle;" transform="matrix(1 0 0 1 856.422 322)">Thin</text>
  <text style="stroke:none;fill:black;font-family:-apple-system,&quot;SF Pro Display&quot;,&quot;SF Pro Text&quot;,Helvetica,sans-serif;text-anchor:middle;" transform="matrix(1 0 0 1 1153.13 322)">Light</text>
  <text style="stroke:none;fill:black;font-family:-apple-system,&quot;SF Pro Display&quot;,&quot;SF Pro Text&quot;,Helvetica,sans-serif;text-anchor:middle;" transform="matrix(1 0 0 1 1449.84 322)">Regular</text>
  <text style="stroke:none;fill:black;font-family:-apple-system,&quot;SF Pro Display&quot;,&quot;SF Pro Text&quot;,Helvetica,sans-serif;text-anchor:middle;" transform="matrix(1 0 0 1 1746.56 322)">Medium</text>
  <text style="stroke:none;fill:black;font-family:-apple-system,&quot;SF Pro Display&quot;,&quot;SF Pro Text&quot;,Helvetica,sans-serif;text-anchor:middle;" transform="matrix(1 0 0 1 2043.27 322)">Semibold</text>
  <text style="stroke:none;fill:black;font-family:-apple-system,&quot;SF Pro Display&quot;,&quot;SF Pro Text&quot;,Helvetica,sans-serif;text-anchor:middle;" transform="matrix(1 0 0 1 2339.98 322)">Bold</text>
  <text style="stroke:none;fill:black;font-family:-apple-system,&quot;SF Pro Display&quot;,&quot;SF Pro Text&quot;,Helvetica,sans-serif;text-anchor:middle;" transform="matrix(1 0 0 1 2636.69 322)">Heavy</text>
  <text style="stroke:none;fill:black;font-family:-apple-system,&quot;SF Pro Display&quot;,&quot;SF Pro Text&quot;,Helvetica,sans-serif;text-anchor:middle;" transform="matrix(1 0 0 1 2933.4 322)">Black</text>
  <line id="" style="fill:none;stroke:black;opacity:1;stroke-width:0.5;" x1="263" x2="3036" y1="1903" y2="1903"/>
  <g id="" transform="matrix(1 0 0 1 263 1933)">
   <path d="M9.24805 0.830078C13.5547 0.830078 17.1387-2.74414 17.1387-7.05078C17.1387-11.3574 13.5449-14.9316 9.23828-14.9316C4.94141-14.9316 1.36719-11.3574 1.36719-7.05078C1.36719-2.74414 4.95117 0.830078 9.24805 0.830078ZM9.24805-0.654297C5.70312-0.654297 2.87109-3.49609 2.87109-7.05078C2.87109-10.6055 5.69336-13.4473 9.23828-13.4473C12.793-13.4473 15.6348-10.6055 15.6445-7.05078C15.6543-3.49609 12.8027-0.654297 9.24805-0.654297ZM6.39648-6.31836L8.50586-6.31836L8.50586-4.19922C8.50586-3.75977 8.79883-3.45703 9.22852-3.45703C9.67773-3.45703 9.9707-3.75977 9.9707-4.19922L9.9707-6.31836L12.0996-6.31836C12.5391-6.31836 12.8418-6.61133 12.8418-7.04102C12.8418-7.48047 12.5391-7.7832 12.0996-7.7832L9.9707-7.7832L9.9707-9.89258C9.9707-10.3418 9.67773-10.6445 9.22852-10.6445C8.79883-10.6445 8.50586-10.3418 8.50586-9.89258L8.50586-7.7832L6.39648-7.7832C5.94727-7.7832 5.64453-7.48047 5.64453-7.04102C5.64453-6.61133 5.94727-6.31836 6.39648-6.31836Z"/>
  </g>
  <g id="" transform="matrix(1 0 0 1 281.506 1933)">
   <path d="M11.709 2.91016C17.1582 2.91016 21.6699-1.61133 21.6699-7.05078C21.6699-12.5 17.1484-17.0117 11.6992-17.0117C6.25977-17.0117 1.74805-12.5 1.74805-7.05078C1.74805-1.61133 6.26953 2.91016 11.709 2.91016ZM11.709 1.25C7.09961 1.25 3.41797-2.44141 3.41797-7.05078C3.41797-11.6602 7.08984-15.3516 11.6992-15.3516C16.3086-15.3516 20-11.6602 20.0098-7.05078C20.0195-2.44141 16.3184 1.25 11.709 1.25ZM7.98828-6.23047L10.8789-6.23047L10.8789-3.32031C10.8789-2.83203 11.2109-2.5 11.6895-2.5C12.1777-2.5 12.5195-2.83203 12.5195-3.32031L12.5195-6.23047L15.4297-6.23047C15.918-6.23047 16.25-6.5625 16.25-7.04102C16.25-7.5293 15.918-7.87109 15.4297-7.87109L12.5195-7.87109L12.5195-10.7617C12.5195-11.2695 12.1777-11.6016 11.6895-11.6016C11.2109-11.6016 10.8789-11.2598 10.8789-10.7617L10.8789-7.87109L7.98828-7.87109C7.48047-7.87109 7.14844-7.5293 7.14844-7.04102C7.14844-6.5625 7.49023-6.23047 7.98828-6.23047Z"/>
  </g>
  <g id="" transform="matrix(1 0 0 1 304.924 1933)">
   <path d="M14.9707 5.66406C21.9336 5.66406 27.6953-0.0976562 27.6953-7.05078C27.6953-14.0137 21.9238-19.7754 14.9609-19.7754C8.00781-19.7754 2.25586-14.0137 2.25586-7.05078C2.25586-0.0976562 8.01758 5.66406 14.9707 5.66406ZM14.9707 3.84766C8.93555 3.84766 4.08203-1.01562 4.08203-7.05078C4.08203-13.0957 8.92578-17.9492 14.9609-17.9492C21.0059-17.9492 25.8594-13.0957 25.8691-7.05078C25.8789-1.01562 21.0156 3.84766 14.9707 3.84766ZM10.0586-6.14258L14.0625-6.14258L14.0625-2.12891C14.0625-1.5918 14.4336-1.2207 14.9512-1.2207C15.4883-1.2207 15.8594-1.5918 15.8594-2.12891L15.8594-6.14258L19.8828-6.14258C20.4102-6.14258 20.791-6.51367 20.791-7.03125C20.791-7.56836 20.4199-7.94922 19.8828-7.94922L15.8594-7.94922L15.8594-11.9531C15.8594-12.5098 15.4883-12.8809 14.9512-12.8809C14.4336-12.8809 14.0625-12.5 14.0625-11.9531L14.0625-7.94922L10.0586-7.94922C9.50195-7.94922 9.13086-7.56836 9.13086-7.03125C9.13086-6.51367 9.51172-6.14258 10.0586-6.14258Z"/>
  </g>
  <text style="stroke:none;fill:black;font-family:-apple-system,&quot;SF Pro Display&quot;,&quot;SF Pro Text&quot;,Helvetica,sans-serif;font-weight:bold;" transform="matrix(1 0 0 1 263 1953)">Design Variations</text>
  <text style="stroke:none;fill:black;font-family:-apple-system,&quot;SF Pro Display&quot;,&quot;SF Pro Text&quot;,Helvetica,sans-serif;" transform="matrix(1 0 0 1 263 1971)">Symbols are supported in up to nine weights and three scales.</text>
  <text style="stroke:none;fill:black;font-family:-apple-system,&quot;SF Pro Display&quot;,&quot;SF Pro Text&quot;,Helvetica,sans-serif;" transform="matrix(1 0 0 1 263 1989)">For optimal layout with text and other symbols, vertically align</text>
  <text style="stroke:none;fill:black;font-family:-apple-system,&quot;SF Pro Display&quot;,&quot;SF Pro Text&quot;,Helvetica,sans-serif;" transform="matrix(1 0 0 1 263 2007)">symbols with the adjacent text.</text>
  <line id="" style="fill:none;stroke:#00AEEF;stroke-width:0.5;opacity:1.0;" x1="776" x2="776" y1="1919" y2="1933"/>
  <g id="" transform="matrix(1 0 0 1 776 1933)">
   <path d="M3.31055 0.126953C3.82812 0.126953 4.08203-0.0683594 4.26758-0.605469L5.52734-4.0625L11.2891-4.0625L12.5488-0.605469C12.7344-0.0683594 12.9883 0.126953 13.4961 0.126953C14.0137 0.126953 14.3457-0.185547 14.3457-0.673828C14.3457-0.839844 14.3164-0.986328 14.2383-1.20117L9.6582-13.3887C9.43359-13.9941 9.0332-14.2871 8.4082-14.2871C7.80273-14.2871 7.39258-13.9941 7.17773-13.3984L2.59766-1.19141C2.51953-0.976562 2.49023-0.830078 2.49023-0.664062C2.49023-0.175781 2.80273 0.126953 3.31055 0.126953ZM6.00586-5.53711L8.37891-12.1094L8.42773-12.1094L10.8008-5.53711Z"/>
  </g>
  <line id="" style="fill:none;stroke:#00AEEF;stroke-width:0.5;opacity:1.0;" x1="792.836" x2="792.836" y1="1919" y2="1933"/>
  <text style="stroke:none;fill:black;font-family:-apple-system,&quot;SF Pro Display&quot;,&quot;SF Pro Text&quot;,Helvetica,sans-serif;font-weight:bold;" transform="matrix(1 0 0 1 776 1953)">Margins</text>
  <text style="stroke:none;fill:black;font-family:-apple-system,&quot;SF Pro Display&quot;,&quot;SF Pro Text&quot;,Helvetica,sans-serif;" transform="matrix(1 0 0 1 776 1971)">Leading and trailing margins on the left and right side of each symbol</text>
  <text style="stroke:none;fill:black;font-family:-apple-system,&quot;SF Pro Display&quot;,&quot;SF Pro Text&quot;,Helvetica,sans-serif;" transform="matrix(1 0 0 1 776 1989)">can be adjusted by modifying the x-location of the margin guidelines.</text>
  <text style="stroke:none;fill:black;font-family:-apple-system,&quot;SF Pro Display&quot;,&quot;SF Pro Text&quot;,Helvetica,sans-serif;" transform="matrix(1 0 0 1 776 2007)">Modifications are automatically applied proportionally to all</text>
  <text style="stroke:none;fill:black;font-family:-apple-system,&quot;SF Pro Display&quot;,&quot;SF Pro Text&quot;,Helvetica,sans-serif;" transform="matrix(1 0 0 1 776 2025)">scales and weights.</text>
  <g id="" transform="matrix(1 0 0 1 1289 1933)">
   <path d="M2.8418 1.86523L4.54102 3.57422C5.40039 4.44336 6.38672 4.38477 7.31445 3.35938L17.4902-7.85156C17.7539-7.76367 18.0273-7.7832 18.3398-7.8418L19.4043-8.03711L20.0684-7.36328L20.0293-6.80664C19.9902-6.30859 20.1172-5.92773 20.6055-5.44922L21.3672-4.70703C21.8457-4.22852 22.4609-4.19922 22.9297-4.66797L25.8398-7.58789C26.3086-8.05664 26.2891-8.65234 25.8105-9.13086L25.0391-9.89258C24.5605-10.3711 24.1895-10.5273 23.7109-10.4883L23.1348-10.4395L22.4902-11.0742L22.7344-12.1973C22.8613-12.7637 22.7051-13.2031 22.1191-13.7891L19.9219-15.9766C16.582-19.2969 12.1484-19.2188 9.25781-16.3281C8.83789-15.918 8.80859-15.3418 9.04297-14.9512C9.27734-14.5898 9.73633-14.3555 10.3809-14.5215C11.8457-14.8633 13.3691-14.9219 14.7949-13.9844L14.209-12.5293C14.0137-12.0508 13.9844-11.6504 14.1113-11.2891L3.04688-0.898438C2.06055 0.0195312 1.98242 0.996094 2.8418 1.86523ZM10.752-15.957C13.1836-17.7344 16.4746-17.4316 18.7012-15.2051L21.1328-12.793C21.3672-12.5586 21.4062-12.373 21.3379-12.0312L21.0156-10.5469L22.5195-9.0625L23.5059-9.12109C23.7598-9.13086 23.8379-9.11133 24.0332-8.91602L24.6094-8.33984L22.168-5.89844L21.5918-6.47461C21.3965-6.66992 21.3672-6.74805 21.377-7.01172L21.4453-7.98828L19.9512-9.47266L18.4277-9.21875C18.1055-9.15039 17.959-9.17969 17.7148-9.41406L15.7129-11.416C15.459-11.6504 15.4297-11.8164 15.5859-12.1875L16.4648-14.2773C14.9023-15.7324 12.8711-16.3574 10.8398-15.7617C10.6836-15.7227 10.625-15.8496 10.752-15.957ZM5.27344 2.30469L4.10156 1.14258C3.63281 0.683594 3.74023 0.341797 4.14062-0.0195312L14.9512-10.1953L16.416-8.71094L6.42578 2.27539C6.07422 2.67578 5.74219 2.77344 5.27344 2.30469Z"/>
  </g>
  <text style="stroke:none;fill:black;font-family:-apple-system,&quot;SF Pro Display&quot;,&quot;SF Pro Text&quot;,Helvetica,sans-serif;font-weight:bold;" transform="matrix(1 0 0 1 1289 1953)">Exporting</text>
  <text style="stroke:none;fill:black;font-family:-apple-system,&quot;SF Pro Display&quot;,&quot;SF Pro Text&quot;,Helvetica,sans-serif;" transform="matrix(1 0 0 1 1289 1971)">Symbols should be outlined when exporting to ensure the</text>
  <text style="stroke:none;fill:black;font-family:-apple-system,&quot;SF Pro Display&quot;,&quot;SF Pro Text&quot;,Helvetica,sans-serif;" transform="matrix(1 0 0 1 1289 1989)">design is preserved when submitting to Xcode.</text>
  <text id="template-version" style="stroke:none;fill:black;font-family:-apple-system,&quot;SF Pro Display&quot;,&quot;SF Pro Text&quot;,Helvetica,sans-serif;text-anchor:end;" transform="matrix(1 0 0 1 3036 1933)">Template v.2.0</text>
  <text style="stroke:none;fill:black;font-family:-apple-system,&quot;SF Pro Display&quot;,&quot;SF Pro Text&quot;,Helvetica,sans-serif;text-anchor:end;" transform="matrix(1 0 0 1 3036 1951)">Requires Xcode 12 or greater</text>
  <text style="stroke:none;fill:black;font-family:-apple-system,&quot;SF Pro Display&quot;,&quot;SF Pro Text&quot;,Helvetica,sans-serif;text-anchor:end;" transform="matrix(1 0 0 1 3036 1969)">Generated from camera.fill</text>
  <text style="stroke:none;fill:black;font-family:-apple-system,&quot;SF Pro Display&quot;,&quot;SF Pro Text&quot;,Helvetica,sans-serif;text-anchor:end;" transform="matrix(1 0 0 1 3036 1987)">Typeset at 100 points</text>
  <text style="stroke:none;fill:black;font-family:-apple-system,&quot;SF Pro Display&quot;,&quot;SF Pro Text&quot;,Helvetica,sans-serif;" transform="matrix(1 0 0 1 263 726)">Small</text>
  <text style="stroke:none;fill:black;font-family:-apple-system,&quot;SF Pro Display&quot;,&quot;SF Pro Text&quot;,Helvetica,sans-serif;" transform="matrix(1 0 0 1 263 1156)">Medium</text>
  <text style="stroke:none;fill:black;font-family:-apple-system,&quot;SF Pro Display&quot;,&quot;SF Pro Text&quot;,Helvetica,sans-serif;" transform="matrix(1 0 0 1 263 1586)">Large</text>
 </g>
 <g id="Guides">
  <g id="H-reference" style="fill:#27AAE1;stroke:none;" transform="matrix(1 0 0 1 339 696)">
   <path d="M0.976562 0L3.66211 0L12.9883-24.4629L45.752-24.4629L55.127 0L57.7637 0L30.6152-70.459L28.125-70.459ZM29.3457-67.1387L29.4434-67.1387L44.873-26.709L13.8672-26.709Z"/>
  </g>
  <line id="Baseline-S" style="fill:none;stroke:#27AAE1;opacity:1;stroke-width:0.5;" x1="263" x2="3036" y1="696" y2="696"/>
  <line id="Capline-S" style="fill:none;stroke:#27AAE1;opacity:1;stroke-width:0.5;" x1="263" x2="3036" y1="625.541" y2="625.541"/>
  <g id="H-reference" style="fill:#27AAE1;stroke:none;" transform="matrix(1 0 0 1 339 1126)">
   <path d="M0.976562 0L3.66211 0L12.9883-24.4629L45.752-24.4629L55.127 0L57.7637 0L30.6152-70.459L28.125-70.459ZM29.3457-67.1387L29.4434-67.1387L44.873-26.709L13.8672-26.709Z"/>
  </g>
  <line id="Baseline-M" style="fill:none;stroke:#27AAE1;opacity:1;stroke-width:0.5;" x1="263" x2="3036" y1="1126" y2="1126"/>
  <line id="Capline-M" style="fill:none;stroke:#27AAE1;opacity:1;stroke-width:0.5;" x1="263" x2="3036" y1="1055.54" y2="1055.54"/>
  <g id="H-reference" style="fill:#27AAE1;stroke:none;" transform="matrix(1 0 0 1 339 1556)">
   <path d="M0.976562 0L3.66211 0L12.9883-24.4629L45.752-24.4629L55.127 0L57.7637 0L30.6152-70.459L28.125-70.459ZM29.3457-67.1387L29.4434-67.1387L44.873-26.709L13.8672-26.709Z"/>
  </g>
  <line id="Baseline-L" style="fill:none;stroke:#27AAE1;opacity:1;stroke-width:0.5;" x1="263" x2="3036" y1="1556" y2="1556"/>
  <line id="Capline-L" style="fill:none;stroke:#27AAE1;opacity:1;stroke-width:0.5;" x1="263" x2="3036" y1="1485.54" y2="1485.54"/>
  <line id="left-margin" style="fill:none;stroke:#00AEEF;stroke-width:0.5;opacity:1.0;" x1="1377.43" x2="1377.43" y1="1030.79" y2="1150.12"/>
  <line id="right-margin" style="fill:none;stroke:#00AEEF;stroke-width:0.5;opacity:1.0;" x1="1522.26" x2="1522.26" y1="1030.79" y2="1150.12"/>
 </g>
 <g id="Symbols">
  <g id="Black-L" transform="matrix(1 0 0 1 2837.57 1556)">
   <path d="M39.9902 26.5137L151.66 26.5137C166.895 26.5137 175.586 17.8711 175.586 2.68555L175.586-63.8184C175.586-79.0527 166.895-87.6465 151.66-87.6465L138.77-87.6465C133.936-87.6465 132.031-88.2324 128.369-91.5039L123.584-95.8984C119.922-99.2676 116.26-100.635 110.059-100.635L81.5918-100.635C75.3418-100.635 71.7285-99.2676 68.0176-95.8984L63.2324-91.5039C59.6191-88.2324 57.7148-87.6465 52.8809-87.6465L39.9902-87.6465C24.7559-87.6465 16.0645-79.0527 16.0645-63.8184L16.0645 2.68555C16.0645 17.8711 24.7559 26.5137 39.9902 26.5137ZM95.8008 2.97852C77.6367 2.97852 63.0371-11.6699 63.0371-29.8828C63.0371-48.1445 77.6367-62.7441 95.8008-62.7441C114.014-62.7441 128.613-48.1445 128.613-29.8828C128.613-11.6699 114.014 2.97852 95.8008 2.97852ZM132.178-52.9785C132.178-58.0078 136.475-62.2559 141.553-62.2559C146.582-62.2559 150.879-58.0078 150.879-52.9785C150.879-47.8027 146.68-43.75 141.553-43.7012C136.377-43.6035 132.178-47.8027 132.178-52.9785ZM95.8008-14.3555C104.443-14.3555 111.279-21.2891 111.279-29.8828C111.279-38.5254 104.443-45.4102 95.8008-45.4102C87.2559-45.4102 80.3711-38.5254 80.3711-29.8828C80.3711-21.2891 87.2559-14.3555 95.8008-14.3555Z"/>
  </g>
  <g id="Heavy-L" transform="matrix(1 0 0 1 2541.62 1556)">
   <path d="M38.8184 25.4883L151.318 25.4883C165.918 25.4883 174.072 17.4316 174.072 2.88086L174.072-63.5742C174.072-78.125 165.918-86.1816 151.318-86.1816L137.109-86.1816C132.275-86.1816 130.469-86.8164 127.002-90.0879L122.119-94.8242C118.506-98.2422 115.039-99.6582 108.789-99.6582L81.1523-99.6582C74.9023-99.6582 71.4355-98.2422 67.8711-94.8242L62.9883-90.0879C59.4727-86.8164 57.666-86.1816 52.832-86.1816L38.8184-86.1816C24.2188-86.1816 16.0645-78.125 16.0645-63.5742L16.0645 2.88086C16.0645 17.4316 24.2188 25.4883 38.8184 25.4883ZM95.0684 3.27148C76.6602 3.27148 61.8652-11.4746 61.8652-29.9805C61.8652-48.4375 76.6602-63.2324 95.0684-63.2324C113.525-63.2324 128.271-48.4375 128.271-29.9805C128.271-11.4746 113.477 3.27148 95.0684 3.27148ZM131.982-53.0762C131.982-57.9102 136.084-62.0117 141.016-62.0117C145.85-62.0117 149.951-57.9102 149.951-53.0762C149.951-48.0957 145.898-44.1406 141.016-44.0918C136.035-44.043 131.982-48.0469 131.982-53.0762ZM95.0684-11.9141C105.078-11.9141 113.086-19.9707 113.086-29.9805C113.086-40.0391 105.078-48.0469 95.0684-48.0469C85.1074-48.0469 77.0508-40.0391 77.0508-29.9805C77.0508-19.9707 85.1074-11.9141 95.0684-11.9141Z"/>
  </g>
  <g id="Bold-L" transform="matrix(1 0 0 1 2245.76 1556)">
   <path d="M37.5 24.3652L150.928 24.3652C164.844 24.3652 172.363 16.8945 172.363 3.07617L172.363-63.2324C172.363-77.0508 164.844-84.5703 150.928-84.5703L135.303-84.5703C130.371-84.5703 128.711-85.2539 125.391-88.5254L120.41-93.6523C116.943-97.1191 113.623-98.6328 107.324-98.6328L80.7129-98.6328C74.4141-98.6328 71.0938-97.1191 67.627-93.6523L62.6465-88.5254C59.375-85.3027 57.666-84.5703 52.7344-84.5703L37.5-84.5703C23.6328-84.5703 16.0645-77.0508 16.0645-63.2324L16.0645 3.07617C16.0645 16.8945 23.6328 24.3652 37.5 24.3652ZM94.2383 3.66211C75.5859 3.66211 60.5469-11.3281 60.5469-30.0781C60.5469-48.8281 75.5859-63.8184 94.2383-63.8184C112.939-63.8184 127.881-48.8281 127.881-30.0781C127.881-11.3281 112.891 3.66211 94.2383 3.66211ZM131.738-53.1738C131.738-57.7637 135.693-61.7676 140.43-61.7676C145.02-61.7676 148.975-57.7637 148.975-53.1738C148.975-48.3887 145.068-44.6289 140.43-44.5801C135.645-44.5312 131.738-48.3398 131.738-53.1738ZM94.2383-9.13086C105.811-9.13086 115.088-18.457 115.088-30.0781C115.088-41.6992 105.811-51.0254 94.2383-51.0254C82.666-51.0254 73.3398-41.6992 73.3398-30.0781C73.3398-18.457 82.7148-9.13086 94.2383-9.13086Z"/>
  </g>
  <g id="Semibold-L" transform="matrix(1 0 0 1 1949.64 1556)">
   <path d="M36.6211 23.584L150.635 23.584C164.062 23.584 171.191 16.5039 171.191 3.17383L171.191-63.0371C171.191-76.3672 164.062-83.4473 150.635-83.4473L134.033-83.4473C129.102-83.4473 127.49-84.1797 124.316-87.5L119.238-92.8223C115.869-96.2891 112.646-97.9004 106.348-97.9004L80.4199-97.9004C74.0723-97.9004 70.8496-96.2891 67.4805-92.8223L62.4512-87.5C59.3262-84.2285 57.666-83.4473 52.7344-83.4473L36.6211-83.4473C23.1934-83.4473 16.0645-76.3672 16.0645-63.0371L16.0645 3.17383C16.0645 16.5039 23.1934 23.584 36.6211 23.584ZM93.6523 3.90625C74.8047 3.90625 59.668-11.2305 59.668-30.127C59.668-49.0723 74.8047-64.1602 93.6523-64.1602C112.5-64.1602 127.588-49.0723 127.588-30.127C127.588-11.2305 112.451 3.90625 93.6523 3.90625ZM131.543-53.2227C131.543-57.7148 135.4-61.5723 139.99-61.5723C144.434-61.5723 148.291-57.7148 148.291-53.2227C148.291-48.6328 144.482-44.9219 139.99-44.9219C135.4-44.873 131.543-48.5352 131.543-53.2227ZM93.6523-7.22656C106.299-7.22656 116.455-17.4316 116.455-30.127C116.455-42.8711 106.299-53.0273 93.6523-53.0273C81.0059-53.0273 70.8008-42.8711 70.8008-30.127C70.8008-17.4316 81.0547-7.22656 93.6523-7.22656Z"/>
  </g>
  <g id="Medium-L" transform="matrix(1 0 0 1 1653.37 1556)">
   <path d="M35.9375 22.998L150.439 22.998C163.477 22.998 170.312 16.2109 170.312 3.27148L170.312-62.8906C170.312-75.8301 163.477-82.6172 150.439-82.6172L133.105-82.6172C128.125-82.6172 126.562-83.3496 123.486-86.6699L118.359-92.1875C115.088-95.7031 111.963-97.3145 105.615-97.3145L80.1758-97.3145C73.8281-97.3145 70.7031-95.7031 67.3828-92.1875L62.3047-86.6699C59.2285-83.3984 57.6172-82.6172 52.6855-82.6172L35.9375-82.6172C22.9004-82.6172 16.0645-75.8301 16.0645-62.8906L16.0645 3.27148C16.0645 16.2109 22.9004 22.998 35.9375 22.998ZM93.2129 4.10156C74.2188 4.10156 58.9844-11.1328 58.9844-30.1758C58.9844-49.2676 74.2188-64.4531 93.2129-64.4531C112.207-64.4531 127.393-49.2676 127.393-30.1758C127.393-11.1328 112.158 4.10156 93.2129 4.10156ZM131.445-53.2715C131.445-57.6172 135.205-61.4258 139.648-61.4258C143.994-61.4258 147.754-57.6172 147.754-53.2715C147.754-48.7793 144.043-45.166 139.648-45.166C135.205-45.166 131.445-48.6816 131.445-53.2715ZM93.2129-5.76172C106.641-5.76172 117.529-16.6504 117.529-30.1758C117.529-43.7012 106.641-54.5898 93.2129-54.5898C79.7363-54.5898 68.8477-43.7012 68.8477-30.1758C68.8477-16.6504 79.7852-5.76172 93.2129-5.76172Z"/>
  </g>
  <g id="Regular-L" transform="matrix(1 0 0 1 1357.24 1556)">
   <path d="M35.0586 22.2168L150.146 22.2168C162.744 22.2168 169.141 15.8691 169.141 3.41797L169.141-62.6953C169.141-75.0977 162.744-81.4941 150.146-81.4941L131.836-81.4941C126.807-81.4941 125.391-82.2754 122.412-85.5957L117.236-91.4062C114.014-94.9219 110.986-96.582 104.639-96.582L79.834-96.582C73.4863-96.582 70.459-94.9219 67.2363-91.4062L62.0605-85.5957C59.1797-82.373 57.6172-81.4941 52.6367-81.4941L35.0586-81.4941C22.4609-81.4941 16.0645-75.0977 16.0645-62.6953L16.0645 3.41797C16.0645 15.8691 22.4609 22.2168 35.0586 22.2168ZM92.627 4.3457C73.4863 4.3457 58.1055-10.9863 58.1055-30.2246C58.1055-49.5117 73.4863-64.8438 92.627-64.8438C111.816-64.8438 127.148-49.5117 127.148-30.2246C127.148-10.9863 111.768 4.3457 92.627 4.3457ZM131.25-53.3691C131.25-57.5684 134.912-61.2305 139.258-61.2305C143.457-61.2305 147.07-57.5684 147.07-53.3691C147.07-48.9746 143.457-45.459 139.258-45.5078C134.912-45.5078 131.25-48.9258 131.25-53.3691ZM92.627-3.90625C107.129-3.90625 118.896-15.625 118.896-30.2246C118.896-44.873 107.129-56.5918 92.627-56.5918C78.0762-56.5918 66.3086-44.873 66.3086-30.2246C66.3086-15.625 78.125-3.90625 92.627-3.90625Z"/>
  </g>
  <g id="Light-L" transform="matrix(1 0 0 1 1061.63 1556)">
   <path d="M34.0332 21.4355L148.975 21.4355C160.84 21.4355 166.943 15.2344 166.943 3.56445L166.943-62.6953C166.943-74.4141 160.84-80.5664 148.975-80.5664L130.273-80.5664C125.146-80.5664 123.779-81.1035 120.654-84.668L115.283-90.625C112.012-94.2383 109.229-95.6055 103.076-95.6055L78.7598-95.6055C72.6074-95.6055 69.8242-94.2383 66.5039-90.625L61.1816-84.668C58.1055-81.25 56.5918-80.5664 51.5137-80.5664L34.0332-80.5664C22.168-80.5664 16.0645-74.4141 16.0645-62.6953L16.0645 3.56445C16.0645 15.2344 22.168 21.4355 34.0332 21.4355ZM91.5039 4.49219C72.2656 4.49219 56.7871-10.9863 56.7871-30.3223C56.7871-49.6582 72.2656-65.1367 91.5039-65.1367C110.84-65.1367 126.221-49.6582 126.221-30.3223C126.221-10.9863 110.742 4.49219 91.5039 4.49219ZM130.273-53.3203C130.273-57.3242 133.789-60.8887 137.988-60.8887C141.992-60.8887 145.508-57.3242 145.508-53.3203C145.508-49.1211 141.992-45.6543 137.988-45.7031C133.789-45.8008 130.273-48.9746 130.273-53.3203ZM91.5039-1.95312C107.129-1.95312 119.727-14.5996 119.727-30.3223C119.727-46.0449 107.129-58.6426 91.5039-58.6426C75.8789-58.6426 63.2812-46.0449 63.2812-30.3223C63.2812-14.5996 75.9277-1.95312 91.5039-1.95312Z"/>
  </g>
  <g id="Thin-L" transform="matrix(1 0 0 1 766.383 1556)">
   <path d="M32.666 20.3613L147.412 20.3613C158.301 20.3613 164.014 14.4531 164.014 3.75977L164.014-62.7441C164.014-73.4863 158.301-79.3457 147.412-79.3457L128.223-79.3457C122.949-79.3457 121.729-79.5898 118.311-83.3984L112.744-89.5996C109.326-93.3105 106.934-94.3359 100.977-94.3359L77.3438-94.3359C71.3867-94.3359 68.9453-93.3105 65.5273-89.5996L59.9609-83.3984C56.7383-79.7363 55.2734-79.3457 50.0488-79.3457L32.666-79.3457C21.7773-79.3457 16.0645-73.4863 16.0645-62.7441L16.0645 3.75977C16.0645 14.4531 21.7773 20.3613 32.666 20.3613ZM90.0391 4.63867C70.7031 4.63867 55.0293-10.9375 55.0293-30.4199C55.0293-49.9023 70.7031-65.4785 90.0391-65.4785C109.521-65.4785 125.049-49.9023 125.049-30.4199C125.049-10.9375 109.375 4.63867 90.0391 4.63867ZM90.0391 0.585938C107.129 0.585938 120.898-13.2812 120.898-30.4199C120.898-47.5586 107.129-61.4258 90.0391-61.4258C72.9492-61.4258 59.1797-47.5586 59.1797-30.4199C59.1797-13.2812 72.998 0.585938 90.0391 0.585938ZM128.955-53.2227C128.955-56.9824 132.275-60.4004 136.279-60.4004C140.039-60.4004 143.408-56.9824 143.408-53.2227C143.408-49.3164 140.039-45.8984 136.279-46.0449C132.275-46.1914 128.955-49.0723 128.955-53.2227Z"/>
  </g>
  <g id="Ultralight-L" transform="matrix(1 0 0 1 470.429 1556)">
   <path d="M31.9824 19.7754L146.582 19.7754C156.982 19.7754 162.5 14.0625 162.5 3.85742L162.5-62.793C162.5-72.998 156.982-78.7109 146.582-78.7109L127.197-78.7109C121.826-78.7109 120.654-78.8086 117.139-82.7148L111.475-89.0625C107.959-92.8711 105.713-93.6523 99.9023-93.6523L76.5625-93.6523C70.752-93.6523 68.5059-92.8711 65.0391-89.0625L59.375-82.7148C56.0059-78.9551 54.5898-78.7109 49.3164-78.7109L31.9824-78.7109C21.582-78.7109 16.0645-72.998 16.0645-62.793L16.0645 3.85742C16.0645 14.0625 21.582 19.7754 31.9824 19.7754ZM89.3066 4.73633C69.873 4.73633 54.1504-10.8887 54.1504-30.4688C54.1504-50.0488 69.873-65.6738 89.3066-65.6738C108.887-65.6738 124.414-50.0488 124.414-30.4688C124.414-10.8887 108.691 4.73633 89.3066 4.73633ZM89.3066 1.85547C107.08 1.85547 121.436-12.5977 121.436-30.4688C121.436-48.3398 107.08-62.793 89.3066-62.793C71.4844-62.793 57.1289-48.3398 57.1289-30.4688C57.1289-12.5977 71.4844 1.85547 89.3066 1.85547ZM128.271-53.1738C128.271-56.8359 131.543-60.1562 135.449-60.1562C139.062-60.1562 142.334-56.8359 142.334-53.1738C142.334-49.3652 139.062-46.0449 135.449-46.1914C131.543-46.3867 128.271-49.1211 128.271-53.1738Z"/>
  </g>
  <g id="Black-M" transform="matrix(1 0 0 1 2858.72 1126)">
   <path d="M31.9824 13.5742L117.383 13.5742C129.639 13.5742 136.914 6.29883 136.914-5.95703L136.914-57.8125C136.914-70.0684 129.639-77.3438 117.383-77.3438L108.936-77.3438C105.176-77.3438 103.613-77.5391 100.488-80.1758L96.7773-83.252C93.7012-85.8887 90.8691-86.6699 86.1816-86.6699L63.1836-86.6699C58.4961-86.6699 55.6641-85.8887 52.5879-83.252L48.9258-80.1758C45.752-77.5391 44.1895-77.3438 40.4785-77.3438L31.9824-77.3438C19.7266-77.3438 12.4512-70.0684 12.4512-57.8125L12.4512-5.95703C12.4512 6.29883 19.7266 13.5742 31.9824 13.5742ZM102.197-48.8281C102.197-52.8809 105.664-56.3477 109.766-56.3477C113.818-56.3477 117.285-52.8809 117.285-48.8281C117.285-44.6289 113.916-41.4062 109.766-41.3086C105.566-41.2598 102.197-44.6289 102.197-48.8281ZM74.707-6.00586C60.8887-6.00586 49.707-17.1387 49.707-31.0059C49.707-44.873 60.8887-56.0547 74.707-56.0547C88.5742-56.0547 99.6582-44.873 99.6582-31.0059C99.6582-17.1387 88.5742-6.00586 74.707-6.00586ZM74.707-21.3867C80.0781-21.3867 84.2773-25.6836 84.2773-31.0059C84.2773-36.377 80.0781-40.6738 74.707-40.6738C69.3848-40.6738 65.0879-36.377 65.0879-31.0059C65.0879-25.6836 69.3848-21.3867 74.707-21.3867Z"/>
  </g>
  <g id="Heavy-M" transform="matrix(1 0 0 1 2562.54 1126)">
   <path d="M31.0059 12.6465L117.285 12.6465C129.053 12.6465 135.84 5.9082 135.84-5.81055L135.84-57.4707C135.84-69.2383 129.053-75.9766 117.285-75.9766L107.52-75.9766C103.76-75.9766 102.295-76.3184 99.3652-78.9062L95.6543-82.3242C92.7246-84.9609 89.9414-85.8887 85.2051-85.8887L63.0371-85.8887C58.252-85.8887 55.4688-84.9609 52.5879-82.3242L48.8281-78.9062C45.9473-76.3184 44.4336-75.9766 40.6738-75.9766L31.0059-75.9766C19.2383-75.9766 12.4512-69.2383 12.4512-57.4707L12.4512-5.81055C12.4512 5.9082 19.2383 12.6465 31.0059 12.6465ZM74.1699-5.66406C60.1074-5.66406 48.7793-16.9922 48.7793-31.1035C48.7793-45.2148 60.1074-56.4941 74.1699-56.4941C88.2324-56.4941 99.5117-45.2148 99.5117-31.1035C99.5117-16.9922 88.2324-5.66406 74.1699-5.66406ZM102.246-48.9258C102.246-52.832 105.566-56.1523 109.521-56.1523C113.428-56.1523 116.699-52.832 116.699-48.9258C116.699-44.9219 113.477-41.7969 109.521-41.748C105.518-41.6992 102.246-44.9219 102.246-48.9258ZM74.1699-19.1406C80.7617-19.1406 86.0352-24.5117 86.0352-31.1035C86.0352-37.7441 80.7617-43.0176 74.1699-43.0176C67.5781-43.0176 62.2559-37.7441 62.2559-31.1035C62.2559-24.5117 67.5781-19.1406 74.1699-19.1406Z"/>
  </g>
  <g id="Bold-M" transform="matrix(1 0 0 1 2266.44 1126)">
   <path d="M29.8828 11.6699L117.236 11.6699C128.418 11.6699 134.619 5.46875 134.619-5.66406L134.619-57.1289C134.619-68.3105 128.418-74.4629 117.236-74.4629L106.006-74.4629C102.197-74.4629 100.83-74.9512 98.1445-77.4902L94.3848-81.25C91.6016-83.8867 88.916-85.0098 84.082-85.0098L62.8418-85.0098C58.0078-85.0098 55.3223-83.8867 52.5391-81.25L48.7793-77.4902C46.0938-74.9512 44.7266-74.4629 40.9668-74.4629L29.8828-74.4629C18.6523-74.4629 12.4512-68.3105 12.4512-57.1289L12.4512-5.66406C12.4512 5.46875 18.6523 11.6699 29.8828 11.6699ZM73.5352-5.32227C59.2285-5.32227 47.7539-16.7969 47.7539-31.1523C47.7539-45.5566 59.2285-57.0312 73.5352-57.0312C87.8906-57.0312 99.3652-45.5566 99.3652-31.1523C99.3652-16.7969 87.8906-5.32227 73.5352-5.32227ZM102.246-49.0723C102.246-52.7832 105.42-55.957 109.229-55.957C112.939-55.957 116.113-52.7832 116.113-49.0723C116.113-45.2148 112.939-42.2363 109.229-42.1875C105.371-42.1387 102.246-45.2148 102.246-49.0723ZM73.5352-16.6992C81.543-16.6992 87.9883-23.1445 87.9883-31.1523C87.9883-39.209 81.543-45.6543 73.5352-45.6543C65.5762-45.6543 59.1309-39.209 59.1309-31.1523C59.1309-23.1445 65.5762-16.6992 73.5352-16.6992Z"/>
  </g>
  <g id="Semibold-M" transform="matrix(1 0 0 1 1970.15 1126)">
   <path d="M29.1016 10.9863L117.139 10.9863C127.979 10.9863 133.789 5.17578 133.789-5.56641L133.789-56.8848C133.789-67.627 127.979-73.4375 117.139-73.4375L104.932-73.4375C101.123-73.4375 99.8047-74.0234 97.3145-76.5137L93.5059-80.4688C90.8691-83.1543 88.2324-84.4238 83.3008-84.4238L62.7441-84.4238C57.8125-84.4238 55.1758-83.1543 52.5391-80.4688L48.7305-76.5137C46.2402-74.0234 44.9219-73.4375 41.1133-73.4375L29.1016-73.4375C18.2617-73.4375 12.4512-67.627 12.4512-56.8848L12.4512-5.56641C12.4512 5.17578 18.2617 10.9863 29.1016 10.9863ZM73.1445-5.07812C58.6426-5.07812 47.0215-16.6992 47.0215-31.25C47.0215-45.752 58.6426-57.373 73.1445-57.373C87.6465-57.373 99.2188-45.752 99.2188-31.25C99.2188-16.6992 87.5977-5.07812 73.1445-5.07812ZM102.295-49.1699C102.295-52.7344 105.322-55.8105 108.984-55.8105C112.598-55.8105 115.674-52.7344 115.674-49.1699C115.674-45.459 112.598-42.5293 108.984-42.4805C105.322-42.4805 102.295-45.4102 102.295-49.1699ZM73.1445-14.9902C82.0801-14.9902 89.3066-22.2168 89.3066-31.25C89.3066-40.2344 82.0801-47.4609 73.1445-47.4609C64.1602-47.4609 56.9336-40.2344 56.9336-31.25C56.9336-22.2168 64.209-14.9902 73.1445-14.9902Z"/>
  </g>
  <g id="Medium-M" transform="matrix(1 0 0 1 1673.73 1126)">
   <path d="M28.5156 10.4492L117.09 10.4492C127.637 10.4492 133.203 4.98047 133.203-5.46875L133.203-56.7383C133.203-67.1875 127.637-72.6562 117.09-72.6562L104.102-72.6562C100.293-72.6562 99.0723-73.291 96.6797-75.7812L92.8223-79.9316C90.2832-82.6172 87.6953-83.9355 82.7148-83.9355L62.6465-83.9355C57.666-83.9355 55.0781-82.6172 52.5391-79.9316L48.6816-75.7812C46.3379-73.3398 45.0684-72.6562 41.2598-72.6562L28.5156-72.6562C17.9688-72.6562 12.4512-67.1875 12.4512-56.7383L12.4512-5.46875C12.4512 4.98047 17.9688 10.4492 28.5156 10.4492ZM72.8027-4.88281C58.2031-4.88281 46.4844-16.6016 46.4844-31.25C46.4844-45.9473 58.2031-57.666 72.8027-57.666C87.4512-57.666 99.1699-45.9473 99.1699-31.25C99.1699-16.6016 87.4512-4.88281 72.8027-4.88281ZM102.295-49.2188C102.295-52.6855 105.273-55.7129 108.838-55.7129C112.354-55.7129 115.332-52.6855 115.332-49.2188C115.332-45.6055 112.354-42.7734 108.838-42.7246C105.273-42.7246 102.295-45.5566 102.295-49.2188ZM72.8027-13.7207C82.5195-13.7207 90.332-21.5332 90.332-31.25C90.332-41.0156 82.5195-48.8281 72.8027-48.8281C63.1348-48.8281 55.3223-41.0156 55.3223-31.25C55.3223-21.5332 63.1836-13.7207 72.8027-13.7207Z"/>
  </g>
  <g id="Regular-M" transform="matrix(1 0 0 1 1377.43 1126)">
   <path d="M27.7832 9.76562L117.041 9.76562C127.197 9.76562 132.373 4.6875 132.373-5.37109L132.373-56.4941C132.373-66.5527 127.197-71.582 117.041-71.582L103.076-71.582C99.2188-71.582 98.0469-72.3633 95.8496-74.8047L91.9434-79.1992C89.502-81.8848 87.0117-83.3496 81.9824-83.3496L62.5-83.3496C57.4707-83.3496 54.9805-81.8848 52.5391-79.1992L48.6328-74.8047C46.4355-72.4121 45.2148-71.582 41.4062-71.582L27.7832-71.582C17.5781-71.582 12.4512-66.5527 12.4512-56.4941L12.4512-5.37109C12.4512 4.6875 17.5781 9.76562 27.7832 9.76562ZM72.4121-4.63867C57.6172-4.63867 45.752-16.4551 45.752-31.3477C45.752-46.1914 57.6172-58.0078 72.4121-58.0078C87.207-58.0078 99.0234-46.1914 99.0234-31.3477C99.0234-16.4551 87.1582-4.63867 72.4121-4.63867ZM102.295-49.3164C102.295-52.6367 105.225-55.5664 108.643-55.5664C112.012-55.5664 114.893-52.6367 114.893-49.3164C114.893-45.8496 112.012-43.0664 108.643-43.0176C105.225-43.0176 102.295-45.8008 102.295-49.3164ZM72.4121-12.0605C83.0566-12.0605 91.6504-20.6055 91.6504-31.3477C91.6504-42.041 83.0566-50.6348 72.4121-50.6348C61.7676-50.6348 53.125-42.041 53.125-31.3477C53.125-20.6055 61.8164-12.0605 72.4121-12.0605Z"/>
  </g>
  <g id="Light-M" transform="matrix(1 0 0 1 1081.72 1126)">
   <path d="M26.8555 9.0332L115.967 9.0332C125.488 9.0332 130.371 4.15039 130.371-5.22461L130.371-56.4941C130.371-65.918 125.488-70.8008 115.967-70.8008L101.66-70.8008C97.7539-70.8008 96.6309-71.3379 94.2871-73.9746L90.2344-78.5156C87.6953-81.25 85.4492-82.4707 80.5664-82.4707L61.5234-82.4707C56.6406-82.4707 54.3945-81.25 51.9043-78.5156L47.8027-73.9746C45.5078-71.3867 44.3359-70.8008 40.4297-70.8008L26.8555-70.8008C17.334-70.8008 12.4512-65.918 12.4512-56.4941L12.4512-5.22461C12.4512 4.15039 17.334 9.0332 26.8555 9.0332ZM71.4355-4.49219C56.543-4.49219 44.5801-16.4551 44.5801-31.3965C44.5801-46.3379 56.543-58.252 71.4355-58.252C86.3281-58.252 98.2422-46.3379 98.2422-31.3965C98.2422-16.4551 86.2793-4.49219 71.4355-4.49219ZM101.416-49.2676C101.416-52.4414 104.199-55.2734 107.52-55.2734C110.693-55.2734 113.477-52.4414 113.477-49.2676C113.477-45.9473 110.693-43.2129 107.52-43.2617C104.199-43.2617 101.416-45.8496 101.416-49.2676ZM71.4355-10.3027C83.0566-10.3027 92.4316-19.7266 92.4316-31.3965C92.4316-43.0664 83.0566-52.4902 71.4355-52.4902C59.7656-52.4902 50.3906-43.0664 50.3906-31.3965C50.3906-19.7266 59.8145-10.3027 71.4355-10.3027Z"/>
  </g>
  <g id="Thin-M" transform="matrix(1 0 0 1 786.329 1126)">
   <path d="M25.6348 8.05664L114.551 8.05664C123.193 8.05664 127.734 3.4668 127.734-5.0293L127.734-56.543C127.734-65.0879 123.193-69.6777 114.551-69.6777L99.8047-69.6777C95.752-69.6777 94.7754-69.9219 92.1875-72.8027L87.9395-77.5879C85.3027-80.4688 83.3496-81.2988 78.7109-81.2988L60.2539-81.2988C55.5664-81.2988 53.6133-80.4688 51.0254-77.5879L46.7285-72.8027C44.2871-70.0195 43.1152-69.6777 39.1113-69.6777L25.6348-69.6777C16.9922-69.6777 12.4512-65.0879 12.4512-56.543L12.4512-5.0293C12.4512 3.4668 16.9922 8.05664 25.6348 8.05664ZM70.1172-4.3457C55.127-4.3457 43.0176-16.4062 43.0176-31.4941C43.0176-46.582 55.127-58.5938 70.1172-58.5938C85.1562-58.5938 97.168-46.582 97.168-31.4941C97.168-16.4062 85.0586-4.3457 70.1172-4.3457ZM70.1172-8.05664C83.0078-8.05664 93.457-18.5059 93.457-31.4941C93.457-44.4824 83.0078-54.9316 70.1172-54.9316C57.1777-54.9316 46.7773-44.4824 46.7773-31.4941C46.7773-18.5059 57.1777-8.05664 70.1172-8.05664ZM100.244-49.1699C100.244-52.1484 102.881-54.834 106.006-54.834C108.984-54.834 111.572-52.1484 111.572-49.1699C111.572-46.0938 108.984-43.457 106.006-43.5547C102.881-43.6523 100.244-45.9473 100.244-49.1699Z"/>
  </g>
  <g id="Ultralight-M" transform="matrix(1 0 0 1 490.278 1126)">
   <path d="M25 7.56836L113.867 7.56836C122.07 7.56836 126.416 3.125 126.416-4.98047L126.416-56.5918C126.416-64.6484 122.07-69.1406 113.867-69.1406L98.877-69.1406C94.7754-69.1406 93.8477-69.2383 91.1621-72.2168L86.7676-77.0996C84.082-80.0293 82.2754-80.7129 77.7344-80.7129L59.5703-80.7129C55.0293-80.7129 53.2227-80.0293 50.5371-77.0996L46.1914-72.2168C43.6035-69.3359 42.4805-69.1406 38.4277-69.1406L25-69.1406C16.7969-69.1406 12.4512-64.6484 12.4512-56.5918L12.4512-4.98047C12.4512 3.125 16.7969 7.56836 25 7.56836ZM69.4336-4.29688C54.3945-4.29688 42.2363-16.3574 42.2363-31.543C42.2363-46.6797 54.3945-58.7891 69.4336-58.7891C84.5703-58.7891 96.6309-46.6797 96.6309-31.543C96.6309-16.3574 84.4238-4.29688 69.4336-4.29688ZM69.4336-6.88477C83.0078-6.88477 93.9453-17.8711 93.9453-31.543C93.9453-45.166 83.0078-56.2012 69.4336-56.2012C55.8594-56.2012 44.873-45.166 44.873-31.543C44.873-17.8711 55.8594-6.88477 69.4336-6.88477ZM99.6094-49.1699C99.6094-52.002 102.197-54.6387 105.225-54.6387C108.057-54.6387 110.645-52.002 110.645-49.1699C110.645-46.1914 108.057-43.5547 105.225-43.7012C102.197-43.7988 99.6094-45.9961 99.6094-49.1699Z"/>
  </g>
  <g id="Black-S" transform="matrix(1 0 0 1 2874.9 696)">
   <path d="M25 2.92969L91.9922 2.92969C101.562 2.92969 107.227-2.73438 107.227-12.3047L107.227-52.8809C107.227-62.4512 101.562-68.1152 91.9922-68.1152L85.2539-68.1152C82.3242-68.1152 81.1035-68.3105 78.6621-70.3613L75.7812-72.8027C73.3887-74.8535 71.1426-75.4883 67.4805-75.4883L49.5117-75.4883C45.8496-75.4883 43.6035-74.8535 41.2109-72.8027L38.3301-70.3613C35.8887-68.3105 34.668-68.1152 31.7383-68.1152L25-68.1152C15.4297-68.1152 9.76562-62.4512 9.76562-52.8809L9.76562-12.3047C9.76562-2.73438 15.4297 2.92969 25 2.92969ZM80.0781-45.8984C80.0781-49.0723 82.7637-51.7578 85.9863-51.7578C89.1602-51.7578 91.8457-49.0723 91.8457-45.8984C91.8457-42.627 89.209-40.0879 85.9863-40.0391C82.7148-39.9902 80.0781-42.627 80.0781-45.8984ZM58.4961-12.3047C47.6562-12.3047 38.916-21.0449 38.916-31.9336C38.916-42.8223 47.6562-51.5625 58.4961-51.5625C69.3848-51.5625 78.0762-42.8223 78.0762-31.9336C78.0762-21.0449 69.3848-12.3047 58.4961-12.3047ZM58.4961-24.2188C62.793-24.2188 66.1621-27.6855 66.1621-31.9336C66.1621-36.2305 62.793-39.6484 58.4961-39.6484C54.248-39.6484 50.8301-36.2305 50.8301-31.9336C50.8301-27.6855 54.248-24.2188 58.4961-24.2188Z"/>
  </g>
  <g id="Heavy-S" transform="matrix(1 0 0 1 2578.49 696)">
   <path d="M24.3652 2.34375L92.041 2.34375C101.318 2.34375 106.641-2.97852 106.641-12.207L106.641-52.6367C106.641-61.8652 101.318-67.1875 92.041-67.1875L84.3262-67.1875C81.3965-67.1875 80.2734-67.4805 78.0273-69.4824L75.0977-72.1191C72.8027-74.2188 70.6055-75 66.8945-75L49.5117-75C45.752-75 43.5547-74.2188 41.2598-72.1191L38.3789-69.4824C36.1328-67.4805 34.9609-67.1875 32.0312-67.1875L24.3652-67.1875C15.0879-67.1875 9.76562-61.8652 9.76562-52.6367L9.76562-12.207C9.76562-2.97852 15.0879 2.34375 24.3652 2.34375ZM58.2031-12.0605C47.168-12.0605 38.3301-20.9473 38.3301-31.9824C38.3301-43.0176 47.168-51.9043 58.2031-51.9043C69.2383-51.9043 78.0762-43.0176 78.0762-31.9824C78.0762-20.9473 69.2383-12.0605 58.2031-12.0605ZM80.1758-45.9961C80.1758-49.0723 82.8125-51.6602 85.8887-51.6602C88.9648-51.6602 91.5527-49.0723 91.5527-45.9961C91.5527-42.8223 89.0137-40.3809 85.8887-40.332C82.7637-40.2832 80.1758-42.8223 80.1758-45.9961ZM58.2031-22.7051C63.3301-22.7051 67.4316-26.8555 67.4316-31.9824C67.4316-37.1094 63.3301-41.2598 58.2031-41.2598C53.0762-41.2598 48.9746-37.1094 48.9746-31.9824C48.9746-26.8555 53.125-22.7051 58.2031-22.7051Z"/>
  </g>
  <g id="Bold-S" transform="matrix(1 0 0 1 2282.12 696)">
   <path d="M23.6328 1.66016L92.0898 1.66016C101.025 1.66016 105.957-3.22266 105.957-12.1094L105.957-52.3926C105.957-61.2793 101.025-66.1133 92.0898-66.1133L83.3496-66.1133C80.4199-66.1133 79.2969-66.5527 77.2949-68.5059L74.3164-71.3867C72.2168-73.4863 70.0684-74.4141 66.2109-74.4141L49.4629-74.4141C45.6543-74.4141 43.5059-73.4863 41.3574-71.3867L38.4277-68.5059C36.377-66.5527 35.3027-66.1133 32.3242-66.1133L23.6328-66.1133C14.6973-66.1133 9.76562-61.2793 9.76562-52.3926L9.76562-12.1094C9.76562-3.22266 14.6973 1.66016 23.6328 1.66016ZM57.8613-11.8164C46.6797-11.8164 37.6953-20.8008 37.6953-32.0312C37.6953-43.2617 46.6797-52.2461 57.8613-52.2461C69.0918-52.2461 78.0273-43.2617 78.0273-32.0312C78.0273-20.8008 69.0918-11.8164 57.8613-11.8164ZM80.3223-46.0938C80.3223-49.0234 82.8125-51.5625 85.8398-51.5625C88.7695-51.5625 91.2598-49.0234 91.2598-46.0938C91.2598-43.0664 88.7695-40.6738 85.8398-40.625C82.8125-40.5762 80.3223-43.0664 80.3223-46.0938ZM57.8613-21.0449C63.916-21.0449 68.7988-25.9766 68.7988-32.0312C68.7988-38.1348 63.916-43.0176 57.8613-43.0176C51.8066-43.0176 46.9238-38.1348 46.9238-32.0312C46.9238-25.9766 51.8066-21.0449 57.8613-21.0449Z"/>
  </g>
  <g id="Semibold-S" transform="matrix(1 0 0 1 1985.65 696)">
   <path d="M23.0957 1.17188L92.1387 1.17188C100.83 1.17188 105.469-3.36914 105.469-12.0117L105.469-52.1973C105.469-60.8398 100.83-65.3809 92.1387-65.3809L82.666-65.3809C79.6875-65.3809 78.6621-65.918 76.7578-67.8223L73.7793-70.8984C71.7773-72.9492 69.6289-74.0234 65.7227-74.0234L49.4629-74.0234C45.5566-74.0234 43.457-72.9492 41.4062-70.8984L38.4277-67.8223C36.5723-65.918 35.498-65.3809 32.5684-65.3809L23.0957-65.3809C14.4043-65.3809 9.76562-60.8398 9.76562-52.1973L9.76562-12.0117C9.76562-3.36914 14.4043 1.17188 23.0957 1.17188ZM57.6172-11.6211C46.2891-11.6211 37.207-20.7031 37.207-32.0801C37.207-43.457 46.2891-52.5391 57.6172-52.5391C68.9453-52.5391 78.0273-43.457 78.0273-32.0801C78.0273-20.7031 68.9453-11.6211 57.6172-11.6211ZM80.4199-46.1426C80.4199-49.0234 82.8613-51.4648 85.7422-51.4648C88.623-51.4648 91.0645-49.0234 91.0645-46.1426C91.0645-43.2129 88.623-40.918 85.7422-40.8691C82.8613-40.8203 80.4199-43.2129 80.4199-46.1426ZM57.6172-19.9219C64.3555-19.9219 69.7754-25.3418 69.7754-32.0801C69.7754-38.8184 64.3555-44.2383 57.6172-44.2383C50.9277-44.2383 45.459-38.8184 45.459-32.0801C45.459-25.3418 50.9277-19.9219 57.6172-19.9219Z"/>
  </g>
  <g id="Medium-S" transform="matrix(1 0 0 1 1689.11 696)">
   <path d="M22.7051 0.830078L92.1875 0.830078C100.684 0.830078 105.127-3.51562 105.127-11.9629L105.127-52.0508C105.127-60.498 100.684-64.8438 92.1875-64.8438L82.1289-64.8438C79.1504-64.8438 78.1738-65.4785 76.3672-67.334L73.3887-70.5078C71.4355-72.5586 69.3359-73.7305 65.3809-73.7305L49.4629-73.7305C45.5078-73.7305 43.4082-72.5586 41.4551-70.5078L38.4766-67.334C36.6699-65.4785 35.6934-64.8438 32.7148-64.8438L22.7051-64.8438C14.209-64.8438 9.76562-60.498 9.76562-52.0508L9.76562-11.9629C9.76562-3.51562 14.209 0.830078 22.7051 0.830078ZM57.4707-11.4746C46.0449-11.4746 36.8652-20.6543 36.8652-32.0801C36.8652-43.5547 46.0449-52.7344 57.4707-52.7344C68.8965-52.7344 78.0273-43.5547 78.0273-32.0801C78.0273-20.6543 68.8477-11.4746 57.4707-11.4746ZM80.4688-46.1914C80.4688-49.0234 82.8613-51.416 85.7422-51.416C88.5254-51.416 90.918-49.0234 90.918-46.1914C90.918-43.3105 88.5254-41.0645 85.7422-41.0156C82.8613-40.9668 80.4688-43.3105 80.4688-46.1914ZM57.4707-19.043C64.6484-19.043 70.5078-24.8535 70.5078-32.0801C70.5078-39.3555 64.6484-45.166 57.4707-45.166C50.2441-45.166 44.3848-39.3555 44.3848-32.0801C44.3848-24.8535 50.293-19.043 57.4707-19.043Z"/>
  </g>
  <g id="Regular-S" transform="matrix(1 0 0 1 1392.62 696)">
   <path d="M22.2168 0.390625L92.2363 0.390625C100.537 0.390625 104.688-3.71094 104.688-11.9141L104.688-51.8555C104.688-60.0586 100.537-64.1113 92.2363-64.1113L81.4453-64.1113C78.4668-64.1113 77.5391-64.8438 75.8789-66.6504L72.9004-70.0195C70.9961-72.0703 68.9453-73.3398 64.9414-73.3398L49.4629-73.3398C45.4102-73.3398 43.3594-72.0703 41.5039-70.0195L38.4766-66.6504C36.8652-64.8438 35.8887-64.1113 32.959-64.1113L22.2168-64.1113C13.916-64.1113 9.76562-60.0586 9.76562-51.8555L9.76562-11.9141C9.76562-3.71094 13.916 0.390625 22.2168 0.390625ZM57.2266-11.3281C45.7031-11.3281 36.4258-20.5566 36.4258-32.1289C36.4258-43.75 45.7031-52.9785 57.2266-52.9785C68.75-52.9785 77.9785-43.75 77.9785-32.1289C77.9785-20.5566 68.75-11.3281 57.2266-11.3281ZM80.5664-46.2891C80.5664-48.9746 82.9102-51.3184 85.6445-51.3184C88.3789-51.3184 90.6738-48.9746 90.6738-46.2891C90.6738-43.457 88.3789-41.3086 85.6445-41.2598C82.9102-41.2109 80.5664-43.457 80.5664-46.2891ZM57.2266-17.9199C65.0879-17.9199 71.4355-24.2188 71.4355-32.1289C71.4355-40.0391 65.0879-46.3867 57.2266-46.3867C49.3652-46.3867 42.9688-40.0391 42.9688-32.1289C42.9688-24.2188 49.4141-17.9199 57.2266-17.9199Z"/>
  </g>
  <g id="Light-S" transform="matrix(1 0 0 1 1096.79 696)">
   <path d="M21.3867-0.292969L91.2598-0.292969C98.9746-0.292969 102.93-4.15039 102.93-11.7676L102.93-51.9043C102.93-59.5215 98.9746-63.3789 91.2598-63.3789L80.1758-63.3789C77.1484-63.3789 76.2695-63.916 74.4629-65.918L71.3379-69.3848C69.4336-71.5332 67.5293-72.5586 63.6719-72.5586L48.584-72.5586C44.7266-72.5586 42.8711-71.5332 40.918-69.3848L37.793-65.918C36.0352-63.916 35.1074-63.3789 32.0801-63.3789L21.3867-63.3789C13.6719-63.3789 9.76562-59.5215 9.76562-51.9043L9.76562-11.7676C9.76562-4.15039 13.6719-0.292969 21.3867-0.292969ZM56.3477-11.2305C44.7266-11.2305 35.4004-20.5078 35.4004-32.1777C35.4004-43.8965 44.7266-53.1738 56.3477-53.1738C67.9688-53.1738 77.2949-43.8965 77.2949-32.1777C77.2949-20.5078 67.9688-11.2305 56.3477-11.2305ZM79.7852-46.2402C79.7852-48.7793 81.9824-51.0254 84.668-51.0254C87.207-51.0254 89.4531-48.7793 89.4531-46.2402C89.4531-43.5547 87.207-41.4551 84.668-41.4551C81.9824-41.4551 79.7852-43.5059 79.7852-46.2402ZM56.3477-16.3574C65.0879-16.3574 72.1191-23.4375 72.1191-32.1777C72.1191-40.9668 65.0879-48.0469 56.3477-48.0469C47.6074-48.0469 40.5273-40.9668 40.5273-32.1777C40.5273-23.4375 47.6562-16.3574 56.3477-16.3574Z"/>
  </g>
  <g id="Thin-S" transform="matrix(1 0 0 1 801.246 696)">
   <path d="M20.3125-1.12305L90.0391-1.12305C96.9727-1.12305 100.586-4.78516 100.586-11.6211L100.586-51.9043C100.586-58.7891 96.9727-62.4512 90.0391-62.4512L78.5645-62.4512C75.4395-62.4512 74.6094-62.6953 72.6562-64.8926L69.3359-68.6035C67.2852-70.8008 65.7227-71.5332 62.0117-71.5332L47.4609-71.5332C43.75-71.5332 42.1875-70.8008 40.1367-68.6035L36.8164-64.8926C34.9121-62.7441 34.0332-62.4512 30.9082-62.4512L20.3125-62.4512C13.3789-62.4512 9.76562-58.7891 9.76562-51.9043L9.76562-11.6211C9.76562-4.78516 13.3789-1.12305 20.3125-1.12305ZM55.1758-11.084C43.457-11.084 34.0332-20.5078 34.0332-32.2754C34.0332-44.043 43.457-53.4668 55.1758-53.4668C66.9434-53.4668 76.3184-44.043 76.3184-32.2754C76.3184-20.5078 66.8945-11.084 55.1758-11.084ZM78.7598-46.1914C78.7598-48.5352 80.8105-50.6836 83.3008-50.6836C85.6934-50.6836 87.793-48.5352 87.793-46.1914C87.793-43.7012 85.6934-41.6016 83.3008-41.6992C80.8105-41.748 78.7598-43.6035 78.7598-46.1914ZM55.1758-14.3555C65.0391-14.3555 72.998-22.3633 72.998-32.2754C72.998-42.1875 65.0391-50.1953 55.1758-50.1953C45.3125-50.1953 37.3535-42.1875 37.3535-32.2754C37.3535-22.3633 45.3125-14.3555 55.1758-14.3555Z"/>
  </g>
  <g id="Ultralight-S" transform="matrix(1 0 0 1 505.121 696)">
   <path d="M19.7754-1.5625L89.4043-1.5625C95.9473-1.5625 99.4141-5.12695 99.4141-11.5234L99.4141-51.9531C99.4141-58.3984 95.9473-61.9141 89.4043-61.9141L77.7344-61.9141C74.5117-61.9141 73.7793-62.0605 71.6797-64.3555L68.3105-68.1641C66.2109-70.459 64.7461-70.9961 61.1816-70.9961L46.875-70.9961C43.2617-70.9961 41.8457-70.459 39.7461-68.1641L36.3281-64.3555C34.375-62.1582 33.4961-61.9141 30.3223-61.9141L19.7754-61.9141C13.2324-61.9141 9.76562-58.3984 9.76562-51.9531L9.76562-11.5234C9.76562-5.12695 13.2324-1.5625 19.7754-1.5625ZM54.5898-10.9863C42.8223-10.9863 33.3008-20.459 33.3008-32.3242C33.3008-44.1895 42.8223-53.6133 54.5898-53.6133C66.4062-53.6133 75.8301-44.1895 75.8301-32.3242C75.8301-20.459 66.3574-10.9863 54.5898-10.9863ZM54.5898-13.3301C65.0391-13.3301 73.4863-21.8262 73.4863-32.3242C73.4863-42.8223 65.0391-51.3184 54.5898-51.3184C44.1406-51.3184 35.6934-42.8223 35.6934-32.3242C35.6934-21.8262 44.1406-13.3301 54.5898-13.3301ZM78.2227-46.1426C78.2227-48.4375 80.2246-50.4883 82.6172-50.4883C84.9121-50.4883 86.9141-48.4375 86.9141-46.1426C86.9141-43.7988 84.9121-41.748 82.6172-41.7969C80.2246-41.8945 78.2227-43.6523 78.2227-46.1426Z"/>
  </g>
 </g>
</svg>
