<?xml version="1.0" encoding="UTF-8"?>
<!--Generator: Apple Native CoreSVG 149-->
<!DOCTYPE svg
PUBLIC "-//W3C//DTD SVG 1.1//EN"
       "http://www.w3.org/Graphics/SVG/1.1/DTD/svg11.dtd">
<svg version="1.1" xmlns="http://www.w3.org/2000/svg" xmlns:xlink="http://www.w3.org/1999/xlink" width="3300" height="2200">
 <!--glyph: "uni1004CF.medium", point size: 100.000000, font version: "Version 16.0d18e1", template writer version: "8"-->
 <g id="Notes">
  <rect height="2200" id="artboard" style="fill:white;opacity:1" width="3300" x="0" y="0"/>
  <line id="" style="fill:none;stroke:black;opacity:1;stroke-width:0.5;" x1="263" x2="3036" y1="292" y2="292"/>
  <text style="stroke:none;fill:black;font-family:-apple-system,&quot;SF Pro Display&quot;,&quot;SF Pro Text&quot;,Helvetica,sans-serif;font-weight:bold;" transform="matrix(1 0 0 1 263 322)">Weight/Scale Variations</text>
  <text style="stroke:none;fill:black;font-family:-apple-system,&quot;SF Pro Display&quot;,&quot;SF Pro Text&quot;,Helvetica,sans-serif;text-anchor:middle;" transform="matrix(1 0 0 1 559.711 322)">Ultralight</text>
  <text style="stroke:none;fill:black;font-family:-apple-system,&quot;SF Pro Display&quot;,&quot;SF Pro Text&quot;,Helvetica,sans-serif;text-anchor:middle;" transform="matrix(1 0 0 1 856.422 322)">Thin</text>
  <text style="stroke:none;fill:black;font-family:-apple-system,&quot;SF Pro Display&quot;,&quot;SF Pro Text&quot;,Helvetica,sans-serif;text-anchor:middle;" transform="matrix(1 0 0 1 1153.13 322)">Light</text>
  <text style="stroke:none;fill:black;font-family:-apple-system,&quot;SF Pro Display&quot;,&quot;SF Pro Text&quot;,Helvetica,sans-serif;text-anchor:middle;" transform="matrix(1 0 0 1 1449.84 322)">Regular</text>
  <text style="stroke:none;fill:black;font-family:-apple-system,&quot;SF Pro Display&quot;,&quot;SF Pro Text&quot;,Helvetica,sans-serif;text-anchor:middle;" transform="matrix(1 0 0 1 1746.56 322)">Medium</text>
  <text style="stroke:none;fill:black;font-family:-apple-system,&quot;SF Pro Display&quot;,&quot;SF Pro Text&quot;,Helvetica,sans-serif;text-anchor:middle;" transform="matrix(1 0 0 1 2043.27 322)">Semibold</text>
  <text style="stroke:none;fill:black;font-family:-apple-system,&quot;SF Pro Display&quot;,&quot;SF Pro Text&quot;,Helvetica,sans-serif;text-anchor:middle;" transform="matrix(1 0 0 1 2339.98 322)">Bold</text>
  <text style="stroke:none;fill:black;font-family:-apple-system,&quot;SF Pro Display&quot;,&quot;SF Pro Text&quot;,Helvetica,sans-serif;text-anchor:middle;" transform="matrix(1 0 0 1 2636.69 322)">Heavy</text>
  <text style="stroke:none;fill:black;font-family:-apple-system,&quot;SF Pro Display&quot;,&quot;SF Pro Text&quot;,Helvetica,sans-serif;text-anchor:middle;" transform="matrix(1 0 0 1 2933.4 322)">Black</text>
  <line id="" style="fill:none;stroke:black;opacity:1;stroke-width:0.5;" x1="263" x2="3036" y1="1903" y2="1903"/>
  <g id="" transform="matrix(1 0 0 1 263 1933)">
   <path d="M9.24805 0.830078C13.5547 0.830078 17.1387-2.74414 17.1387-7.05078C17.1387-11.3574 13.5449-14.9316 9.23828-14.9316C4.94141-14.9316 1.36719-11.3574 1.36719-7.05078C1.36719-2.74414 4.95117 0.830078 9.24805 0.830078ZM9.24805-0.654297C5.70312-0.654297 2.87109-3.49609 2.87109-7.05078C2.87109-10.6055 5.69336-13.4473 9.23828-13.4473C12.793-13.4473 15.6348-10.6055 15.6445-7.05078C15.6543-3.49609 12.8027-0.654297 9.24805-0.654297ZM6.39648-6.31836L8.50586-6.31836L8.50586-4.19922C8.50586-3.75977 8.79883-3.45703 9.22852-3.45703C9.67773-3.45703 9.9707-3.75977 9.9707-4.19922L9.9707-6.31836L12.0996-6.31836C12.5391-6.31836 12.8418-6.61133 12.8418-7.04102C12.8418-7.48047 12.5391-7.7832 12.0996-7.7832L9.9707-7.7832L9.9707-9.89258C9.9707-10.3418 9.67773-10.6445 9.22852-10.6445C8.79883-10.6445 8.50586-10.3418 8.50586-9.89258L8.50586-7.7832L6.39648-7.7832C5.94727-7.7832 5.64453-7.48047 5.64453-7.04102C5.64453-6.61133 5.94727-6.31836 6.39648-6.31836Z"/>
  </g>
  <g id="" transform="matrix(1 0 0 1 281.506 1933)">
   <path d="M11.709 2.91016C17.1582 2.91016 21.6699-1.61133 21.6699-7.05078C21.6699-12.5 17.1484-17.0117 11.6992-17.0117C6.25977-17.0117 1.74805-12.5 1.74805-7.05078C1.74805-1.61133 6.26953 2.91016 11.709 2.91016ZM11.709 1.25C7.09961 1.25 3.41797-2.44141 3.41797-7.05078C3.41797-11.6602 7.08984-15.3516 11.6992-15.3516C16.3086-15.3516 20-11.6602 20.0098-7.05078C20.0195-2.44141 16.3184 1.25 11.709 1.25ZM7.98828-6.23047L10.8789-6.23047L10.8789-3.32031C10.8789-2.83203 11.2109-2.5 11.6895-2.5C12.1777-2.5 12.5195-2.83203 12.5195-3.32031L12.5195-6.23047L15.4297-6.23047C15.918-6.23047 16.25-6.5625 16.25-7.04102C16.25-7.5293 15.918-7.87109 15.4297-7.87109L12.5195-7.87109L12.5195-10.7617C12.5195-11.2695 12.1777-11.6016 11.6895-11.6016C11.2109-11.6016 10.8789-11.2598 10.8789-10.7617L10.8789-7.87109L7.98828-7.87109C7.48047-7.87109 7.14844-7.5293 7.14844-7.04102C7.14844-6.5625 7.49023-6.23047 7.98828-6.23047Z"/>
  </g>
  <g id="" transform="matrix(1 0 0 1 304.924 1933)">
   <path d="M14.9707 5.66406C21.9336 5.66406 27.6953-0.0976562 27.6953-7.05078C27.6953-14.0137 21.9238-19.7754 14.9609-19.7754C8.00781-19.7754 2.25586-14.0137 2.25586-7.05078C2.25586-0.0976562 8.01758 5.66406 14.9707 5.66406ZM14.9707 3.84766C8.93555 3.84766 4.08203-1.01562 4.08203-7.05078C4.08203-13.0957 8.92578-17.9492 14.9609-17.9492C21.0059-17.9492 25.8594-13.0957 25.8691-7.05078C25.8789-1.01562 21.0156 3.84766 14.9707 3.84766ZM10.0586-6.14258L14.0625-6.14258L14.0625-2.12891C14.0625-1.5918 14.4336-1.2207 14.9512-1.2207C15.4883-1.2207 15.8594-1.5918 15.8594-2.12891L15.8594-6.14258L19.8828-6.14258C20.4102-6.14258 20.791-6.51367 20.791-7.03125C20.791-7.56836 20.4199-7.94922 19.8828-7.94922L15.8594-7.94922L15.8594-11.9531C15.8594-12.5098 15.4883-12.8809 14.9512-12.8809C14.4336-12.8809 14.0625-12.5 14.0625-11.9531L14.0625-7.94922L10.0586-7.94922C9.50195-7.94922 9.13086-7.56836 9.13086-7.03125C9.13086-6.51367 9.51172-6.14258 10.0586-6.14258Z"/>
  </g>
  <text style="stroke:none;fill:black;font-family:-apple-system,&quot;SF Pro Display&quot;,&quot;SF Pro Text&quot;,Helvetica,sans-serif;font-weight:bold;" transform="matrix(1 0 0 1 263 1953)">Design Variations</text>
  <text style="stroke:none;fill:black;font-family:-apple-system,&quot;SF Pro Display&quot;,&quot;SF Pro Text&quot;,Helvetica,sans-serif;" transform="matrix(1 0 0 1 263 1971)">Symbols are supported in up to nine weights and three scales.</text>
  <text style="stroke:none;fill:black;font-family:-apple-system,&quot;SF Pro Display&quot;,&quot;SF Pro Text&quot;,Helvetica,sans-serif;" transform="matrix(1 0 0 1 263 1989)">For optimal layout with text and other symbols, vertically align</text>
  <text style="stroke:none;fill:black;font-family:-apple-system,&quot;SF Pro Display&quot;,&quot;SF Pro Text&quot;,Helvetica,sans-serif;" transform="matrix(1 0 0 1 263 2007)">symbols with the adjacent text.</text>
  <line id="" style="fill:none;stroke:#00AEEF;stroke-width:0.5;opacity:1.0;" x1="776" x2="776" y1="1919" y2="1933"/>
  <g id="" transform="matrix(1 0 0 1 776 1933)">
   <path d="M3.31055 0.126953C3.82812 0.126953 4.08203-0.0683594 4.26758-0.605469L5.52734-4.0625L11.2891-4.0625L12.5488-0.605469C12.7344-0.0683594 12.9883 0.126953 13.4961 0.126953C14.0137 0.126953 14.3457-0.185547 14.3457-0.673828C14.3457-0.839844 14.3164-0.986328 14.2383-1.20117L9.6582-13.3887C9.43359-13.9941 9.0332-14.2871 8.4082-14.2871C7.80273-14.2871 7.39258-13.9941 7.17773-13.3984L2.59766-1.19141C2.51953-0.976562 2.49023-0.830078 2.49023-0.664062C2.49023-0.175781 2.80273 0.126953 3.31055 0.126953ZM6.00586-5.53711L8.37891-12.1094L8.42773-12.1094L10.8008-5.53711Z"/>
  </g>
  <line id="" style="fill:none;stroke:#00AEEF;stroke-width:0.5;opacity:1.0;" x1="792.836" x2="792.836" y1="1919" y2="1933"/>
  <text style="stroke:none;fill:black;font-family:-apple-system,&quot;SF Pro Display&quot;,&quot;SF Pro Text&quot;,Helvetica,sans-serif;font-weight:bold;" transform="matrix(1 0 0 1 776 1953)">Margins</text>
  <text style="stroke:none;fill:black;font-family:-apple-system,&quot;SF Pro Display&quot;,&quot;SF Pro Text&quot;,Helvetica,sans-serif;" transform="matrix(1 0 0 1 776 1971)">Leading and trailing margins on the left and right side of each symbol</text>
  <text style="stroke:none;fill:black;font-family:-apple-system,&quot;SF Pro Display&quot;,&quot;SF Pro Text&quot;,Helvetica,sans-serif;" transform="matrix(1 0 0 1 776 1989)">can be adjusted by modifying the x-location of the margin guidelines.</text>
  <text style="stroke:none;fill:black;font-family:-apple-system,&quot;SF Pro Display&quot;,&quot;SF Pro Text&quot;,Helvetica,sans-serif;" transform="matrix(1 0 0 1 776 2007)">Modifications are automatically applied proportionally to all</text>
  <text style="stroke:none;fill:black;font-family:-apple-system,&quot;SF Pro Display&quot;,&quot;SF Pro Text&quot;,Helvetica,sans-serif;" transform="matrix(1 0 0 1 776 2025)">scales and weights.</text>
  <g id="" transform="matrix(1 0 0 1 1289 1933)">
   <path d="M2.8418 1.86523L4.54102 3.57422C5.40039 4.44336 6.38672 4.38477 7.31445 3.35938L17.4902-7.85156C17.7539-7.76367 18.0273-7.7832 18.3398-7.8418L19.4043-8.03711L20.0684-7.36328L20.0293-6.80664C19.9902-6.30859 20.1172-5.92773 20.6055-5.44922L21.3672-4.70703C21.8457-4.22852 22.4609-4.19922 22.9297-4.66797L25.8398-7.58789C26.3086-8.05664 26.2891-8.65234 25.8105-9.13086L25.0391-9.89258C24.5605-10.3711 24.1895-10.5273 23.7109-10.4883L23.1348-10.4395L22.4902-11.0742L22.7344-12.1973C22.8613-12.7637 22.7051-13.2031 22.1191-13.7891L19.9219-15.9766C16.582-19.2969 12.1484-19.2188 9.25781-16.3281C8.83789-15.918 8.80859-15.3418 9.04297-14.9512C9.27734-14.5898 9.73633-14.3555 10.3809-14.5215C11.8457-14.8633 13.3691-14.9219 14.7949-13.9844L14.209-12.5293C14.0137-12.0508 13.9844-11.6504 14.1113-11.2891L3.04688-0.898438C2.06055 0.0195312 1.98242 0.996094 2.8418 1.86523ZM10.752-15.957C13.1836-17.7344 16.4746-17.4316 18.7012-15.2051L21.1328-12.793C21.3672-12.5586 21.4062-12.373 21.3379-12.0312L21.0156-10.5469L22.5195-9.0625L23.5059-9.12109C23.7598-9.13086 23.8379-9.11133 24.0332-8.91602L24.6094-8.33984L22.168-5.89844L21.5918-6.47461C21.3965-6.66992 21.3672-6.74805 21.377-7.01172L21.4453-7.98828L19.9512-9.47266L18.4277-9.21875C18.1055-9.15039 17.959-9.17969 17.7148-9.41406L15.7129-11.416C15.459-11.6504 15.4297-11.8164 15.5859-12.1875L16.4648-14.2773C14.9023-15.7324 12.8711-16.3574 10.8398-15.7617C10.6836-15.7227 10.625-15.8496 10.752-15.957ZM5.27344 2.30469L4.10156 1.14258C3.63281 0.683594 3.74023 0.341797 4.14062-0.0195312L14.9512-10.1953L16.416-8.71094L6.42578 2.27539C6.07422 2.67578 5.74219 2.77344 5.27344 2.30469Z"/>
  </g>
  <text style="stroke:none;fill:black;font-family:-apple-system,&quot;SF Pro Display&quot;,&quot;SF Pro Text&quot;,Helvetica,sans-serif;font-weight:bold;" transform="matrix(1 0 0 1 1289 1953)">Exporting</text>
  <text style="stroke:none;fill:black;font-family:-apple-system,&quot;SF Pro Display&quot;,&quot;SF Pro Text&quot;,Helvetica,sans-serif;" transform="matrix(1 0 0 1 1289 1971)">Symbols should be outlined when exporting to ensure the</text>
  <text style="stroke:none;fill:black;font-family:-apple-system,&quot;SF Pro Display&quot;,&quot;SF Pro Text&quot;,Helvetica,sans-serif;" transform="matrix(1 0 0 1 1289 1989)">design is preserved when submitting to Xcode.</text>
  <text id="template-version" style="stroke:none;fill:black;font-family:-apple-system,&quot;SF Pro Display&quot;,&quot;SF Pro Text&quot;,Helvetica,sans-serif;text-anchor:end;" transform="matrix(1 0 0 1 3036 1933)">Template v.2.0</text>
  <text style="stroke:none;fill:black;font-family:-apple-system,&quot;SF Pro Display&quot;,&quot;SF Pro Text&quot;,Helvetica,sans-serif;text-anchor:end;" transform="matrix(1 0 0 1 3036 1951)">Requires Xcode 12 or greater</text>
  <text style="stroke:none;fill:black;font-family:-apple-system,&quot;SF Pro Display&quot;,&quot;SF Pro Text&quot;,Helvetica,sans-serif;text-anchor:end;" transform="matrix(1 0 0 1 3036 1969)">Generated from hare.fill</text>
  <text style="stroke:none;fill:black;font-family:-apple-system,&quot;SF Pro Display&quot;,&quot;SF Pro Text&quot;,Helvetica,sans-serif;text-anchor:end;" transform="matrix(1 0 0 1 3036 1987)">Typeset at 100 points</text>
  <text style="stroke:none;fill:black;font-family:-apple-system,&quot;SF Pro Display&quot;,&quot;SF Pro Text&quot;,Helvetica,sans-serif;" transform="matrix(1 0 0 1 263 726)">Small</text>
  <text style="stroke:none;fill:black;font-family:-apple-system,&quot;SF Pro Display&quot;,&quot;SF Pro Text&quot;,Helvetica,sans-serif;" transform="matrix(1 0 0 1 263 1156)">Medium</text>
  <text style="stroke:none;fill:black;font-family:-apple-system,&quot;SF Pro Display&quot;,&quot;SF Pro Text&quot;,Helvetica,sans-serif;" transform="matrix(1 0 0 1 263 1586)">Large</text>
 </g>
 <g id="Guides">
  <g id="H-reference" style="fill:#27AAE1;stroke:none;" transform="matrix(1 0 0 1 339 696)">
   <path d="M0.976562 0L3.66211 0L12.9883-24.4629L45.752-24.4629L55.127 0L57.7637 0L30.6152-70.459L28.125-70.459ZM29.3457-67.1387L29.4434-67.1387L44.873-26.709L13.8672-26.709Z"/>
  </g>
  <line id="Baseline-S" style="fill:none;stroke:#27AAE1;opacity:1;stroke-width:0.5;" x1="263" x2="3036" y1="696" y2="696"/>
  <line id="Capline-S" style="fill:none;stroke:#27AAE1;opacity:1;stroke-width:0.5;" x1="263" x2="3036" y1="625.541" y2="625.541"/>
  <g id="H-reference" style="fill:#27AAE1;stroke:none;" transform="matrix(1 0 0 1 339 1126)">
   <path d="M0.976562 0L3.66211 0L12.9883-24.4629L45.752-24.4629L55.127 0L57.7637 0L30.6152-70.459L28.125-70.459ZM29.3457-67.1387L29.4434-67.1387L44.873-26.709L13.8672-26.709Z"/>
  </g>
  <line id="Baseline-M" style="fill:none;stroke:#27AAE1;opacity:1;stroke-width:0.5;" x1="263" x2="3036" y1="1126" y2="1126"/>
  <line id="Capline-M" style="fill:none;stroke:#27AAE1;opacity:1;stroke-width:0.5;" x1="263" x2="3036" y1="1055.54" y2="1055.54"/>
  <g id="H-reference" style="fill:#27AAE1;stroke:none;" transform="matrix(1 0 0 1 339 1556)">
   <path d="M0.976562 0L3.66211 0L12.9883-24.4629L45.752-24.4629L55.127 0L57.7637 0L30.6152-70.459L28.125-70.459ZM29.3457-67.1387L29.4434-67.1387L44.873-26.709L13.8672-26.709Z"/>
  </g>
  <line id="Baseline-L" style="fill:none;stroke:#27AAE1;opacity:1;stroke-width:0.5;" x1="263" x2="3036" y1="1556" y2="1556"/>
  <line id="Capline-L" style="fill:none;stroke:#27AAE1;opacity:1;stroke-width:0.5;" x1="263" x2="3036" y1="1485.54" y2="1485.54"/>
  <line id="left-margin" style="fill:none;stroke:#00AEEF;stroke-width:0.5;opacity:1.0;" x1="1367.96" x2="1367.96" y1="1030.79" y2="1150.12"/>
  <line id="right-margin" style="fill:none;stroke:#00AEEF;stroke-width:0.5;opacity:1.0;" x1="1531.73" x2="1531.73" y1="1030.79" y2="1150.12"/>
 </g>
 <g id="Symbols">
  <g id="Black-L" transform="matrix(1 0 0 1 2820.95 1556)">
   <path d="M117.334 27.0508C121.777 27.0508 126.611 24.8535 135.059 24.8535C143.701 24.8535 146.436 27.0508 152.93 27.0508C162.061 27.0508 167.822 22.998 167.822 15.625C167.822 4.78516 158.154-5.41992 138.477-5.41992C127.93-5.41992 123.73-3.27148 117.529-2.24609L109.766-18.8477C102.1-34.9609 87.5488-42.3828 72.6074-42.3828L64.7461-42.3828C61.084-42.3828 58.8867-44.2871 58.8867-47.5586C58.8867-52.9297 65.1855-54.2969 72.0703-54.2969C92.4805-54.2969 109.912-44.2383 120.117-22.4609L124.268-13.5254C128.467-14.2578 133.057-14.6973 137.744-14.6973C141.553-14.6973 145.459-14.4531 149.219-13.3789C153.369-15.1855 158.008-17.1875 162.012-19.1895C169.629-14.502 177.295-9.17969 191.699-9.17969C205.127-9.17969 213.623-14.9902 213.623-32.4219C213.623-52.6855 200.146-71.3867 176.025-70.166L161.816-91.9922C153.223-105.273 140.674-110.986 128.809-110.986C119.336-110.986 101.758-105.908 101.758-98.4863C101.758-93.8965 112.549-86.5234 120.654-81.0547L155.225-57.6172C152.686-55.5176 150.732-53.8574 146.387-53.8574C140.527-53.8574 133.936-58.3008 127.49-61.7188C106.641-75.1465 93.8965-85.1562 71.0938-85.1562C50.5371-85.1562 32.2266-74.0723 23.5352-47.4121C16.5039-47.8027 11.2793-43.4082 11.2793-37.0117C11.2793-29.9805 17.041-25.3906 25.2441-25.6348C35.1562-8.25195 48.1445-2.44141 68.75-2.44141C69.9707-2.44141 71.1914-2.49023 72.4609-2.53906L99.0234 20.1172C105.518 25.7812 111.865 27.0508 117.334 27.0508ZM184.668-33.9844C180.859-33.9844 177.783-37.1582 177.783-40.918C177.783-44.8242 180.859-48.1445 184.717-48.1445C188.623-48.1445 191.699-45.0195 191.699-41.2598C191.699-37.3047 188.525-33.9844 184.668-33.9844ZM65.5762 32.6172C76.7578 32.6172 84.3262 30.7129 90.5762 26.6113L71.6309 10.4004C70.752 10.498 69.7754 10.5469 68.6523 10.5469C65.7227 10.5469 59.6191 9.52148 54.3457 9.52148C47.4121 9.52148 43.0176 13.1836 43.0176 18.7012C43.0176 27.0508 52.002 32.6172 65.5762 32.6172Z"/>
  </g>
  <g id="Heavy-L" transform="matrix(1 0 0 1 2525.95 1556)">
   <path d="M115.527 25.8789C119.922 25.8789 124.609 23.7305 132.959 23.7305C141.504 23.7305 144.141 25.8789 150.537 25.8789C159.717 25.8789 165.332 21.875 165.332 14.7949C165.332 3.95508 154.98-5.56641 135.547-5.56641C125.342-5.56641 121.143-3.71094 115.186-2.63672L107.666-18.9453C100.195-34.8145 86.5234-42.6758 71.582-42.6758L63.8184-42.6758C60.4492-42.6758 58.3984-44.3848 58.3984-47.4121C58.3984-52.4414 64.4531-53.6621 70.9961-53.6621C90.918-53.6621 107.422-43.6035 117.188-22.2168L121.338-12.8906C125.586-13.6719 130.176-14.0625 134.863-14.0625C138.623-14.0625 142.334-13.8184 146.094-12.8906C150.146-14.9414 154.688-17.2363 159.229-19.5312C166.65-14.7461 174.561-9.91211 187.598-9.91211C201.904-9.91211 210.205-15.2344 210.205-32.3242C210.205-52.5391 196.387-70.3613 173.584-69.3359L158.789-91.3086C150-104.395 137.744-110.156 126.025-110.156C116.65-110.156 100.098-105.029 100.098-97.6562C100.098-92.9199 110.693-85.7422 118.75-80.4199L153.76-57.373C150.977-54.9316 148.877-53.3203 144.775-53.3203C139.209-53.3203 133.057-57.2754 126.318-60.9863C105.859-73.8281 92.627-83.9844 70.459-83.9844C49.8047-83.9844 32.0801-72.7539 23.4375-46.9238C16.4551-47.2168 11.2793-42.8223 11.2793-36.4258C11.2793-29.2969 17.041-24.7559 25.1953-24.9023C34.8633-8.64258 48.3398-2.97852 68.3105-2.97852C69.4336-2.97852 70.6055-2.97852 71.8262-3.02734L98.0957 19.0918C104.443 24.6582 110.205 25.8789 115.527 25.8789ZM181.836-34.2773C178.271-34.2773 175.391-37.2559 175.391-40.7715C175.391-44.3848 178.32-47.5098 181.885-47.5098C185.498-47.5098 188.379-44.5801 188.379-41.0645C188.379-37.4023 185.4-34.2773 181.836-34.2773ZM65.1367 31.2012C76.5137 31.2012 84.0332 29.1992 90.2832 25.0977L71.1914 8.93555C70.3125 9.0332 69.3359 9.13086 68.1641 9.13086C65.2344 9.13086 59.3262 8.10547 54.0527 8.10547C47.168 8.10547 42.8223 11.7676 42.8223 17.2852C42.8223 25.5859 51.6113 31.2012 65.1367 31.2012Z"/>
  </g>
  <g id="Bold-L" transform="matrix(1 0 0 1 2231.16 1556)">
   <path d="M113.525 24.6094C117.92 24.6094 122.363 22.4609 130.615 22.4609C139.014 22.4609 141.553 24.6094 147.9 24.6094C157.129 24.6094 162.5 20.6055 162.5 13.916C162.5 3.02734 151.465-5.76172 132.275-5.76172C122.412-5.76172 118.213-4.24805 112.549-3.07617L105.322-19.043C98.0957-34.6191 85.4004-43.0176 70.4102-43.0176L62.793-43.0176C59.7656-43.0176 57.9102-44.4824 57.9102-47.2656C57.9102-51.8555 63.623-52.9785 69.8242-52.9785C89.209-52.9785 104.639-42.9199 113.867-21.9238L118.115-12.1582C122.314-12.9883 126.953-13.4277 131.641-13.4277C135.352-13.4277 138.867-13.1836 142.529-12.4023C146.533-14.6973 151.025-17.2363 156.104-19.9707C163.379-14.9902 171.484-10.6934 183.008-10.6934C198.291-10.6934 206.348-15.5273 206.348-32.1777C206.348-52.3926 192.139-69.2383 170.85-68.4082L155.42-90.5762C146.436-103.32 134.521-109.229 122.998-109.229C113.623-109.229 98.2422-104.053 98.2422-96.6797C98.2422-91.8945 108.594-84.8145 116.602-79.6875L152.1-57.0312C149.072-54.2969 146.729-52.6855 143.018-52.6855C137.744-52.6855 132.08-56.2012 125.049-60.1562C104.98-72.3633 91.1621-82.7148 69.7266-82.7148C48.9746-82.7148 31.8848-71.2402 23.3398-46.3867C16.4062-46.5332 11.2793-42.1875 11.2793-35.7422C11.2793-28.5645 17.041-24.0234 25.1465-24.1211C34.5703-9.08203 48.4863-3.51562 67.8223-3.51562C68.8477-3.51562 69.9707-3.56445 71.0449-3.56445L97.0215 17.9688C103.223 23.4863 108.398 24.6094 113.525 24.6094ZM178.662-34.5703C175.391-34.5703 172.754-37.3535 172.754-40.5762C172.754-43.8965 175.439-46.7285 178.711-46.7285C182.031-46.7285 184.668-44.0918 184.668-40.8691C184.668-37.5 181.934-34.5703 178.662-34.5703ZM64.6484 29.5898C76.2207 29.5898 83.7402 27.4902 89.9414 23.3887L70.7031 7.32422C69.8242 7.42188 68.7988 7.51953 67.5781 7.51953C64.6484 7.51953 59.0332 6.54297 53.7598 6.54297C46.8262 6.54297 42.5781 10.1562 42.5781 15.6738C42.5781 24.0234 51.2207 29.5898 64.6484 29.5898Z"/>
  </g>
  <g id="Semibold-L" transform="matrix(1 0 0 1 1935.77 1556)">
   <path d="M112.158 23.6816C116.504 23.6816 120.801 21.582 129.004 21.582C137.305 21.582 139.795 23.6816 146.045 23.6816C155.322 23.6816 160.547 19.7266 160.547 13.2812C160.547 2.39258 149.023-5.85938 130.029-5.85938C120.41-5.85938 116.211-4.58984 110.742-3.36914L103.662-19.0918C96.6309-34.5215 84.6191-43.2617 69.6289-43.2617L62.0605-43.2617C59.2773-43.2617 57.5195-44.5801 57.5195-47.168C57.5195-51.416 63.0371-52.4902 69.043-52.4902C87.9883-52.4902 102.734-42.4316 111.621-21.7285L115.869-11.6699C120.117-12.5488 124.707-12.9395 129.395-12.9395C133.105-12.9395 136.475-12.6953 140.137-12.0605C144.043-14.502 148.438-17.2363 153.955-20.2637C161.133-15.1855 169.385-11.2793 179.883-11.2793C195.801-11.2793 203.711-15.7227 203.711-32.0801C203.711-52.2949 189.209-68.457 168.945-67.7734L153.125-90.0879C143.945-102.637 132.324-108.594 120.85-108.594C111.572-108.594 96.9238-103.369 96.9238-96.0449C96.9238-91.1621 107.178-84.1797 115.137-79.1992L150.928-56.8359C147.754-53.8574 145.264-52.2949 141.748-52.2949C136.719-52.2949 131.396-55.4199 124.17-59.5703C104.395-71.3379 90.1855-81.8359 69.2383-81.8359C48.3887-81.8359 31.7871-70.2148 23.2422-45.9961C16.4062-46.0449 11.2793-41.748 11.2793-35.2539C11.2793-28.0762 17.041-23.5352 25.0977-23.5352C34.375-9.375 48.6328-3.90625 67.4805-3.90625C68.457-3.90625 69.5312-3.95508 70.5566-3.95508L96.2891 17.1875C102.393 22.6562 107.129 23.6816 112.158 23.6816ZM176.465-34.8145C173.389-34.8145 170.898-37.4023 170.898-40.4297C170.898-43.5547 173.438-46.2402 176.514-46.2402C179.639-46.2402 182.129-43.75 182.129-40.7227C182.129-37.5977 179.541-34.8145 176.465-34.8145ZM64.3066 28.4668C76.0254 28.4668 83.4961 26.3184 89.7461 22.2168L70.3613 6.25C69.4824 6.29883 68.457 6.39648 67.1875 6.39648C64.2578 6.39648 58.7891 5.41992 53.5645 5.41992C46.6309 5.41992 42.4316 9.08203 42.4316 14.5996C42.4316 22.9004 50.9277 28.4668 64.3066 28.4668Z"/>
  </g>
  <g id="Medium-L" transform="matrix(1 0 0 1 1640.06 1556)">
   <path d="M111.084 22.998C115.43 22.998 119.629 20.8984 127.783 20.8984C136.035 20.8984 138.428 22.998 144.678 22.998C153.955 22.998 159.033 19.0918 159.033 12.8418C159.033 1.95312 147.168-5.95703 128.32-5.95703C118.896-5.95703 114.697-4.83398 109.375-3.61328L102.441-19.1406C95.5078-34.4238 83.9844-43.457 68.9941-43.457L61.5234-43.457C58.8867-43.457 57.2754-44.6289 57.2754-47.0703C57.2754-51.123 62.5977-52.1484 68.457-52.1484C87.1094-52.1484 101.27-42.0898 109.863-21.582L114.16-11.3281C118.408-12.207 122.998-12.5977 127.734-12.5977C131.396-12.5977 134.668-12.3535 138.281-11.7676C142.139-14.3555 146.533-17.2852 152.295-20.459C159.375-15.332 167.773-11.6699 177.49-11.6699C193.896-11.6699 201.709-15.8691 201.709-32.0312C201.709-52.1973 186.963-67.8711 167.529-67.2852L151.367-89.6973C142.09-102.1 130.615-108.105 119.238-108.105C110.01-108.105 95.9473-102.881 95.9473-95.5566C95.9473-90.625 106.104-83.7402 114.014-78.8086L150.049-56.6895C146.729-53.5156 144.141-51.9531 140.82-51.9531C135.938-51.9531 130.859-54.834 123.486-59.1309C103.906-70.6055 89.4043-81.1523 68.8477-81.1523C47.998-81.1523 31.6895-69.4336 23.1934-45.7031C16.4062-45.7031 11.2793-41.4062 11.2793-34.9121C11.2793-27.6855 17.041-23.1445 25.0488-23.1445C34.2285-9.57031 48.7305-4.19922 67.2363-4.19922C68.1641-4.19922 69.1895-4.24805 70.166-4.24805L95.7031 16.6016C101.758 22.0215 106.152 22.998 111.084 22.998ZM174.805-35.0098C171.875-35.0098 169.531-37.4512 169.531-40.332C169.531-43.3105 171.924-45.8496 174.854-45.8496C177.832-45.8496 180.176-43.5059 180.176-40.625C180.176-37.6465 177.734-35.0098 174.805-35.0098ZM64.0137 27.5879C75.8789 27.5879 83.3496 25.4395 89.5508 21.3379L70.1172 5.37109C69.2383 5.46875 68.1641 5.56641 66.8945 5.56641C63.9648 5.56641 58.6426 4.58984 53.418 4.58984C46.4355 4.58984 42.2852 8.25195 42.2852 13.7695C42.2852 22.0703 50.6836 27.5879 64.0137 27.5879Z"/>
  </g>
  <g id="Regular-L" transform="matrix(1 0 0 1 1344.64 1556)">
   <path d="M109.717 22.1191C114.062 22.1191 118.115 20.0684 126.221 20.0684C134.375 20.0684 136.67 22.1191 142.822 22.1191C152.148 22.1191 157.129 18.2129 157.129 12.207C157.129 1.31836 144.727-6.05469 126.123-6.05469C116.895-6.05469 112.744-5.22461 107.568-3.90625L100.879-19.2383C94.043-34.2773 83.2031-43.6523 68.2129-43.6523L60.8398-43.6523C58.4473-43.6523 56.8848-44.7266 56.8848-46.9727C56.8848-50.7324 62.0605-51.6602 67.627-51.6602C85.9375-51.6602 99.3652-41.6016 107.666-21.3867L111.963-10.8398C116.162-11.7188 120.801-12.1582 125.488-12.1582C129.199-12.1582 132.275-11.9141 135.889-11.4258C139.697-14.209 143.994-17.2852 150.146-20.752C157.129-15.4785 165.723-12.2559 174.365-12.2559C191.455-12.2559 199.121-16.0645 199.121-31.9336C199.121-52.0996 184.082-67.1387 165.674-66.6992L149.072-89.209C139.648-101.367 128.418-107.471 117.139-107.471C107.959-107.471 94.6777-102.197 94.6777-94.873C94.6777-89.8926 104.639-83.1055 112.598-78.3203L148.926-56.4941C145.459-53.0762 142.725-51.5137 139.6-51.5137C134.912-51.5137 130.176-54.0527 122.656-58.5449C103.32-69.5801 88.4277-80.3223 68.3594-80.3223C47.4121-80.3223 31.543-68.4082 23.0957-45.3613C16.3574-45.2637 11.2793-40.9668 11.2793-34.4238C11.2793-27.1484 17.041-22.7051 25-22.6074C34.0332-9.86328 48.8281-4.58984 66.8945-4.58984C67.7734-4.58984 68.7012-4.63867 69.6777-4.63867L94.9707 15.8203C100.928 21.1914 104.932 22.1191 109.717 22.1191ZM172.656-35.2051C169.922-35.2051 167.725-37.5 167.725-40.1855C167.725-42.9688 169.971-45.3613 172.705-45.3613C175.439-45.3613 177.637-43.1641 177.637-40.4785C177.637-37.7441 175.391-35.2051 172.656-35.2051ZM63.6719 26.5137C75.6836 26.5137 83.1543 24.3164 89.3555 20.166L69.7754 4.29688C68.8965 4.3457 67.8223 4.44336 66.5039 4.44336C63.5742 4.44336 58.3984 3.51562 53.2227 3.51562C46.2402 3.51562 42.1387 7.17773 42.1387 12.6465C42.1387 20.9961 50.3906 26.5137 63.6719 26.5137Z"/>
  </g>
  <g id="Light-L" transform="matrix(1 0 0 1 1048.57 1556)">
   <path d="M109.033 20.6543C113.281 20.6543 117.627 18.6035 125.391 18.6035C133.301 18.6035 135.742 20.6543 141.895 20.6543C151.221 20.6543 156.25 16.748 156.25 11.377C156.25 0.78125 143.457-6.5918 125.293-6.5918C116.26-6.5918 112.061-5.76172 107.031-4.49219L100.488-19.4824C93.5059-34.8633 82.5684-43.8477 67.9199-43.8477L60.6445-43.8477C58.3008-43.8477 56.9336-44.8242 56.9336-46.875C56.9336-50.4395 61.9629-51.3672 67.334-51.3672C85.4004-51.3672 98.6328-41.4062 106.787-21.4844L111.133-10.8398C115.283-11.7676 119.922-12.1582 124.707-12.1582C128.369-12.1582 131.055-11.9141 134.668-11.4258C138.428-14.209 142.676-17.4805 148.535-21.8262C155.469-15.9668 164.697-12.4512 173.682-12.4512C190.332-12.4512 197.852-16.3086 197.852-31.4453C197.852-52.0508 181.934-67.2852 164.404-66.2598L148.193-88.8672C138.965-100.879 127.783-107.031 116.406-107.031C107.275-107.031 94.4824-101.904 94.4824-94.7754C94.4824-89.7949 104.15-83.4473 112.158-78.7598L148.584-57.3242C144.189-52.9785 141.211-51.2695 138.135-51.2695C133.691-51.2695 129.443-53.2715 121.973-57.8125C102.832-68.6523 88.0371-79.5898 68.0664-79.5898C47.2168-79.5898 31.4453-67.9199 23.0957-45.3125C16.3086-45.166 11.2793-41.0156 11.2793-34.4727C11.2793-27.1973 16.9922-22.8516 25-22.7051C33.7891-10.1562 48.2422-4.6875 66.5527-4.6875C67.4316-4.6875 68.3594-4.73633 69.2871-4.73633L94.2871 14.7461C99.7559 19.5801 104.297 20.6543 109.033 20.6543ZM171.582-35.1074C169.043-35.1074 166.943-37.2559 166.943-39.8438C166.943-42.4805 169.092-44.7266 171.631-44.7266C174.219-44.7266 176.318-42.627 176.318-40.0879C176.318-37.4512 174.17-35.1074 171.582-35.1074ZM62.3535 24.2188C74.1699 24.2188 81.6895 22.2168 88.0859 18.1641L68.5059 2.68555C67.5781 2.7832 66.5039 2.83203 65.1855 2.83203C62.5488 2.83203 56.6895 1.95312 52.002 1.95312C45.0684 1.95312 41.3574 5.41992 41.3574 10.6445C41.3574 18.7988 49.1699 24.2188 62.3535 24.2188Z"/>
  </g>
  <g id="Thin-L" transform="matrix(1 0 0 1 752.687 1556)">
   <path d="M108.154 18.7012C112.256 18.7012 116.943 16.6992 124.316 16.6992C131.934 16.6992 134.473 18.7012 140.625 18.7012C149.951 18.7012 155.078 14.7949 155.078 10.3027C155.078 0.0488281 141.699-7.27539 124.219-7.27539C115.43-7.27539 111.23-6.44531 106.348-5.22461L99.9512-19.8242C92.8223-35.6445 81.6895-44.043 67.5293-44.043L60.3516-44.043C58.1055-44.043 56.9336-44.9707 56.9336-46.7773C56.9336-50.0977 61.8652-50.9277 66.9434-50.9277C84.7168-50.9277 97.6562-41.1133 105.664-21.582L110.059-10.8398C114.111-11.7676 118.799-12.207 123.682-12.207C127.197-12.207 129.395-11.9629 133.057-11.4746C136.768-14.209 140.918-17.6758 146.387-23.2422C153.223-16.6016 163.379-12.7441 172.754-12.7441C188.916-12.7441 196.191-16.6016 196.191-30.7617C196.191-52.002 179.053-67.4805 162.744-65.7227L147.07-88.4766C138.037-100.195 126.904-106.494 115.43-106.494C106.348-106.494 94.2383-101.465 94.2383-94.5801C94.2383-89.6484 103.467-83.8867 111.572-79.2969L148.096-58.4473C142.48-52.832 139.209-50.8789 136.133-50.8789C132.08-50.8789 128.467-52.2461 121.045-56.8359C102.148-67.4316 87.5-78.6133 67.6758-78.6133C46.9238-78.6133 31.3477-67.2363 23.0469-45.2637C16.2598-45.0195 11.2793-41.0645 11.2793-34.5215C11.2793-27.2949 16.9434-23.0469 24.9512-22.8516C33.4961-10.5469 47.5098-4.83398 66.1621-4.83398C66.9922-4.83398 67.8711-4.83398 68.75-4.83398L93.4082 13.2812C98.2422 17.4805 103.418 18.7012 108.154 18.7012ZM170.215-34.9121C167.822-34.9121 165.869-36.9629 165.869-39.3555C165.869-41.7969 167.92-43.8477 170.215-43.8477C172.607-43.8477 174.609-41.9434 174.609-39.5996C174.609-37.1094 172.559-34.9121 170.215-34.9121ZM60.6445 21.1914C72.1191 21.1914 79.7363 19.4824 86.4258 15.4785L66.748 0.585938C65.8691 0.683594 64.7461 0.732422 63.3789 0.732422C61.1816 0.732422 54.4434-0.146484 50.3906-0.146484C43.5547-0.146484 40.332 3.125 40.332 7.95898C40.332 15.918 47.5586 21.1914 60.6445 21.1914Z"/>
  </g>
  <g id="Ultralight-L" transform="matrix(1 0 0 1 456.391 1556)">
   <path d="M107.715 17.7246C111.719 17.7246 116.65 15.7227 123.779 15.7227C131.25 15.7227 133.838 17.7246 139.941 17.7246C149.268 17.7246 154.443 13.7695 154.443 9.7168C154.443-0.292969 140.82-7.61719 123.682-7.61719C114.99-7.61719 110.791-6.83594 106.006-5.61523L99.707-19.9707C92.4805-36.0352 81.25-44.1895 67.334-44.1895L60.2051-44.1895C58.0566-44.1895 56.9824-45.0195 56.9824-46.7285C56.9824-49.9023 61.8164-50.6836 66.748-50.6836C84.375-50.6836 97.168-41.0156 105.078-21.6309L109.521-10.8398C113.525-11.8164 118.213-12.207 123.145-12.207C126.66-12.207 128.516-11.9629 132.227-11.4746C135.938-14.209 139.99-17.7734 145.312-23.9746C152.1-16.9434 162.695-12.8906 172.314-12.8906C188.184-12.8906 195.361-16.748 195.361-30.4199C195.361-52.002 177.588-67.5781 161.914-65.4785L146.533-88.2324C137.549-99.8535 126.465-106.25 114.941-106.25C105.859-106.25 94.1406-101.27 94.1406-94.4824C94.1406-89.5996 103.125-84.1309 111.279-79.541L147.9-59.0332C141.602-52.7832 138.184-50.6836 135.107-50.6836C131.25-50.6836 127.979-51.7578 120.605-56.3477C101.807-66.7969 87.207-78.125 67.4805-78.125C46.7285-78.125 31.25-66.8457 22.998-45.2148C16.2598-44.9707 11.2793-41.0645 11.2793-34.5703C11.2793-27.3438 16.8945-23.1934 24.9512-22.9004C33.3008-10.7422 47.1191-4.93164 65.9668-4.93164C66.748-4.93164 67.627-4.88281 68.5059-4.88281L92.9199 12.5488C97.4121 16.4062 102.979 17.7246 107.715 17.7246ZM169.531-34.8145C167.236-34.8145 165.332-36.8164 165.332-39.1113C165.332-41.4551 167.334-43.4082 169.531-43.4082C171.777-43.4082 173.682-41.6016 173.682-39.3066C173.682-36.9629 171.729-34.8145 169.531-34.8145ZM59.7656 19.6289C71.0938 19.6289 78.7598 18.1152 85.5957 14.0625L65.8691-0.488281C64.9902-0.390625 63.8184-0.341797 62.4512-0.341797C60.498-0.341797 53.2715-1.2207 49.5605-1.2207C42.7246-1.2207 39.7949 1.95312 39.7949 6.5918C39.7949 14.4531 46.7285 19.6289 59.7656 19.6289Z"/>
  </g>
  <g id="Black-M" transform="matrix(1 0 0 1 2844.29 1126)">
   <path d="M92.9688 13.8672C96.4355 13.8672 100.537 12.1094 107.031 12.1094C113.77 12.1094 116.113 13.8672 121.191 13.8672C128.223 13.8672 133.008 10.5957 133.008 4.78516C133.008-3.41797 126.123-12.207 110.791-12.207C102.295-12.207 99.0723-10.1074 93.9941-9.42383L87.6465-22.5586C81.3965-35.5469 68.8965-40.4785 57.5195-40.4785L51.2695-40.4785C48.1445-40.4785 46.2402-42.1875 46.2402-44.9219C46.2402-49.5117 51.4648-50.6348 57.0801-50.6348C73.4375-50.6348 88.1348-42.9199 96.582-25.6836L99.7559-19.2383C103.027-19.8242 106.543-20.1172 110.254-20.1172C113.184-20.1172 116.211-19.9219 119.238-18.9453C122.559-20.0195 126.221-21.2891 128.467-22.8516C134.521-19.0918 140.576-14.209 153.711-14.209C162.744-14.209 169.482-19.3359 169.482-32.959C169.482-48.9258 159.082-64.6484 139.014-63.1836L129.004-79.9316C122.656-90.4785 112.549-94.873 103.125-94.873C95.7031-94.873 81.0059-91.0156 81.0059-85.3516C81.0059-81.9336 89.4531-76.2695 95.8008-71.8262L122.119-53.418C119.922-51.6602 118.555-50.2441 114.795-50.2441C110.059-50.2441 104.59-54.0527 99.9512-56.3965C83.3984-67.4805 74.3164-75.0488 55.8105-75.0488C40.0391-75.0488 25.1465-66.8457 18.3594-45.2637C12.793-45.752 8.74023-42.3828 8.74023-37.4512C8.74023-32.0801 13.1836-28.5645 19.6289-28.8086C27.4414-13.9648 36.8164-9.22852 53.7109-9.22852C54.7363-9.22852 55.7617-9.22852 56.8359-9.27734L77.6855 8.44727C82.6172 12.6465 88.5254 13.8672 92.9688 13.8672ZM146.387-33.7891C143.164-33.7891 140.527-36.4746 140.527-39.6973C140.527-43.0176 143.164-45.752 146.436-45.752C149.707-45.752 152.344-43.1152 152.344-39.9414C152.344-36.5234 149.609-33.7891 146.387-33.7891ZM50.7324 18.0664C58.9844 18.0664 64.9414 16.7969 69.9219 13.6719L55.4199 1.2207C54.7363 1.26953 54.0039 1.36719 53.1738 1.36719C51.0742 1.36719 45.6543 0.537109 41.7969 0.537109C36.5234 0.537109 33.2031 3.27148 33.2031 7.42188C33.2031 13.7695 40.1367 18.0664 50.7324 18.0664Z"/>
  </g>
  <g id="Heavy-M" transform="matrix(1 0 0 1 2549.29 1126)">
   <path d="M91.2109 12.9395C94.6289 12.9395 98.4863 11.2305 104.98 11.2305C111.621 11.2305 113.818 12.9395 118.848 12.9395C125.928 12.9395 130.469 9.76562 130.469 4.15039C130.469-4.15039 122.998-12.2559 107.812-12.2559C99.6094-12.2559 96.3867-10.498 91.5527-9.7168L85.498-22.5586C79.4922-35.2539 67.9688-40.7715 56.4453-40.7715L50.3418-40.7715C47.4609-40.7715 45.752-42.2363 45.752-44.7754C45.752-49.0234 50.6836-50.0488 56.0059-50.0488C71.9238-50.0488 85.5957-42.2852 93.6035-25.3906L96.8262-18.5547C100.049-19.1406 103.613-19.4824 107.275-19.4824C110.205-19.4824 113.184-19.2871 116.113-18.4082C119.336-19.7754 122.949-21.2891 125.83-22.998C131.738-19.2383 137.842-14.9414 149.414-14.9414C159.473-14.9414 166.064-19.5801 166.064-32.959C166.064-48.7793 155.518-63.5254 136.67-62.4023L125.928-79.2969C119.385-89.5996 109.57-94.043 100.293-94.043C92.9688-94.043 79.248-90.1367 79.248-84.4238C79.248-80.9082 87.5488-75.293 93.8477-70.9961L120.605-52.8809C118.408-51.0742 116.895-49.7559 113.428-49.7559C108.936-49.7559 103.809-53.125 98.877-55.7617C82.666-66.2598 72.998-73.9746 55.1758-73.9746C39.3066-73.9746 25-65.5273 18.2617-44.7754C12.793-45.1172 8.74023-41.748 8.74023-36.7676C8.74023-31.3477 13.1836-27.7832 19.5801-27.9785C27.2461-14.3066 37.1094-9.7168 53.3203-9.7168C54.248-9.7168 55.2246-9.76562 56.2012-9.81445L76.8066 7.61719C81.7383 11.8652 86.9141 12.9395 91.2109 12.9395ZM143.555-34.1309C140.576-34.1309 138.135-36.6211 138.135-39.5996C138.135-42.6758 140.576-45.2148 143.604-45.2148C146.631-45.2148 149.023-42.7734 149.023-39.8438C149.023-36.7188 146.582-34.1309 143.555-34.1309ZM50.5859 17.0898C59.1309 17.0898 64.9902 15.6738 69.9219 12.5488L55.2734 0.0488281C54.5898 0.146484 53.8086 0.195312 52.9785 0.195312C50.7812 0.195312 45.8008-0.585938 41.8457-0.585938C36.5234-0.585938 33.2031 2.19727 33.2031 6.39648C33.2031 12.793 40.0391 17.0898 50.5859 17.0898Z"/>
  </g>
  <g id="Bold-M" transform="matrix(1 0 0 1 2254.48 1126)">
   <path d="M89.209 11.9629C92.627 11.9629 96.1914 10.2539 102.637 10.2539C109.229 10.2539 111.279 11.9629 116.211 11.9629C123.34 11.9629 127.637 8.83789 127.637 3.41797C127.637-5.0293 119.531-12.2559 104.492-12.2559C96.6309-12.2559 93.4082-10.8887 88.8184-10.0098L83.0078-22.6074C77.2949-34.8633 66.8945-41.0645 55.2734-41.0645L49.2676-41.0645C46.7285-41.0645 45.166-42.334 45.166-44.6289C45.166-48.4375 49.8047-49.4141 54.834-49.4141C70.166-49.4141 82.7637-41.6016 90.2344-25.0977L93.5059-17.7734C96.7773-18.4082 100.342-18.7012 103.955-18.7012C106.885-18.7012 109.717-18.5547 112.598-17.8223C115.771-19.4824 119.287-21.2891 122.9-23.1445C128.613-19.3848 134.766-15.7227 144.58-15.7227C155.859-15.7227 162.256-19.7754 162.256-32.959C162.256-48.6328 151.465-62.2559 134.082-61.5234L122.51-78.5645C115.674-88.623 106.201-93.1641 97.168-93.1641C89.8926-93.1641 77.2461-89.1602 77.2461-83.4473C77.2461-79.7852 85.4492-74.2188 91.6504-70.1172L118.896-52.2949C116.699-50.3906 115.039-49.1211 111.914-49.1211C107.666-49.1211 102.979-52.1484 97.7051-55.0293C81.8848-64.9414 71.5332-72.8027 54.4922-72.8027C38.4766-72.8027 24.8047-64.0625 18.1641-44.1895C12.7441-44.3848 8.74023-41.0156 8.74023-36.0352C8.74023-30.5176 13.1836-27.002 19.5312-27.0996C27.002-14.6973 37.5-10.3027 52.8809-10.3027C53.7109-10.3027 54.6387-10.3516 55.5176-10.3516L75.8301 6.68945C80.7617 11.0352 85.1074 11.9629 89.209 11.9629ZM140.381-34.5215C137.695-34.5215 135.498-36.8164 135.498-39.502C135.498-42.2363 137.695-44.6289 140.43-44.6289C143.164-44.6289 145.361-42.4316 145.361-39.7461C145.361-36.9141 143.115-34.5215 140.381-34.5215ZM50.4395 16.0156C59.2773 16.0156 65.0879 14.4531 69.9219 11.2793L55.127-1.2207C54.4434-1.17188 53.6621-1.12305 52.7344-1.12305C50.4883-1.12305 45.9473-1.9043 41.8945-1.9043C36.5234-1.9043 33.1543 0.927734 33.1543 5.22461C33.1543 11.6699 39.9414 16.0156 50.4395 16.0156Z"/>
  </g>
  <g id="Semibold-M" transform="matrix(1 0 0 1 1959.09 1126)">
   <path d="M87.8418 11.2305C91.2109 11.2305 94.5801 9.61914 101.074 9.61914C107.568 9.61914 109.521 11.2305 114.404 11.2305C121.582 11.2305 125.684 8.1543 125.684 2.92969C125.684-5.61523 117.139-12.3047 102.197-12.3047C94.5801-12.3047 91.3086-11.1816 86.9141-10.2539L81.3477-22.6562C75.7812-34.6191 66.1621-41.3086 54.4434-41.3086L48.5352-41.3086C46.2402-41.3086 44.7754-42.3828 44.7754-44.5312C44.7754-48.0957 49.1699-48.9746 54.0039-48.9746C68.9941-48.9746 80.8594-41.1133 87.9395-24.8535L91.2109-17.2363C94.5312-17.9199 98.0469-18.2129 101.709-18.2129C104.59-18.2129 107.373-18.0176 110.205-17.4316C113.281-19.2871 116.748-21.2402 120.85-23.2422C126.465-19.4824 132.666-16.3086 141.309-16.3086C153.369-16.3086 159.619-19.9707 159.619-32.959C159.619-48.5352 148.73-61.377 132.275-60.8887L120.117-78.0762C113.086-87.9883 103.906-92.5293 95.0195-92.5293C87.793-92.5293 75.8789-88.4766 75.8789-82.7637C75.8789-79.0039 83.9844-73.4375 90.1367-69.4824L117.676-51.9043C115.527-49.9512 113.721-48.7305 110.889-48.7305C106.787-48.7305 102.344-51.4648 96.875-54.5898C81.3477-64.0137 70.5078-71.9727 54.0039-71.9727C37.8906-71.9727 24.707-63.0371 18.0664-43.7988C12.7441-43.8965 8.74023-40.5273 8.74023-35.498C8.74023-29.9316 13.2324-26.416 19.4824-26.4648C26.8066-14.9414 37.7441-10.6934 52.5391-10.6934C53.3691-10.6934 54.1992-10.7422 55.0293-10.7422L75.1465 6.05469C80.0781 10.4004 83.8867 11.2305 87.8418 11.2305ZM138.184-34.8145C135.693-34.8145 133.643-36.9141 133.643-39.4043C133.643-41.9922 135.693-44.1895 138.232-44.1895C140.82-44.1895 142.822-42.1387 142.822-39.6484C142.822-37.0605 140.771-34.8145 138.184-34.8145ZM50.293 15.2344C59.375 15.2344 65.1367 13.5742 69.9219 10.4004L55.0293-2.14844C54.3457-2.05078 53.5156-2.00195 52.5879-2.00195C50.2441-2.00195 46.0449-2.7832 41.8945-2.7832C36.5234-2.7832 33.1543 0.0976562 33.1543 4.44336C33.1543 10.9375 39.8926 15.2344 50.293 15.2344Z"/>
  </g>
  <g id="Medium-M" transform="matrix(1 0 0 1 1663.38 1126)">
   <path d="M86.7676 10.7422C90.1855 10.7422 93.4082 9.08203 99.8535 9.08203C106.348 9.08203 108.203 10.7422 113.037 10.7422C120.215 10.7422 124.219 7.66602 124.219 2.53906C124.219-6.05469 115.283-12.3047 100.488-12.3047C93.0176-12.3047 89.7461-11.377 85.498-10.4004L80.0781-22.6562C74.6582-34.4238 65.5762-41.4551 53.8086-41.4551L47.998-41.4551C45.8496-41.4551 44.4824-42.4316 44.4824-44.4824C44.4824-47.8027 48.7305-48.6328 53.418-48.6328C68.0664-48.6328 79.3457-40.7715 86.1816-24.707L89.502-16.8457C92.7734-17.5293 96.3379-17.8223 99.9512-17.8223C102.881-17.8223 105.566-17.627 108.398-17.1387C111.426-19.1406 114.844-21.2402 119.287-23.291C124.854-19.5801 131.055-16.748 138.77-16.748C151.465-16.748 157.617-20.0684 157.617-32.959C157.617-48.4375 146.631-60.7422 130.908-60.4492L118.359-77.7344C111.182-87.4512 102.148-92.041 93.3594-92.041C86.1816-92.041 74.8535-87.9883 74.8535-82.2266C74.8535-78.418 82.8613-72.9004 89.0137-68.9941L116.797-51.6113C114.6-49.6094 112.744-48.4375 110.059-48.4375C106.104-48.4375 101.904-50.9277 96.2402-54.1992C80.9082-63.2812 69.7754-71.3867 53.6133-71.3867C37.4512-71.3867 24.6094-62.2559 18.0176-43.5059C12.6953-43.5059 8.74023-40.1367 8.74023-35.1074C8.74023-29.4922 13.2324-25.9766 19.4336-25.9766C26.6602-15.1367 37.9395-11.0352 52.2949-11.0352C53.0762-11.0352 53.9062-11.0352 54.6875-11.084L74.6582 5.56641C79.541 9.96094 82.9102 10.7422 86.7676 10.7422ZM136.523-35.0098C134.18-35.0098 132.275-37.0117 132.275-39.3555C132.275-41.7969 134.229-43.8477 136.572-43.8477C139.014-43.8477 140.918-41.9434 140.918-39.5996C140.918-37.1582 138.965-35.0098 136.523-35.0098ZM50.1953 14.6484C59.4238 14.6484 65.1855 12.9395 69.9707 9.7168L54.9316-2.83203C54.248-2.73438 53.4668-2.68555 52.4902-2.68555C50.0977-2.68555 46.1426-3.41797 41.8945-3.41797C36.4746-3.41797 33.1055-0.537109 33.1055 3.80859C33.1055 10.3516 39.8438 14.6484 50.1953 14.6484Z"/>
  </g>
  <g id="Regular-M" transform="matrix(1 0 0 1 1367.96 1126)">
   <path d="M85.4004 10.0586C88.8184 10.0586 91.8457 8.44727 98.2422 8.44727C104.688 8.44727 106.445 10.0586 111.23 10.0586C118.457 10.0586 122.266 7.03125 122.266 2.00195C122.266-6.5918 112.939-12.3535 98.1934-12.3535C90.9668-12.3535 87.7441-11.6699 83.6426-10.6445L78.3691-22.6562C73.1934-34.1797 64.8438-41.6992 53.0273-41.6992L47.2656-41.6992C45.3613-41.6992 44.0918-42.5293 44.0918-44.3848C44.0918-47.4121 48.1445-48.1445 52.5879-48.1445C66.8945-48.1445 77.4414-40.2832 83.8867-24.4629L87.2559-16.3086C90.5273-16.9922 94.0918-17.334 97.7051-17.334C100.586-17.334 103.223-17.1387 106.006-16.748C108.984-18.9453 112.354-21.2402 117.285-23.3887C122.754-19.6777 129.004-17.2852 135.498-17.2852C148.975-17.2852 155.029-20.2148 155.029-32.959C155.029-48.3398 143.896-59.8633 129.102-59.8145L116.016-77.2461C108.643-86.8164 99.9023-91.4062 91.2109-91.4062C84.082-91.4062 73.4863-87.3047 73.4863-81.543C73.4863-77.6367 81.3965-72.168 87.5-68.4082L115.625-51.2207C113.428-49.1211 111.475-47.998 109.033-47.998C105.273-47.998 101.318-50.293 95.4102-53.7109C80.3711-62.4023 68.75-70.5566 53.125-70.5566C36.8652-70.5566 24.5117-61.2305 17.9199-43.0664C12.6953-43.0664 8.74023-39.6484 8.74023-34.6191C8.74023-28.9551 13.2324-25.3906 19.3848-25.3906C26.5137-15.4297 38.1836-11.4258 52.002-11.4258C52.7344-11.4258 53.4668-11.4746 54.1992-11.4746L73.9746 4.93164C78.8574 9.375 81.6895 10.0586 85.4004 10.0586ZM134.375-35.3027C132.178-35.3027 130.42-37.1582 130.42-39.3066C130.42-41.5039 132.227-43.457 134.424-43.457C136.67-43.457 138.428-41.6992 138.428-39.502C138.428-37.3047 136.621-35.3027 134.375-35.3027ZM50.0977 13.916C59.5215 13.916 65.2832 12.1094 69.9707 8.88672L54.834-3.71094C54.1504-3.66211 53.3203-3.56445 52.2949-3.56445C49.8535-3.56445 46.2402-4.29688 41.9434-4.29688C36.4746-4.29688 33.1055-1.36719 33.1055 3.02734C33.1055 9.57031 39.7461 13.916 50.0977 13.916Z"/>
  </g>
  <g id="Light-M" transform="matrix(1 0 0 1 1071.81 1126)">
   <path d="M84.8145 8.74023C88.1348 8.74023 91.3574 7.12891 97.5586 7.12891C103.76 7.12891 105.615 8.74023 110.4 8.74023C117.627 8.74023 121.484 5.71289 121.484 1.26953C121.484-7.08008 111.768-12.793 97.4609-12.793C90.3809-12.793 87.1582-12.1582 83.2031-11.1328L78.0273-22.9004C72.7051-34.7168 64.2578-41.8457 52.7344-41.8457L47.0703-41.8457C45.2148-41.8457 44.0918-42.627 44.0918-44.2871C44.0918-47.168 48.0469-47.8516 52.3438-47.8516C66.4062-47.8516 76.7578-40.0879 83.1543-24.5605L86.5234-16.3086C89.7461-17.041 93.3105-17.334 97.0215-17.334C99.8535-17.334 102.1-17.1387 104.932-16.7969C107.861-18.9453 111.133-21.3867 115.869-24.3652C121.24-20.0684 128.076-17.4805 134.912-17.4805C147.998-17.4805 153.906-20.459 153.906-32.5195C153.906-48.291 141.943-60.0098 127.979-59.4727L115.234-76.9531C108.008-86.3281 99.3164-91.0645 90.5762-91.0645C83.4473-91.0645 73.3398-87.0605 73.3398-81.3965C73.3398-77.5391 80.957-72.4609 87.1094-68.75L115.283-51.9531C112.305-49.0234 110.107-47.7539 107.715-47.7539C104.15-47.7539 100.635-49.5605 94.8242-53.0762C79.9316-61.5723 68.4082-69.9219 52.8809-69.9219C36.6699-69.9219 24.4141-60.791 17.9199-43.0664C12.6465-42.9688 8.74023-39.6973 8.74023-34.6191C8.74023-29.0039 13.1836-25.5371 19.3848-25.4883C26.3184-15.6738 37.6465-11.5234 51.709-11.5234C52.4414-11.5234 53.125-11.5234 53.8574-11.5234L73.3887 3.95508C77.832 7.95898 81.1035 8.74023 84.8145 8.74023ZM133.447-35.1562C131.396-35.1562 129.736-36.9141 129.736-38.9648C129.736-41.0645 131.445-42.8711 133.496-42.8711C135.596-42.8711 137.256-41.2109 137.256-39.1602C137.256-37.0605 135.498-35.1562 133.447-35.1562ZM48.9258 11.8652C58.1543 11.8652 63.9648 10.2539 68.8477 7.03125L53.6621-5.12695C52.9785-5.07812 52.1484-4.98047 51.123-4.98047C48.9258-4.98047 44.7266-5.71289 40.8691-5.71289C35.4492-5.71289 32.4219-2.92969 32.4219 1.2207C32.4219 7.61719 38.6719 11.8652 48.9258 11.8652Z"/>
  </g>
  <g id="Thin-M" transform="matrix(1 0 0 1 775.856 1126)">
   <path d="M84.0332 6.98242C87.207 6.98242 90.7715 5.41992 96.582 5.41992C102.539 5.41992 104.492 6.98242 109.229 6.98242C116.455 6.98242 120.41 3.95508 120.41 0.292969C120.41-7.71484 110.205-13.4277 96.5332-13.4277C89.6484-13.4277 86.377-12.793 82.5684-11.8164L77.5879-23.1934C72.1191-35.4004 63.5254-42.041 52.3926-42.041L46.8262-42.041C45.0684-42.041 44.1406-42.7246 44.1406-44.2383C44.1406-46.8262 47.998-47.4609 51.9531-47.4609C65.8203-47.4609 75.8789-39.8438 82.1289-24.6094L85.5469-16.3086C88.7207-17.041 92.2852-17.3828 96.0449-17.3828C98.8281-17.3828 100.635-17.1875 103.467-16.7969C106.348-18.9453 109.57-21.582 113.916-25.6348C119.238-20.6543 126.904-17.7246 134.082-17.7246C146.729-17.7246 152.393-20.752 152.393-31.9336C152.393-48.2422 139.404-60.1562 126.465-58.9844L114.209-76.5625C107.178-85.7422 98.5352-90.5762 89.6973-90.5762C82.6172-90.5762 73.0957-86.6699 73.0957-81.25C73.0957-77.4414 80.3223-72.8516 86.5723-69.2383L114.893-52.9785C110.791-48.9258 108.301-47.4609 105.908-47.4609C102.734-47.4609 99.7559-48.6328 93.9941-52.1973C79.2969-60.4492 67.9199-69.0918 52.5391-69.0918C36.4258-69.0918 24.3164-60.1562 17.8711-43.0176C12.6465-42.8711 8.74023-39.7461 8.74023-34.668C8.74023-29.0527 13.1348-25.7812 19.3359-25.5859C26.0254-16.0156 36.9629-11.6211 51.3672-11.6211C52.002-11.6211 52.6855-11.6699 53.418-11.6699L72.5586 2.68555C76.4648 6.05469 80.3223 6.98242 84.0332 6.98242ZM132.227-35.0098C130.322-35.0098 128.76-36.6211 128.76-38.5254C128.76-40.4785 130.371-42.0898 132.227-42.0898C134.131-42.0898 135.693-40.5762 135.693-38.7207C135.693-36.7676 134.082-35.0098 132.227-35.0098ZM47.3633 9.13086C56.3477 9.13086 62.207 7.76367 67.334 4.63867L52.0996-7.03125C51.416-6.93359 50.5371-6.88477 49.5117-6.88477C47.7051-6.88477 42.6758-7.56836 39.4043-7.56836C34.082-7.56836 31.4941-4.98047 31.4941-1.17188C31.4941 5.0293 37.207 9.13086 47.3633 9.13086Z"/>
  </g>
  <g id="Ultralight-M" transform="matrix(1 0 0 1 479.511 1126)">
   <path d="M83.6426 6.10352C86.7188 6.10352 90.4785 4.54102 96.0938 4.54102C101.904 4.54102 103.906 6.10352 108.643 6.10352C115.869 6.10352 119.873 3.07617 119.873-0.195312C119.873-8.05664 109.375-13.7207 95.9961-13.7207C89.209-13.7207 85.9863-13.0859 82.2754-12.1582L77.3438-23.3887C71.7773-35.7422 63.1348-42.1387 52.2461-42.1387L46.6797-42.1387C45.0195-42.1387 44.1406-42.8223 44.1406-44.1895C44.1406-46.6309 47.9492-47.2656 51.8066-47.2656C65.4785-47.2656 75.4395-39.7461 81.6406-24.6582L85.0586-16.3086C88.1836-17.041 91.7969-17.3828 95.5566-17.3828C98.3398-17.3828 99.8535-17.1875 102.734-16.7969C105.615-18.9453 108.789-21.6797 112.939-26.2695C118.213-20.9473 126.318-17.8711 133.643-17.8711C146.045-17.8711 151.66-20.8984 151.66-31.6406C151.66-48.2422 138.086-60.2539 125.732-58.7402L113.721-76.3672C106.738-85.4004 98.1445-90.332 89.209-90.332C82.1777-90.332 72.998-86.4746 72.998-81.2012C72.998-77.3926 80.0293-73.0469 86.3281-69.4824L114.697-53.5156C110.01-48.8281 107.373-47.2656 105.029-47.2656C102.002-47.2656 99.3164-48.1934 93.6035-51.7578C79.0039-59.9121 67.6758-68.6523 52.3438-68.6523C36.2793-68.6523 24.2676-59.8633 17.8223-42.9688C12.5977-42.7734 8.74023-39.7461 8.74023-34.7168C8.74023-29.1016 13.0859-25.8789 19.3359-25.6836C25.8789-16.2109 36.6211-11.7188 51.1719-11.7188C51.8066-11.7188 52.4902-11.7188 53.1738-11.7188L72.168 2.00195C75.7324 5.12695 79.9316 6.10352 83.6426 6.10352ZM131.592-34.9609C129.785-34.9609 128.32-36.4746 128.32-38.2812C128.32-40.1367 129.834-41.6992 131.592-41.6992C133.398-41.6992 134.863-40.2832 134.863-38.4766C134.863-36.6211 133.35-34.9609 131.592-34.9609ZM46.582 7.76367C55.4199 7.76367 61.3281 6.54297 66.6016 3.41797L51.3184-7.95898C50.6348-7.91016 49.7559-7.86133 48.6816-7.86133C47.0703-7.86133 41.6016-8.54492 38.6719-8.54492C33.3496-8.54492 31.0059-6.05469 31.0059-2.39258C31.0059 3.71094 36.4746 7.76367 46.582 7.76367Z"/>
  </g>
  <g id="Black-S" transform="matrix(1 0 0 1 2863.72 696)">
   <path d="M72.7051 3.17383C75.3906 3.17383 78.6133 1.80664 83.6914 1.80664C88.9648 1.80664 90.7715 3.17383 94.7754 3.17383C100.293 3.17383 104.004 0.634766 104.004-3.90625C104.004-10.3516 98.584-17.1875 86.5723-17.1875C79.9316-17.1875 77.3926-15.5762 73.4375-15.0391L68.5059-25.293C63.623-35.4492 53.9062-39.3555 44.9707-39.3555L40.0879-39.3555C37.6465-39.3555 36.1816-40.6738 36.1816-42.8223C36.1816-46.3867 40.2344-47.2656 44.6289-47.2656C57.4219-47.2656 68.8477-41.2109 75.4395-27.7344L77.9297-22.6562C80.4688-23.0957 83.252-23.3398 86.1328-23.3398C88.4277-23.3398 90.8203-23.1934 93.1641-22.4121C95.752-23.291 98.6328-24.3164 100.439-25.5371C105.176-22.6074 109.912-18.7988 120.068-18.7988C127.246-18.7988 132.52-22.8027 132.52-33.4473C132.52-45.9473 124.365-58.2031 108.74-57.0801L100.83-70.2148C95.8496-78.4668 87.9395-81.8848 80.5664-81.8848C74.7559-81.8848 63.3301-78.8574 63.3301-74.4141C63.3301-71.7285 69.9219-67.2852 74.9023-63.8184L95.5566-49.4141C93.8477-48.0469 92.7734-46.9727 89.8438-46.9727C86.1328-46.9727 81.8848-49.9023 78.2227-51.7578C65.2832-60.4004 58.1055-66.3574 43.6523-66.3574C31.2988-66.3574 19.6777-59.9121 14.3555-43.0664C10.0098-43.4082 6.83594-40.7715 6.83594-36.9141C6.83594-32.7148 10.3027-29.9316 15.3809-30.127C21.4844-18.6035 28.8574-14.8926 42.041-14.8926C42.8223-14.8926 43.6523-14.8926 44.4824-14.9414L60.791-1.07422C64.6484 2.24609 69.2383 3.17383 72.7051 3.17383ZM114.453-34.1309C111.963-34.1309 109.912-36.2305 109.912-38.7207C109.912-41.3086 111.963-43.457 114.502-43.457C117.041-43.457 119.092-41.4062 119.092-38.916C119.092-36.2793 116.992-34.1309 114.453-34.1309ZM39.7461 6.49414C46.2402 6.49414 50.8789 5.46875 54.7852 3.02734L43.4082-6.73828C42.8711-6.68945 42.2852-6.64062 41.6504-6.64062C39.9902-6.64062 35.791-7.27539 32.7637-7.27539C28.6133-7.27539 26.0254-5.12695 26.0254-1.85547C26.0254 3.125 31.4453 6.49414 39.7461 6.49414Z"/>
  </g>
  <g id="Heavy-S" transform="matrix(1 0 0 1 2568.26 696)">
   <path d="M71.3867 2.63672C74.1211 2.63672 77.0996 1.26953 82.1777 1.26953C87.4512 1.26953 89.1113 2.63672 93.0664 2.63672C98.6328 2.63672 102.148 0.146484 102.148-4.3457C102.148-10.8887 96.3379-17.1387 84.375-17.1387C77.9297-17.1387 75.3906-15.8203 71.6309-15.1855L66.8457-25.293C62.207-35.1562 53.2227-39.5508 44.1895-39.5508L39.4043-39.5508C37.1582-39.5508 35.791-40.7227 35.791-42.7246C35.791-46.0449 39.6484-46.875 43.8477-46.875C56.2988-46.875 66.9922-40.7715 73.2422-27.4902L75.7324-22.1191C78.3203-22.6074 81.1035-22.8516 83.9355-22.8516C86.2305-22.8516 88.623-22.7051 90.918-22.0215C93.4082-23.0957 96.2402-24.2676 98.584-25.5371C103.223-22.6562 107.91-19.3359 116.846-19.3359C124.854-19.3359 130.029-22.9492 130.029-33.4961C130.029-45.8496 121.826-57.3242 107.08-56.4941L98.584-69.7754C93.3594-77.832 85.6934-81.2988 78.4668-81.2988C72.7051-81.2988 61.9629-78.2227 61.9629-73.7305C61.9629-70.9473 68.5059-66.5039 73.4375-63.1836L94.4336-48.9258C92.8223-47.6074 91.6504-46.582 88.9648-46.582C85.4004-46.582 81.3477-49.3164 77.4902-51.3672C64.7949-59.5703 57.1289-65.625 43.2129-65.625C30.7617-65.625 19.5801-58.9355 14.3066-42.6758C10.0098-42.9199 6.83594-40.2832 6.83594-36.377C6.83594-32.1289 10.3027-29.3457 15.332-29.4922C21.3379-18.8477 29.1504-15.2832 41.748-15.2832C42.4805-15.2832 43.2617-15.2832 44.043-15.332L60.2051-1.61133C64.1113 1.80664 68.0664 2.63672 71.3867 2.63672ZM112.402-34.4238C110.059-34.4238 108.154-36.377 108.154-38.6719C108.154-41.0645 110.059-43.1152 112.451-43.1152C114.795-43.1152 116.699-41.2109 116.699-38.8672C116.699-36.4258 114.746-34.4238 112.402-34.4238ZM39.7461 5.95703C46.4844 5.95703 51.0742 4.83398 54.9316 2.34375L43.457-7.4707C42.9199-7.42188 42.2852-7.37305 41.6504-7.37305C39.8926-7.37305 36.084-8.00781 32.9102-8.00781C28.7109-8.00781 26.0742-5.81055 26.0742-2.44141C26.0742 2.58789 31.4941 5.95703 39.7461 5.95703Z"/>
  </g>
  <g id="Bold-S" transform="matrix(1 0 0 1 2272.94 696)">
   <path d="M69.9707 2.00195C72.6562 2.00195 75.3906 0.683594 80.5176 0.683594C85.7422 0.683594 87.3047 2.00195 91.1621 2.00195C96.7773 2.00195 100.098-0.439453 100.098-4.78516C100.098-11.4746 93.7988-17.1387 81.9336-17.1387C75.7324-17.1387 73.1934-16.0645 69.5801-15.3809L65.0391-25.293C60.5957-34.8145 52.4902-39.7949 43.3105-39.7949L38.623-39.7949C36.6211-39.7949 35.3516-40.7715 35.3516-42.627C35.3516-45.6543 38.9648-46.3867 42.9688-46.3867C55.0293-46.3867 64.8926-40.2344 70.752-27.2461L73.291-21.5332C75.8789-22.0215 78.6621-22.2656 81.4941-22.2656C83.7891-22.2656 86.1328-22.1191 88.3789-21.582C90.8203-22.9004 93.6035-24.2676 96.5332-25.5371C101.025-22.7051 105.713-19.9219 113.281-19.9219C122.217-19.9219 127.246-23.0957 127.246-33.5449C127.246-45.7031 118.994-56.3477 105.225-55.8594L96.0449-69.2383C90.625-77.1484 83.252-80.6641 76.1719-80.6641C70.459-80.6641 60.498-77.5391 60.498-72.998C60.498-70.1172 66.9434-65.625 71.8262-62.4512L93.1641-48.3887C91.6504-47.1191 90.3809-46.1914 87.9395-46.1914C84.5703-46.1914 80.7617-48.6328 76.6602-50.8789C64.209-58.6426 56.0547-64.7949 42.7246-64.7949C30.127-64.7949 19.4336-57.8613 14.209-42.2363C9.96094-42.3828 6.83594-39.7461 6.83594-35.8398C6.83594-31.4941 10.3516-28.7109 15.2832-28.8086C21.1914-19.0918 29.4922-15.7227 41.4551-15.7227C42.1387-15.7227 42.8223-15.7227 43.5547-15.7715L59.5215-2.19727C63.4766 1.31836 66.748 2.00195 69.9707 2.00195ZM110.107-34.7168C107.959-34.7168 106.201-36.5234 106.201-38.623C106.201-40.8203 107.959-42.7246 110.156-42.7246C112.305-42.7246 114.062-40.9668 114.062-38.8184C114.062-36.6211 112.256-34.7168 110.107-34.7168ZM39.7949 5.37109C46.7773 5.37109 51.3184 4.10156 55.0781 1.61133L43.457-8.30078C42.9199-8.25195 42.334-8.20312 41.6016-8.20312C39.7461-8.20312 36.377-8.78906 33.0566-8.78906C28.8574-8.78906 26.123-6.54297 26.123-3.125C26.123 1.95312 31.543 5.37109 39.7949 5.37109Z"/>
  </g>
  <g id="Semibold-S" transform="matrix(1 0 0 1 1977.18 696)">
   <path d="M68.9453 1.61133C71.6309 1.61133 74.2188 0.292969 79.3457 0.292969C84.5215 0.292969 86.0352 1.61133 89.8438 1.61133C95.459 1.61133 98.6816-0.78125 98.6816-5.12695C98.6816-11.8652 92.0898-17.0898 80.2246-17.0898C74.2188-17.0898 71.6797-16.2109 68.2129-15.4785L63.7695-25.293C59.4727-34.5703 52.002-39.9414 42.7246-39.9414L38.0859-39.9414C36.2305-39.9414 35.0586-40.8203 35.0586-42.5293C35.0586-45.3613 38.5254-46.0449 42.3828-46.0449C54.1504-46.0449 63.4766-39.8926 69.043-27.0996L71.6309-21.1426C74.2188-21.6309 77.002-21.875 79.834-21.875C82.1289-21.875 84.4238-21.7285 86.6211-21.2891C89.0625-22.7051 91.7969-24.2188 95.0684-25.4883C99.5117-22.7539 104.15-20.3613 110.791-20.3613C120.361-20.3613 125.342-23.1934 125.342-33.5938C125.342-45.6543 117.09-55.6641 103.906-55.4199L94.2871-68.8965C88.7207-76.709 81.4941-80.2246 74.5605-80.2246C68.8965-80.2246 59.4727-77.0508 59.4727-72.4609C59.4727-69.5312 65.8691-65.0391 70.7031-61.9141L92.2363-48.0469C90.8203-46.7773 89.502-45.8984 87.2559-45.8984C83.9844-45.8984 80.3711-48.1445 76.0742-50.5859C63.8184-58.0078 55.3223-64.209 42.3828-64.209C29.7363-64.209 19.3848-57.1289 14.1602-41.9434C9.96094-42.041 6.83594-39.3555 6.83594-35.4004C6.83594-31.0547 10.3516-28.2715 15.2344-28.3203C21.0449-19.2871 29.7363-16.0156 41.2598-16.0156C41.8945-16.0156 42.5293-16.0156 43.2129-16.0645L59.082-2.58789C63.0371 0.976562 65.8691 1.61133 68.9453 1.61133ZM108.496-34.9609C106.494-34.9609 104.883-36.6211 104.883-38.623C104.883-40.6738 106.494-42.4316 108.545-42.4316C110.596-42.4316 112.207-40.7715 112.207-38.8184C112.207-36.7676 110.547-34.9609 108.496-34.9609ZM39.7949 4.98047C46.9727 4.98047 51.4648 3.61328 55.1758 1.12305L43.5059-8.83789C42.9688-8.78906 42.334-8.74023 41.6016-8.74023C39.6484-8.74023 36.5723-9.375 33.2031-9.375C28.9551-9.375 26.1719-7.08008 26.1719-3.56445C26.1719 1.5625 31.5918 4.98047 39.7949 4.98047Z"/>
  </g>
  <g id="Medium-S" transform="matrix(1 0 0 1 1681.2 696)">
   <path d="M68.1641 1.26953C70.8984 1.26953 73.291 0 78.4668 0C83.6426 0 85.0586 1.26953 88.8672 1.26953C94.4824 1.26953 97.5586-1.07422 97.5586-5.37109C97.5586-12.1582 90.7227-17.0898 78.9551-17.0898C73.0469-17.0898 70.5078-16.3574 67.1387-15.5762L62.793-25.293C58.6426-34.375 51.6113-40.0391 42.2363-40.0391L37.6465-40.0391C35.9375-40.0391 34.8145-40.8691 34.8145-42.4805C34.8145-45.166 38.1836-45.8496 41.8945-45.8496C53.4668-45.8496 62.4023-39.6484 67.7734-26.9531L70.3613-20.8008C72.9492-21.3379 75.7324-21.582 78.5645-21.582C80.8594-21.582 83.1055-21.4355 85.3027-21.0449C87.6953-22.6074 90.3809-24.2188 93.9941-25.4883C98.3887-22.8027 102.979-20.6543 108.887-20.6543C118.994-20.6543 123.877-23.291 123.877-33.6426C123.877-45.6055 115.576-55.127 102.93-55.127L92.9688-68.6035C87.3047-76.3184 80.2246-79.8828 73.3398-79.8828C67.7246-79.8828 58.6426-76.6602 58.6426-72.0703C58.6426-69.0918 65.0391-64.5996 69.8242-61.5234L91.6016-47.7539C90.2344-46.5332 88.8184-45.6543 86.7676-45.6543C83.5449-45.6543 80.0781-47.8027 75.6348-50.3418C63.5254-57.5195 54.7852-63.7695 42.0898-63.7695C29.3945-63.7695 19.2871-56.5918 14.1113-41.6992C9.96094-41.748 6.83594-39.0625 6.83594-35.1074C6.83594-30.7129 10.4004-27.9297 15.2344-27.9297C20.9961-19.3848 29.9316-16.2109 41.0645-16.2109C41.6992-16.2109 42.334-16.2598 42.9688-16.2598L58.6914-2.88086C62.6953 0.732422 65.1367 1.26953 68.1641 1.26953ZM107.275-35.1074C105.371-35.1074 103.857-36.7188 103.857-38.5742C103.857-40.5273 105.42-42.2363 107.324-42.2363C109.277-42.2363 110.791-40.6738 110.791-38.7695C110.791-36.8652 109.229-35.1074 107.275-35.1074ZM39.7949 4.6875C47.1191 4.6875 51.6113 3.22266 55.2246 0.732422L43.5059-9.27734C42.9688-9.22852 42.334-9.17969 41.5527-9.17969C39.5996-9.17969 36.7676-9.76562 33.252-9.76562C29.0039-9.76562 26.2207-7.4707 26.2207-3.90625C26.2207 1.2207 31.6406 4.6875 39.7949 4.6875Z"/>
  </g>
  <g id="Regular-S" transform="matrix(1 0 0 1 1385.44 696)">
   <path d="M67.1875 0.878906C69.9219 0.878906 72.168-0.390625 77.3438-0.390625C82.4707-0.390625 83.7891 0.878906 87.5488 0.878906C93.2129 0.878906 96.1426-1.46484 96.1426-5.66406C96.1426-12.5977 89.0137-17.041 77.2949-17.041C71.5332-17.041 68.9941-16.5527 65.7715-15.7227L61.5723-25.293C57.5684-34.1797 51.0742-40.1855 41.6504-40.1855L37.1094-40.1855C35.5957-40.1855 34.5215-40.8691 34.5215-42.4316C34.5215-44.873 37.7441-45.5078 41.3086-45.5078C52.6367-45.5078 60.9863-39.2578 66.1133-26.7578L68.7012-20.4102C71.2891-20.9473 74.1211-21.1914 76.9043-21.1914C79.1992-21.1914 81.3965-21.0449 83.5938-20.752C85.8887-22.4609 88.5742-24.1699 92.5781-25.4883C96.875-22.8027 101.465-21.0938 106.445-21.0938C117.188-21.0938 121.973-23.3887 121.973-33.6914C121.973-45.5078 113.672-54.4434 101.66-54.6875L91.2598-68.2617C85.4004-75.8789 78.5156-79.4434 71.7773-79.4434C66.1621-79.4434 57.6172-76.1719 57.6172-71.582C57.6172-68.5059 64.0137-64.0137 68.75-61.0352L90.7227-47.3633C89.4043-46.1914 87.9883-45.3613 86.084-45.3613C83.0078-45.3613 79.6875-47.3633 75.0488-50.0488C63.1836-56.8848 54.0527-63.2324 41.748-63.2324C28.9551-63.2324 19.2383-55.8594 14.0625-41.4062C9.96094-41.4062 6.83594-38.6719 6.83594-34.7168C6.83594-30.2734 10.4004-27.4414 15.1855-27.4414C20.8496-19.5801 30.127-16.5039 40.8691-16.5039C41.4551-16.5039 42.041-16.5527 42.627-16.5527L58.252-3.27148C62.3047 0.390625 64.2578 0.878906 67.1875 0.878906ZM105.713-35.3516C103.906-35.3516 102.539-36.8164 102.539-38.5742C102.539-40.3809 103.955-41.9434 105.762-41.9434C107.617-41.9434 108.984-40.5273 108.984-38.7695C108.984-36.9629 107.568-35.3516 105.713-35.3516ZM39.7949 4.24805C47.3145 4.24805 51.7578 2.73438 55.3223 0.195312L43.5059-9.86328C42.9688-9.81445 42.334-9.76562 41.5527-9.76562C39.502-9.76562 36.9629-10.3027 33.3984-10.3027C29.1016-10.3027 26.2695-7.95898 26.2695-4.39453C26.2695 0.830078 31.6895 4.24805 39.7949 4.24805Z"/>
  </g>
  <g id="Light-S" transform="matrix(1 0 0 1 1089.22 696)">
   <path d="M66.6504-0.292969C69.2871-0.292969 71.7285-1.5625 76.6602-1.5625C81.6406-1.5625 83.0566-0.292969 86.8164-0.292969C92.4805-0.292969 95.459-2.63672 95.459-6.34766C95.459-12.9883 87.9883-17.4805 76.6113-17.4805C71.0449-17.4805 68.5059-16.9434 65.332-16.1621L61.2793-25.4883C57.1289-34.6191 50.5859-40.332 41.4062-40.332L36.9629-40.332C35.498-40.332 34.5215-40.9668 34.5215-42.3828C34.5215-44.6777 37.6953-45.2637 41.0645-45.2637C52.1973-45.2637 60.4004-39.1113 65.4297-26.8066L68.0176-20.4102C70.6055-20.9473 73.3887-21.1914 76.2695-21.1914C78.5156-21.1914 80.4199-21.0449 82.6172-20.752C84.9121-22.4609 87.5488-24.3164 91.3086-26.3184C95.5566-23.1934 100.684-21.2402 105.908-21.2402C116.309-21.2402 120.996-23.584 120.996-33.252C120.996-45.459 111.963-54.5898 100.684-54.3457L90.5762-68.0176C84.8633-75.4395 78.0273-79.1016 71.1914-79.1016C65.625-79.1016 57.4707-75.9277 57.4707-71.4844C57.4707-68.4082 63.5742-64.2578 68.4082-61.377L90.4297-48.0469C88.4277-46.0938 86.7676-45.166 84.8633-45.166C82.0312-45.166 79.1016-46.7285 74.5117-49.4629C62.7441-56.1523 53.7109-62.6465 41.5039-62.6465C28.8086-62.6465 19.1406-55.4199 14.0137-41.3574C9.91211-41.3086 6.83594-38.7207 6.83594-34.7656C6.83594-30.3223 10.3516-27.5879 15.1855-27.5391C20.6543-19.8242 29.6875-16.6016 40.625-16.6016C41.1621-16.6016 41.748-16.6504 42.334-16.6504L57.7148-4.15039C61.377-0.830078 63.7695-0.292969 66.6504-0.292969ZM104.883-35.2539C103.223-35.2539 101.904-36.6211 101.904-38.2812C101.904-39.9414 103.271-41.4551 104.932-41.4551C106.641-41.4551 107.959-40.0879 107.959-38.4766C107.959-36.7676 106.592-35.2539 104.883-35.2539ZM38.7695 2.44141C46.0938 2.44141 50.5859 1.07422 54.3457-1.41602L42.4805-11.084C41.9434-11.0352 41.3086-10.9863 40.4785-10.9863C38.6719-10.9863 35.5957-11.5723 32.4219-11.5723C28.1738-11.5723 25.6348-9.32617 25.6348-5.95703C25.6348-0.927734 30.7129 2.44141 38.7695 2.44141Z"/>
  </g>
  <g id="Thin-S" transform="matrix(1 0 0 1 793.165 696)">
   <path d="M65.9668-1.80664C68.5059-1.80664 71.2402-3.02734 75.8301-3.02734C80.5664-3.02734 82.0801-1.80664 85.791-1.80664C91.4551-1.80664 94.5312-4.19922 94.5312-7.22656C94.5312-13.5742 86.6211-18.0176 75.7812-18.0176C70.3613-18.0176 67.8223-17.5293 64.7949-16.748L60.8398-25.7324C56.5918-35.2051 49.9023-40.5273 41.1133-40.5273L36.7188-40.5273C35.3516-40.5273 34.5703-41.0645 34.5703-42.2852C34.5703-44.3848 37.5977-44.9219 40.7715-44.9219C51.6602-44.9219 59.6191-38.916 64.5508-26.9043L67.1875-20.4102C69.6777-20.9961 72.5098-21.2402 75.4395-21.2402C77.6367-21.2402 79.1016-21.0938 81.3477-20.8008C83.5938-22.4609 86.1328-24.5117 89.5996-27.4414C93.7988-23.6816 99.6582-21.4844 105.176-21.4844C115.186-21.4844 119.678-23.8281 119.678-32.7637C119.678-45.459 109.668-54.7363 99.3652-53.9551L89.6973-67.6758C84.1309-74.9023 77.3438-78.7109 70.4102-78.7109C64.8926-78.7109 57.3242-75.5859 57.3242-71.3379C57.3242-68.3105 63.0371-64.5996 67.9199-61.7676L90.0879-48.9258C87.0605-45.9961 85.2051-44.873 83.3008-44.873C80.7617-44.873 78.3203-45.9473 73.7793-48.6816C62.2559-55.2246 53.3203-61.9141 41.2109-61.9141C28.5645-61.9141 19.043-54.8828 14.0137-41.3574C9.91211-41.2109 6.83594-38.7207 6.83594-34.7656C6.83594-30.3711 10.3027-27.7832 15.1367-27.6367C20.4102-20.1172 29.1016-16.6992 40.2832-16.6992C40.8203-16.6992 41.3574-16.748 41.8945-16.748L56.9824-5.27344C60.1562-2.49023 63.0859-1.80664 65.9668-1.80664ZM103.809-35.1074C102.295-35.1074 101.074-36.377 101.074-37.8906C101.074-39.4531 102.344-40.7715 103.809-40.7715C105.371-40.7715 106.592-39.5508 106.592-38.0371C106.592-36.5234 105.322-35.1074 103.809-35.1074ZM37.4023 0.0488281C44.4824 0.0488281 49.0723-1.07422 53.0273-3.51562L41.1133-12.7441C40.5762-12.6953 39.8926-12.6465 39.0625-12.6465C37.5977-12.6465 33.7891-13.2324 31.1523-13.2324C26.9531-13.2324 24.8535-11.1328 24.8535-8.10547C24.8535-3.17383 29.4434 0.0488281 37.4023 0.0488281Z"/>
  </g>
  <g id="Ultralight-S" transform="matrix(1 0 0 1 496.796 696)">
   <path d="M65.625-2.58789C68.0664-2.58789 70.9473-3.80859 75.3906-3.80859C80.0293-3.80859 81.543-2.58789 85.2539-2.58789C90.918-2.58789 94.043-4.98047 94.043-7.66602C94.043-13.8672 85.8887-18.3105 75.3418-18.3105C70.0195-18.3105 67.4805-17.8223 64.502-17.0898L60.6445-25.8789C56.2988-35.5469 49.5605-40.625 40.9668-40.625L36.6211-40.625C35.2539-40.625 34.5703-41.1621 34.5703-42.2363C34.5703-44.2383 37.5488-44.7266 40.625-44.7266C51.3672-44.7266 59.2285-38.8184 64.0625-26.9531L66.748-20.4102C69.1895-20.9961 72.0215-21.2402 75-21.2402C77.1484-21.2402 78.418-21.0938 80.6641-20.8008C82.9102-22.4609 85.4004-24.6094 88.7207-28.0273C92.8711-23.9746 99.1211-21.582 104.834-21.582C114.6-21.582 118.994-23.9258 118.994-32.4707C118.994-45.4102 108.496-54.834 98.6816-53.7109L89.209-67.5293C83.7402-74.6094 77.002-78.4668 70.0195-78.4668C64.502-78.4668 57.1777-75.4395 57.1777-71.2402C57.1777-68.2617 62.7441-64.7949 67.6758-62.0117L89.8926-49.4141C86.377-45.8984 84.375-44.7266 82.5195-44.7266C80.0781-44.7266 77.9297-45.5078 73.4375-48.291C61.9629-54.6875 53.0762-61.5234 41.0645-61.5234C28.4668-61.5234 18.9941-54.5898 13.9648-41.3086C9.86328-41.1621 6.83594-38.7695 6.83594-34.8145C6.83594-30.4199 10.2539-27.8809 15.1367-27.7344C20.3125-20.2637 28.7598-16.7969 40.1367-16.7969C40.625-16.7969 41.1621-16.7969 41.6992-16.7969L56.6406-5.85938C59.5215-3.36914 62.7441-2.58789 65.625-2.58789ZM103.271-35.0098C101.807-35.0098 100.635-36.2793 100.635-37.6953C100.635-39.1602 101.855-40.4297 103.271-40.4297C104.688-40.4297 105.859-39.2578 105.859-37.8418C105.859-36.377 104.639-35.0098 103.271-35.0098ZM36.6699-1.17188C43.6523-1.17188 48.291-2.19727 52.3438-4.63867L40.3809-13.623C39.8438-13.5742 39.1602-13.5254 38.3301-13.5254C37.0605-13.5254 32.8613-14.0625 30.4688-14.0625C26.3184-14.0625 24.4141-12.1094 24.4141-9.17969C24.4141-4.3457 28.7598-1.17188 36.6699-1.17188Z"/>
  </g>
 </g>
</svg>
