<?xml version="1.0" encoding="UTF-8"?>
<!--Generator: Apple Native CoreSVG 149-->
<!DOCTYPE svg
PUBLIC "-//W3C//DTD SVG 1.1//EN"
       "http://www.w3.org/Graphics/SVG/1.1/DTD/svg11.dtd">
<svg version="1.1" xmlns="http://www.w3.org/2000/svg" xmlns:xlink="http://www.w3.org/1999/xlink" width="3300" height="2200">
 <!--glyph: "uni100A73.medium", point size: 100.000000, font version: "Version 16.0d18e1", template writer version: "8"-->
 <g id="Notes">
  <rect height="2200" id="artboard" style="fill:white;opacity:1" width="3300" x="0" y="0"/>
  <line id="" style="fill:none;stroke:black;opacity:1;stroke-width:0.5;" x1="263" x2="3036" y1="292" y2="292"/>
  <text style="stroke:none;fill:black;font-family:-apple-system,&quot;SF Pro Display&quot;,&quot;SF Pro Text&quot;,Helvetica,sans-serif;font-weight:bold;" transform="matrix(1 0 0 1 263 322)">Weight/Scale Variations</text>
  <text style="stroke:none;fill:black;font-family:-apple-system,&quot;SF Pro Display&quot;,&quot;SF Pro Text&quot;,Helvetica,sans-serif;text-anchor:middle;" transform="matrix(1 0 0 1 559.711 322)">Ultralight</text>
  <text style="stroke:none;fill:black;font-family:-apple-system,&quot;SF Pro Display&quot;,&quot;SF Pro Text&quot;,Helvetica,sans-serif;text-anchor:middle;" transform="matrix(1 0 0 1 856.422 322)">Thin</text>
  <text style="stroke:none;fill:black;font-family:-apple-system,&quot;SF Pro Display&quot;,&quot;SF Pro Text&quot;,Helvetica,sans-serif;text-anchor:middle;" transform="matrix(1 0 0 1 1153.13 322)">Light</text>
  <text style="stroke:none;fill:black;font-family:-apple-system,&quot;SF Pro Display&quot;,&quot;SF Pro Text&quot;,Helvetica,sans-serif;text-anchor:middle;" transform="matrix(1 0 0 1 1449.84 322)">Regular</text>
  <text style="stroke:none;fill:black;font-family:-apple-system,&quot;SF Pro Display&quot;,&quot;SF Pro Text&quot;,Helvetica,sans-serif;text-anchor:middle;" transform="matrix(1 0 0 1 1746.56 322)">Medium</text>
  <text style="stroke:none;fill:black;font-family:-apple-system,&quot;SF Pro Display&quot;,&quot;SF Pro Text&quot;,Helvetica,sans-serif;text-anchor:middle;" transform="matrix(1 0 0 1 2043.27 322)">Semibold</text>
  <text style="stroke:none;fill:black;font-family:-apple-system,&quot;SF Pro Display&quot;,&quot;SF Pro Text&quot;,Helvetica,sans-serif;text-anchor:middle;" transform="matrix(1 0 0 1 2339.98 322)">Bold</text>
  <text style="stroke:none;fill:black;font-family:-apple-system,&quot;SF Pro Display&quot;,&quot;SF Pro Text&quot;,Helvetica,sans-serif;text-anchor:middle;" transform="matrix(1 0 0 1 2636.69 322)">Heavy</text>
  <text style="stroke:none;fill:black;font-family:-apple-system,&quot;SF Pro Display&quot;,&quot;SF Pro Text&quot;,Helvetica,sans-serif;text-anchor:middle;" transform="matrix(1 0 0 1 2933.4 322)">Black</text>
  <line id="" style="fill:none;stroke:black;opacity:1;stroke-width:0.5;" x1="263" x2="3036" y1="1903" y2="1903"/>
  <g id="" transform="matrix(1 0 0 1 263 1933)">
   <path d="M9.24805 0.830078C13.5547 0.830078 17.1387-2.74414 17.1387-7.05078C17.1387-11.3574 13.5449-14.9316 9.23828-14.9316C4.94141-14.9316 1.36719-11.3574 1.36719-7.05078C1.36719-2.74414 4.95117 0.830078 9.24805 0.830078ZM9.24805-0.654297C5.70312-0.654297 2.87109-3.49609 2.87109-7.05078C2.87109-10.6055 5.69336-13.4473 9.23828-13.4473C12.793-13.4473 15.6348-10.6055 15.6445-7.05078C15.6543-3.49609 12.8027-0.654297 9.24805-0.654297ZM6.39648-6.31836L8.50586-6.31836L8.50586-4.19922C8.50586-3.75977 8.79883-3.45703 9.22852-3.45703C9.67773-3.45703 9.9707-3.75977 9.9707-4.19922L9.9707-6.31836L12.0996-6.31836C12.5391-6.31836 12.8418-6.61133 12.8418-7.04102C12.8418-7.48047 12.5391-7.7832 12.0996-7.7832L9.9707-7.7832L9.9707-9.89258C9.9707-10.3418 9.67773-10.6445 9.22852-10.6445C8.79883-10.6445 8.50586-10.3418 8.50586-9.89258L8.50586-7.7832L6.39648-7.7832C5.94727-7.7832 5.64453-7.48047 5.64453-7.04102C5.64453-6.61133 5.94727-6.31836 6.39648-6.31836Z"/>
  </g>
  <g id="" transform="matrix(1 0 0 1 281.506 1933)">
   <path d="M11.709 2.91016C17.1582 2.91016 21.6699-1.61133 21.6699-7.05078C21.6699-12.5 17.1484-17.0117 11.6992-17.0117C6.25977-17.0117 1.74805-12.5 1.74805-7.05078C1.74805-1.61133 6.26953 2.91016 11.709 2.91016ZM11.709 1.25C7.09961 1.25 3.41797-2.44141 3.41797-7.05078C3.41797-11.6602 7.08984-15.3516 11.6992-15.3516C16.3086-15.3516 20-11.6602 20.0098-7.05078C20.0195-2.44141 16.3184 1.25 11.709 1.25ZM7.98828-6.23047L10.8789-6.23047L10.8789-3.32031C10.8789-2.83203 11.2109-2.5 11.6895-2.5C12.1777-2.5 12.5195-2.83203 12.5195-3.32031L12.5195-6.23047L15.4297-6.23047C15.918-6.23047 16.25-6.5625 16.25-7.04102C16.25-7.5293 15.918-7.87109 15.4297-7.87109L12.5195-7.87109L12.5195-10.7617C12.5195-11.2695 12.1777-11.6016 11.6895-11.6016C11.2109-11.6016 10.8789-11.2598 10.8789-10.7617L10.8789-7.87109L7.98828-7.87109C7.48047-7.87109 7.14844-7.5293 7.14844-7.04102C7.14844-6.5625 7.49023-6.23047 7.98828-6.23047Z"/>
  </g>
  <g id="" transform="matrix(1 0 0 1 304.924 1933)">
   <path d="M14.9707 5.66406C21.9336 5.66406 27.6953-0.0976562 27.6953-7.05078C27.6953-14.0137 21.9238-19.7754 14.9609-19.7754C8.00781-19.7754 2.25586-14.0137 2.25586-7.05078C2.25586-0.0976562 8.01758 5.66406 14.9707 5.66406ZM14.9707 3.84766C8.93555 3.84766 4.08203-1.01562 4.08203-7.05078C4.08203-13.0957 8.92578-17.9492 14.9609-17.9492C21.0059-17.9492 25.8594-13.0957 25.8691-7.05078C25.8789-1.01562 21.0156 3.84766 14.9707 3.84766ZM10.0586-6.14258L14.0625-6.14258L14.0625-2.12891C14.0625-1.5918 14.4336-1.2207 14.9512-1.2207C15.4883-1.2207 15.8594-1.5918 15.8594-2.12891L15.8594-6.14258L19.8828-6.14258C20.4102-6.14258 20.791-6.51367 20.791-7.03125C20.791-7.56836 20.4199-7.94922 19.8828-7.94922L15.8594-7.94922L15.8594-11.9531C15.8594-12.5098 15.4883-12.8809 14.9512-12.8809C14.4336-12.8809 14.0625-12.5 14.0625-11.9531L14.0625-7.94922L10.0586-7.94922C9.50195-7.94922 9.13086-7.56836 9.13086-7.03125C9.13086-6.51367 9.51172-6.14258 10.0586-6.14258Z"/>
  </g>
  <text style="stroke:none;fill:black;font-family:-apple-system,&quot;SF Pro Display&quot;,&quot;SF Pro Text&quot;,Helvetica,sans-serif;font-weight:bold;" transform="matrix(1 0 0 1 263 1953)">Design Variations</text>
  <text style="stroke:none;fill:black;font-family:-apple-system,&quot;SF Pro Display&quot;,&quot;SF Pro Text&quot;,Helvetica,sans-serif;" transform="matrix(1 0 0 1 263 1971)">Symbols are supported in up to nine weights and three scales.</text>
  <text style="stroke:none;fill:black;font-family:-apple-system,&quot;SF Pro Display&quot;,&quot;SF Pro Text&quot;,Helvetica,sans-serif;" transform="matrix(1 0 0 1 263 1989)">For optimal layout with text and other symbols, vertically align</text>
  <text style="stroke:none;fill:black;font-family:-apple-system,&quot;SF Pro Display&quot;,&quot;SF Pro Text&quot;,Helvetica,sans-serif;" transform="matrix(1 0 0 1 263 2007)">symbols with the adjacent text.</text>
  <line id="" style="fill:none;stroke:#00AEEF;stroke-width:0.5;opacity:1.0;" x1="776" x2="776" y1="1919" y2="1933"/>
  <g id="" transform="matrix(1 0 0 1 776 1933)">
   <path d="M3.31055 0.126953C3.82812 0.126953 4.08203-0.0683594 4.26758-0.605469L5.52734-4.0625L11.2891-4.0625L12.5488-0.605469C12.7344-0.0683594 12.9883 0.126953 13.4961 0.126953C14.0137 0.126953 14.3457-0.185547 14.3457-0.673828C14.3457-0.839844 14.3164-0.986328 14.2383-1.20117L9.6582-13.3887C9.43359-13.9941 9.0332-14.2871 8.4082-14.2871C7.80273-14.2871 7.39258-13.9941 7.17773-13.3984L2.59766-1.19141C2.51953-0.976562 2.49023-0.830078 2.49023-0.664062C2.49023-0.175781 2.80273 0.126953 3.31055 0.126953ZM6.00586-5.53711L8.37891-12.1094L8.42773-12.1094L10.8008-5.53711Z"/>
  </g>
  <line id="" style="fill:none;stroke:#00AEEF;stroke-width:0.5;opacity:1.0;" x1="792.836" x2="792.836" y1="1919" y2="1933"/>
  <text style="stroke:none;fill:black;font-family:-apple-system,&quot;SF Pro Display&quot;,&quot;SF Pro Text&quot;,Helvetica,sans-serif;font-weight:bold;" transform="matrix(1 0 0 1 776 1953)">Margins</text>
  <text style="stroke:none;fill:black;font-family:-apple-system,&quot;SF Pro Display&quot;,&quot;SF Pro Text&quot;,Helvetica,sans-serif;" transform="matrix(1 0 0 1 776 1971)">Leading and trailing margins on the left and right side of each symbol</text>
  <text style="stroke:none;fill:black;font-family:-apple-system,&quot;SF Pro Display&quot;,&quot;SF Pro Text&quot;,Helvetica,sans-serif;" transform="matrix(1 0 0 1 776 1989)">can be adjusted by modifying the x-location of the margin guidelines.</text>
  <text style="stroke:none;fill:black;font-family:-apple-system,&quot;SF Pro Display&quot;,&quot;SF Pro Text&quot;,Helvetica,sans-serif;" transform="matrix(1 0 0 1 776 2007)">Modifications are automatically applied proportionally to all</text>
  <text style="stroke:none;fill:black;font-family:-apple-system,&quot;SF Pro Display&quot;,&quot;SF Pro Text&quot;,Helvetica,sans-serif;" transform="matrix(1 0 0 1 776 2025)">scales and weights.</text>
  <g id="" transform="matrix(1 0 0 1 1289 1933)">
   <path d="M2.8418 1.86523L4.54102 3.57422C5.40039 4.44336 6.38672 4.38477 7.31445 3.35938L17.4902-7.85156C17.7539-7.76367 18.0273-7.7832 18.3398-7.8418L19.4043-8.03711L20.0684-7.36328L20.0293-6.80664C19.9902-6.30859 20.1172-5.92773 20.6055-5.44922L21.3672-4.70703C21.8457-4.22852 22.4609-4.19922 22.9297-4.66797L25.8398-7.58789C26.3086-8.05664 26.2891-8.65234 25.8105-9.13086L25.0391-9.89258C24.5605-10.3711 24.1895-10.5273 23.7109-10.4883L23.1348-10.4395L22.4902-11.0742L22.7344-12.1973C22.8613-12.7637 22.7051-13.2031 22.1191-13.7891L19.9219-15.9766C16.582-19.2969 12.1484-19.2188 9.25781-16.3281C8.83789-15.918 8.80859-15.3418 9.04297-14.9512C9.27734-14.5898 9.73633-14.3555 10.3809-14.5215C11.8457-14.8633 13.3691-14.9219 14.7949-13.9844L14.209-12.5293C14.0137-12.0508 13.9844-11.6504 14.1113-11.2891L3.04688-0.898438C2.06055 0.0195312 1.98242 0.996094 2.8418 1.86523ZM10.752-15.957C13.1836-17.7344 16.4746-17.4316 18.7012-15.2051L21.1328-12.793C21.3672-12.5586 21.4062-12.373 21.3379-12.0312L21.0156-10.5469L22.5195-9.0625L23.5059-9.12109C23.7598-9.13086 23.8379-9.11133 24.0332-8.91602L24.6094-8.33984L22.168-5.89844L21.5918-6.47461C21.3965-6.66992 21.3672-6.74805 21.377-7.01172L21.4453-7.98828L19.9512-9.47266L18.4277-9.21875C18.1055-9.15039 17.959-9.17969 17.7148-9.41406L15.7129-11.416C15.459-11.6504 15.4297-11.8164 15.5859-12.1875L16.4648-14.2773C14.9023-15.7324 12.8711-16.3574 10.8398-15.7617C10.6836-15.7227 10.625-15.8496 10.752-15.957ZM5.27344 2.30469L4.10156 1.14258C3.63281 0.683594 3.74023 0.341797 4.14062-0.0195312L14.9512-10.1953L16.416-8.71094L6.42578 2.27539C6.07422 2.67578 5.74219 2.77344 5.27344 2.30469Z"/>
  </g>
  <text style="stroke:none;fill:black;font-family:-apple-system,&quot;SF Pro Display&quot;,&quot;SF Pro Text&quot;,Helvetica,sans-serif;font-weight:bold;" transform="matrix(1 0 0 1 1289 1953)">Exporting</text>
  <text style="stroke:none;fill:black;font-family:-apple-system,&quot;SF Pro Display&quot;,&quot;SF Pro Text&quot;,Helvetica,sans-serif;" transform="matrix(1 0 0 1 1289 1971)">Symbols should be outlined when exporting to ensure the</text>
  <text style="stroke:none;fill:black;font-family:-apple-system,&quot;SF Pro Display&quot;,&quot;SF Pro Text&quot;,Helvetica,sans-serif;" transform="matrix(1 0 0 1 1289 1989)">design is preserved when submitting to Xcode.</text>
  <text id="template-version" style="stroke:none;fill:black;font-family:-apple-system,&quot;SF Pro Display&quot;,&quot;SF Pro Text&quot;,Helvetica,sans-serif;text-anchor:end;" transform="matrix(1 0 0 1 3036 1933)">Template v.2.0</text>
  <text style="stroke:none;fill:black;font-family:-apple-system,&quot;SF Pro Display&quot;,&quot;SF Pro Text&quot;,Helvetica,sans-serif;text-anchor:end;" transform="matrix(1 0 0 1 3036 1951)">Requires Xcode 12 or greater</text>
  <text style="stroke:none;fill:black;font-family:-apple-system,&quot;SF Pro Display&quot;,&quot;SF Pro Text&quot;,Helvetica,sans-serif;text-anchor:end;" transform="matrix(1 0 0 1 3036 1969)">Generated from list.bullet.rectangle</text>
  <text style="stroke:none;fill:black;font-family:-apple-system,&quot;SF Pro Display&quot;,&quot;SF Pro Text&quot;,Helvetica,sans-serif;text-anchor:end;" transform="matrix(1 0 0 1 3036 1987)">Typeset at 100 points</text>
  <text style="stroke:none;fill:black;font-family:-apple-system,&quot;SF Pro Display&quot;,&quot;SF Pro Text&quot;,Helvetica,sans-serif;" transform="matrix(1 0 0 1 263 726)">Small</text>
  <text style="stroke:none;fill:black;font-family:-apple-system,&quot;SF Pro Display&quot;,&quot;SF Pro Text&quot;,Helvetica,sans-serif;" transform="matrix(1 0 0 1 263 1156)">Medium</text>
  <text style="stroke:none;fill:black;font-family:-apple-system,&quot;SF Pro Display&quot;,&quot;SF Pro Text&quot;,Helvetica,sans-serif;" transform="matrix(1 0 0 1 263 1586)">Large</text>
 </g>
 <g id="Guides">
  <g id="H-reference" style="fill:#27AAE1;stroke:none;" transform="matrix(1 0 0 1 339 696)">
   <path d="M0.976562 0L3.66211 0L12.9883-24.4629L45.752-24.4629L55.127 0L57.7637 0L30.6152-70.459L28.125-70.459ZM29.3457-67.1387L29.4434-67.1387L44.873-26.709L13.8672-26.709Z"/>
  </g>
  <line id="Baseline-S" style="fill:none;stroke:#27AAE1;opacity:1;stroke-width:0.5;" x1="263" x2="3036" y1="696" y2="696"/>
  <line id="Capline-S" style="fill:none;stroke:#27AAE1;opacity:1;stroke-width:0.5;" x1="263" x2="3036" y1="625.541" y2="625.541"/>
  <g id="H-reference" style="fill:#27AAE1;stroke:none;" transform="matrix(1 0 0 1 339 1126)">
   <path d="M0.976562 0L3.66211 0L12.9883-24.4629L45.752-24.4629L55.127 0L57.7637 0L30.6152-70.459L28.125-70.459ZM29.3457-67.1387L29.4434-67.1387L44.873-26.709L13.8672-26.709Z"/>
  </g>
  <line id="Baseline-M" style="fill:none;stroke:#27AAE1;opacity:1;stroke-width:0.5;" x1="263" x2="3036" y1="1126" y2="1126"/>
  <line id="Capline-M" style="fill:none;stroke:#27AAE1;opacity:1;stroke-width:0.5;" x1="263" x2="3036" y1="1055.54" y2="1055.54"/>
  <g id="H-reference" style="fill:#27AAE1;stroke:none;" transform="matrix(1 0 0 1 339 1556)">
   <path d="M0.976562 0L3.66211 0L12.9883-24.4629L45.752-24.4629L55.127 0L57.7637 0L30.6152-70.459L28.125-70.459ZM29.3457-67.1387L29.4434-67.1387L44.873-26.709L13.8672-26.709Z"/>
  </g>
  <line id="Baseline-L" style="fill:none;stroke:#27AAE1;opacity:1;stroke-width:0.5;" x1="263" x2="3036" y1="1556" y2="1556"/>
  <line id="Capline-L" style="fill:none;stroke:#27AAE1;opacity:1;stroke-width:0.5;" x1="263" x2="3036" y1="1485.54" y2="1485.54"/>
  <line id="left-margin" style="fill:none;stroke:#00AEEF;stroke-width:0.5;opacity:1.0;" x1="1379.82" x2="1379.82" y1="1030.79" y2="1150.12"/>
  <line id="right-margin" style="fill:none;stroke:#00AEEF;stroke-width:0.5;opacity:1.0;" x1="1519.86" x2="1519.86" y1="1030.79" y2="1150.12"/>
 </g>
 <g id="Symbols">
  <g id="Black-L" transform="matrix(1 0 0 1 2841.51 1556)">
   <path d="M39.9902 26.5137L143.799 26.5137C159.082 26.5137 167.725 17.8711 167.725 2.68555L167.725-73.0957C167.725-88.2812 159.082-96.875 143.799-96.875L39.9902-96.875C24.7559-96.875 16.0645-88.2812 16.0645-73.0957L16.0645 2.68555C16.0645 17.8711 24.7559 26.5137 39.9902 26.5137ZM42.6758 6.29883C38.4766 6.29883 36.3281 4.39453 36.3281-0.146484L36.3281-70.2148C36.3281-74.7559 38.4766-76.6602 42.6758-76.6602L141.064-76.6602C145.312-76.6602 147.461-74.7559 147.461-70.2148L147.461-0.146484C147.461 4.39453 145.312 6.29883 141.064 6.29883ZM53.8086-54.6387C57.1289-54.6387 59.7656-57.2266 59.7656-60.498C59.7656-63.8184 57.1289-66.4551 53.8086-66.4551C50.5859-66.4551 47.8516-63.7207 47.8516-60.498C47.8516-57.3242 50.5859-54.6387 53.8086-54.6387ZM68.457-55.7129L130.957-55.7129C133.643-55.7129 135.791-57.9102 135.791-60.498C135.791-63.1348 133.594-65.332 130.957-65.332L68.457-65.332C65.8691-65.332 63.623-63.1348 63.623-60.498C63.623-57.9102 65.7715-55.7129 68.457-55.7129ZM53.8086-37.9883C57.1289-37.9883 59.7656-40.7227 59.7656-43.9453C59.7656-47.2656 57.1289-49.9023 53.8086-49.9023C50.5859-49.9023 47.8516-47.2168 47.8516-43.9453C47.8516-40.7227 50.5859-37.9883 53.8086-37.9883ZM68.457-39.1602L104.59-39.1602C107.178-39.1602 109.424-41.3574 109.424-43.9453C109.424-46.582 107.275-48.8281 104.59-48.8281L68.457-48.8281C65.7715-48.8281 63.623-46.582 63.623-43.9453C63.623-41.3574 65.8691-39.1602 68.457-39.1602ZM53.8086-21.582C57.1289-21.582 59.7656-24.1699 59.7656-27.4902C59.7656-30.7129 57.1777-33.3496 53.8086-33.3496C50.5371-33.3496 47.8516-30.7129 47.8516-27.4902C47.8516-24.1699 50.5371-21.582 53.8086-21.582ZM68.457-22.6562L130.957-22.6562C133.643-22.6562 135.791-24.8535 135.791-27.4902C135.791-30.127 133.643-32.2266 130.957-32.2266L68.457-32.2266C65.7715-32.2266 63.623-30.127 63.623-27.4902C63.623-24.8535 65.7715-22.6562 68.457-22.6562ZM53.8086-4.05273C57.1289-4.05273 59.7656-6.73828 59.7656-10.0098C59.7656-13.3301 57.1289-15.918 53.8086-15.918C50.5859-15.918 47.8516-13.2324 47.8516-10.0098C47.8516-6.78711 50.5859-4.05273 53.8086-4.05273ZM68.457-5.22461L104.59-5.22461C107.178-5.22461 109.424-7.42188 109.424-10.0098C109.424-12.6465 107.275-14.7949 104.59-14.7949L68.457-14.7949C65.7715-14.7949 63.623-12.6465 63.623-10.0098C63.623-7.42188 65.8691-5.22461 68.457-5.22461Z"/>
  </g>
  <g id="Heavy-L" transform="matrix(1 0 0 1 2545.23 1556)">
   <path d="M38.8184 25.4883L144.092 25.4883C158.74 25.4883 166.846 17.4316 166.846 2.88086L166.846-73.2422C166.846-87.793 158.74-95.8496 144.092-95.8496L38.8184-95.8496C24.2188-95.8496 16.0645-87.793 16.0645-73.2422L16.0645 2.88086C16.0645 17.4316 24.2188 25.4883 38.8184 25.4883ZM40.918 8.00781C36.084 8.00781 33.5938 5.71289 33.5938 0.585938L33.5938-70.9473C33.5938-76.0742 36.084-78.3691 40.918-78.3691L141.943-78.3691C146.777-78.3691 149.316-76.0742 149.316-70.9473L149.316 0.585938C149.316 5.71289 146.777 8.00781 141.943 8.00781ZM51.6602-55.7129C54.9316-55.7129 57.5684-58.3008 57.5684-61.5723C57.5684-64.8438 54.9316-67.4805 51.6602-67.4805C48.4863-67.4805 45.752-64.7949 45.752-61.5723C45.752-58.3984 48.4863-55.7129 51.6602-55.7129ZM67.5293-57.1289L132.715-57.1289C135.205-57.1289 137.207-59.1309 137.207-61.5723C137.207-64.0137 135.156-66.0645 132.715-66.0645L67.5293-66.0645C65.0879-66.0645 63.0371-64.0137 63.0371-61.5723C63.0371-59.1309 65.0391-57.1289 67.5293-57.1289ZM51.6602-38.3789C54.9316-38.3789 57.5684-41.0645 57.5684-44.2871C57.5684-47.5586 54.9316-50.1953 51.6602-50.1953C48.4863-50.1953 45.752-47.5586 45.752-44.2871C45.752-41.1133 48.4863-38.3789 51.6602-38.3789ZM67.5293-39.7949L104.98-39.7949C107.422-39.7949 109.473-41.8457 109.473-44.2871C109.473-46.7285 107.471-48.8281 104.98-48.8281L67.5293-48.8281C65.0391-48.8281 63.0371-46.7285 63.0371-44.2871C63.0371-41.8457 65.0879-39.7949 67.5293-39.7949ZM51.6602-21.2402C54.9316-21.2402 57.5684-23.8281 57.5684-27.0996C57.5684-30.3223 54.9805-32.959 51.6602-32.959C48.3887-32.959 45.752-30.2734 45.752-27.0996C45.752-23.8281 48.3887-21.2402 51.6602-21.2402ZM67.5293-22.6074L132.715-22.6074C135.205-22.6074 137.207-24.6094 137.207-27.0996C137.207-29.5898 135.205-31.4941 132.715-31.4941L67.5293-31.4941C65.0391-31.4941 63.0371-29.5898 63.0371-27.0996C63.0371-24.6094 65.0391-22.6074 67.5293-22.6074ZM51.6602-3.07617C54.9316-3.07617 57.5684-5.71289 57.5684-8.98438C57.5684-12.2559 54.9316-14.8438 51.6602-14.8438C48.4863-14.8438 45.752-12.1582 45.752-8.98438C45.752-5.76172 48.4863-3.07617 51.6602-3.07617ZM67.5293-4.49219L104.98-4.49219C107.422-4.49219 109.473-6.54297 109.473-8.98438C109.473-11.4258 107.471-13.4277 104.98-13.4277L67.5293-13.4277C65.0391-13.4277 63.0371-11.4258 63.0371-8.98438C63.0371-6.54297 65.0879-4.49219 67.5293-4.49219Z"/>
  </g>
  <g id="Bold-L" transform="matrix(1 0 0 1 2249.01 1556)">
   <path d="M37.5 24.3652L144.385 24.3652C158.35 24.3652 165.869 16.8945 165.869 3.07617L165.869-73.3887C165.869-87.207 158.35-94.7266 144.385-94.7266L37.5-94.7266C23.6328-94.7266 16.0645-87.2559 16.0645-73.3887L16.0645 3.07617C16.0645 16.8945 23.6328 24.3652 37.5 24.3652ZM38.9648 9.91211C33.4473 9.91211 30.5176 7.17773 30.5176 1.41602L30.5176-71.7285C30.5176-77.5391 33.4473-80.2734 38.9648-80.2734L142.969-80.2734C148.389-80.2734 151.416-77.5391 151.416-71.7285L151.416 1.41602C151.416 7.17773 148.389 9.91211 142.969 9.91211ZM49.2676-56.9336C52.5391-56.9336 55.1758-59.5215 55.1758-62.793C55.1758-66.0156 52.5391-68.6523 49.2676-68.6523C46.0938-68.6523 43.4082-65.9668 43.4082-62.793C43.4082-59.5703 46.0938-56.9336 49.2676-56.9336ZM66.5527-58.6914L134.668-58.6914C136.963-58.6914 138.77-60.5469 138.77-62.793C138.77-65.0391 136.914-66.8945 134.668-66.8945L66.5527-66.8945C64.2578-66.8945 62.4023-65.0391 62.4023-62.793C62.4023-60.5469 64.209-58.6914 66.5527-58.6914ZM49.2676-38.8184C52.5391-38.8184 55.1758-41.4551 55.1758-44.6777C55.1758-47.9492 52.5391-50.5859 49.2676-50.5859C46.0938-50.5859 43.4082-47.9004 43.4082-44.6777C43.4082-41.5039 46.0938-38.8184 49.2676-38.8184ZM66.5527-40.5762L105.371-40.5762C107.617-40.5762 109.521-42.4316 109.521-44.6777C109.521-46.9727 107.666-48.8281 105.371-48.8281L66.5527-48.8281C64.2578-48.8281 62.4023-46.9727 62.4023-44.6777C62.4023-42.4316 64.2578-40.5762 66.5527-40.5762ZM49.2676-20.8496C52.5391-20.8496 55.1758-23.4375 55.1758-26.6602C55.1758-29.8828 52.5391-32.4707 49.2676-32.4707C46.0449-32.4707 43.4082-29.834 43.4082-26.6602C43.4082-23.4375 46.0449-20.8496 49.2676-20.8496ZM66.5527-22.5586L134.668-22.5586C136.963-22.5586 138.77-24.3652 138.77-26.6602C138.77-28.9551 136.963-30.7129 134.668-30.7129L66.5527-30.7129C64.209-30.7129 62.4023-28.9551 62.4023-26.6602C62.4023-24.3652 64.209-22.5586 66.5527-22.5586ZM49.2676-1.9043C52.5391-1.9043 55.1758-4.54102 55.1758-7.8125C55.1758-11.0352 52.5391-13.623 49.2676-13.623C46.0938-13.623 43.4082-10.9863 43.4082-7.8125C43.4082-4.58984 46.0938-1.9043 49.2676-1.9043ZM66.5527-3.66211L105.371-3.66211C107.617-3.66211 109.521-5.51758 109.521-7.8125C109.521-10.0586 107.715-11.8652 105.371-11.8652L66.5527-11.8652C64.209-11.8652 62.4023-10.0586 62.4023-7.8125C62.4023-5.51758 64.2578-3.66211 66.5527-3.66211Z"/>
  </g>
  <g id="Semibold-L" transform="matrix(1 0 0 1 1952.64 1556)">
   <path d="M36.6211 23.584L144.629 23.584C158.057 23.584 165.186 16.5039 165.186 3.17383L165.186-73.5352C165.186-86.8164 158.057-93.9453 144.629-93.9453L36.6211-93.9453C23.1934-93.9453 16.0645-86.8652 16.0645-73.5352L16.0645 3.17383C16.0645 16.5527 23.1934 23.584 36.6211 23.584ZM37.5977 11.2793C31.6406 11.2793 28.418 8.20312 28.418 1.95312L28.418-72.3145C28.418-78.5156 31.6406-81.5918 37.5977-81.5918L143.652-81.5918C149.512-81.5918 152.832-78.5156 152.832-72.3145L152.832 1.95312C152.832 8.20312 149.512 11.2793 143.652 11.2793ZM47.6562-57.7637C50.8789-57.7637 53.4668-60.3516 53.4668-63.623C53.4668-66.8457 50.8789-69.4336 47.6562-69.4336C44.4336-69.4336 41.7969-66.7969 41.7969-63.623C41.7969-60.4492 44.4336-57.7637 47.6562-57.7637ZM65.8203-59.7656L135.986-59.7656C138.184-59.7656 139.893-61.4746 139.893-63.623C139.893-65.7227 138.135-67.4805 135.986-67.4805L65.8203-67.4805C63.7207-67.4805 61.9629-65.7227 61.9629-63.623C61.9629-61.4746 63.6719-59.7656 65.8203-59.7656ZM47.6562-39.1113C50.8789-39.1113 53.4668-41.748 53.4668-44.9707C53.4668-48.1934 50.8789-50.7812 47.6562-50.7812C44.4336-50.7812 41.7969-48.1445 41.7969-44.9707C41.7969-41.7969 44.4336-39.1113 47.6562-39.1113ZM65.8203-41.0645L105.664-41.0645C107.812-41.0645 109.57-42.8223 109.57-44.9707C109.57-47.0703 107.812-48.877 105.664-48.877L65.8203-48.877C63.6719-48.877 61.9629-47.0703 61.9629-44.9707C61.9629-42.8223 63.7207-41.0645 65.8203-41.0645ZM47.6562-20.5566C50.8789-20.5566 53.4668-23.1445 53.4668-26.3672C53.4668-29.5898 50.8789-32.1777 47.6562-32.1777C44.3848-32.1777 41.7969-29.541 41.7969-26.3672C41.7969-23.1445 44.3848-20.5566 47.6562-20.5566ZM65.8203-22.5098L135.986-22.5098C138.184-22.5098 139.893-24.2188 139.893-26.3672C139.893-28.5156 138.184-30.1758 135.986-30.1758L65.8203-30.1758C63.6719-30.1758 61.9629-28.5156 61.9629-26.3672C61.9629-24.2188 63.6719-22.5098 65.8203-22.5098ZM47.6562-1.12305C50.8789-1.12305 53.4668-3.75977 53.4668-6.98242C53.4668-10.2051 50.8789-12.793 47.6562-12.793C44.4336-12.793 41.7969-10.1562 41.7969-6.98242C41.7969-3.80859 44.4336-1.12305 47.6562-1.12305ZM65.8203-3.125L105.664-3.125C107.812-3.125 109.57-4.83398 109.57-6.98242C109.57-9.13086 107.861-10.791 105.664-10.791L65.8203-10.791C63.6719-10.791 61.9629-9.13086 61.9629-6.98242C61.9629-4.83398 63.7207-3.125 65.8203-3.125Z"/>
  </g>
  <g id="Medium-L" transform="matrix(1 0 0 1 1656.2 1556)">
   <path d="M35.9375 22.998L144.775 22.998C157.861 22.998 164.648 16.2109 164.648 3.27148L164.648-73.6328C164.648-86.5234 157.861-93.3105 144.775-93.3105L35.9375-93.3105C22.9004-93.3105 16.0645-86.5723 16.0645-73.6328L16.0645 3.27148C16.0645 16.2598 22.9004 22.998 35.9375 22.998ZM36.5723 12.2559C30.2246 12.2559 26.8066 8.98438 26.8066 2.39258L26.8066-72.7051C26.8066-79.2969 30.2246-82.6172 36.5723-82.6172L144.141-82.6172C150.391-82.6172 153.906-79.2969 153.906-72.7051L153.906 2.39258C153.906 8.98438 150.391 12.2559 144.141 12.2559ZM46.3867-58.3984C49.6094-58.3984 52.1973-60.9863 52.1973-64.209C52.1973-67.4316 49.6094-70.0684 46.3867-70.0684C43.2129-70.0684 40.5762-67.3828 40.5762-64.209C40.5762-61.084 43.2129-58.3984 46.3867-58.3984ZM65.332-60.5957L137.012-60.5957C139.111-60.5957 140.723-62.207 140.723-64.209C140.723-66.2598 139.062-67.9199 137.012-67.9199L65.332-67.9199C63.2812-67.9199 61.6211-66.2598 61.6211-64.209C61.6211-62.207 63.2324-60.5957 65.332-60.5957ZM46.3867-39.3555C49.6094-39.3555 52.1973-41.9434 52.1973-45.166C52.1973-48.3887 49.6094-50.9766 46.3867-50.9766C43.2129-50.9766 40.5762-48.3398 40.5762-45.166C40.5762-41.9922 43.2129-39.3555 46.3867-39.3555ZM65.332-41.4551L105.908-41.4551C107.91-41.4551 109.57-43.1152 109.57-45.166C109.57-47.2168 107.959-48.877 105.908-48.877L65.332-48.877C63.2812-48.877 61.6211-47.2168 61.6211-45.166C61.6211-43.1152 63.2812-41.4551 65.332-41.4551ZM46.3867-20.3613C49.6094-20.3613 52.1973-22.9492 52.1973-26.1719C52.1973-29.3457 49.6094-31.9336 46.3867-31.9336C43.1641-31.9336 40.5762-29.2969 40.5762-26.1719C40.5762-22.9492 43.1641-20.3613 46.3867-20.3613ZM65.332-22.4609L137.012-22.4609C139.111-22.4609 140.723-24.0723 140.723-26.1719C140.723-28.1738 139.111-29.7852 137.012-29.7852L65.332-29.7852C63.2324-29.7852 61.6211-28.1738 61.6211-26.1719C61.6211-24.0723 63.2324-22.4609 65.332-22.4609ZM46.3867-0.537109C49.6094-0.537109 52.1973-3.125 52.1973-6.34766C52.1973-9.57031 49.6094-12.1582 46.3867-12.1582C43.2129-12.1582 40.5762-9.52148 40.5762-6.34766C40.5762-3.17383 43.2129-0.537109 46.3867-0.537109ZM65.332-2.68555L105.908-2.68555C107.91-2.68555 109.57-4.3457 109.57-6.34766C109.57-8.39844 108.008-10.0098 105.908-10.0098L65.332-10.0098C63.2324-10.0098 61.6211-8.39844 61.6211-6.34766C61.6211-4.3457 63.2812-2.68555 65.332-2.68555Z"/>
  </g>
  <g id="Regular-L" transform="matrix(1 0 0 1 1359.81 1556)">
   <path d="M35.0586 22.2168L144.971 22.2168C157.617 22.2168 164.014 15.8691 164.014 3.41797L164.014-73.7305C164.014-86.1816 157.617-92.5293 144.971-92.5293L35.0586-92.5293C22.4609-92.5293 16.0645-86.2305 16.0645-73.7305L16.0645 3.41797C16.0645 15.918 22.4609 22.2168 35.0586 22.2168ZM35.2539 13.5742C28.418 13.5742 24.707 9.96094 24.707 2.97852L24.707-73.291C24.707-80.2734 28.418-83.8867 35.2539-83.8867L144.824-83.8867C151.514-83.8867 155.322-80.2734 155.322-73.291L155.322 2.97852C155.322 9.96094 151.514 13.5742 144.824 13.5742ZM44.7266-59.2285C47.9492-59.2285 50.5371-61.8164 50.5371-65.0391C50.5371-68.2617 47.9492-70.8496 44.7266-70.8496C41.6016-70.8496 38.9648-68.2129 38.9648-65.0391C38.9648-61.8652 41.6016-59.2285 44.7266-59.2285ZM64.5996-61.6699L138.33-61.6699C140.283-61.6699 141.797-63.1348 141.797-65.0391C141.797-66.9434 140.234-68.457 138.33-68.457L64.5996-68.457C62.6953-68.457 61.1816-66.9434 61.1816-65.0391C61.1816-63.1348 62.6465-61.6699 64.5996-61.6699ZM44.7266-39.6484C47.9492-39.6484 50.5371-42.2363 50.5371-45.4102C50.5371-48.6328 47.9492-51.2207 44.7266-51.2207C41.6016-51.2207 38.9648-48.584 38.9648-45.4102C38.9648-42.2852 41.6016-39.6484 44.7266-39.6484ZM64.5996-41.9922L106.201-41.9922C108.105-41.9922 109.619-43.5059 109.619-45.4102C109.619-47.3145 108.105-48.877 106.201-48.877L64.5996-48.877C62.6953-48.877 61.1816-47.3145 61.1816-45.4102C61.1816-43.5059 62.6953-41.9922 64.5996-41.9922ZM44.7266-20.0684C47.9492-20.0684 50.5371-22.6562 50.5371-25.8789C50.5371-29.0527 47.9492-31.5918 44.7266-31.5918C41.5527-31.5918 38.9648-29.0039 38.9648-25.8789C38.9648-22.6562 41.5527-20.0684 44.7266-20.0684ZM64.5996-22.4121L138.33-22.4121C140.283-22.4121 141.797-23.9258 141.797-25.8789C141.797-27.7832 140.283-29.248 138.33-29.248L64.5996-29.248C62.6465-29.248 61.1816-27.7832 61.1816-25.8789C61.1816-23.9258 62.6465-22.4121 64.5996-22.4121ZM44.7266 0.244141C47.9492 0.244141 50.5371-2.34375 50.5371-5.56641C50.5371-8.78906 47.9492-11.377 44.7266-11.377C41.6016-11.377 38.9648-8.74023 38.9648-5.56641C38.9648-2.39258 41.6016 0.244141 44.7266 0.244141ZM64.5996-2.14844L106.201-2.14844C108.105-2.14844 109.619-3.66211 109.619-5.56641C109.619-7.4707 108.154-8.93555 106.201-8.93555L64.5996-8.93555C62.6465-8.93555 61.1816-7.4707 61.1816-5.56641C61.1816-3.66211 62.6953-2.14844 64.5996-2.14844Z"/>
  </g>
  <g id="Light-L" transform="matrix(1 0 0 1 1063.56 1556)">
   <path d="M34.0332 21.4355L145.117 21.4355C157.031 21.4355 163.086 15.2344 163.086 3.56445L163.086-73.8281C163.086-85.5469 157.031-91.6992 145.117-91.6992L34.0332-91.6992C22.168-91.6992 16.0645-85.6445 16.0645-73.8281L16.0645 3.56445C16.0645 15.3809 22.168 21.4355 34.0332 21.4355ZM34.1797 14.7949C26.709 14.7949 22.7051 10.8398 22.7051 3.22266L22.7051-73.4863C22.7051-81.1523 26.709-85.0586 34.1797-85.0586L144.971-85.0586C152.295-85.0586 156.494-81.1523 156.494-73.4863L156.494 3.22266C156.494 10.8398 152.295 14.7949 144.971 14.7949ZM43.1152-59.8633C46.2402-59.8633 48.8281-62.4512 48.8281-65.5762C48.8281-68.7012 46.2402-71.2891 43.1152-71.2891C39.9902-71.2891 37.4023-68.7012 37.4023-65.5762C37.4023-62.4512 39.9902-59.8633 43.1152-59.8633ZM64.1602-62.8418L140.088-62.8418C141.699-62.8418 142.871-64.0137 142.871-65.5762C142.871-67.1387 141.65-68.3105 140.088-68.3105L64.1602-68.3105C62.5977-68.3105 61.4258-67.1387 61.4258-65.5762C61.4258-64.0137 62.5977-62.8418 64.1602-62.8418ZM43.1152-39.8438C46.2402-39.8438 48.8281-42.3828 48.8281-45.5566C48.8281-48.6816 46.2402-51.2207 43.1152-51.2207C39.9902-51.2207 37.4023-48.6328 37.4023-45.5566C37.4023-42.4316 39.9902-39.8438 43.1152-39.8438ZM64.1602-42.7734L107.959-42.7734C109.473-42.7734 110.693-43.9941 110.693-45.5566C110.693-47.0703 109.473-48.291 107.959-48.291L64.1602-48.291C62.5977-48.291 61.4258-47.0703 61.4258-45.5566C61.4258-43.9941 62.5977-42.7734 64.1602-42.7734ZM43.1152-19.8242C46.2402-19.8242 48.8281-22.3633 48.8281-25.5371C48.8281-28.6621 46.2402-31.2012 43.1152-31.2012C39.9414-31.2012 37.4023-28.6621 37.4023-25.5371C37.4023-22.3633 39.9414-19.8242 43.1152-19.8242ZM64.1602-22.8027L140.088-22.8027C141.699-22.8027 142.871-23.9258 142.871-25.5371C142.871-27.0996 141.699-28.2715 140.088-28.2715L64.1602-28.2715C62.5977-28.2715 61.4258-27.0996 61.4258-25.5371C61.4258-23.9258 62.5977-22.8027 64.1602-22.8027ZM43.1152 0.634766C46.2402 0.634766 48.8281-1.9043 48.8281-5.07812C48.8281-8.20312 46.2402-10.7422 43.1152-10.7422C39.9902-10.7422 37.4023-8.20312 37.4023-5.07812C37.4023-1.95312 39.9902 0.634766 43.1152 0.634766ZM64.1602-2.29492L107.959-2.29492C109.473-2.29492 110.693-3.51562 110.693-5.07812C110.693-6.5918 109.521-7.76367 107.959-7.76367L64.1602-7.76367C62.5977-7.76367 61.4258-6.5918 61.4258-5.07812C61.4258-3.51562 62.5977-2.29492 64.1602-2.29492Z"/>
  </g>
  <g id="Thin-L" transform="matrix(1 0 0 1 767.433 1556)">
   <path d="M32.666 20.3613L145.312 20.3613C156.201 20.3613 161.914 14.4531 161.914 3.75977L161.914-73.9746C161.914-84.7168 156.201-90.5762 145.312-90.5762L32.666-90.5762C21.7773-90.5762 16.0645-84.8633 16.0645-73.9746L16.0645 3.75977C16.0645 14.6484 21.7773 20.3613 32.666 20.3613ZM32.8125 16.4062C24.4141 16.4062 19.9707 12.0117 19.9707 3.56445L19.9707-73.7793C19.9707-82.2754 24.4141-86.6699 32.8125-86.6699L145.166-86.6699C153.32-86.6699 158.008-82.2754 158.008-73.7793L158.008 3.56445C158.008 12.0117 153.32 16.4062 145.166 16.4062ZM40.918-60.6934C43.9941-60.6934 46.5332-63.2324 46.5332-66.3086C46.5332-69.3359 43.9941-71.875 40.918-71.875C37.8418-71.875 35.3516-69.3359 35.3516-66.3086C35.3516-63.2324 37.8418-60.6934 40.918-60.6934ZM63.5742-64.4531L142.432-64.4531C143.506-64.4531 144.287-65.1855 144.287-66.3086C144.287-67.3828 143.506-68.1152 142.432-68.1152L63.5742-68.1152C62.5-68.1152 61.7188-67.3828 61.7188-66.3086C61.7188-65.1855 62.5-64.4531 63.5742-64.4531ZM40.918-40.0879C43.9941-40.0879 46.5332-42.627 46.5332-45.7031C46.5332-48.7793 43.9941-51.2695 40.918-51.2695C37.8418-51.2695 35.3516-48.7305 35.3516-45.7031C35.3516-42.627 37.8418-40.0879 40.918-40.0879ZM63.5742-43.8477L110.254-43.8477C111.328-43.8477 112.109-44.5801 112.109-45.7031C112.109-46.7773 111.328-47.5098 110.254-47.5098L63.5742-47.5098C62.5-47.5098 61.7188-46.7773 61.7188-45.7031C61.7188-44.5801 62.5-43.8477 63.5742-43.8477ZM40.918-19.5312C43.9941-19.5312 46.5332-22.0215 46.5332-25.0977C46.5332-28.1738 43.9941-30.6641 40.918-30.6641C37.8418-30.6641 35.3516-28.1738 35.3516-25.0977C35.3516-22.0215 37.8418-19.5312 40.918-19.5312ZM63.5742-23.2422L142.432-23.2422C143.506-23.2422 144.287-23.9746 144.287-25.0977C144.287-26.1719 143.506-26.9531 142.432-26.9531L63.5742-26.9531C62.5-26.9531 61.7188-26.1719 61.7188-25.0977C61.7188-23.9746 62.5-23.2422 63.5742-23.2422ZM40.918 1.17188C43.9941 1.17188 46.5332-1.31836 46.5332-4.39453C46.5332-7.4707 43.9941-9.96094 40.918-9.96094C37.8418-9.96094 35.3516-7.4707 35.3516-4.39453C35.3516-1.31836 37.8418 1.17188 40.918 1.17188ZM63.5742-2.53906L110.254-2.53906C111.328-2.53906 112.109-3.32031 112.109-4.39453C112.109-5.46875 111.377-6.25 110.254-6.25L63.5742-6.25C62.5-6.25 61.7188-5.46875 61.7188-4.39453C61.7188-3.32031 62.5-2.53906 63.5742-2.53906Z"/>
  </g>
  <g id="Ultralight-L" transform="matrix(1 0 0 1 471.015 1556)">
   <path d="M31.9824 19.7754L145.41 19.7754C155.811 19.7754 161.328 14.0625 161.328 3.85742L161.328-74.0723C161.328-84.2773 155.811-89.9902 145.41-89.9902L31.9824-89.9902C21.582-89.9902 16.0645-84.4727 16.0645-74.0723L16.0645 3.85742C16.0645 14.2578 21.582 19.7754 31.9824 19.7754ZM32.1289 17.2363C23.1934 17.2363 18.6035 12.6465 18.6035 3.75977L18.6035-73.9258C18.6035-82.8125 23.1934-87.4512 32.1289-87.4512L145.264-87.4512C153.857-87.4512 158.789-82.8125 158.789-73.9258L158.789 3.75977C158.789 12.6465 153.857 17.2363 145.264 17.2363ZM39.7949-61.1328C42.8711-61.1328 45.3125-63.623 45.3125-66.6504C45.3125-69.6777 42.8711-72.168 39.7949-72.168C36.7676-72.168 34.2773-69.6777 34.2773-66.6504C34.2773-63.623 36.7676-61.1328 39.7949-61.1328ZM63.2812-65.2344L143.604-65.2344C144.482-65.2344 145.02-65.8203 145.02-66.6504C145.02-67.4805 144.482-68.0176 143.604-68.0176L63.2812-68.0176C62.4512-68.0176 61.9141-67.4805 61.9141-66.6504C61.9141-65.8203 62.4512-65.2344 63.2812-65.2344ZM39.7949-40.2344C42.8711-40.2344 45.3125-42.7246 45.3125-45.752C45.3125-48.7793 42.8711-51.2695 39.7949-51.2695C36.7676-51.2695 34.2773-48.8281 34.2773-45.752C34.2773-42.7246 36.7676-40.2344 39.7949-40.2344ZM63.2812-44.3848L111.475-44.3848C112.305-44.3848 112.842-44.9219 112.842-45.752C112.842-46.6309 112.305-47.168 111.475-47.168L63.2812-47.168C62.4512-47.168 61.9141-46.6309 61.9141-45.752C61.9141-44.9219 62.4512-44.3848 63.2812-44.3848ZM39.7949-19.3359C42.8711-19.3359 45.3125-21.8262 45.3125-24.8535C45.3125-27.8809 42.8711-30.3711 39.7949-30.3711C36.7676-30.3711 34.2773-27.9297 34.2773-24.8535C34.2773-21.8262 36.7676-19.3359 39.7949-19.3359ZM63.2812-23.4863L143.604-23.4863C144.482-23.4863 145.02-24.0234 145.02-24.8535C145.02-25.7324 144.482-26.2695 143.604-26.2695L63.2812-26.2695C62.4512-26.2695 61.9141-25.7324 61.9141-24.8535C61.9141-24.0234 62.4512-23.4863 63.2812-23.4863ZM39.7949 1.46484C42.8711 1.46484 45.3125-1.02539 45.3125-4.05273C45.3125-7.08008 42.8711-9.57031 39.7949-9.57031C36.7676-9.57031 34.2773-7.12891 34.2773-4.05273C34.2773-1.02539 36.7676 1.46484 39.7949 1.46484ZM63.2812-2.68555L111.475-2.68555C112.305-2.68555 112.842-3.22266 112.842-4.05273C112.842-4.93164 112.305-5.46875 111.475-5.46875L63.2812-5.46875C62.4512-5.46875 61.9141-4.93164 61.9141-4.05273C61.9141-3.22266 62.4512-2.68555 63.2812-2.68555Z"/>
  </g>
  <g id="Black-M" transform="matrix(1 0 0 1 2861.84 1126)">
   <path d="M31.9824 13.5742L111.133 13.5742C123.389 13.5742 130.664 6.29883 130.664-5.95703L130.664-64.4043C130.664-76.6602 123.389-83.9355 111.133-83.9355L31.9824-83.9355C19.7266-83.9355 12.4512-76.6602 12.4512-64.4043L12.4512-5.95703C12.4512 6.29883 19.7266 13.5742 31.9824 13.5742ZM34.9121-4.73633C32.0801-4.73633 30.7617-5.81055 30.7617-8.88672L30.7617-61.4746C30.7617-64.5508 32.0801-65.6738 34.9121-65.6738L108.203-65.6738C111.035-65.6738 112.402-64.5508 112.402-61.4746L112.402-8.88672C112.402-5.81055 111.035-4.73633 108.203-4.73633ZM43.7012-49.1211C46.2891-49.1211 48.3398-51.123 48.3398-53.6621C48.3398-56.25 46.2891-58.3008 43.7012-58.3008C41.2109-58.3008 39.1113-56.1523 39.1113-53.6621C39.1113-51.1719 41.2109-49.1211 43.7012-49.1211ZM54.0527-49.8535L100.098-49.8535C102.197-49.8535 103.906-51.6113 103.906-53.6621C103.906-55.7129 102.148-57.4707 100.098-57.4707L54.0527-57.4707C52.002-57.4707 50.2441-55.7129 50.2441-53.6621C50.2441-51.6113 51.9043-49.8535 54.0527-49.8535ZM43.7012-36.9629C46.2891-36.9629 48.3398-39.1113 48.3398-41.6016C48.3398-44.1406 46.2891-46.1914 43.7012-46.1914C41.2109-46.1914 39.1113-44.1406 39.1113-41.6016C39.1113-39.1113 41.2109-36.9629 43.7012-36.9629ZM54.0527-37.793L81.4941-37.793C83.5449-37.793 85.3027-39.502 85.3027-41.6016C85.3027-43.6523 83.5938-45.459 81.4941-45.459L54.0527-45.459C51.9043-45.459 50.2441-43.6523 50.2441-41.6016C50.2441-39.502 52.002-37.793 54.0527-37.793ZM43.7012-25C46.2891-25 48.3398-27.002 48.3398-29.541C48.3398-32.0312 46.3379-34.082 43.7012-34.082C41.1621-34.082 39.1113-32.0312 39.1113-29.541C39.1113-27.002 41.1621-25 43.7012-25ZM54.0527-25.7324L100.098-25.7324C102.197-25.7324 103.906-27.4902 103.906-29.541C103.906-31.6895 102.197-33.3008 100.098-33.3008L54.0527-33.3008C51.9043-33.3008 50.2441-31.6895 50.2441-29.541C50.2441-27.4902 51.9043-25.7324 54.0527-25.7324ZM43.7012-12.2559C46.2891-12.2559 48.3398-14.3066 48.3398-16.8457C48.3398-19.3848 46.2891-21.3867 43.7012-21.3867C41.2109-21.3867 39.1113-19.3359 39.1113-16.8457C39.1113-14.3555 41.2109-12.2559 43.7012-12.2559ZM54.0527-13.0371L81.4941-13.0371C83.5449-13.0371 85.3027-14.7949 85.3027-16.8457C85.3027-18.8965 83.5938-20.6543 81.4941-20.6543L54.0527-20.6543C51.9043-20.6543 50.2441-18.8965 50.2441-16.8457C50.2441-14.7949 52.002-13.0371 54.0527-13.0371Z"/>
  </g>
  <g id="Heavy-M" transform="matrix(1 0 0 1 2565.5 1126)">
   <path d="M31.0059 12.6465L111.426 12.6465C123.193 12.6465 129.932 5.9082 129.932-5.81055L129.932-64.5508C129.932-76.2695 123.193-83.0566 111.426-83.0566L31.0059-83.0566C19.2383-83.0566 12.4512-76.3184 12.4512-64.5508L12.4512-5.81055C12.4512 5.9082 19.2383 12.6465 31.0059 12.6465ZM33.252-3.17383C29.9316-3.17383 28.2715-4.63867 28.2715-8.1543L28.2715-62.207C28.2715-65.7715 29.9316-67.2363 33.252-67.2363L109.131-67.2363C112.451-67.2363 114.111-65.7715 114.111-62.207L114.111-8.1543C114.111-4.63867 112.451-3.17383 109.131-3.17383ZM41.7969-50.1465C44.3359-50.1465 46.3867-52.1484 46.3867-54.6875C46.3867-57.2266 44.3359-59.2773 41.7969-59.2773C39.3066-59.2773 37.207-57.1777 37.207-54.6875C37.207-52.1973 39.3066-50.1465 41.7969-50.1465ZM53.1738-51.0742L101.514-51.0742C103.564-51.0742 105.176-52.7344 105.176-54.6875C105.176-56.6895 103.516-58.3496 101.514-58.3496L53.1738-58.3496C51.1719-58.3496 49.5117-56.6895 49.5117-54.6875C49.5117-52.7344 51.123-51.0742 53.1738-51.0742ZM41.7969-37.3535C44.3359-37.3535 46.3867-39.4531 46.3867-41.9434C46.3867-44.4824 44.3359-46.5332 41.7969-46.5332C39.3066-46.5332 37.207-44.4824 37.207-41.9434C37.207-39.4531 39.3066-37.3535 41.7969-37.3535ZM53.1738-38.2812L81.4453-38.2812C83.3984-38.2812 85.0586-39.9902 85.0586-41.9434C85.0586-43.8965 83.4473-45.6055 81.4453-45.6055L53.1738-45.6055C51.123-45.6055 49.5117-43.8965 49.5117-41.9434C49.5117-39.9902 51.1719-38.2812 53.1738-38.2812ZM41.7969-24.6582C44.3359-24.6582 46.3867-26.6602 46.3867-29.248C46.3867-31.7383 44.3848-33.7402 41.7969-33.7402C39.2578-33.7402 37.207-31.6895 37.207-29.248C37.207-26.6602 39.2578-24.6582 41.7969-24.6582ZM53.1738-25.5859L101.514-25.5859C103.564-25.5859 105.176-27.2461 105.176-29.248C105.176-31.25 103.564-32.8125 101.514-32.8125L53.1738-32.8125C51.123-32.8125 49.5117-31.25 49.5117-29.248C49.5117-27.2461 51.123-25.5859 53.1738-25.5859ZM41.7969-11.2305C44.3359-11.2305 46.3867-13.2812 46.3867-15.8203C46.3867-18.3594 44.3359-20.3613 41.7969-20.3613C39.3066-20.3613 37.207-18.3105 37.207-15.8203C37.207-13.3301 39.3066-11.2305 41.7969-11.2305ZM53.1738-12.207L81.4453-12.207C83.3984-12.207 85.0586-13.8672 85.0586-15.8203C85.0586-17.7734 83.4473-19.4336 81.4453-19.4336L53.1738-19.4336C51.123-19.4336 49.5117-17.7734 49.5117-15.8203C49.5117-13.8672 51.1719-12.207 53.1738-12.207Z"/>
  </g>
  <g id="Bold-M" transform="matrix(1 0 0 1 2269.18 1126)">
   <path d="M29.8828 11.6699L111.719 11.6699C122.949 11.6699 129.15 5.46875 129.15-5.66406L129.15-64.6973C129.15-75.8789 122.949-82.0312 111.719-82.0312L29.8828-82.0312C18.6523-82.0312 12.4512-75.8789 12.4512-64.6973L12.4512-5.66406C12.4512 5.51758 18.6523 11.6699 29.8828 11.6699ZM31.3965-1.41602C27.5391-1.41602 25.5371-3.27148 25.5371-7.32422L25.5371-63.0371C25.5371-67.1387 27.5391-68.9453 31.3965-68.9453L110.205-68.9453C114.014-68.9453 116.064-67.1387 116.064-63.0371L116.064-7.32422C116.064-3.27148 114.014-1.41602 110.205-1.41602ZM39.6484-51.3184C42.1875-51.3184 44.2383-53.3203 44.2383-55.8594C44.2383-58.3984 42.1875-60.4492 39.6484-60.4492C37.207-60.4492 35.1074-58.3496 35.1074-55.8594C35.1074-53.3691 37.207-51.3184 39.6484-51.3184ZM52.1973-52.4414L103.174-52.4414C105.078-52.4414 106.592-54.0039 106.592-55.8594C106.592-57.7148 105.029-59.2773 103.174-59.2773L52.1973-59.2773C50.3418-59.2773 48.7793-57.7148 48.7793-55.8594C48.7793-54.0039 50.2441-52.4414 52.1973-52.4414ZM39.6484-37.7441C42.1875-37.7441 44.2383-39.8438 44.2383-42.334C44.2383-44.873 42.1875-46.9238 39.6484-46.9238C37.207-46.9238 35.1074-44.8242 35.1074-42.334C35.1074-39.8438 37.207-37.7441 39.6484-37.7441ZM52.1973-38.916L81.3965-38.916C83.252-38.916 84.8145-40.4785 84.8145-42.334C84.8145-44.1895 83.3008-45.8008 81.3965-45.8008L52.1973-45.8008C50.293-45.8008 48.7793-44.1895 48.7793-42.334C48.7793-40.4785 50.3418-38.916 52.1973-38.916ZM39.6484-24.3164C42.1875-24.3164 44.2383-26.3184 44.2383-28.8574C44.2383-31.3477 42.2363-33.3984 39.6484-33.3984C37.1094-33.3984 35.1074-31.3477 35.1074-28.8574C35.1074-26.3184 37.1094-24.3164 39.6484-24.3164ZM52.1973-25.4395L103.174-25.4395C105.078-25.4395 106.592-26.9531 106.592-28.8574C106.592-30.7617 105.078-32.2266 103.174-32.2266L52.1973-32.2266C50.2441-32.2266 48.7793-30.7617 48.7793-28.8574C48.7793-26.9531 50.2441-25.4395 52.1973-25.4395ZM39.6484-10.1074C42.1875-10.1074 44.2383-12.1582 44.2383-14.6973C44.2383-17.2363 42.1875-19.2383 39.6484-19.2383C37.207-19.2383 35.1074-17.1387 35.1074-14.6973C35.1074-12.207 37.207-10.1074 39.6484-10.1074ZM52.1973-11.2305L81.3965-11.2305C83.252-11.2305 84.8145-12.793 84.8145-14.6973C84.8145-16.5527 83.3008-18.0664 81.3965-18.0664L52.1973-18.0664C50.2441-18.0664 48.7793-16.5527 48.7793-14.6973C48.7793-12.793 50.3418-11.2305 52.1973-11.2305Z"/>
  </g>
  <g id="Semibold-M" transform="matrix(1 0 0 1 1972.76 1126)">
   <path d="M29.1016 10.9863L111.914 10.9863C122.803 10.9863 128.564 5.17578 128.564-5.56641L128.564-64.8438C128.564-75.5859 122.803-81.3477 111.914-81.3477L29.1016-81.3477C18.2617-81.3477 12.4512-75.5859 12.4512-64.8438L12.4512-5.56641C12.4512 5.22461 18.2617 10.9863 29.1016 10.9863ZM30.127-0.195312C25.8789-0.195312 23.6328-2.34375 23.6328-6.78711L23.6328-63.623C23.6328-68.0664 25.8789-70.166 30.127-70.166L110.889-70.166C115.088-70.166 117.383-68.0664 117.383-63.623L117.383-6.78711C117.383-2.34375 115.088-0.195312 110.889-0.195312ZM38.1836-52.0996C40.7227-52.0996 42.7734-54.1016 42.7734-56.6406C42.7734-59.1797 40.7227-61.2305 38.1836-61.2305C35.6934-61.2305 33.6426-59.1309 33.6426-56.6406C33.6426-54.1504 35.6934-52.0996 38.1836-52.0996ZM51.5137-53.3691L104.297-53.3691C106.104-53.3691 107.568-54.834 107.568-56.6406C107.568-58.4473 106.055-59.9121 104.297-59.9121L51.5137-59.9121C49.707-59.9121 48.2422-58.4473 48.2422-56.6406C48.2422-54.834 49.6582-53.3691 51.5137-53.3691ZM38.1836-38.0371C40.7227-38.0371 42.7734-40.0879 42.7734-42.5781C42.7734-45.1172 40.7227-47.168 38.1836-47.168C35.6934-47.168 33.6426-45.0684 33.6426-42.5781C33.6426-40.1367 35.6934-38.0371 38.1836-38.0371ZM51.5137-39.3066L81.3477-39.3066C83.1543-39.3066 84.668-40.8203 84.668-42.5781C84.668-44.3848 83.1543-45.8984 81.3477-45.8984L51.5137-45.8984C49.707-45.8984 48.2422-44.3848 48.2422-42.5781C48.2422-40.8203 49.707-39.3066 51.5137-39.3066ZM38.1836-24.0723C40.7227-24.0723 42.7734-26.0742 42.7734-28.6133C42.7734-31.1035 40.7227-33.1055 38.1836-33.1055C35.6445-33.1055 33.6426-31.0547 33.6426-28.6133C33.6426-26.0742 35.6445-24.0723 38.1836-24.0723ZM51.5137-25.293L104.297-25.293C106.104-25.293 107.568-26.7578 107.568-28.6133C107.568-30.4199 106.104-31.8359 104.297-31.8359L51.5137-31.8359C49.6582-31.8359 48.2422-30.4199 48.2422-28.6133C48.2422-26.7578 49.6582-25.293 51.5137-25.293ZM38.1836-9.32617C40.7227-9.32617 42.7734-11.377 42.7734-13.916C42.7734-16.4062 40.7227-18.457 38.1836-18.457C35.6934-18.457 33.6426-16.3574 33.6426-13.916C33.6426-11.4258 35.6934-9.32617 38.1836-9.32617ZM51.5137-10.5957L81.3477-10.5957C83.1543-10.5957 84.668-12.1094 84.668-13.916C84.668-15.6738 83.2031-17.1387 81.3477-17.1387L51.5137-17.1387C49.6582-17.1387 48.2422-15.6738 48.2422-13.916C48.2422-12.1094 49.707-10.5957 51.5137-10.5957Z"/>
  </g>
  <g id="Medium-M" transform="matrix(1 0 0 1 1676.24 1126)">
   <path d="M28.5156 10.4492L112.061 10.4492C122.656 10.4492 128.174 4.98047 128.174-5.46875L128.174-64.8926C128.174-75.3418 122.656-80.8105 112.061-80.8105L28.5156-80.8105C17.9688-80.8105 12.4512-75.3906 12.4512-64.8926L12.4512-5.46875C12.4512 4.98047 17.9688 10.4492 28.5156 10.4492ZM29.1504 0.732422C24.6582 0.732422 22.168-1.61133 22.168-6.34766L22.168-64.0137C22.168-68.75 24.6582-71.0938 29.1504-71.0938L111.426-71.0938C115.918-71.0938 118.408-68.75 118.408-64.0137L118.408-6.34766C118.408-1.61133 115.918 0.732422 111.426 0.732422ZM37.0605-52.6855C39.5996-52.6855 41.6504-54.7363 41.6504-57.2266C41.6504-59.7656 39.5996-61.8164 37.0605-61.8164C34.6191-61.8164 32.5195-59.7168 32.5195-57.2266C32.5195-54.7852 34.6191-52.6855 37.0605-52.6855ZM50.9766-54.1016L105.127-54.1016C106.934-54.1016 108.301-55.5176 108.301-57.2266C108.301-58.9844 106.885-60.4492 105.127-60.4492L50.9766-60.4492C49.2676-60.4492 47.8027-58.9844 47.8027-57.2266C47.8027-55.5176 49.2188-54.1016 50.9766-54.1016ZM37.0605-38.2324C39.5996-38.2324 41.6504-40.2832 41.6504-42.8223C41.6504-45.3125 39.5996-47.3633 37.0605-47.3633C34.6191-47.3633 32.5195-45.2637 32.5195-42.8223C32.5195-40.332 34.6191-38.2324 37.0605-38.2324ZM50.9766-39.5996L81.3477-39.5996C83.0566-39.5996 84.5215-41.0645 84.5215-42.8223C84.5215-44.5312 83.1055-45.9961 81.3477-45.9961L50.9766-45.9961C49.2188-45.9961 47.8027-44.5312 47.8027-42.8223C47.8027-41.0645 49.2676-39.5996 50.9766-39.5996ZM37.0605-23.877C39.5996-23.877 41.6504-25.8789 41.6504-28.418C41.6504-30.9082 39.5996-32.9102 37.0605-32.9102C34.5703-32.9102 32.5195-30.8594 32.5195-28.418C32.5195-25.8789 34.5703-23.877 37.0605-23.877ZM50.9766-25.2441L105.127-25.2441C106.934-25.2441 108.301-26.6113 108.301-28.418C108.301-30.1758 106.934-31.543 105.127-31.543L50.9766-31.543C49.2188-31.543 47.8027-30.1758 47.8027-28.418C47.8027-26.6113 49.2188-25.2441 50.9766-25.2441ZM37.0605-8.74023C39.5996-8.74023 41.6504-10.791 41.6504-13.2812C41.6504-15.8203 39.5996-17.8223 37.0605-17.8223C34.6191-17.8223 32.5195-15.7715 32.5195-13.2812C32.5195-10.8398 34.6191-8.74023 37.0605-8.74023ZM50.9766-10.1074L81.3477-10.1074C83.0566-10.1074 84.5215-11.5723 84.5215-13.2812C84.5215-15.0391 83.1055-16.4551 81.3477-16.4551L50.9766-16.4551C49.2188-16.4551 47.8027-15.0391 47.8027-13.2812C47.8027-11.5723 49.2676-10.1074 50.9766-10.1074Z"/>
  </g>
  <g id="Regular-M" transform="matrix(1 0 0 1 1379.82 1126)">
   <path d="M27.7832 9.76562L112.256 9.76562C122.51 9.76562 127.588 4.6875 127.588-5.37109L127.588-64.9902C127.588-75.0488 122.51-80.127 112.256-80.127L27.7832-80.127C17.5781-80.127 12.4512-75.0977 12.4512-64.9902L12.4512-5.37109C12.4512 4.73633 17.5781 9.76562 27.7832 9.76562ZM27.8809 1.9043C22.998 1.9043 20.3125-0.683594 20.3125-5.76172L20.3125-64.5996C20.3125-69.6777 22.998-72.2656 27.8809-72.2656L112.158-72.2656C116.992-72.2656 119.727-69.6777 119.727-64.5996L119.727-5.76172C119.727-0.683594 116.992 1.9043 112.158 1.9043ZM35.5957-53.4668C38.1348-53.4668 40.1367-55.5176 40.1367-58.0078C40.1367-60.5469 38.1348-62.5488 35.5957-62.5488C33.1543-62.5488 31.0547-60.498 31.0547-58.0078C31.0547-55.5664 33.1543-53.4668 35.5957-53.4668ZM50.3418-55.0293L106.201-55.0293C107.959-55.0293 109.277-56.3477 109.277-58.0078C109.277-59.7168 107.91-61.084 106.201-61.084L50.3418-61.084C48.6328-61.084 47.2656-59.7168 47.2656-58.0078C47.2656-56.3477 48.584-55.0293 50.3418-55.0293ZM35.5957-38.5254C38.1348-38.5254 40.1367-40.5762 40.1367-43.0664C40.1367-45.6055 38.1348-47.6074 35.5957-47.6074C33.1543-47.6074 31.0547-45.5566 31.0547-43.0664C31.0547-40.625 33.1543-38.5254 35.5957-38.5254ZM50.3418-40.0391L81.2988-40.0391C82.959-40.0391 84.3262-41.4062 84.3262-43.0664C84.3262-44.7266 82.959-46.1426 81.2988-46.1426L50.3418-46.1426C48.6328-46.1426 47.2656-44.7266 47.2656-43.0664C47.2656-41.4062 48.6328-40.0391 50.3418-40.0391ZM35.5957-23.6328C38.1348-23.6328 40.1367-25.6348 40.1367-28.1738C40.1367-30.6641 38.1348-32.666 35.5957-32.666C33.1055-32.666 31.0547-30.6152 31.0547-28.1738C31.0547-25.6348 33.1055-23.6328 35.5957-23.6328ZM50.3418-25.0977L106.201-25.0977C107.959-25.0977 109.277-26.416 109.277-28.1738C109.277-29.834 107.959-31.1523 106.201-31.1523L50.3418-31.1523C48.584-31.1523 47.2656-29.834 47.2656-28.1738C47.2656-26.416 48.584-25.0977 50.3418-25.0977ZM35.5957-7.95898C38.1348-7.95898 40.1367-10.0098 40.1367-12.5C40.1367-15.0391 38.1348-17.0898 35.5957-17.0898C33.1543-17.0898 31.0547-14.9902 31.0547-12.5C31.0547-10.0586 33.1543-7.95898 35.5957-7.95898ZM50.3418-9.47266L81.2988-9.47266C82.959-9.47266 84.3262-10.8398 84.3262-12.5C84.3262-14.209 83.0078-15.5273 81.2988-15.5273L50.3418-15.5273C48.584-15.5273 47.2656-14.209 47.2656-12.5C47.2656-10.8398 48.6328-9.47266 50.3418-9.47266Z"/>
  </g>
  <g id="Light-M" transform="matrix(1 0 0 1 1083.5 1126)">
   <path d="M26.8555 9.0332L112.402 9.0332C121.973 9.0332 126.807 4.15039 126.807-5.22461L126.807-65.0879C126.807-74.5117 121.973-79.3945 112.402-79.3945L26.8555-79.3945C17.334-79.3945 12.4512-74.5605 12.4512-65.0879L12.4512-5.22461C12.4512 4.19922 17.334 9.0332 26.8555 9.0332ZM26.9531 2.97852C21.4844 2.97852 18.5059 0.0976562 18.5059-5.56641L18.5059-64.7949C18.5059-70.4102 21.4844-73.3398 26.9531-73.3398L112.305-73.3398C117.676-73.3398 120.752-70.4102 120.752-64.7949L120.752-5.56641C120.752 0.0976562 117.676 2.97852 112.305 2.97852ZM34.1309-54.0527C36.6211-54.0527 38.623-56.0547 38.623-58.4961C38.623-60.9863 36.6211-62.9883 34.1309-62.9883C31.6895-62.9883 29.6875-60.9375 29.6875-58.4961C29.6875-56.0547 31.6895-54.0527 34.1309-54.0527ZM49.9512-56.1035L107.812-56.1035C109.18-56.1035 110.254-57.1289 110.254-58.4961C110.254-59.8633 109.18-60.9375 107.812-60.9375L49.9512-60.9375C48.584-60.9375 47.5098-59.8633 47.5098-58.4961C47.5098-57.1289 48.5352-56.1035 49.9512-56.1035ZM34.1309-38.7207C36.6211-38.7207 38.623-40.7227 38.623-43.1641C38.623-45.6543 36.6211-47.6074 34.1309-47.6074C31.6895-47.6074 29.6875-45.6055 29.6875-43.1641C29.6875-40.7227 31.6895-38.7207 34.1309-38.7207ZM49.9512-40.7227L82.8613-40.7227C84.2285-40.7227 85.3027-41.7969 85.3027-43.1641C85.3027-44.5312 84.2285-45.6055 82.8613-45.6055L49.9512-45.6055C48.584-45.6055 47.5098-44.5312 47.5098-43.1641C47.5098-41.7969 48.584-40.7227 49.9512-40.7227ZM34.1309-23.3887C36.6211-23.3887 38.623-25.3906 38.623-27.8809C38.623-30.3223 36.6211-32.2754 34.1309-32.2754C31.6895-32.2754 29.6875-30.2734 29.6875-27.8809C29.6875-25.3906 31.6895-23.3887 34.1309-23.3887ZM49.9512-25.4395L107.812-25.4395C109.18-25.4395 110.254-26.4648 110.254-27.8809C110.254-29.1992 109.18-30.2734 107.812-30.2734L49.9512-30.2734C48.5352-30.2734 47.5098-29.1992 47.5098-27.8809C47.5098-26.4648 48.5352-25.4395 49.9512-25.4395ZM34.1309-7.61719C36.6211-7.61719 38.623-9.61914 38.623-12.0605C38.623-14.5508 36.6211-16.5527 34.1309-16.5527C31.6895-16.5527 29.6875-14.502 29.6875-12.0605C29.6875-9.61914 31.6895-7.61719 34.1309-7.61719ZM49.9512-9.61914L82.8613-9.61914C84.2285-9.61914 85.3027-10.6934 85.3027-12.0605C85.3027-13.4277 84.2773-14.502 82.8613-14.502L49.9512-14.502C48.5352-14.502 47.5098-13.4277 47.5098-12.0605C47.5098-10.6934 48.584-9.61914 49.9512-9.61914Z"/>
  </g>
  <g id="Thin-M" transform="matrix(1 0 0 1 787.33 1126)">
   <path d="M25.6348 8.05664L112.598 8.05664C121.24 8.05664 125.732 3.4668 125.732-5.0293L125.732-65.2344C125.732-73.7305 121.24-78.3691 112.598-78.3691L25.6348-78.3691C16.9922-78.3691 12.4512-73.877 12.4512-65.2344L12.4512-5.0293C12.4512 3.56445 16.9922 8.05664 25.6348 8.05664ZM25.7324 4.44336C19.3848 4.44336 16.0645 1.12305 16.0645-5.22461L16.0645-65.0391C16.0645-71.4355 19.3848-74.7559 25.7324-74.7559L112.451-74.7559C118.604-74.7559 122.119-71.4355 122.119-65.0391L122.119-5.22461C122.119 1.12305 118.604 4.44336 112.451 4.44336ZM32.1777-54.7852C34.5703-54.7852 36.5234-56.7383 36.5234-59.1309C36.5234-61.5234 34.5703-63.4766 32.1777-63.4766C29.7852-63.4766 27.832-61.5234 27.832-59.1309C27.832-56.7383 29.7852-54.7852 32.1777-54.7852ZM49.4141-57.5195L109.863-57.5195C110.84-57.5195 111.523-58.2031 111.523-59.1309C111.523-60.1074 110.84-60.791 109.863-60.791L49.4141-60.791C48.4863-60.791 47.8027-60.1074 47.8027-59.1309C47.8027-58.2031 48.4375-57.5195 49.4141-57.5195ZM32.1777-38.9648C34.5703-38.9648 36.5234-40.918 36.5234-43.3105C36.5234-45.7031 34.5703-47.6562 32.1777-47.6562C29.7852-47.6562 27.832-45.7031 27.832-43.3105C27.832-40.918 29.7852-38.9648 32.1777-38.9648ZM49.4141-41.6504L84.9609-41.6504C85.8887-41.6504 86.5723-42.334 86.5723-43.3105C86.5723-44.2383 85.8887-44.9219 84.9609-44.9219L49.4141-44.9219C48.4863-44.9219 47.8027-44.2383 47.8027-43.3105C47.8027-42.334 48.4863-41.6504 49.4141-41.6504ZM32.1777-23.0957C34.5703-23.0957 36.5234-25.0488 36.5234-27.4902C36.5234-29.8828 34.5703-31.7871 32.1777-31.7871C29.7852-31.7871 27.832-29.834 27.832-27.4902C27.832-25.0488 29.7852-23.0957 32.1777-23.0957ZM49.4141-25.8301L109.863-25.8301C110.84-25.8301 111.523-26.5137 111.523-27.4902C111.523-28.418 110.84-29.1016 109.863-29.1016L49.4141-29.1016C48.4375-29.1016 47.8027-28.418 47.8027-27.4902C47.8027-26.5137 48.4375-25.8301 49.4141-25.8301ZM32.1777-7.12891C34.5703-7.12891 36.5234-9.08203 36.5234-11.4746C36.5234-13.8672 34.5703-15.8203 32.1777-15.8203C29.7852-15.8203 27.832-13.8672 27.832-11.4746C27.832-9.08203 29.7852-7.12891 32.1777-7.12891ZM49.4141-9.86328L84.9609-9.86328C85.8887-9.86328 86.5723-10.5469 86.5723-11.4746C86.5723-12.4023 85.8887-13.0859 84.9609-13.0859L49.4141-13.0859C48.4375-13.0859 47.8027-12.4023 47.8027-11.4746C47.8027-10.5469 48.4863-9.86328 49.4141-9.86328Z"/>
  </g>
  <g id="Ultralight-M" transform="matrix(1 0 0 1 490.888 1126)">
   <path d="M25 7.56836L112.695 7.56836C120.85 7.56836 125.195 3.125 125.195-4.98047L125.195-65.2832C125.195-73.3887 120.85-77.832 112.695-77.832L25-77.832C16.7969-77.832 12.4512-73.4863 12.4512-65.2832L12.4512-4.98047C12.4512 3.22266 16.7969 7.56836 25 7.56836ZM25.0977 5.17578C18.3594 5.17578 14.8438 1.66016 14.8438-5.07812L14.8438-65.1855C14.8438-71.9727 18.3594-75.4395 25.0977-75.4395L112.549-75.4395C119.043-75.4395 122.803-71.9727 122.803-65.1855L122.803-5.07812C122.803 1.66016 119.043 5.17578 112.549 5.17578ZM31.2012-55.1758C33.5449-55.1758 35.498-57.0801 35.498-59.4727C35.498-61.8164 33.5449-63.7695 31.2012-63.7695C28.8086-63.7695 26.9043-61.8164 26.9043-59.4727C26.9043-57.0801 28.8086-55.1758 31.2012-55.1758ZM49.1211-58.252L110.938-58.252C111.67-58.252 112.158-58.7402 112.158-59.4727C112.158-60.2051 111.67-60.6934 110.938-60.6934L49.1211-60.6934C48.3887-60.6934 47.9492-60.2051 47.9492-59.4727C47.9492-58.7402 48.3887-58.252 49.1211-58.252ZM31.2012-39.0625C33.5449-39.0625 35.498-41.0156 35.498-43.3594C35.498-45.752 33.5449-47.6562 31.2012-47.6562C28.8086-47.6562 26.9043-45.752 26.9043-43.3594C26.9043-41.0156 28.8086-39.0625 31.2012-39.0625ZM49.1211-42.1387L86.0352-42.1387C86.7676-42.1387 87.207-42.627 87.207-43.3594C87.207-44.0918 86.7676-44.5801 86.0352-44.5801L49.1211-44.5801C48.3887-44.5801 47.9492-44.0918 47.9492-43.3594C47.9492-42.627 48.3887-42.1387 49.1211-42.1387ZM31.2012-22.9492C33.5449-22.9492 35.498-24.9023 35.498-27.2461C35.498-29.6387 33.5449-31.543 31.2012-31.543C28.8086-31.543 26.9043-29.6387 26.9043-27.2461C26.9043-24.9023 28.8086-22.9492 31.2012-22.9492ZM49.1211-26.0742L110.938-26.0742C111.67-26.0742 112.158-26.5137 112.158-27.2461C112.158-27.9785 111.67-28.4668 110.938-28.4668L49.1211-28.4668C48.3887-28.4668 47.9492-27.9785 47.9492-27.2461C47.9492-26.5137 48.3887-26.0742 49.1211-26.0742ZM31.2012-6.88477C33.5449-6.88477 35.498-8.78906 35.498-11.1816C35.498-13.5254 33.5449-15.4785 31.2012-15.4785C28.8086-15.4785 26.9043-13.5254 26.9043-11.1816C26.9043-8.78906 28.8086-6.88477 31.2012-6.88477ZM49.1211-9.96094L86.0352-9.96094C86.7676-9.96094 87.207-10.4492 87.207-11.1816C87.207-11.9141 86.7676-12.4023 86.0352-12.4023L49.1211-12.4023C48.3887-12.4023 47.9492-11.9141 47.9492-11.1816C47.9492-10.4492 48.3887-9.96094 49.1211-9.96094Z"/>
  </g>
  <g id="Black-S" transform="matrix(1 0 0 1 2877.35 696)">
   <path d="M25 2.92969L87.1094 2.92969C96.6797 2.92969 102.344-2.73438 102.344-12.3047L102.344-58.1055C102.344-67.6758 96.6797-73.3398 87.1094-73.3398L25-73.3398C15.4297-73.3398 9.76562-67.6758 9.76562-58.1055L9.76562-12.3047C9.76562-2.73438 15.4297 2.92969 25 2.92969ZM27.2461-11.2305C25-11.2305 23.9258-12.1094 23.9258-14.5508L23.9258-55.8594C23.9258-58.3008 25-59.1797 27.2461-59.1797L84.8633-59.1797C87.1094-59.1797 88.1836-58.3008 88.1836-55.8594L88.1836-14.5508C88.1836-12.1094 87.1094-11.2305 84.8633-11.2305ZM34.1309-46.1914C36.1328-46.1914 37.7441-47.7539 37.7441-49.7559C37.7441-51.7578 36.1328-53.3691 34.1309-53.3691C32.1777-53.3691 30.5176-51.709 30.5176-49.7559C30.5176-47.8027 32.1777-46.1914 34.1309-46.1914ZM42.2852-46.7773L78.5156-46.7773C80.1758-46.7773 81.4941-48.1445 81.4941-49.7559C81.4941-51.3672 80.127-52.7344 78.5156-52.7344L42.2852-52.7344C40.6738-52.7344 39.3066-51.3672 39.3066-49.7559C39.3066-48.1445 40.625-46.7773 42.2852-46.7773ZM34.1309-36.6211C36.1328-36.6211 37.7441-38.2812 37.7441-40.2344C37.7441-42.2363 36.1328-43.8477 34.1309-43.8477C32.1777-43.8477 30.5176-42.2363 30.5176-40.2344C30.5176-38.2812 32.1777-36.6211 34.1309-36.6211ZM42.2852-37.2559L63.8184-37.2559C65.4297-37.2559 66.7969-38.623 66.7969-40.2344C66.7969-41.8457 65.4785-43.2617 63.8184-43.2617L42.2852-43.2617C40.625-43.2617 39.3066-41.8457 39.3066-40.2344C39.3066-38.623 40.6738-37.2559 42.2852-37.2559ZM34.1309-27.1973C36.1328-27.1973 37.7441-28.7598 37.7441-30.7617C37.7441-32.7148 36.1816-34.3262 34.1309-34.3262C32.1289-34.3262 30.5176-32.7148 30.5176-30.7617C30.5176-28.7598 32.1289-27.1973 34.1309-27.1973ZM42.2852-27.7832L78.5156-27.7832C80.1758-27.7832 81.4941-29.1504 81.4941-30.7617C81.4941-32.4219 80.1758-33.6914 78.5156-33.6914L42.2852-33.6914C40.625-33.6914 39.3066-32.4219 39.3066-30.7617C39.3066-29.1504 40.625-27.7832 42.2852-27.7832ZM34.1309-17.1387C36.1328-17.1387 37.7441-18.75 37.7441-20.752C37.7441-22.7539 36.1328-24.3164 34.1309-24.3164C32.1777-24.3164 30.5176-22.7051 30.5176-20.752C30.5176-18.7988 32.1777-17.1387 34.1309-17.1387ZM42.2852-17.7734L63.8184-17.7734C65.4297-17.7734 66.7969-19.1406 66.7969-20.752C66.7969-22.3633 65.4785-23.7305 63.8184-23.7305L42.2852-23.7305C40.625-23.7305 39.3066-22.3633 39.3066-20.752C39.3066-19.1406 40.6738-17.7734 42.2852-17.7734Z"/>
  </g>
  <g id="Heavy-S" transform="matrix(1 0 0 1 2580.88 696)">
   <path d="M24.3652 2.34375L87.3047 2.34375C96.582 2.34375 101.855-2.97852 101.855-12.207L101.855-58.2031C101.855-67.4316 96.582-72.7539 87.3047-72.7539L24.3652-72.7539C15.0879-72.7539 9.76562-67.4316 9.76562-58.2031L9.76562-12.207C9.76562-2.97852 15.0879 2.34375 24.3652 2.34375ZM26.0742-10.1562C23.5352-10.1562 22.2656-11.2793 22.2656-14.0137L22.2656-56.3965C22.2656-59.1309 23.5352-60.2539 26.0742-60.2539L85.5469-60.2539C88.0859-60.2539 89.4043-59.1309 89.4043-56.3965L89.4043-14.0137C89.4043-11.2793 88.0859-10.1562 85.5469-10.1562ZM32.8125-46.9238C34.8145-46.9238 36.4258-48.4863 36.4258-50.4883C36.4258-52.4902 34.8145-54.1016 32.8125-54.1016C30.8594-54.1016 29.1992-52.4414 29.1992-50.4883C29.1992-48.5352 30.8594-46.9238 32.8125-46.9238ZM41.6504-47.6074L79.4434-47.6074C81.0547-47.6074 82.373-48.9258 82.373-50.4883C82.373-52.0508 81.0059-53.418 79.4434-53.418L41.6504-53.418C40.0879-53.418 38.7695-52.0508 38.7695-50.4883C38.7695-48.9258 40.0391-47.6074 41.6504-47.6074ZM32.8125-36.8652C34.8145-36.8652 36.4258-38.5254 36.4258-40.4785C36.4258-42.4805 34.8145-44.0918 32.8125-44.0918C30.8594-44.0918 29.1992-42.4805 29.1992-40.4785C29.1992-38.5254 30.8594-36.8652 32.8125-36.8652ZM41.6504-37.5977L63.623-37.5977C65.1855-37.5977 66.5039-38.916 66.5039-40.4785C66.5039-42.0898 65.2344-43.457 63.623-43.457L41.6504-43.457C40.0391-43.457 38.7695-42.0898 38.7695-40.4785C38.7695-38.916 40.0879-37.5977 41.6504-37.5977ZM32.8125-26.9531C34.8145-26.9531 36.4258-28.5645 36.4258-30.5664C36.4258-32.5195 34.8633-34.082 32.8125-34.082C30.8105-34.082 29.1992-32.5195 29.1992-30.5664C29.1992-28.5645 30.8105-26.9531 32.8125-26.9531ZM41.6504-27.6367L79.4434-27.6367C81.0547-27.6367 82.373-28.9551 82.373-30.5664C82.373-32.1777 81.0547-33.3984 79.4434-33.3984L41.6504-33.3984C40.0391-33.3984 38.7695-32.1777 38.7695-30.5664C38.7695-28.9551 40.0391-27.6367 41.6504-27.6367ZM32.8125-16.4062C34.8145-16.4062 36.4258-18.0176 36.4258-20.0195C36.4258-22.0215 34.8145-23.584 32.8125-23.584C30.8594-23.584 29.1992-21.9727 29.1992-20.0195C29.1992-18.0664 30.8594-16.4062 32.8125-16.4062ZM41.6504-17.0898L63.623-17.0898C65.1855-17.0898 66.5039-18.457 66.5039-20.0195C66.5039-21.582 65.2344-22.9004 63.623-22.9004L41.6504-22.9004C40.0391-22.9004 38.7695-21.582 38.7695-20.0195C38.7695-18.457 40.0879-17.0898 41.6504-17.0898Z"/>
  </g>
  <g id="Bold-S" transform="matrix(1 0 0 1 2284.41 696)">
   <path d="M23.6328 1.66016L87.5 1.66016C96.4844 1.66016 101.367-3.22266 101.367-12.1094L101.367-58.3008C101.367-67.1875 96.4844-72.0703 87.5-72.0703L23.6328-72.0703C14.6973-72.0703 9.76562-67.1875 9.76562-58.3008L9.76562-12.1094C9.76562-3.22266 14.6973 1.66016 23.6328 1.66016ZM24.8047-8.93555C21.9238-8.93555 20.3613-10.3516 20.3613-13.4277L20.3613-56.9824C20.3613-60.0586 21.9238-61.4746 24.8047-61.4746L86.3281-61.4746C89.209-61.4746 90.7715-60.0586 90.7715-56.9824L90.7715-13.4277C90.7715-10.3516 89.209-8.93555 86.3281-8.93555ZM31.3965-47.7051C33.3984-47.7051 35.0098-49.3164 35.0098-51.3184C35.0098-53.3203 33.3984-54.9316 31.3965-54.9316C29.4434-54.9316 27.7832-53.2715 27.7832-51.3184C27.7832-49.3652 29.4434-47.7051 31.3965-47.7051ZM40.9668-48.4863L80.5176-48.4863C82.0801-48.4863 83.3496-49.7559 83.3496-51.3184C83.3496-52.832 82.0312-54.1504 80.5176-54.1504L40.9668-54.1504C39.4043-54.1504 38.1348-52.832 38.1348-51.3184C38.1348-49.7559 39.3555-48.4863 40.9668-48.4863ZM31.3965-37.1582C33.3984-37.1582 35.0098-38.8184 35.0098-40.7715C35.0098-42.7734 33.3984-44.3848 31.3965-44.3848C29.4434-44.3848 27.7832-42.7734 27.7832-40.7715C27.7832-38.8184 29.4434-37.1582 31.3965-37.1582ZM40.9668-37.9395L63.3789-37.9395C64.9414-37.9395 66.2109-39.2578 66.2109-40.7715C66.2109-42.334 64.9414-43.6523 63.3789-43.6523L40.9668-43.6523C39.4043-43.6523 38.1348-42.334 38.1348-40.7715C38.1348-39.2578 39.4043-37.9395 40.9668-37.9395ZM31.3965-26.709C33.3984-26.709 35.0098-28.3203 35.0098-30.3223C35.0098-32.2754 33.3984-33.8379 31.3965-33.8379C29.3945-33.8379 27.7832-32.2266 27.7832-30.3223C27.7832-28.3203 29.3945-26.709 31.3965-26.709ZM40.9668-27.4902L80.5176-27.4902C82.0801-27.4902 83.3496-28.7598 83.3496-30.3223C83.3496-31.8848 82.0801-33.1055 80.5176-33.1055L40.9668-33.1055C39.3555-33.1055 38.1348-31.8848 38.1348-30.3223C38.1348-28.7598 39.3555-27.4902 40.9668-27.4902ZM31.3965-15.5762C33.3984-15.5762 35.0098-17.1875 35.0098-19.1895C35.0098-21.1914 33.3984-22.8027 31.3965-22.8027C29.4434-22.8027 27.7832-21.1426 27.7832-19.1895C27.7832-17.2363 29.4434-15.5762 31.3965-15.5762ZM40.9668-16.3574L63.3789-16.3574C64.9414-16.3574 66.2109-17.6758 66.2109-19.1895C66.2109-20.752 64.9414-22.0215 63.3789-22.0215L40.9668-22.0215C39.3555-22.0215 38.1348-20.752 38.1348-19.1895C38.1348-17.6758 39.4043-16.3574 40.9668-16.3574Z"/>
  </g>
  <g id="Semibold-S" transform="matrix(1 0 0 1 1987.9 696)">
   <path d="M23.0957 1.17188L87.6465 1.17188C96.3867 1.17188 100.977-3.36914 100.977-12.0117L100.977-58.3984C100.977-67.041 96.3867-71.582 87.6465-71.582L23.0957-71.582C14.4043-71.582 9.76562-67.041 9.76562-58.3984L9.76562-12.0117C9.76562-3.36914 14.4043 1.17188 23.0957 1.17188ZM23.877-8.10547C20.752-8.10547 19.0918-9.7168 19.0918-12.9883L19.0918-57.4219C19.0918-60.6934 20.752-62.3047 23.877-62.3047L86.8652-62.3047C89.9902-62.3047 91.6992-60.6934 91.6992-57.4219L91.6992-12.9883C91.6992-9.7168 89.9902-8.10547 86.8652-8.10547ZM30.3711-48.291C32.373-48.291 33.9844-49.8535 33.9844-51.8555C33.9844-53.8574 32.373-55.4688 30.3711-55.4688C28.418-55.4688 26.7578-53.8086 26.7578-51.8555C26.7578-49.9023 28.418-48.291 30.3711-48.291ZM40.4785-49.1211L81.2012-49.1211C82.7637-49.1211 83.9844-50.3418 83.9844-51.8555C83.9844-53.3691 82.7148-54.6387 81.2012-54.6387L40.4785-54.6387C38.9648-54.6387 37.6953-53.3691 37.6953-51.8555C37.6953-50.3418 38.916-49.1211 40.4785-49.1211ZM30.3711-37.3535C32.373-37.3535 33.9844-39.0137 33.9844-40.9668C33.9844-42.9688 32.373-44.5801 30.3711-44.5801C28.418-44.5801 26.7578-42.9199 26.7578-40.9668C26.7578-39.0137 28.418-37.3535 30.3711-37.3535ZM40.4785-38.1836L63.2324-38.1836C64.7461-38.1836 66.0156-39.4531 66.0156-40.9668C66.0156-42.4805 64.7461-43.75 63.2324-43.75L40.4785-43.75C38.9648-43.75 37.6953-42.4805 37.6953-40.9668C37.6953-39.4531 38.9648-38.1836 40.4785-38.1836ZM30.3711-26.5625C32.373-26.5625 33.9844-28.125 33.9844-30.127C33.9844-32.1289 32.373-33.6914 30.3711-33.6914C28.3691-33.6914 26.7578-32.0801 26.7578-30.127C26.7578-28.125 28.3691-26.5625 30.3711-26.5625ZM40.4785-27.3438L81.2012-27.3438C82.7637-27.3438 83.9844-28.5645 83.9844-30.127C83.9844-31.6406 82.7637-32.8613 81.2012-32.8613L40.4785-32.8613C38.916-32.8613 37.6953-31.6406 37.6953-30.127C37.6953-28.5645 38.916-27.3438 40.4785-27.3438ZM30.3711-15.0391C32.373-15.0391 33.9844-16.6504 33.9844-18.6523C33.9844-20.6543 32.373-22.2168 30.3711-22.2168C28.418-22.2168 26.7578-20.6055 26.7578-18.6523C26.7578-16.6992 28.418-15.0391 30.3711-15.0391ZM40.4785-15.8691L63.2324-15.8691C64.7461-15.8691 66.0156-17.1387 66.0156-18.6523C66.0156-20.166 64.7949-21.3867 63.2324-21.3867L40.4785-21.3867C38.916-21.3867 37.6953-20.166 37.6953-18.6523C37.6953-17.1387 38.9648-15.8691 40.4785-15.8691Z"/>
  </g>
  <g id="Medium-S" transform="matrix(1 0 0 1 1691.31 696)">
   <path d="M22.7051 0.830078L87.7441 0.830078C96.3379 0.830078 100.732-3.51562 100.732-11.9629L100.732-58.4473C100.732-66.8945 96.3379-71.2402 87.7441-71.2402L22.7051-71.2402C14.209-71.2402 9.76562-66.8945 9.76562-58.4473L9.76562-11.9629C9.76562-3.51562 14.209 0.830078 22.7051 0.830078ZM23.1934-7.4707C19.9219-7.4707 18.0664-9.22852 18.0664-12.6953L18.0664-57.7148C18.0664-61.1816 19.9219-62.9395 23.1934-62.9395L87.3047-62.9395C90.5762-62.9395 92.3828-61.1816 92.3828-57.7148L92.3828-12.6953C92.3828-9.22852 90.5762-7.4707 87.3047-7.4707ZM29.6387-48.6816C31.5918-48.6816 33.2031-50.293 33.2031-52.2949C33.2031-54.2969 31.5918-55.9082 29.6387-55.9082C27.6855-55.9082 26.0254-54.248 26.0254-52.2949C26.0254-50.3418 27.6855-48.6816 29.6387-48.6816ZM40.1367-49.6094L81.7383-49.6094C83.3008-49.6094 84.5215-50.8301 84.5215-52.2949C84.5215-53.8086 83.252-55.0293 81.7383-55.0293L40.1367-55.0293C38.623-55.0293 37.3535-53.8086 37.3535-52.2949C37.3535-50.8301 38.5742-49.6094 40.1367-49.6094ZM29.6387-37.5488C31.5918-37.5488 33.2031-39.1602 33.2031-41.1133C33.2031-43.1152 31.5918-44.7266 29.6387-44.7266C27.6855-44.7266 26.0254-43.0664 26.0254-41.1133C26.0254-39.1602 27.6855-37.5488 29.6387-37.5488ZM40.1367-38.3789L63.0859-38.3789C64.5996-38.3789 65.8203-39.6484 65.8203-41.1133C65.8203-42.627 64.5996-43.8965 63.0859-43.8965L40.1367-43.8965C38.623-43.8965 37.3535-42.627 37.3535-41.1133C37.3535-39.6484 38.623-38.3789 40.1367-38.3789ZM29.6387-26.416C31.5918-26.416 33.2031-28.0273 33.2031-29.9805C33.2031-31.9824 31.6406-33.5449 29.6387-33.5449C27.6367-33.5449 26.0254-31.9336 26.0254-29.9805C26.0254-28.0273 27.6367-26.416 29.6387-26.416ZM40.1367-27.2461L81.7383-27.2461C83.3008-27.2461 84.5215-28.4668 84.5215-29.9805C84.5215-31.4941 83.3008-32.7148 81.7383-32.7148L40.1367-32.7148C38.5742-32.7148 37.3535-31.4941 37.3535-29.9805C37.3535-28.4668 38.5742-27.2461 40.1367-27.2461ZM29.6387-14.5996C31.5918-14.5996 33.2031-16.2109 33.2031-18.2129C33.2031-20.2148 31.5918-21.8262 29.6387-21.8262C27.6855-21.8262 26.0254-20.166 26.0254-18.2129C26.0254-16.2598 27.6855-14.5996 29.6387-14.5996ZM40.1367-15.4785L63.0859-15.4785C64.5996-15.4785 65.8203-16.6992 65.8203-18.2129C65.8203-19.7266 64.6484-20.8984 63.0859-20.8984L40.1367-20.8984C38.5742-20.8984 37.3535-19.7266 37.3535-18.2129C37.3535-16.6992 38.623-15.4785 40.1367-15.4785Z"/>
  </g>
  <g id="Regular-S" transform="matrix(1 0 0 1 1394.79 696)">
   <path d="M22.2168 0.390625L87.8906 0.390625C96.2402 0.390625 100.342-3.71094 100.342-11.9141L100.342-58.4961C100.342-66.6992 96.2402-70.8008 87.8906-70.8008L22.2168-70.8008C13.916-70.8008 9.76562-66.6992 9.76562-58.4961L9.76562-11.9141C9.76562-3.71094 13.916 0.390625 22.2168 0.390625ZM22.3145-6.68945C18.7988-6.68945 16.7969-8.54492 16.7969-12.2559L16.7969-58.1543C16.7969-61.8164 18.7988-63.7207 22.3145-63.7207L87.793-63.7207C91.3086-63.7207 93.3105-61.8164 93.3105-58.1543L93.3105-12.2559C93.3105-8.54492 91.3086-6.68945 87.793-6.68945ZM28.6133-49.2676C30.6152-49.2676 32.2266-50.8789 32.2266-52.8809C32.2266-54.834 30.6152-56.4453 28.6133-56.4453C26.6602-56.4453 25.0488-54.7852 25.0488-52.8809C25.0488-50.9277 26.6602-49.2676 28.6133-49.2676ZM39.6484-50.1953L82.4707-50.1953C83.9844-50.1953 85.1562-51.416 85.1562-52.8809C85.1562-54.3457 83.9355-55.5664 82.4707-55.5664L39.6484-55.5664C38.1836-55.5664 36.9629-54.3457 36.9629-52.8809C36.9629-51.416 38.1348-50.1953 39.6484-50.1953ZM28.6133-37.7441C30.6152-37.7441 32.2266-39.3066 32.2266-41.3086C32.2266-43.3105 30.6152-44.9219 28.6133-44.9219C26.6602-44.9219 25.0488-43.2617 25.0488-41.3086C25.0488-39.3555 26.6602-37.7441 28.6133-37.7441ZM39.6484-38.623L62.9395-38.623C64.4043-38.623 65.625-39.8438 65.625-41.3086C65.625-42.7734 64.4043-43.9941 62.9395-43.9941L39.6484-43.9941C38.1836-43.9941 36.9629-42.7734 36.9629-41.3086C36.9629-39.8438 38.1836-38.623 39.6484-38.623ZM28.6133-26.2207C30.6152-26.2207 32.2266-27.832 32.2266-29.834C32.2266-31.8359 30.6152-33.3984 28.6133-33.3984C26.6113-33.3984 25.0488-31.7871 25.0488-29.834C25.0488-27.832 26.6113-26.2207 28.6133-26.2207ZM39.6484-27.1484L82.4707-27.1484C83.9844-27.1484 85.1562-28.3203 85.1562-29.834C85.1562-31.2988 83.9844-32.4707 82.4707-32.4707L39.6484-32.4707C38.1348-32.4707 36.9629-31.2988 36.9629-29.834C36.9629-28.3203 38.1348-27.1484 39.6484-27.1484ZM28.6133-14.0625C30.6152-14.0625 32.2266-15.6738 32.2266-17.6758C32.2266-19.6289 30.6152-21.2402 28.6133-21.2402C26.6602-21.2402 25.0488-19.5801 25.0488-17.6758C25.0488-15.7227 26.6602-14.0625 28.6133-14.0625ZM39.6484-14.9902L62.9395-14.9902C64.4043-14.9902 65.625-16.2109 65.625-17.6758C65.625-19.1406 64.4531-20.3125 62.9395-20.3125L39.6484-20.3125C38.1348-20.3125 36.9629-19.1406 36.9629-17.6758C36.9629-16.2109 38.1836-14.9902 39.6484-14.9902Z"/>
  </g>
  <g id="Light-S" transform="matrix(1 0 0 1 1098.42 696)">
   <path d="M21.3867-0.292969L88.0371-0.292969C95.752-0.292969 99.6582-4.15039 99.6582-11.7676L99.6582-58.5938C99.6582-66.2109 95.752-70.1172 88.0371-70.1172L21.3867-70.1172C13.6719-70.1172 9.76562-66.2598 9.76562-58.5938L9.76562-11.7676C9.76562-4.15039 13.6719-0.292969 21.3867-0.292969ZM21.4844-5.71289C17.4316-5.71289 15.1855-7.86133 15.1855-12.0605L15.1855-58.3008C15.1855-62.5 17.4316-64.6973 21.4844-64.6973L87.9395-64.6973C91.9434-64.6973 94.2383-62.5 94.2383-58.3008L94.2383-12.0605C94.2383-7.86133 91.9434-5.71289 87.9395-5.71289ZM27.3438-49.7559C29.2969-49.7559 30.8594-51.3184 30.8594-53.2715C30.8594-55.2246 29.2969-56.7871 27.3438-56.7871C25.3906-56.7871 23.7793-55.2246 23.7793-53.2715C23.7793-51.3672 25.3906-49.7559 27.3438-49.7559ZM39.3066-51.1719L83.8867-51.1719C85.0586-51.1719 85.9863-52.0996 85.9863-53.2715C85.9863-54.4922 85.0586-55.4199 83.8867-55.4199L39.3066-55.4199C38.0859-55.4199 37.1582-54.4922 37.1582-53.2715C37.1582-52.0996 38.0859-51.1719 39.3066-51.1719ZM27.3438-37.8906C29.2969-37.8906 30.8594-39.4531 30.8594-41.4062C30.8594-43.3594 29.2969-44.9219 27.3438-44.9219C25.3906-44.9219 23.7793-43.3105 23.7793-41.4062C23.7793-39.502 25.3906-37.8906 27.3438-37.8906ZM39.3066-39.2578L64.3555-39.2578C65.5273-39.2578 66.4551-40.2344 66.4551-41.4062C66.4551-42.5781 65.5273-43.5547 64.3555-43.5547L39.3066-43.5547C38.0859-43.5547 37.1582-42.5781 37.1582-41.4062C37.1582-40.2344 38.0859-39.2578 39.3066-39.2578ZM27.3438-26.0254C29.2969-26.0254 30.8594-27.6367 30.8594-29.5898C30.8594-31.543 29.2969-33.0566 27.3438-33.0566C25.3906-33.0566 23.7793-31.4941 23.7793-29.5898C23.7793-27.6367 25.3906-26.0254 27.3438-26.0254ZM39.3066-27.4414L83.8867-27.4414C85.0586-27.4414 85.9863-28.3691 85.9863-29.5898C85.9863-30.7617 85.0586-31.6895 83.8867-31.6895L39.3066-31.6895C38.0859-31.6895 37.1582-30.7617 37.1582-29.5898C37.1582-28.3691 38.0859-27.4414 39.3066-27.4414ZM27.3438-13.7207C29.2969-13.7207 30.8594-15.332 30.8594-17.2363C30.8594-19.1895 29.2969-20.8008 27.3438-20.8008C25.3906-20.8008 23.7793-19.1895 23.7793-17.2363C23.7793-15.332 25.3906-13.7207 27.3438-13.7207ZM39.3066-15.1367L64.3555-15.1367C65.5273-15.1367 66.4551-16.0645 66.4551-17.2363C66.4551-18.457 65.5273-19.3848 64.3555-19.3848L39.3066-19.3848C38.0859-19.3848 37.1582-18.457 37.1582-17.2363C37.1582-16.0645 38.0859-15.1367 39.3066-15.1367Z"/>
  </g>
  <g id="Thin-S" transform="matrix(1 0 0 1 802.174 696)">
   <path d="M20.3125-1.12305L88.1836-1.12305C95.1172-1.12305 98.7305-4.78516 98.7305-11.6211L98.7305-58.6914C98.7305-65.5762 95.1172-69.2383 88.1836-69.2383L20.3125-69.2383C13.3789-69.2383 9.76562-65.625 9.76562-58.6914L9.76562-11.6211C9.76562-4.6875 13.3789-1.12305 20.3125-1.12305ZM20.4102-4.44336C15.625-4.44336 13.0859-6.93359 13.0859-11.8164L13.0859-58.5449C13.0859-63.3789 15.625-65.918 20.4102-65.918L88.0859-65.918C92.7246-65.918 95.4102-63.3789 95.4102-58.5449L95.4102-11.8164C95.4102-6.93359 92.7246-4.44336 88.0859-4.44336ZM25.5859-50.3906C27.4902-50.3906 29.0527-51.9531 29.0527-53.8574C29.0527-55.7129 27.4902-57.2754 25.5859-57.2754C23.7305-57.2754 22.168-55.7129 22.168-53.8574C22.168-51.9531 23.7305-50.3906 25.5859-50.3906ZM38.8184-52.4414L85.6934-52.4414C86.5234-52.4414 87.1094-53.0273 87.1094-53.8574C87.1094-54.6387 86.5234-55.2734 85.6934-55.2734L38.8184-55.2734C37.9883-55.2734 37.4023-54.6387 37.4023-53.8574C37.4023-53.0273 37.9883-52.4414 38.8184-52.4414ZM25.5859-38.0859C27.4902-38.0859 29.0527-39.6484 29.0527-41.5039C29.0527-43.4082 27.4902-44.9707 25.5859-44.9707C23.7305-44.9707 22.168-43.4082 22.168-41.5039C22.168-39.6484 23.7305-38.0859 25.5859-38.0859ZM38.8184-40.0879L66.1621-40.0879C66.9922-40.0879 67.5781-40.7227 67.5781-41.5039C67.5781-42.334 66.9922-42.9688 66.1621-42.9688L38.8184-42.9688C37.9883-42.9688 37.4023-42.334 37.4023-41.5039C37.4023-40.7227 37.9883-40.0879 38.8184-40.0879ZM25.5859-25.7812C27.4902-25.7812 29.0527-27.3438 29.0527-29.248C29.0527-31.1035 27.4902-32.666 25.5859-32.666C23.7305-32.666 22.168-31.1035 22.168-29.248C22.168-27.3438 23.7305-25.7812 25.5859-25.7812ZM38.8184-27.7832L85.6934-27.7832C86.5234-27.7832 87.1094-28.3691 87.1094-29.248C87.1094-30.0293 86.5234-30.6641 85.6934-30.6641L38.8184-30.6641C37.9883-30.6641 37.4023-30.0293 37.4023-29.248C37.4023-28.3691 37.9883-27.7832 38.8184-27.7832ZM25.5859-13.3301C27.4902-13.3301 29.0527-14.8438 29.0527-16.748C29.0527-18.6523 27.4902-20.166 25.5859-20.166C23.7305-20.166 22.168-18.6035 22.168-16.748C22.168-14.8438 23.7305-13.3301 25.5859-13.3301ZM38.8184-15.2832L66.1621-15.2832C66.9922-15.2832 67.5781-15.918 67.5781-16.748C67.5781-17.5781 66.9922-18.1641 66.1621-18.1641L38.8184-18.1641C37.9883-18.1641 37.4023-17.5781 37.4023-16.748C37.4023-15.918 37.9883-15.2832 38.8184-15.2832Z"/>
  </g>
  <g id="Ultralight-S" transform="matrix(1 0 0 1 505.707 696)">
   <path d="M19.7754-1.5625L88.2812-1.5625C94.8242-1.5625 98.2422-5.12695 98.2422-11.5234L98.2422-58.7891C98.2422-65.2344 94.8242-68.75 88.2812-68.75L19.7754-68.75C13.2324-68.75 9.76562-65.2832 9.76562-58.7891L9.76562-11.5234C9.76562-5.0293 13.2324-1.5625 19.7754-1.5625ZM19.873-3.75977C14.6484-3.75977 11.9629-6.44531 11.9629-11.6699L11.9629-58.6426C11.9629-63.8672 14.6484-66.5527 19.873-66.5527L88.1836-66.5527C93.1641-66.5527 96.0449-63.8672 96.0449-58.6426L96.0449-11.6699C96.0449-6.44531 93.1641-3.75977 88.1836-3.75977ZM24.707-50.7324C26.5625-50.7324 28.0762-52.2949 28.0762-54.1504C28.0762-56.0059 26.5625-57.5195 24.707-57.5195C22.8516-57.5195 21.3379-56.0059 21.3379-54.1504C21.3379-52.2949 22.8516-50.7324 24.707-50.7324ZM38.5742-53.0762L86.6699-53.0762C87.2559-53.0762 87.6953-53.5156 87.6953-54.1504C87.6953-54.7852 87.2559-55.1758 86.6699-55.1758L38.5742-55.1758C37.9395-55.1758 37.5-54.7852 37.5-54.1504C37.5-53.5156 37.9395-53.0762 38.5742-53.0762ZM24.707-38.1836C26.5625-38.1836 28.0762-39.7461 28.0762-41.6016C28.0762-43.457 26.5625-44.9707 24.707-44.9707C22.8516-44.9707 21.3379-43.457 21.3379-41.6016C21.3379-39.7461 22.8516-38.1836 24.707-38.1836ZM38.5742-40.5273L67.1387-40.5273C67.7246-40.5273 68.1641-40.9668 68.1641-41.6016C68.1641-42.2363 67.7246-42.627 67.1387-42.627L38.5742-42.627C37.9395-42.627 37.5-42.2363 37.5-41.6016C37.5-40.9668 37.9395-40.5273 38.5742-40.5273ZM24.707-25.6836C26.5625-25.6836 28.0762-27.1973 28.0762-29.0527C28.0762-30.9082 26.5625-32.4219 24.707-32.4219C22.8516-32.4219 21.3379-30.9082 21.3379-29.0527C21.3379-27.1973 22.8516-25.6836 24.707-25.6836ZM38.5742-27.9785L86.6699-27.9785C87.2559-27.9785 87.6953-28.418 87.6953-29.0527C87.6953-29.6875 87.2559-30.127 86.6699-30.127L38.5742-30.127C37.9395-30.127 37.5-29.6875 37.5-29.0527C37.5-28.418 37.9395-27.9785 38.5742-27.9785ZM24.707-13.0859C26.5625-13.0859 28.0762-14.5996 28.0762-16.4551C28.0762-18.3105 26.5625-19.8242 24.707-19.8242C22.8516-19.8242 21.3379-18.3105 21.3379-16.4551C21.3379-14.5996 22.8516-13.0859 24.707-13.0859ZM38.5742-15.4297L67.1387-15.4297C67.7246-15.4297 68.1641-15.8203 68.1641-16.4551C68.1641-17.0898 67.7246-17.5293 67.1387-17.5293L38.5742-17.5293C37.9395-17.5293 37.5-17.0898 37.5-16.4551C37.5-15.8203 37.9395-15.4297 38.5742-15.4297Z"/>
  </g>
 </g>
</svg>
