<?xml version="1.0" encoding="UTF-8"?>
<!--Generator: Apple Native CoreSVG 149-->
<!DOCTYPE svg
PUBLIC "-//W3C//DTD SVG 1.1//EN"
       "http://www.w3.org/Graphics/SVG/1.1/DTD/svg11.dtd">
<svg version="1.1" xmlns="http://www.w3.org/2000/svg" xmlns:xlink="http://www.w3.org/1999/xlink" width="3300" height="2200">
 <!--glyph: "uni100B84.medium", point size: 100.000000, font version: "Version 16.0d18e1", template writer version: "8"-->
 <g id="Notes">
  <rect height="2200" id="artboard" style="fill:white;opacity:1" width="3300" x="0" y="0"/>
  <line id="" style="fill:none;stroke:black;opacity:1;stroke-width:0.5;" x1="263" x2="3036" y1="292" y2="292"/>
  <text style="stroke:none;fill:black;font-family:-apple-system,&quot;SF Pro Display&quot;,&quot;SF Pro Text&quot;,Helvetica,sans-serif;font-weight:bold;" transform="matrix(1 0 0 1 263 322)">Weight/Scale Variations</text>
  <text style="stroke:none;fill:black;font-family:-apple-system,&quot;SF Pro Display&quot;,&quot;SF Pro Text&quot;,Helvetica,sans-serif;text-anchor:middle;" transform="matrix(1 0 0 1 559.711 322)">Ultralight</text>
  <text style="stroke:none;fill:black;font-family:-apple-system,&quot;SF Pro Display&quot;,&quot;SF Pro Text&quot;,Helvetica,sans-serif;text-anchor:middle;" transform="matrix(1 0 0 1 856.422 322)">Thin</text>
  <text style="stroke:none;fill:black;font-family:-apple-system,&quot;SF Pro Display&quot;,&quot;SF Pro Text&quot;,Helvetica,sans-serif;text-anchor:middle;" transform="matrix(1 0 0 1 1153.13 322)">Light</text>
  <text style="stroke:none;fill:black;font-family:-apple-system,&quot;SF Pro Display&quot;,&quot;SF Pro Text&quot;,Helvetica,sans-serif;text-anchor:middle;" transform="matrix(1 0 0 1 1449.84 322)">Regular</text>
  <text style="stroke:none;fill:black;font-family:-apple-system,&quot;SF Pro Display&quot;,&quot;SF Pro Text&quot;,Helvetica,sans-serif;text-anchor:middle;" transform="matrix(1 0 0 1 1746.56 322)">Medium</text>
  <text style="stroke:none;fill:black;font-family:-apple-system,&quot;SF Pro Display&quot;,&quot;SF Pro Text&quot;,Helvetica,sans-serif;text-anchor:middle;" transform="matrix(1 0 0 1 2043.27 322)">Semibold</text>
  <text style="stroke:none;fill:black;font-family:-apple-system,&quot;SF Pro Display&quot;,&quot;SF Pro Text&quot;,Helvetica,sans-serif;text-anchor:middle;" transform="matrix(1 0 0 1 2339.98 322)">Bold</text>
  <text style="stroke:none;fill:black;font-family:-apple-system,&quot;SF Pro Display&quot;,&quot;SF Pro Text&quot;,Helvetica,sans-serif;text-anchor:middle;" transform="matrix(1 0 0 1 2636.69 322)">Heavy</text>
  <text style="stroke:none;fill:black;font-family:-apple-system,&quot;SF Pro Display&quot;,&quot;SF Pro Text&quot;,Helvetica,sans-serif;text-anchor:middle;" transform="matrix(1 0 0 1 2933.4 322)">Black</text>
  <line id="" style="fill:none;stroke:black;opacity:1;stroke-width:0.5;" x1="263" x2="3036" y1="1903" y2="1903"/>
  <g id="" transform="matrix(1 0 0 1 263 1933)">
   <path d="M9.24805 0.830078C13.5547 0.830078 17.1387-2.74414 17.1387-7.05078C17.1387-11.3574 13.5449-14.9316 9.23828-14.9316C4.94141-14.9316 1.36719-11.3574 1.36719-7.05078C1.36719-2.74414 4.95117 0.830078 9.24805 0.830078ZM9.24805-0.654297C5.70312-0.654297 2.87109-3.49609 2.87109-7.05078C2.87109-10.6055 5.69336-13.4473 9.23828-13.4473C12.793-13.4473 15.6348-10.6055 15.6445-7.05078C15.6543-3.49609 12.8027-0.654297 9.24805-0.654297ZM6.39648-6.31836L8.50586-6.31836L8.50586-4.19922C8.50586-3.75977 8.79883-3.45703 9.22852-3.45703C9.67773-3.45703 9.9707-3.75977 9.9707-4.19922L9.9707-6.31836L12.0996-6.31836C12.5391-6.31836 12.8418-6.61133 12.8418-7.04102C12.8418-7.48047 12.5391-7.7832 12.0996-7.7832L9.9707-7.7832L9.9707-9.89258C9.9707-10.3418 9.67773-10.6445 9.22852-10.6445C8.79883-10.6445 8.50586-10.3418 8.50586-9.89258L8.50586-7.7832L6.39648-7.7832C5.94727-7.7832 5.64453-7.48047 5.64453-7.04102C5.64453-6.61133 5.94727-6.31836 6.39648-6.31836Z"/>
  </g>
  <g id="" transform="matrix(1 0 0 1 281.506 1933)">
   <path d="M11.709 2.91016C17.1582 2.91016 21.6699-1.61133 21.6699-7.05078C21.6699-12.5 17.1484-17.0117 11.6992-17.0117C6.25977-17.0117 1.74805-12.5 1.74805-7.05078C1.74805-1.61133 6.26953 2.91016 11.709 2.91016ZM11.709 1.25C7.09961 1.25 3.41797-2.44141 3.41797-7.05078C3.41797-11.6602 7.08984-15.3516 11.6992-15.3516C16.3086-15.3516 20-11.6602 20.0098-7.05078C20.0195-2.44141 16.3184 1.25 11.709 1.25ZM7.98828-6.23047L10.8789-6.23047L10.8789-3.32031C10.8789-2.83203 11.2109-2.5 11.6895-2.5C12.1777-2.5 12.5195-2.83203 12.5195-3.32031L12.5195-6.23047L15.4297-6.23047C15.918-6.23047 16.25-6.5625 16.25-7.04102C16.25-7.5293 15.918-7.87109 15.4297-7.87109L12.5195-7.87109L12.5195-10.7617C12.5195-11.2695 12.1777-11.6016 11.6895-11.6016C11.2109-11.6016 10.8789-11.2598 10.8789-10.7617L10.8789-7.87109L7.98828-7.87109C7.48047-7.87109 7.14844-7.5293 7.14844-7.04102C7.14844-6.5625 7.49023-6.23047 7.98828-6.23047Z"/>
  </g>
  <g id="" transform="matrix(1 0 0 1 304.924 1933)">
   <path d="M14.9707 5.66406C21.9336 5.66406 27.6953-0.0976562 27.6953-7.05078C27.6953-14.0137 21.9238-19.7754 14.9609-19.7754C8.00781-19.7754 2.25586-14.0137 2.25586-7.05078C2.25586-0.0976562 8.01758 5.66406 14.9707 5.66406ZM14.9707 3.84766C8.93555 3.84766 4.08203-1.01562 4.08203-7.05078C4.08203-13.0957 8.92578-17.9492 14.9609-17.9492C21.0059-17.9492 25.8594-13.0957 25.8691-7.05078C25.8789-1.01562 21.0156 3.84766 14.9707 3.84766ZM10.0586-6.14258L14.0625-6.14258L14.0625-2.12891C14.0625-1.5918 14.4336-1.2207 14.9512-1.2207C15.4883-1.2207 15.8594-1.5918 15.8594-2.12891L15.8594-6.14258L19.8828-6.14258C20.4102-6.14258 20.791-6.51367 20.791-7.03125C20.791-7.56836 20.4199-7.94922 19.8828-7.94922L15.8594-7.94922L15.8594-11.9531C15.8594-12.5098 15.4883-12.8809 14.9512-12.8809C14.4336-12.8809 14.0625-12.5 14.0625-11.9531L14.0625-7.94922L10.0586-7.94922C9.50195-7.94922 9.13086-7.56836 9.13086-7.03125C9.13086-6.51367 9.51172-6.14258 10.0586-6.14258Z"/>
  </g>
  <text style="stroke:none;fill:black;font-family:-apple-system,&quot;SF Pro Display&quot;,&quot;SF Pro Text&quot;,Helvetica,sans-serif;font-weight:bold;" transform="matrix(1 0 0 1 263 1953)">Design Variations</text>
  <text style="stroke:none;fill:black;font-family:-apple-system,&quot;SF Pro Display&quot;,&quot;SF Pro Text&quot;,Helvetica,sans-serif;" transform="matrix(1 0 0 1 263 1971)">Symbols are supported in up to nine weights and three scales.</text>
  <text style="stroke:none;fill:black;font-family:-apple-system,&quot;SF Pro Display&quot;,&quot;SF Pro Text&quot;,Helvetica,sans-serif;" transform="matrix(1 0 0 1 263 1989)">For optimal layout with text and other symbols, vertically align</text>
  <text style="stroke:none;fill:black;font-family:-apple-system,&quot;SF Pro Display&quot;,&quot;SF Pro Text&quot;,Helvetica,sans-serif;" transform="matrix(1 0 0 1 263 2007)">symbols with the adjacent text.</text>
  <line id="" style="fill:none;stroke:#00AEEF;stroke-width:0.5;opacity:1.0;" x1="776" x2="776" y1="1919" y2="1933"/>
  <g id="" transform="matrix(1 0 0 1 776 1933)">
   <path d="M3.31055 0.126953C3.82812 0.126953 4.08203-0.0683594 4.26758-0.605469L5.52734-4.0625L11.2891-4.0625L12.5488-0.605469C12.7344-0.0683594 12.9883 0.126953 13.4961 0.126953C14.0137 0.126953 14.3457-0.185547 14.3457-0.673828C14.3457-0.839844 14.3164-0.986328 14.2383-1.20117L9.6582-13.3887C9.43359-13.9941 9.0332-14.2871 8.4082-14.2871C7.80273-14.2871 7.39258-13.9941 7.17773-13.3984L2.59766-1.19141C2.51953-0.976562 2.49023-0.830078 2.49023-0.664062C2.49023-0.175781 2.80273 0.126953 3.31055 0.126953ZM6.00586-5.53711L8.37891-12.1094L8.42773-12.1094L10.8008-5.53711Z"/>
  </g>
  <line id="" style="fill:none;stroke:#00AEEF;stroke-width:0.5;opacity:1.0;" x1="792.836" x2="792.836" y1="1919" y2="1933"/>
  <text style="stroke:none;fill:black;font-family:-apple-system,&quot;SF Pro Display&quot;,&quot;SF Pro Text&quot;,Helvetica,sans-serif;font-weight:bold;" transform="matrix(1 0 0 1 776 1953)">Margins</text>
  <text style="stroke:none;fill:black;font-family:-apple-system,&quot;SF Pro Display&quot;,&quot;SF Pro Text&quot;,Helvetica,sans-serif;" transform="matrix(1 0 0 1 776 1971)">Leading and trailing margins on the left and right side of each symbol</text>
  <text style="stroke:none;fill:black;font-family:-apple-system,&quot;SF Pro Display&quot;,&quot;SF Pro Text&quot;,Helvetica,sans-serif;" transform="matrix(1 0 0 1 776 1989)">can be adjusted by modifying the x-location of the margin guidelines.</text>
  <text style="stroke:none;fill:black;font-family:-apple-system,&quot;SF Pro Display&quot;,&quot;SF Pro Text&quot;,Helvetica,sans-serif;" transform="matrix(1 0 0 1 776 2007)">Modifications are automatically applied proportionally to all</text>
  <text style="stroke:none;fill:black;font-family:-apple-system,&quot;SF Pro Display&quot;,&quot;SF Pro Text&quot;,Helvetica,sans-serif;" transform="matrix(1 0 0 1 776 2025)">scales and weights.</text>
  <g id="" transform="matrix(1 0 0 1 1289 1933)">
   <path d="M2.8418 1.86523L4.54102 3.57422C5.40039 4.44336 6.38672 4.38477 7.31445 3.35938L17.4902-7.85156C17.7539-7.76367 18.0273-7.7832 18.3398-7.8418L19.4043-8.03711L20.0684-7.36328L20.0293-6.80664C19.9902-6.30859 20.1172-5.92773 20.6055-5.44922L21.3672-4.70703C21.8457-4.22852 22.4609-4.19922 22.9297-4.66797L25.8398-7.58789C26.3086-8.05664 26.2891-8.65234 25.8105-9.13086L25.0391-9.89258C24.5605-10.3711 24.1895-10.5273 23.7109-10.4883L23.1348-10.4395L22.4902-11.0742L22.7344-12.1973C22.8613-12.7637 22.7051-13.2031 22.1191-13.7891L19.9219-15.9766C16.582-19.2969 12.1484-19.2188 9.25781-16.3281C8.83789-15.918 8.80859-15.3418 9.04297-14.9512C9.27734-14.5898 9.73633-14.3555 10.3809-14.5215C11.8457-14.8633 13.3691-14.9219 14.7949-13.9844L14.209-12.5293C14.0137-12.0508 13.9844-11.6504 14.1113-11.2891L3.04688-0.898438C2.06055 0.0195312 1.98242 0.996094 2.8418 1.86523ZM10.752-15.957C13.1836-17.7344 16.4746-17.4316 18.7012-15.2051L21.1328-12.793C21.3672-12.5586 21.4062-12.373 21.3379-12.0312L21.0156-10.5469L22.5195-9.0625L23.5059-9.12109C23.7598-9.13086 23.8379-9.11133 24.0332-8.91602L24.6094-8.33984L22.168-5.89844L21.5918-6.47461C21.3965-6.66992 21.3672-6.74805 21.377-7.01172L21.4453-7.98828L19.9512-9.47266L18.4277-9.21875C18.1055-9.15039 17.959-9.17969 17.7148-9.41406L15.7129-11.416C15.459-11.6504 15.4297-11.8164 15.5859-12.1875L16.4648-14.2773C14.9023-15.7324 12.8711-16.3574 10.8398-15.7617C10.6836-15.7227 10.625-15.8496 10.752-15.957ZM5.27344 2.30469L4.10156 1.14258C3.63281 0.683594 3.74023 0.341797 4.14062-0.0195312L14.9512-10.1953L16.416-8.71094L6.42578 2.27539C6.07422 2.67578 5.74219 2.77344 5.27344 2.30469Z"/>
  </g>
  <text style="stroke:none;fill:black;font-family:-apple-system,&quot;SF Pro Display&quot;,&quot;SF Pro Text&quot;,Helvetica,sans-serif;font-weight:bold;" transform="matrix(1 0 0 1 1289 1953)">Exporting</text>
  <text style="stroke:none;fill:black;font-family:-apple-system,&quot;SF Pro Display&quot;,&quot;SF Pro Text&quot;,Helvetica,sans-serif;" transform="matrix(1 0 0 1 1289 1971)">Symbols should be outlined when exporting to ensure the</text>
  <text style="stroke:none;fill:black;font-family:-apple-system,&quot;SF Pro Display&quot;,&quot;SF Pro Text&quot;,Helvetica,sans-serif;" transform="matrix(1 0 0 1 1289 1989)">design is preserved when submitting to Xcode.</text>
  <text id="template-version" style="stroke:none;fill:black;font-family:-apple-system,&quot;SF Pro Display&quot;,&quot;SF Pro Text&quot;,Helvetica,sans-serif;text-anchor:end;" transform="matrix(1 0 0 1 3036 1933)">Template v.2.0</text>
  <text style="stroke:none;fill:black;font-family:-apple-system,&quot;SF Pro Display&quot;,&quot;SF Pro Text&quot;,Helvetica,sans-serif;text-anchor:end;" transform="matrix(1 0 0 1 3036 1951)">Requires Xcode 12 or greater</text>
  <text style="stroke:none;fill:black;font-family:-apple-system,&quot;SF Pro Display&quot;,&quot;SF Pro Text&quot;,Helvetica,sans-serif;text-anchor:end;" transform="matrix(1 0 0 1 3036 1969)">Generated from location.fill.viewfinder</text>
  <text style="stroke:none;fill:black;font-family:-apple-system,&quot;SF Pro Display&quot;,&quot;SF Pro Text&quot;,Helvetica,sans-serif;text-anchor:end;" transform="matrix(1 0 0 1 3036 1987)">Typeset at 100 points</text>
  <text style="stroke:none;fill:black;font-family:-apple-system,&quot;SF Pro Display&quot;,&quot;SF Pro Text&quot;,Helvetica,sans-serif;" transform="matrix(1 0 0 1 263 726)">Small</text>
  <text style="stroke:none;fill:black;font-family:-apple-system,&quot;SF Pro Display&quot;,&quot;SF Pro Text&quot;,Helvetica,sans-serif;" transform="matrix(1 0 0 1 263 1156)">Medium</text>
  <text style="stroke:none;fill:black;font-family:-apple-system,&quot;SF Pro Display&quot;,&quot;SF Pro Text&quot;,Helvetica,sans-serif;" transform="matrix(1 0 0 1 263 1586)">Large</text>
 </g>
 <g id="Guides">
  <g id="H-reference" style="fill:#27AAE1;stroke:none;" transform="matrix(1 0 0 1 339 696)">
   <path d="M0.976562 0L3.66211 0L12.9883-24.4629L45.752-24.4629L55.127 0L57.7637 0L30.6152-70.459L28.125-70.459ZM29.3457-67.1387L29.4434-67.1387L44.873-26.709L13.8672-26.709Z"/>
  </g>
  <line id="Baseline-S" style="fill:none;stroke:#27AAE1;opacity:1;stroke-width:0.5;" x1="263" x2="3036" y1="696" y2="696"/>
  <line id="Capline-S" style="fill:none;stroke:#27AAE1;opacity:1;stroke-width:0.5;" x1="263" x2="3036" y1="625.541" y2="625.541"/>
  <g id="H-reference" style="fill:#27AAE1;stroke:none;" transform="matrix(1 0 0 1 339 1126)">
   <path d="M0.976562 0L3.66211 0L12.9883-24.4629L45.752-24.4629L55.127 0L57.7637 0L30.6152-70.459L28.125-70.459ZM29.3457-67.1387L29.4434-67.1387L44.873-26.709L13.8672-26.709Z"/>
  </g>
  <line id="Baseline-M" style="fill:none;stroke:#27AAE1;opacity:1;stroke-width:0.5;" x1="263" x2="3036" y1="1126" y2="1126"/>
  <line id="Capline-M" style="fill:none;stroke:#27AAE1;opacity:1;stroke-width:0.5;" x1="263" x2="3036" y1="1055.54" y2="1055.54"/>
  <g id="H-reference" style="fill:#27AAE1;stroke:none;" transform="matrix(1 0 0 1 339 1556)">
   <path d="M0.976562 0L3.66211 0L12.9883-24.4629L45.752-24.4629L55.127 0L57.7637 0L30.6152-70.459L28.125-70.459ZM29.3457-67.1387L29.4434-67.1387L44.873-26.709L13.8672-26.709Z"/>
  </g>
  <line id="Baseline-L" style="fill:none;stroke:#27AAE1;opacity:1;stroke-width:0.5;" x1="263" x2="3036" y1="1556" y2="1556"/>
  <line id="Capline-L" style="fill:none;stroke:#27AAE1;opacity:1;stroke-width:0.5;" x1="263" x2="3036" y1="1485.54" y2="1485.54"/>
  <line id="left-margin" style="fill:none;stroke:#00AEEF;stroke-width:0.5;opacity:1.0;" x1="1389.59" x2="1389.59" y1="1030.79" y2="1150.12"/>
  <line id="right-margin" style="fill:none;stroke:#00AEEF;stroke-width:0.5;opacity:1.0;" x1="1510.1" x2="1510.1" y1="1030.79" y2="1150.12"/>
 </g>
 <g id="Symbols">
  <g id="Black-L" transform="matrix(1 0 0 1 2852.2 1556)">
   <path d="M136.23-51.5137C142.822-51.5137 146.338-55.0781 146.338-61.7188L146.338-76.5137C146.338-91.6992 137.695-100.342 122.461-100.342L107.666-100.342C101.025-100.342 97.4609-96.7773 97.4609-90.2344C97.4609-83.6426 101.074-80.0781 107.666-80.0781L119.727-80.0781C123.926-80.0781 126.123-78.2227 126.123-73.6328L126.123-61.7188C126.123-55.0781 129.688-51.5137 136.23-51.5137ZM26.1719-51.5137C32.7637-51.5137 36.3281-55.1758 36.3281-61.7188L36.3281-73.6328C36.3281-78.2227 38.4766-80.0781 42.6758-80.0781L54.7852-80.0781C61.377-80.0781 64.9414-83.6426 64.9414-90.2344C64.9414-96.7773 61.377-100.342 54.7852-100.342L39.9902-100.342C24.7559-100.342 16.0645-91.6992 16.0645-76.5137L16.0645-61.7188C16.0645-55.0781 19.6289-51.5137 26.1719-51.5137ZM51.0742-26.1719L73.2422-26.1719L73.291-4.00391C73.291 1.2207 76.0254 4.24805 80.8594 4.24805C84.2773 4.24805 87.2559 2.09961 88.9648-1.70898L112.695-53.7598C113.721-56.1035 114.258-58.0078 114.258-59.7168C114.258-63.8672 110.938-67.0898 106.787-67.0898C105.127-67.0898 103.125-66.5527 100.83-65.5273L48.0957-41.6016C44.5801-39.9902 42.8711-37.0117 42.8711-33.8867C42.8711-29.6387 45.6543-26.1719 51.0742-26.1719ZM39.9902 29.9316L54.7852 29.9316C61.377 29.9316 64.9414 26.3672 64.9414 19.8242C64.9414 13.2812 61.3281 9.7168 54.7852 9.7168L42.6758 9.7168C38.4766 9.7168 36.3281 7.8125 36.3281 3.27148L36.3281-8.64258C36.3281-15.2832 32.7148-18.8477 26.1719-18.8477C19.6289-18.8477 16.0645-15.2832 16.0645-8.64258L16.0645 6.15234C16.0645 21.3379 24.7559 29.9316 39.9902 29.9316ZM107.666 29.9316L122.461 29.9316C137.695 29.9316 146.338 21.3379 146.338 6.15234L146.338-8.64258C146.338-15.2832 142.773-18.8477 136.23-18.8477C129.688-18.8477 126.123-15.2344 126.123-8.64258L126.123 3.27148C126.123 7.8125 123.926 9.7168 119.727 9.7168L107.666 9.7168C101.025 9.7168 97.4609 13.2812 97.4609 19.8242C97.4609 26.3672 101.025 29.9316 107.666 29.9316Z"/>
  </g>
  <g id="Heavy-L" transform="matrix(1 0 0 1 2556.51 1556)">
   <path d="M135.547-52.7832C141.211-52.7832 144.287-55.8594 144.287-61.6211L144.287-76.6602C144.287-91.2109 136.182-99.3164 121.533-99.3164L106.494-99.3164C100.781-99.3164 97.6562-96.1914 97.6562-90.5273C97.6562-84.9121 100.83-81.7871 106.494-81.7871L119.434-81.7871C124.219-81.7871 126.807-79.4922 126.807-74.3652L126.807-61.6211C126.807-55.8594 129.883-52.7832 135.547-52.7832ZM24.8047-52.7832C30.5176-52.7832 33.5938-55.9082 33.5938-61.6211L33.5938-74.3652C33.5938-79.4922 36.084-81.7871 40.918-81.7871L53.8574-81.7871C59.6191-81.7871 62.6953-84.9121 62.6953-90.5273C62.6953-96.1914 59.6191-99.3164 53.8574-99.3164L38.8184-99.3164C24.2188-99.3164 16.0645-91.2109 16.0645-76.6602L16.0645-61.6211C16.0645-55.8594 19.1406-52.7832 24.8047-52.7832ZM49.1699-26.7578L72.9004-26.709L72.9004-3.17383C72.9004 1.75781 75.4883 4.58984 79.8828 4.58984C83.0566 4.58984 85.791 2.58789 87.4023-1.02539L112.256-55.2246C113.184-57.3242 113.672-59.1309 113.672-60.6445C113.672-64.502 110.645-67.4805 106.836-67.4805C105.273-67.4805 103.467-66.9434 101.367-66.0156L46.5332-40.9668C43.2617-39.4531 41.6016-36.7188 41.6016-33.8379C41.6016-29.834 44.1895-26.7578 49.1699-26.7578ZM38.8184 28.9551L53.8574 28.9551C59.6191 28.9551 62.6953 25.8301 62.6953 20.166C62.6953 14.502 59.5703 11.4258 53.8574 11.4258L40.918 11.4258C36.084 11.4258 33.5938 9.13086 33.5938 4.00391L33.5938-8.74023C33.5938-14.502 30.4688-17.5781 24.8047-17.5781C19.1406-17.5781 16.0645-14.502 16.0645-8.74023L16.0645 6.29883C16.0645 20.8496 24.2188 28.9551 38.8184 28.9551ZM106.494 28.9551L121.533 28.9551C136.182 28.9551 144.287 20.8496 144.287 6.29883L144.287-8.74023C144.287-14.502 141.211-17.5781 135.547-17.5781C129.883-17.5781 126.807-14.4531 126.807-8.74023L126.807 4.00391C126.807 9.13086 124.219 11.4258 119.434 11.4258L106.494 11.4258C100.781 11.4258 97.6562 14.502 97.6562 20.166C97.6562 25.8301 100.781 28.9551 106.494 28.9551Z"/>
  </g>
  <g id="Bold-L" transform="matrix(1 0 0 1 2260.95 1556)">
   <path d="M134.766-54.1992C139.453-54.1992 141.992-56.7383 141.992-61.4746L141.992-76.8066C141.992-90.625 134.473-98.1445 120.557-98.1445L105.225-98.1445C100.488-98.1445 97.9004-95.5566 97.9004-90.918C97.9004-86.2793 100.488-83.6914 105.225-83.6914L119.092-83.6914C124.561-83.6914 127.539-80.957 127.539-75.1465L127.539-61.4746C127.539-56.7383 130.127-54.1992 134.766-54.1992ZM23.291-54.1992C27.9785-54.1992 30.5176-56.7871 30.5176-61.4746L30.5176-75.1465C30.5176-80.957 33.4473-83.6914 38.9648-83.6914L52.8809-83.6914C57.5684-83.6914 60.1562-86.2793 60.1562-90.918C60.1562-95.5566 57.5684-98.1445 52.8809-98.1445L37.5-98.1445C23.6328-98.1445 16.0645-90.6738 16.0645-76.8066L16.0645-61.4746C16.0645-56.7383 18.6035-54.1992 23.291-54.1992ZM47.0215-27.4414L72.5098-27.3926L72.5586-2.19727C72.5586 2.34375 74.8535 4.93164 78.8574 4.93164C81.6895 4.93164 84.1309 3.125 85.6445-0.244141L111.768-56.8848C112.598-58.6914 113.037-60.3516 113.037-61.7188C113.037-65.1855 110.352-67.8711 106.836-67.8711C105.42-67.8711 103.809-67.4316 102.002-66.6016L44.8242-40.332C41.748-38.916 40.1855-36.4746 40.1855-33.7891C40.1855-30.0781 42.5293-27.4414 47.0215-27.4414ZM37.5 27.7832L52.8809 27.7832C57.5684 27.7832 60.1562 25.2441 60.1562 20.5566C60.1562 15.918 57.5684 13.3301 52.8809 13.3301L38.9648 13.3301C33.4473 13.3301 30.5176 10.5957 30.5176 4.83398L30.5176-8.83789C30.5176-13.5742 27.9297-16.1621 23.291-16.1621C18.6035-16.1621 16.0645-13.5742 16.0645-8.83789L16.0645 6.49414C16.0645 20.3125 23.6328 27.7832 37.5 27.7832ZM105.225 27.7832L120.557 27.7832C134.473 27.7832 141.992 20.3125 141.992 6.49414L141.992-8.83789C141.992-13.5742 139.453-16.1621 134.766-16.1621C130.078-16.1621 127.539-13.5742 127.539-8.83789L127.539 4.83398C127.539 10.5957 124.561 13.3301 119.092 13.3301L105.225 13.3301C100.488 13.3301 97.9004 15.918 97.9004 20.5566C97.9004 25.2441 100.488 27.7832 105.225 27.7832Z"/>
  </g>
  <g id="Semibold-L" transform="matrix(1 0 0 1 1965.02 1556)">
   <path d="M134.229-55.1758C138.281-55.1758 140.43-57.373 140.43-61.4258L140.43-76.9531C140.43-90.2344 133.301-97.3633 119.873-97.3633L104.297-97.3633C100.293-97.3633 98.0469-95.166 98.0469-91.1621C98.0469-87.207 100.293-85.0098 104.297-85.0098L118.848-85.0098C124.756-85.0098 128.076-81.9336 128.076-75.7324L128.076-61.4258C128.076-57.373 130.273-55.1758 134.229-55.1758ZM22.2168-55.1758C26.2695-55.1758 28.418-57.373 28.418-61.4258L28.418-75.7324C28.418-81.9336 31.6406-85.0098 37.5977-85.0098L52.1484-85.0098C56.2012-85.0098 58.3984-87.207 58.3984-91.1621C58.3984-95.166 56.2012-97.3633 52.1484-97.3633L36.6211-97.3633C23.1934-97.3633 16.0645-90.2832 16.0645-76.9531L16.0645-61.4258C16.0645-57.373 18.2617-55.1758 22.2168-55.1758ZM45.5566-27.8809L72.2168-27.832L72.2656-1.51367C72.2656 2.7832 74.4141 5.17578 78.125 5.17578C80.7129 5.17578 82.959 3.51562 84.4238 0.292969L111.426-58.0078C112.158-59.668 112.598-61.1816 112.598-62.4512C112.598-65.6738 110.107-68.1641 106.885-68.1641C105.566-68.1641 104.053-67.7246 102.393-66.9922L43.6035-39.8438C40.7227-38.5254 39.209-36.2793 39.209-33.7402C39.209-30.2246 41.4062-27.8809 45.5566-27.8809ZM36.6211 27.002L52.1484 27.002C56.2012 27.002 58.3984 24.8047 58.3984 20.8496C58.3984 16.8457 56.2012 14.6484 52.1484 14.6484L37.5977 14.6484C31.6406 14.6484 28.418 11.6211 28.418 5.37109L28.418-8.93555C28.418-12.9883 26.2207-15.1855 22.2168-15.1855C18.2129-15.1855 16.0645-12.9883 16.0645-8.93555L16.0645 6.5918C16.0645 19.9707 23.1934 27.002 36.6211 27.002ZM104.297 27.002L119.873 27.002C133.301 27.002 140.43 19.9219 140.43 6.5918L140.43-8.93555C140.43-12.9883 138.232-15.1855 134.229-15.1855C130.225-15.1855 128.076-12.9395 128.076-8.93555L128.076 5.37109C128.076 11.6211 124.756 14.6484 118.848 14.6484L104.297 14.6484C100.293 14.6484 98.0469 16.8457 98.0469 20.8496C98.0469 24.8047 100.293 27.002 104.297 27.002Z"/>
  </g>
  <g id="Medium-L" transform="matrix(1 0 0 1 1668.92 1556)">
   <path d="M133.838-55.9082C137.354-55.9082 139.209-57.8125 139.209-61.3281L139.209-77.002C139.209-89.9414 132.422-96.7285 119.336-96.7285L103.613-96.7285C100.146-96.7285 98.1934-94.8242 98.1934-91.3574C98.1934-87.9395 100.146-85.9863 103.613-85.9863L118.701-85.9863C124.951-85.9863 128.467-82.7148 128.467-76.123L128.467-61.3281C128.467-57.8125 130.371-55.9082 133.838-55.9082ZM21.4355-55.9082C24.9512-55.9082 26.8066-57.8613 26.8066-61.3281L26.8066-76.123C26.8066-82.7148 30.2246-85.9863 36.5723-85.9863L51.6602-85.9863C55.1758-85.9863 57.0801-87.9395 57.0801-91.3574C57.0801-94.8242 55.1758-96.7285 51.6602-96.7285L35.9375-96.7285C22.9004-96.7285 16.0645-89.9902 16.0645-77.002L16.0645-61.3281C16.0645-57.8125 17.9688-55.9082 21.4355-55.9082ZM44.4336-28.2227L72.0215-28.1738L72.0703-1.02539C72.0703 3.07617 74.0723 5.37109 77.5391 5.37109C79.9805 5.37109 82.1289 3.80859 83.4961 0.683594L111.133-58.8379C111.865-60.4004 112.256-61.8164 112.256-63.0371C112.256-66.0645 109.961-68.3594 106.885-68.3594C105.664-68.3594 104.199-67.9199 102.734-67.2852L42.6758-39.502C39.9414-38.2324 38.4766-36.1328 38.4766-33.7402C38.4766-30.3711 40.5762-28.2227 44.4336-28.2227ZM35.9375 26.416L51.6602 26.416C55.1758 26.416 57.0801 24.5117 57.0801 21.0449C57.0801 17.5781 55.127 15.6738 51.6602 15.6738L36.5723 15.6738C30.2246 15.6738 26.8066 12.3535 26.8066 5.81055L26.8066-8.98438C26.8066-12.5 24.9023-14.4531 21.4355-14.4531C17.9199-14.4531 16.0645-12.5 16.0645-8.98438L16.0645 6.68945C16.0645 19.6777 22.9004 26.416 35.9375 26.416ZM103.613 26.416L119.336 26.416C132.422 26.416 139.209 19.6289 139.209 6.68945L139.209-8.98438C139.209-12.5 137.305-14.4531 133.838-14.4531C130.371-14.4531 128.467-12.5 128.467-8.98438L128.467 5.81055C128.467 12.3535 124.951 15.6738 118.701 15.6738L103.613 15.6738C100.146 15.6738 98.1934 17.5781 98.1934 21.0449C98.1934 24.5117 100.146 26.416 103.613 26.416Z"/>
  </g>
  <g id="Regular-L" transform="matrix(1 0 0 1 1372.99 1556)">
   <path d="M133.301-56.8359C136.133-56.8359 137.646-58.4473 137.646-61.2305L137.646-77.1484C137.646-89.5508 131.299-95.9473 118.652-95.9473L102.734-95.9473C99.9512-95.9473 98.3398-94.3848 98.3398-91.6016C98.3398-88.8672 99.9512-87.3047 102.734-87.3047L118.457-87.3047C125.146-87.3047 129.004-83.6914 129.004-76.6602L129.004-61.2305C129.004-58.4473 130.566-56.8359 133.301-56.8359ZM20.4102-56.8359C23.1934-56.8359 24.707-58.4473 24.707-61.2305L24.707-76.6602C24.707-83.6914 28.418-87.3047 35.2539-87.3047L50.9766-87.3047C53.7598-87.3047 55.3711-88.8672 55.3711-91.6016C55.3711-94.3848 53.7598-95.9473 50.9766-95.9473L35.0586-95.9473C22.4609-95.9473 16.0645-89.6484 16.0645-77.1484L16.0645-61.2305C16.0645-58.4473 17.627-56.8359 20.4102-56.8359ZM43.0176-28.6621L71.7773-28.6133L71.8262-0.390625C71.8262 3.51562 73.6328 5.61523 76.8066 5.61523C79.0527 5.61523 81.0059 4.15039 82.2754 1.2207L110.791-59.9609C111.426-61.3281 111.816-62.6465 111.816-63.7207C111.816-66.5527 109.717-68.6523 106.885-68.6523C105.762-68.6523 104.443-68.2617 103.125-67.6758L41.5039-39.0137C38.916-37.8418 37.5-35.9375 37.5-33.6914C37.5-30.5176 39.4531-28.6621 43.0176-28.6621ZM35.0586 25.6348L50.9766 25.6348C53.7598 25.6348 55.3711 24.0723 55.3711 21.2891C55.3711 18.5547 53.7598 16.9922 50.9766 16.9922L35.2539 16.9922C28.418 16.9922 24.707 13.3789 24.707 6.34766L24.707-9.08203C24.707-11.8652 23.1445-13.4766 20.4102-13.4766C17.5781-13.4766 16.0645-11.8652 16.0645-9.08203L16.0645 6.83594C16.0645 19.3359 22.4609 25.6348 35.0586 25.6348ZM102.734 25.6348L118.652 25.6348C131.299 25.6348 137.646 19.2383 137.646 6.83594L137.646-9.08203C137.646-11.8652 136.084-13.4766 133.301-13.4766C130.518-13.4766 129.004-11.8652 129.004-9.08203L129.004 6.34766C129.004 13.3789 125.146 16.9922 118.457 16.9922L102.734 16.9922C99.9512 16.9922 98.3398 18.5547 98.3398 21.2891C98.3398 24.0723 99.9512 25.6348 102.734 25.6348Z"/>
  </g>
  <g id="Light-L" transform="matrix(1 0 0 1 1077.47 1556)">
   <path d="M131.934-56.9824C134.082-56.9824 135.254-58.2031 135.254-60.3516L135.254-76.8555C135.254-88.5742 129.15-94.7266 117.285-94.7266L100.732-94.7266C98.584-94.7266 97.3633-93.5547 97.3633-91.4062C97.3633-89.3066 98.584-88.1348 100.732-88.1348L117.09-88.1348C124.414-88.1348 128.613-84.1797 128.613-76.5137L128.613-60.3516C128.613-58.2031 129.785-56.9824 131.934-56.9824ZM19.3848-56.9824C21.5332-56.9824 22.7051-58.2031 22.7051-60.3516L22.7051-76.5137C22.7051-84.1797 26.709-88.1348 34.1797-88.1348L50.5859-88.1348C52.7344-88.1348 53.9551-89.3066 53.9551-91.4062C53.9551-93.5547 52.7344-94.7266 50.5859-94.7266L34.0332-94.7266C22.168-94.7266 16.0645-88.6719 16.0645-76.8555L16.0645-60.3516C16.0645-58.2031 17.2363-56.9824 19.3848-56.9824ZM41.7969-29.2969L71.8262-29.248L71.8262 0.439453C71.8262 3.51562 73.3887 5.27344 75.9277 5.27344C77.6855 5.27344 79.2969 4.10156 80.3223 1.80664L109.57-60.6445C110.059-61.7188 110.4-62.8418 110.4-63.7207C110.4-66.0645 108.691-67.7734 106.348-67.7734C105.371-67.7734 104.297-67.4316 103.271-66.9922L40.4785-37.6953C38.4277-36.7188 37.2559-35.1562 37.2559-33.3984C37.2559-30.8594 38.916-29.2969 41.7969-29.2969ZM34.0332 24.4629L50.5859 24.4629C52.7344 24.4629 53.9551 23.291 53.9551 21.1426C53.9551 18.9941 52.7344 17.8223 50.5859 17.8223L34.1797 17.8223C26.709 17.8223 22.7051 13.8672 22.7051 6.25L22.7051-9.91211C22.7051-12.1094 21.4844-13.3301 19.3848-13.3301C17.2363-13.3301 16.0645-12.1094 16.0645-9.91211L16.0645 6.5918C16.0645 18.4082 22.168 24.4629 34.0332 24.4629ZM100.732 24.4629L117.285 24.4629C129.15 24.4629 135.254 18.3105 135.254 6.5918L135.254-9.91211C135.254-12.1094 134.082-13.3301 131.934-13.3301C129.785-13.3301 128.613-12.1094 128.613-9.91211L128.613 6.25C128.613 13.8672 124.414 17.8223 117.09 17.8223L100.732 17.8223C98.584 17.8223 97.3633 18.9941 97.3633 21.1426C97.3633 23.291 98.584 24.4629 100.732 24.4629Z"/>
  </g>
  <g id="Thin-L" transform="matrix(1 0 0 1 782.35 1556)">
   <path d="M130.127-57.1289C131.396-57.1289 132.08-57.8613 132.08-59.1309L132.08-76.5137C132.08-87.2559 126.318-93.1152 115.479-93.1152L98.0957-93.1152C96.7773-93.1152 96.0449-92.4316 96.0449-91.1621C96.0449-89.8926 96.7773-89.209 98.0957-89.209L115.283-89.209C123.438-89.209 128.125-84.8145 128.125-76.3184L128.125-59.1309C128.125-57.8613 128.809-57.1289 130.127-57.1289ZM18.0176-57.1289C19.2871-57.1289 19.9707-57.8613 19.9707-59.1309L19.9707-76.3184C19.9707-84.8145 24.4141-89.209 32.8125-89.209L50.0488-89.209C51.3184-89.209 52.0996-89.8926 52.0996-91.1621C52.0996-92.4316 51.3184-93.1152 50.0488-93.1152L32.666-93.1152C21.7773-93.1152 16.0645-87.4023 16.0645-76.5137L16.0645-59.1309C16.0645-57.8613 16.748-57.1289 18.0176-57.1289ZM40.1855-30.127L71.875-30.0781L71.875 1.51367C71.875 3.51562 73.0957 4.83398 74.707 4.83398C75.9277 4.83398 77.0996 4.05273 77.7344 2.58789L107.91-61.5723C108.252-62.3047 108.496-63.0859 108.496-63.7207C108.496-65.4297 107.324-66.6016 105.566-66.6016C104.834-66.6016 104.053-66.3574 103.418-66.0645L39.1113-35.8887C37.7441-35.2539 36.9141-34.082 36.9141-32.959C36.9141-31.3477 38.1836-30.127 40.1855-30.127ZM32.666 22.9004L50.0488 22.9004C51.3184 22.9004 52.0996 22.2168 52.0996 20.8984C52.0996 19.6289 51.3184 18.9453 50.0488 18.9453L32.8125 18.9453C24.4141 18.9453 19.9707 14.5508 19.9707 6.10352L19.9707-11.084C19.9707-12.3535 19.2871-13.1348 18.0176-13.1348C16.748-13.1348 16.0645-12.3535 16.0645-11.084L16.0645 6.29883C16.0645 17.1875 21.7773 22.9004 32.666 22.9004ZM98.0957 22.9004L115.479 22.9004C126.318 22.9004 132.08 17.041 132.08 6.29883L132.08-11.084C132.08-12.3535 131.396-13.1348 130.127-13.1348C128.809-13.1348 128.125-12.3535 128.125-11.084L128.125 6.10352C128.125 14.5508 123.438 18.9453 115.283 18.9453L98.0957 18.9453C96.7773 18.9453 96.0449 19.6289 96.0449 20.8984C96.0449 22.2168 96.7773 22.9004 98.0957 22.9004Z"/>
  </g>
  <g id="Ultralight-L" transform="matrix(1 0 0 1 486.469 1556)">
   <path d="M129.15-57.1777C129.98-57.1777 130.42-57.7148 130.42-58.5449L130.42-76.3672C130.42-86.5723 124.902-92.2852 114.551-92.2852L96.7285-92.2852C95.8984-92.2852 95.3613-91.8457 95.3613-91.0156C95.3613-90.1855 95.8984-89.7461 96.7285-89.7461L114.355-89.7461C122.949-89.7461 127.881-85.1074 127.881-76.2207L127.881-58.5449C127.881-57.7148 128.32-57.1777 129.15-57.1777ZM17.334-57.1777C18.1641-57.1777 18.6035-57.7148 18.6035-58.5449L18.6035-76.2207C18.6035-85.1074 23.1934-89.7461 32.1289-89.7461L49.8047-89.7461C50.6348-89.7461 51.1719-90.1855 51.1719-91.0156C51.1719-91.8457 50.6348-92.2852 49.8047-92.2852L31.9824-92.2852C21.582-92.2852 16.0645-86.7676 16.0645-76.3672L16.0645-58.5449C16.0645-57.7148 16.5039-57.1777 17.334-57.1777ZM39.3555-30.5664L71.9238-30.4688L71.9238 2.05078C71.9238 3.51562 72.9492 4.58984 74.1211 4.58984C75 4.58984 75.9277 4.05273 76.416 2.97852L107.031-62.0117C107.324-62.5977 107.568-63.2324 107.568-63.7207C107.568-65.0879 106.641-66.0156 105.176-66.0156C104.59-66.0156 103.955-65.8203 103.467-65.625L38.4277-35.0098C37.4023-34.5215 36.7676-33.5449 36.7676-32.7637C36.7676-31.5918 37.793-30.5664 39.3555-30.5664ZM31.9824 22.0703L49.8047 22.0703C50.6348 22.0703 51.1719 21.6309 51.1719 20.8008C51.1719 19.9707 50.6348 19.5312 49.8047 19.5312L32.1289 19.5312C23.1934 19.5312 18.6035 14.9414 18.6035 6.00586L18.6035-11.6699C18.6035-12.5 18.1641-13.0371 17.334-13.0371C16.5039-13.0371 16.0645-12.5 16.0645-11.6699L16.0645 6.15234C16.0645 16.5527 21.582 22.0703 31.9824 22.0703ZM96.7285 22.0703L114.551 22.0703C124.902 22.0703 130.42 16.3574 130.42 6.15234L130.42-11.6699C130.42-12.5 129.98-13.0371 129.15-13.0371C128.32-13.0371 127.881-12.5 127.881-11.6699L127.881 6.00586C127.881 14.9414 122.949 19.5312 114.355 19.5312L96.7285 19.5312C95.8984 19.5312 95.3613 19.9707 95.3613 20.8008C95.3613 21.6309 95.8984 22.0703 96.7285 22.0703Z"/>
  </g>
  <g id="Black-M" transform="matrix(1 0 0 1 2869.73 1126)">
   <path d="M105.762-46.2402C111.67-46.2402 114.893-49.4141 114.893-55.4199L114.893-66.8945C114.893-79.1504 107.617-86.4258 95.3613-86.4258L83.9355-86.4258C77.9297-86.4258 74.707-83.2031 74.707-77.2949C74.707-71.3379 77.9785-68.1641 83.9355-68.1641L92.4316-68.1641C95.2637-68.1641 96.6309-67.041 96.6309-63.9648L96.6309-55.4199C96.6309-49.4141 99.8535-46.2402 105.762-46.2402ZM21.582-46.2402C27.5391-46.2402 30.7617-49.5117 30.7617-55.4199L30.7617-63.9648C30.7617-67.041 32.0801-68.1641 34.9121-68.1641L43.457-68.1641C49.4141-68.1641 52.6367-71.3379 52.6367-77.2949C52.6367-83.2031 49.4141-86.4258 43.457-86.4258L31.9824-86.4258C19.7266-86.4258 12.4512-79.1504 12.4512-66.8945L12.4512-55.4199C12.4512-49.4141 15.6738-46.2402 21.582-46.2402ZM41.5039-27.7344L57.2754-27.7344L57.2754-11.7676C57.2754-7.71484 59.5703-5.27344 63.4766-5.27344C66.2598-5.27344 68.75-6.98242 70.0195-9.86328L87.2559-47.9492C88.1348-50 88.5742-51.5625 88.5742-52.9297C88.5742-56.2988 85.8398-58.9844 82.4219-58.9844C81.0547-58.9844 79.4434-58.5449 77.4902-57.666L38.8672-40.2344C36.084-39.0137 34.8145-36.5234 34.8145-34.082C34.8145-30.8105 37.0605-27.7344 41.5039-27.7344ZM31.9824 16.0156L43.457 16.0156C49.4141 16.0156 52.6367 12.793 52.6367 6.88477C52.6367 0.976562 49.3652-2.24609 43.457-2.24609L34.9121-2.24609C32.0801-2.24609 30.7617-3.36914 30.7617-6.44531L30.7617-14.9902C30.7617-20.9473 27.5391-24.1699 21.582-24.1699C15.6738-24.1699 12.4512-20.9473 12.4512-14.9902L12.4512-3.51562C12.4512 8.74023 19.7266 16.0156 31.9824 16.0156ZM83.9355 16.0156L95.3613 16.0156C107.617 16.0156 114.893 8.74023 114.893-3.51562L114.893-14.9902C114.893-20.9473 111.719-24.1699 105.762-24.1699C99.8535-24.1699 96.6309-20.8984 96.6309-14.9902L96.6309-6.44531C96.6309-3.36914 95.2637-2.24609 92.4316-2.24609L83.9355-2.24609C77.9297-2.24609 74.707 0.976562 74.707 6.88477C74.707 12.793 77.9297 16.0156 83.9355 16.0156Z"/>
  </g>
  <g id="Heavy-M" transform="matrix(1 0 0 1 2573.82 1126)">
   <path d="M105.371-47.5586C110.498-47.5586 113.281-50.3418 113.281-55.5176L113.281-67.1387C113.281-78.8574 106.543-85.5957 94.7754-85.5957L83.1543-85.5957C77.9785-85.5957 75.1953-82.8125 75.1953-77.6855C75.1953-72.5586 78.0273-69.7754 83.1543-69.7754L92.4805-69.7754C95.8008-69.7754 97.4609-68.3594 97.4609-64.7949L97.4609-55.5176C97.4609-50.3418 100.244-47.5586 105.371-47.5586ZM20.3613-47.5586C25.4883-47.5586 28.2715-50.3906 28.2715-55.5176L28.2715-64.7949C28.2715-68.3594 29.9316-69.7754 33.252-69.7754L42.5781-69.7754C47.7539-69.7754 50.5371-72.5586 50.5371-77.6855C50.5371-82.8125 47.7539-85.5957 42.5781-85.5957L31.0059-85.5957C19.2383-85.5957 12.4512-78.8574 12.4512-67.1387L12.4512-55.5176C12.4512-50.3418 15.2344-47.5586 20.3613-47.5586ZM39.7461-28.2227L56.8848-28.2227L56.8848-11.0352C56.8848-7.12891 59.0332-4.83398 62.6465-4.83398C65.2832-4.83398 67.5293-6.44531 68.7988-9.27734L87.1094-49.4141C87.8906-51.2207 88.3301-52.6855 88.3301-53.9551C88.3301-57.1289 85.791-59.6191 82.6172-59.6191C81.3477-59.6191 79.834-59.1797 78.0762-58.3984L37.4023-39.9414C34.7656-38.7207 33.4961-36.4258 33.4961-34.082C33.4961-30.957 35.5957-28.2227 39.7461-28.2227ZM31.0059 15.2344L42.5781 15.2344C47.7539 15.2344 50.5371 12.4512 50.5371 7.32422C50.5371 2.19727 47.7051-0.585938 42.5781-0.585938L33.252-0.585938C29.9316-0.585938 28.2715-2.05078 28.2715-5.61523L28.2715-14.8438C28.2715-20.0195 25.4883-22.8027 20.3613-22.8027C15.2344-22.8027 12.4512-20.0195 12.4512-14.8438L12.4512-3.27148C12.4512 8.49609 19.2383 15.2344 31.0059 15.2344ZM83.1543 15.2344L94.7754 15.2344C106.543 15.2344 113.281 8.44727 113.281-3.27148L113.281-14.8438C113.281-20.0195 110.498-22.8027 105.371-22.8027C100.244-22.8027 97.4609-19.9707 97.4609-14.8438L97.4609-5.61523C97.4609-2.05078 95.8008-0.585938 92.4805-0.585938L83.1543-0.585938C77.9785-0.585938 75.1953 2.19727 75.1953 7.32422C75.1953 12.4512 77.9785 15.2344 83.1543 15.2344Z"/>
  </g>
  <g id="Bold-M" transform="matrix(1 0 0 1 2278.01 1126)">
   <path d="M104.932-49.0723C109.18-49.0723 111.475-51.3672 111.475-55.6641L111.475-67.3828C111.475-78.5156 105.273-84.7168 94.043-84.7168L82.3242-84.7168C78.0762-84.7168 75.7324-82.373 75.7324-78.1738C75.7324-73.9258 78.0762-71.6309 82.3242-71.6309L92.5293-71.6309C96.3379-71.6309 98.3887-69.7754 98.3887-65.7227L98.3887-55.6641C98.3887-51.3672 100.732-49.0723 104.932-49.0723ZM18.9941-49.0723C23.2422-49.0723 25.5371-51.416 25.5371-55.6641L25.5371-65.7227C25.5371-69.7754 27.5391-71.6309 31.3965-71.6309L41.6016-71.6309C45.8496-71.6309 48.1934-73.9258 48.1934-78.1738C48.1934-82.373 45.8496-84.7168 41.6016-84.7168L29.8828-84.7168C18.6523-84.7168 12.4512-78.5645 12.4512-67.3828L12.4512-55.6641C12.4512-51.3672 14.7461-49.0723 18.9941-49.0723ZM37.7441-28.7598L56.4453-28.7598L56.4453-10.2051C56.4453-6.44531 58.3984-4.29688 61.7676-4.29688C64.1602-4.29688 66.2109-5.81055 67.4805-8.59375L86.9141-50.9766C87.6465-52.5879 88.0371-53.9551 88.0371-55.127C88.0371-58.0566 85.7422-60.3027 82.8125-60.3027C81.6406-60.3027 80.2246-59.9121 78.6621-59.2285L35.791-39.5996C33.252-38.4277 31.9824-36.377 31.9824-34.1309C31.9824-31.1035 33.9844-28.7598 37.7441-28.7598ZM29.8828 14.3066L41.6016 14.3066C45.8496 14.3066 48.1934 12.0117 48.1934 7.76367C48.1934 3.56445 45.8496 1.26953 41.6016 1.26953L31.3965 1.26953C27.5391 1.26953 25.5371-0.585938 25.5371-4.6875L25.5371-14.6973C25.5371-18.9941 23.1934-21.2891 18.9941-21.2891C14.7461-21.2891 12.4512-18.9941 12.4512-14.6973L12.4512-3.02734C12.4512 8.1543 18.6523 14.3066 29.8828 14.3066ZM82.3242 14.3066L94.043 14.3066C105.273 14.3066 111.475 8.1543 111.475-3.02734L111.475-14.6973C111.475-18.9941 109.18-21.2891 104.932-21.2891C100.684-21.2891 98.3887-18.9453 98.3887-14.6973L98.3887-4.6875C98.3887-0.585938 96.3379 1.26953 92.5293 1.26953L82.3242 1.26953C78.0762 1.26953 75.7324 3.56445 75.7324 7.76367C75.7324 12.0117 78.0762 14.3066 82.3242 14.3066Z"/>
  </g>
  <g id="Semibold-M" transform="matrix(1 0 0 1 1981.94 1126)">
   <path d="M104.639-50.0977C108.252-50.0977 110.205-52.0996 110.205-55.7617L110.205-67.5293C110.205-78.3203 104.443-84.082 93.5547-84.082L81.7871-84.082C78.125-84.082 76.123-82.0801 76.123-78.4668C76.123-74.9023 78.125-72.9004 81.7871-72.9004L92.5293-72.9004C96.7285-72.9004 99.0723-70.752 99.0723-66.3574L99.0723-55.7617C99.0723-52.0996 101.025-50.0977 104.639-50.0977ZM18.0176-50.0977C21.6797-50.0977 23.6328-52.0996 23.6328-55.7617L23.6328-66.3574C23.6328-70.752 25.8789-72.9004 30.127-72.9004L40.918-72.9004C44.5801-72.9004 46.5332-74.9023 46.5332-78.4668C46.5332-82.0801 44.5801-84.082 40.918-84.082L29.1016-84.082C18.2617-84.082 12.4512-78.3203 12.4512-67.5293L12.4512-55.7617C12.4512-52.0996 14.4531-50.0977 18.0176-50.0977ZM36.4258-29.1504L56.1035-29.1016L56.1523-9.66797C56.1523-6.00586 57.959-3.95508 61.1328-3.95508C63.3789-3.95508 65.332-5.41992 66.5527-8.10547L86.8164-52.0996C87.4512-53.5645 87.8418-54.834 87.8418-55.9082C87.8418-58.6914 85.6934-60.791 82.959-60.791C81.8359-60.791 80.5176-60.4004 79.1016-59.7656L34.668-39.3555C32.2266-38.2324 30.957-36.3281 30.957-34.1797C30.957-31.2012 32.8613-29.1504 36.4258-29.1504ZM29.1016 13.7207L40.918 13.7207C44.5801 13.7207 46.5332 11.7188 46.5332 8.10547C46.5332 4.49219 44.5312 2.53906 40.918 2.53906L30.127 2.53906C25.8789 2.53906 23.6328 0.390625 23.6328-4.05273L23.6328-14.5996C23.6328-18.2617 21.6309-20.2637 18.0176-20.2637C14.4043-20.2637 12.4512-18.2617 12.4512-14.5996L12.4512-2.83203C12.4512 7.95898 18.2617 13.7207 29.1016 13.7207ZM81.7871 13.7207L93.5547 13.7207C104.443 13.7207 110.205 7.91016 110.205-2.83203L110.205-14.5996C110.205-18.2617 108.252-20.2637 104.639-20.2637C101.025-20.2637 99.0723-18.2617 99.0723-14.5996L99.0723-4.05273C99.0723 0.390625 96.7285 2.53906 92.5293 2.53906L81.7871 2.53906C78.125 2.53906 76.123 4.49219 76.123 8.10547C76.123 11.7188 78.125 13.7207 81.7871 13.7207Z"/>
  </g>
  <g id="Medium-M" transform="matrix(1 0 0 1 1685.69 1126)">
   <path d="M104.395-50.8789C107.568-50.8789 109.277-52.6367 109.277-55.8105L109.277-67.6758C109.277-78.125 103.809-83.5938 93.2129-83.5938L81.3477-83.5938C78.1738-83.5938 76.416-81.8848 76.416-78.7109C76.416-75.5859 78.1738-73.877 81.3477-73.877L92.5781-73.877C97.0215-73.877 99.5605-71.5332 99.5605-66.7969L99.5605-55.8105C99.5605-52.6367 101.27-50.8789 104.395-50.8789ZM17.334-50.8789C20.5078-50.8789 22.168-52.6367 22.168-55.8105L22.168-66.7969C22.168-71.5332 24.6582-73.877 29.1504-73.877L40.3809-73.877C43.5547-73.877 45.3125-75.5859 45.3125-78.7109C45.3125-81.8848 43.5547-83.5938 40.3809-83.5938L28.5156-83.5938C17.9688-83.5938 12.4512-78.1738 12.4512-67.6758L12.4512-55.8105C12.4512-52.6367 14.209-50.8789 17.334-50.8789ZM35.3516-29.4434L55.9082-29.3945L55.9082-9.22852C55.9082-5.66406 57.6172-3.71094 60.6934-3.71094C62.793-3.71094 64.6484-5.07812 65.8203-7.76367L86.7188-52.9297C87.3047-54.248 87.6953-55.4688 87.6953-56.543C87.6953-59.1309 85.6934-61.1328 83.0566-61.1328C81.9824-61.1328 80.7617-60.791 79.4434-60.2051L33.8379-39.1602C31.4453-38.0859 30.2246-36.2793 30.2246-34.1797C30.2246-31.25 31.9824-29.4434 35.3516-29.4434ZM28.5156 13.2324L40.3809 13.2324C43.5547 13.2324 45.3125 11.4746 45.3125 8.34961C45.3125 5.22461 43.5547 3.4668 40.3809 3.4668L29.1504 3.4668C24.6582 3.4668 22.168 1.17188 22.168-3.56445L22.168-14.5508C22.168-17.7246 20.459-19.4824 17.334-19.4824C14.1602-19.4824 12.4512-17.7246 12.4512-14.5508L12.4512-2.68555C12.4512 7.76367 17.9688 13.2324 28.5156 13.2324ZM81.3477 13.2324L93.2129 13.2324C103.809 13.2324 109.277 7.76367 109.277-2.68555L109.277-14.5508C109.277-17.7246 107.52-19.4824 104.395-19.4824C101.221-19.4824 99.5605-17.7246 99.5605-14.5508L99.5605-3.56445C99.5605 1.17188 97.0215 3.4668 92.5781 3.4668L81.3477 3.4668C78.1738 3.4668 76.416 5.22461 76.416 8.34961C76.416 11.4746 78.1738 13.2324 81.3477 13.2324Z"/>
  </g>
  <g id="Regular-M" transform="matrix(1 0 0 1 1389.59 1126)">
   <path d="M104.102-51.9043C106.689-51.9043 108.057-53.3691 108.057-55.9082L108.057-67.8711C108.057-77.9297 102.93-82.959 92.7246-82.959L80.7617-82.959C78.2227-82.959 76.8066-81.5918 76.8066-79.0527C76.8066-76.5137 78.2227-75.0977 80.7617-75.0977L92.5781-75.0977C97.4121-75.0977 100.195-72.5098 100.195-67.4316L100.195-55.9082C100.195-53.3691 101.611-51.9043 104.102-51.9043ZM16.3574-51.9043C18.9453-51.9043 20.3125-53.3691 20.3125-55.9082L20.3125-67.4316C20.3125-72.5098 22.998-75.0977 27.8809-75.0977L39.6973-75.0977C42.2852-75.0977 43.7012-76.5137 43.7012-79.0527C43.7012-81.5918 42.2852-82.959 39.6973-82.959L27.7832-82.959C17.5781-82.959 12.4512-77.9297 12.4512-67.8711L12.4512-55.9082C12.4512-53.3691 13.8672-51.9043 16.3574-51.9043ZM34.0332-29.7852L55.5664-29.7363L55.6152-8.69141C55.6152-5.22461 57.1777-3.36914 60.0586-3.36914C62.0605-3.36914 63.7207-4.6875 64.8926-7.27539L86.6211-54.0039C87.1582-55.2246 87.5-56.3477 87.5-57.3242C87.5-59.7656 85.6445-61.6211 83.1543-61.6211C82.1777-61.6211 81.0547-61.2793 79.8828-60.7422L32.7637-38.9648C30.4199-37.8906 29.1992-36.2305 29.1992-34.2285C29.1992-31.3477 30.9082-29.7852 34.0332-29.7852ZM27.7832 12.5977L39.6973 12.5977C42.2852 12.5977 43.7012 11.1816 43.7012 8.69141C43.7012 6.15234 42.2852 4.73633 39.6973 4.73633L27.8809 4.73633C22.998 4.73633 20.3125 2.14844 20.3125-2.92969L20.3125-14.4531C20.3125-17.041 18.8965-18.457 16.3574-18.457C13.8184-18.457 12.4512-17.041 12.4512-14.4531L12.4512-2.53906C12.4512 7.56836 17.5781 12.5977 27.7832 12.5977ZM80.7617 12.5977L92.7246 12.5977C102.93 12.5977 108.057 7.51953 108.057-2.53906L108.057-14.4531C108.057-17.041 106.641-18.457 104.102-18.457C101.562-18.457 100.195-17.041 100.195-14.4531L100.195-2.92969C100.195 2.14844 97.4121 4.73633 92.5781 4.73633L80.7617 4.73633C78.2227 4.73633 76.8066 6.15234 76.8066 8.69141C76.8066 11.1816 78.2227 12.5977 80.7617 12.5977Z"/>
  </g>
  <g id="Light-M" transform="matrix(1 0 0 1 1093.95 1126)">
   <path d="M102.881-52.002C104.834-52.002 105.908-53.125 105.908-55.0781L105.908-67.627C105.908-77.002 101.025-81.8848 91.5039-81.8848L78.9551-81.8848C77.002-81.8848 75.8789-80.8105 75.8789-78.8574C75.8789-76.9531 77.002-75.8301 78.9551-75.8301L91.3574-75.8301C96.7773-75.8301 99.8535-72.9492 99.8535-67.2852L99.8535-55.0781C99.8535-53.125 100.928-52.002 102.881-52.002ZM15.4785-52.002C17.4316-52.002 18.5059-53.125 18.5059-55.0781L18.5059-67.2852C18.5059-72.9492 21.4844-75.8301 26.9531-75.8301L39.3555-75.8301C41.3574-75.8301 42.4316-76.9531 42.4316-78.8574C42.4316-80.8105 41.3574-81.8848 39.3555-81.8848L26.8555-81.8848C17.334-81.8848 12.4512-77.0508 12.4512-67.627L12.4512-55.0781C12.4512-53.125 13.5254-52.002 15.4785-52.002ZM32.9102-30.3711L55.6152-30.3223L55.6641-7.95898C55.6641-5.22461 56.9824-3.66211 59.2285-3.66211C60.8398-3.66211 62.207-4.73633 63.1348-6.78711L85.498-54.6387C85.9375-55.5664 86.1816-56.543 86.1816-57.3242C86.1816-59.3262 84.7168-60.8398 82.666-60.8398C81.8359-60.8398 80.9082-60.5469 79.9805-60.1562L31.8359-37.7441C29.9805-36.8652 29.0039-35.5469 29.0039-33.9355C29.0039-31.6895 30.4199-30.3711 32.9102-30.3711ZM26.8555 11.5723L39.3555 11.5723C41.3574 11.5723 42.4316 10.4492 42.4316 8.54492C42.4316 6.5918 41.3574 5.51758 39.3555 5.51758L26.9531 5.51758C21.4844 5.51758 18.5059 2.58789 18.5059-3.02734L18.5059-15.2344C18.5059-17.1875 17.4316-18.3105 15.4785-18.3105C13.4766-18.3105 12.4512-17.1875 12.4512-15.2344L12.4512-2.73438C12.4512 6.73828 17.334 11.5723 26.8555 11.5723ZM78.9551 11.5723L91.5039 11.5723C101.025 11.5723 105.908 6.68945 105.908-2.73438L105.908-15.2344C105.908-17.1875 104.785-18.3105 102.881-18.3105C100.879-18.3105 99.8535-17.1875 99.8535-15.2344L99.8535-3.02734C99.8535 2.58789 96.7773 5.51758 91.3574 5.51758L78.9551 5.51758C77.002 5.51758 75.8789 6.5918 75.8789 8.54492C75.8789 10.4492 77.002 11.5723 78.9551 11.5723Z"/>
  </g>
  <g id="Thin-M" transform="matrix(1 0 0 1 798.683 1126)">
   <path d="M101.221-52.1484C102.393-52.1484 103.027-52.832 103.027-54.0039L103.027-67.334C103.027-75.8301 98.5352-80.4199 89.8926-80.4199L76.5625-80.4199C75.3906-80.4199 74.707-79.7852 74.707-78.6133C74.707-77.4414 75.3906-76.8066 76.5625-76.8066L89.7461-76.8066C95.8984-76.8066 99.4141-73.4863 99.4141-67.1387L99.4141-54.0039C99.4141-52.832 100.049-52.1484 101.221-52.1484ZM14.2578-52.1484C15.4297-52.1484 16.0645-52.832 16.0645-54.0039L16.0645-67.1387C16.0645-73.4863 19.3848-76.8066 25.7324-76.8066L38.916-76.8066C40.0879-76.8066 40.7715-77.4414 40.7715-78.6133C40.7715-79.7852 40.0879-80.4199 38.916-80.4199L25.6348-80.4199C16.9922-80.4199 12.4512-75.9277 12.4512-67.334L12.4512-54.0039C12.4512-52.832 13.0859-52.1484 14.2578-52.1484ZM31.4941-31.1035L55.7129-31.0547L55.7129-6.98242C55.7129-5.22461 56.7383-4.10156 58.1543-4.10156C59.2285-4.10156 60.2051-4.78516 60.8398-6.10352L83.9844-55.4688C84.2773-56.1035 84.5215-56.7871 84.5215-57.3242C84.5215-58.7891 83.4961-59.8145 81.9824-59.8145C81.3965-59.8145 80.7129-59.5703 80.127-59.3262L30.6152-36.1328C29.3945-35.5469 28.7109-34.5703 28.7109-33.5449C28.7109-32.1289 29.7363-31.1035 31.4941-31.1035ZM25.6348 10.1562L38.916 10.1562C40.0879 10.1562 40.7715 9.52148 40.7715 8.34961C40.7715 7.17773 40.0879 6.54297 38.916 6.54297L25.7324 6.54297C19.3848 6.54297 16.0645 3.22266 16.0645-3.17383L16.0645-16.2598C16.0645-17.4316 15.4297-18.1641 14.2578-18.1641C13.0859-18.1641 12.4512-17.4316 12.4512-16.2598L12.4512-2.97852C12.4512 5.66406 16.9922 10.1562 25.6348 10.1562ZM76.5625 10.1562L89.8926 10.1562C98.5352 10.1562 103.027 5.51758 103.027-2.97852L103.027-16.2598C103.027-17.4316 102.393-18.1641 101.221-18.1641C100.049-18.1641 99.4141-17.4316 99.4141-16.2598L99.4141-3.17383C99.4141 3.22266 95.8984 6.54297 89.7461 6.54297L76.5625 6.54297C75.3906 6.54297 74.707 7.17773 74.707 8.34961C74.707 9.52148 75.3906 10.1562 76.5625 10.1562Z"/>
  </g>
  <g id="Ultralight-M" transform="matrix(1 0 0 1 502.704 1126)">
   <path d="M100.391-52.1973C101.172-52.1973 101.562-52.6855 101.562-53.4668L101.562-67.1387C101.562-75.2441 97.2168-79.6875 89.0625-79.6875L75.3418-79.6875C74.5605-79.6875 74.1211-79.2969 74.1211-78.5156C74.1211-77.7344 74.5605-77.2949 75.3418-77.2949L88.916-77.2949C95.4102-77.2949 99.1699-73.7793 99.1699-67.041L99.1699-53.4668C99.1699-52.6855 99.6094-52.1973 100.391-52.1973ZM13.623-52.1973C14.4043-52.1973 14.8438-52.6855 14.8438-53.4668L14.8438-67.041C14.8438-73.7793 18.3594-77.2949 25.0977-77.2949L38.6719-77.2949C39.4531-77.2949 39.9414-77.7344 39.9414-78.5156C39.9414-79.2969 39.4531-79.6875 38.6719-79.6875L25-79.6875C16.7969-79.6875 12.4512-75.3418 12.4512-67.1387L12.4512-53.4668C12.4512-52.6855 12.8906-52.1973 13.623-52.1973ZM30.7617-31.4941L55.7617-31.4453L55.7129-6.49414C55.7129-5.22461 56.5918-4.29688 57.6172-4.29688C58.3984-4.29688 59.2285-4.78516 59.6191-5.76172L83.2031-55.8594C83.4473-56.3477 83.6426-56.8848 83.6426-57.3242C83.6426-58.4961 82.8613-59.2773 81.6406-59.2773C81.1523-59.2773 80.6152-59.082 80.1758-58.8867L30.0293-35.3027C29.1016-34.9121 28.5645-34.082 28.5645-33.3984C28.5645-32.373 29.3945-31.4941 30.7617-31.4941ZM25 9.42383L38.6719 9.42383C39.4531 9.42383 39.9414 9.0332 39.9414 8.25195C39.9414 7.4707 39.4531 7.03125 38.6719 7.03125L25.0977 7.03125C18.3594 7.03125 14.8438 3.51562 14.8438-3.22266L14.8438-16.7969C14.8438-17.5781 14.4043-18.0664 13.623-18.0664C12.8906-18.0664 12.4512-17.5781 12.4512-16.7969L12.4512-3.125C12.4512 5.07812 16.7969 9.42383 25 9.42383ZM75.3418 9.42383L89.0625 9.42383C97.2168 9.42383 101.562 4.93164 101.562-3.125L101.562-16.7969C101.562-17.5781 101.172-18.0664 100.391-18.0664C99.6094-18.0664 99.1699-17.5781 99.1699-16.7969L99.1699-3.22266C99.1699 3.51562 95.4102 7.03125 88.916 7.03125L75.3418 7.03125C74.5605 7.03125 74.1211 7.4707 74.1211 8.25195C74.1211 9.0332 74.5605 9.42383 75.3418 9.42383Z"/>
  </g>
  <g id="Black-S" transform="matrix(1 0 0 1 2883.55 696)">
   <path d="M82.8613-43.9453C87.4512-43.9453 89.9414-46.4355 89.9414-51.0742L89.9414-60.0586C89.9414-69.6289 84.2773-75.293 74.707-75.293L65.7227-75.293C61.084-75.293 58.5938-72.8027 58.5938-68.2129C58.5938-63.623 61.1328-61.1328 65.7227-61.1328L72.4609-61.1328C74.707-61.1328 75.7812-60.2539 75.7812-57.8125L75.7812-51.0742C75.7812-46.4355 78.2715-43.9453 82.8613-43.9453ZM16.8457-43.9453C21.4355-43.9453 23.9258-46.4844 23.9258-51.0742L23.9258-57.8125C23.9258-60.2539 25-61.1328 27.2461-61.1328L33.9844-61.1328C38.623-61.1328 41.1133-63.623 41.1133-68.2129C41.1133-72.8027 38.623-75.293 33.9844-75.293L25-75.293C15.4297-75.293 9.76562-69.6289 9.76562-60.0586L9.76562-51.0742C9.76562-46.4355 12.2559-43.9453 16.8457-43.9453ZM32.373-29.3945L44.8242-29.3945L44.8242-16.7969C44.8242-13.623 46.6309-11.7188 49.6582-11.7188C51.8555-11.7188 53.7598-13.0371 54.7852-15.332L68.3594-45.3125C69.043-46.875 69.3848-48.0957 69.3848-49.1699C69.3848-51.8066 67.2363-53.9062 64.5996-53.9062C63.5254-53.9062 62.2559-53.5645 60.7422-52.8809L30.3223-39.1602C28.1738-38.1836 27.1484-36.2305 27.1484-34.3262C27.1484-31.7871 28.9062-29.3945 32.373-29.3945ZM25 4.88281L33.9844 4.88281C38.623 4.88281 41.1133 2.39258 41.1133-2.19727C41.1133-6.78711 38.5742-9.27734 33.9844-9.27734L27.2461-9.27734C25-9.27734 23.9258-10.1562 23.9258-12.5977L23.9258-19.3359C23.9258-23.9746 21.4355-26.4648 16.8457-26.4648C12.2559-26.4648 9.76562-23.9746 9.76562-19.3359L9.76562-10.3516C9.76562-0.78125 15.4297 4.88281 25 4.88281ZM65.7227 4.88281L74.707 4.88281C84.2773 4.88281 89.9414-0.78125 89.9414-10.3516L89.9414-19.3359C89.9414-23.9746 87.4512-26.4648 82.8613-26.4648C78.2715-26.4648 75.7812-23.9258 75.7812-19.3359L75.7812-12.5977C75.7812-10.1562 74.707-9.27734 72.4609-9.27734L65.7227-9.27734C61.084-9.27734 58.5938-6.78711 58.5938-2.19727C58.5938 2.39258 61.084 4.88281 65.7227 4.88281Z"/>
  </g>
  <g id="Heavy-S" transform="matrix(1 0 0 1 2587.32 696)">
   <path d="M82.7148-44.9707C86.7676-44.9707 88.9648-47.168 88.9648-51.2695L88.9648-60.2539C88.9648-69.4824 83.6426-74.8047 74.3652-74.8047L65.3809-74.8047C61.2793-74.8047 59.082-72.6074 59.082-68.5547C59.082-64.502 61.3281-62.3047 65.3809-62.3047L72.6074-62.3047C75.1465-62.3047 76.4648-61.1816 76.4648-58.4473L76.4648-51.2695C76.4648-47.168 78.6621-44.9707 82.7148-44.9707ZM16.0156-44.9707C20.0684-44.9707 22.2656-47.2168 22.2656-51.2695L22.2656-58.4473C22.2656-61.1816 23.5352-62.3047 26.0742-62.3047L33.3496-62.3047C37.4512-62.3047 39.6484-64.502 39.6484-68.5547C39.6484-72.6074 37.4512-74.8047 33.3496-74.8047L24.3652-74.8047C15.0879-74.8047 9.76562-69.4824 9.76562-60.2539L9.76562-51.2695C9.76562-47.168 11.9629-44.9707 16.0156-44.9707ZM31.1523-29.6875L44.5312-29.6875L44.5312-16.3086C44.5312-13.1836 46.2402-11.3281 49.1211-11.3281C51.2207-11.3281 53.0273-12.6465 54.0527-14.9414L68.3594-46.3379C68.9941-47.7539 69.3359-48.9258 69.3359-49.9512C69.3359-52.4902 67.2852-54.4434 64.7949-54.4434C63.7695-54.4434 62.5488-54.1504 61.1816-53.5156L29.2969-39.0625C27.1973-38.0859 26.1719-36.2793 26.1719-34.375C26.1719-31.8359 27.832-29.6875 31.1523-29.6875ZM24.3652 4.39453L33.3496 4.39453C37.4512 4.39453 39.6484 2.19727 39.6484-1.85547C39.6484-5.9082 37.4023-8.10547 33.3496-8.10547L26.0742-8.10547C23.5352-8.10547 22.2656-9.22852 22.2656-11.9629L22.2656-19.1406C22.2656-23.2422 20.0684-25.4395 16.0156-25.4395C11.9629-25.4395 9.76562-23.2422 9.76562-19.1406L9.76562-10.1562C9.76562-0.927734 15.0879 4.39453 24.3652 4.39453ZM65.3809 4.39453L74.3652 4.39453C83.6426 4.39453 88.9648-0.927734 88.9648-10.1562L88.9648-19.1406C88.9648-23.2422 86.7188-25.4395 82.7148-25.4395C78.6621-25.4395 76.4648-23.1934 76.4648-19.1406L76.4648-11.9629C76.4648-9.22852 75.1465-8.10547 72.6074-8.10547L65.3809-8.10547C61.2793-8.10547 59.082-5.9082 59.082-1.85547C59.082 2.19727 61.2793 4.39453 65.3809 4.39453Z"/>
  </g>
  <g id="Bold-S" transform="matrix(1 0 0 1 2291.17 696)">
   <path d="M82.5195-46.0938C85.9863-46.0938 87.8418-47.998 87.8418-51.4648L87.8418-60.498C87.8418-69.3848 82.9102-74.2188 73.9746-74.2188L64.9414-74.2188C61.4746-74.2188 59.6191-72.3633 59.6191-68.9453C59.6191-65.5273 61.5234-63.623 64.9414-63.623L72.8027-63.623C75.6836-63.623 77.1973-62.2559 77.1973-59.1797L77.1973-51.4648C77.1973-47.998 79.1016-46.0938 82.5195-46.0938ZM15.0879-46.0938C18.5059-46.0938 20.3613-47.998 20.3613-51.4648L20.3613-59.1797C20.3613-62.2559 21.9238-63.623 24.8047-63.623L32.6172-63.623C36.1328-63.623 37.9883-65.5273 37.9883-68.9453C37.9883-72.3633 36.1328-74.2188 32.6172-74.2188L23.6328-74.2188C14.6973-74.2188 9.76562-69.3848 9.76562-60.498L9.76562-51.4648C9.76562-47.998 11.6211-46.0938 15.0879-46.0938ZM29.7852-30.0293L44.1895-30.0293L44.1895-15.7715C44.1895-12.6953 45.752-10.9375 48.5352-10.9375C50.5371-10.9375 52.1973-12.1582 53.2227-14.4531L68.3594-47.4609C68.9453-48.7793 69.2383-49.9023 69.2383-50.8789C69.2383-53.2227 67.3828-55.0781 64.9902-55.0781C64.0137-55.0781 62.8906-54.7852 61.6211-54.1992L28.2227-38.9648C26.123-37.9883 25.0488-36.2793 25.0488-34.4727C25.0488-31.9336 26.6602-30.0293 29.7852-30.0293ZM23.6328 3.80859L32.6172 3.80859C36.1328 3.80859 37.9883 1.95312 37.9883-1.46484C37.9883-4.88281 36.084-6.78711 32.6172-6.78711L24.8047-6.78711C21.9238-6.78711 20.3613-8.1543 20.3613-11.2305L20.3613-18.9453C20.3613-22.4121 18.5059-24.3164 15.0879-24.3164C11.6211-24.3164 9.76562-22.4121 9.76562-18.9453L9.76562-9.91211C9.76562-1.02539 14.6973 3.80859 23.6328 3.80859ZM64.9414 3.80859L73.9746 3.80859C82.9102 3.80859 87.8418-1.02539 87.8418-9.91211L87.8418-18.9453C87.8418-22.4121 85.9375-24.3164 82.5195-24.3164C79.0527-24.3164 77.1973-22.4121 77.1973-18.9453L77.1973-11.2305C77.1973-8.1543 75.6836-6.78711 72.8027-6.78711L64.9414-6.78711C61.4746-6.78711 59.6191-4.88281 59.6191-1.46484C59.6191 1.95312 61.4746 3.80859 64.9414 3.80859Z"/>
  </g>
  <g id="Semibold-S" transform="matrix(1 0 0 1 1994.85 696)">
   <path d="M82.373-46.875C85.4492-46.875 87.0605-48.5352 87.0605-51.6113L87.0605-60.6445C87.0605-69.2871 82.4219-73.8281 73.7305-73.8281L64.6484-73.8281C61.6211-73.8281 59.9609-72.168 59.9609-69.1895C59.9609-66.2109 61.6211-64.5508 64.6484-64.5508L72.9492-64.5508C76.0254-64.5508 77.7344-62.9395 77.7344-59.668L77.7344-51.6113C77.7344-48.5352 79.3945-46.875 82.373-46.875ZM14.4043-46.875C17.4316-46.875 19.0918-48.5352 19.0918-51.6113L19.0918-59.668C19.0918-62.9395 20.752-64.5508 23.877-64.5508L32.1289-64.5508C35.2051-64.5508 36.8652-66.2109 36.8652-69.1895C36.8652-72.168 35.2051-73.8281 32.1289-73.8281L23.0957-73.8281C14.4043-73.8281 9.76562-69.2871 9.76562-60.6445L9.76562-51.6113C9.76562-48.5352 11.4258-46.875 14.4043-46.875ZM28.8086-30.2734L43.9453-30.2734L43.9453-15.4297C43.9453-12.3047 45.459-10.5957 48.1445-10.5957C50.0488-10.5957 51.6113-11.8652 52.6855-14.1602L68.3594-48.291C68.8965-49.4629 69.2383-50.5371 69.2383-51.4648C69.2383-53.7598 67.4316-55.5176 65.1367-55.5176C64.209-55.5176 63.1348-55.2246 61.9629-54.6875L27.4414-38.8672C25.3418-37.8906 24.3164-36.3281 24.3164-34.4727C24.3164-31.9336 25.8789-30.2734 28.8086-30.2734ZM23.0957 3.41797L32.1289 3.41797C35.2051 3.41797 36.8652 1.80664 36.8652-1.2207C36.8652-4.19922 35.1562-5.85938 32.1289-5.85938L23.877-5.85938C20.752-5.85938 19.0918-7.42188 19.0918-10.7422L19.0918-18.7988C19.0918-21.875 17.4316-23.5352 14.4043-23.5352C11.377-23.5352 9.76562-21.875 9.76562-18.7988L9.76562-9.76562C9.76562-1.12305 14.4043 3.41797 23.0957 3.41797ZM64.6484 3.41797L73.7305 3.41797C82.4219 3.41797 87.0605-1.12305 87.0605-9.76562L87.0605-18.7988C87.0605-21.875 85.4004-23.5352 82.373-23.5352C79.3457-23.5352 77.7344-21.8262 77.7344-18.7988L77.7344-10.7422C77.7344-7.42188 76.0254-5.85938 72.9492-5.85938L64.6484-5.85938C61.6211-5.85938 59.9609-4.19922 59.9609-1.2207C59.9609 1.80664 61.6211 3.41797 64.6484 3.41797Z"/>
  </g>
  <g id="Medium-S" transform="matrix(1 0 0 1 1698.44 696)">
   <path d="M82.3242-47.4609C85.0098-47.4609 86.4746-48.9746 86.4746-51.709L86.4746-60.7422C86.4746-69.1895 82.0801-73.5352 73.4863-73.5352L64.4531-73.5352C61.7188-73.5352 60.2539-72.0703 60.2539-69.3848C60.2539-66.6992 61.7188-65.2344 64.4531-65.2344L73.0469-65.2344C76.3184-65.2344 78.125-63.5254 78.125-60.0586L78.125-51.709C78.125-48.9746 79.6387-47.4609 82.3242-47.4609ZM13.916-47.4609C16.6504-47.4609 18.0664-48.9746 18.0664-51.709L18.0664-60.0586C18.0664-63.5254 19.9219-65.2344 23.1934-65.2344L31.7871-65.2344C34.5215-65.2344 35.9863-66.6992 35.9863-69.3848C35.9863-72.0703 34.5215-73.5352 31.7871-73.5352L22.7051-73.5352C14.209-73.5352 9.76562-69.1895 9.76562-60.7422L9.76562-51.709C9.76562-48.9746 11.2305-47.4609 13.916-47.4609ZM28.125-30.4688L43.75-30.4199L43.7988-15.1367C43.7988-12.0605 45.2148-10.4004 47.8516-10.4004C49.6582-10.4004 51.2207-11.6211 52.2461-13.916L68.3594-48.877C68.8965-50 69.1895-51.0254 69.1895-51.9531C69.1895-54.1504 67.4805-55.8594 65.2344-55.8594C64.3555-55.8594 63.3301-55.5664 62.207-55.0293L26.8555-38.8184C24.8047-37.8418 23.7305-36.3281 23.7305-34.5215C23.7305-31.9824 25.2441-30.4688 28.125-30.4688ZM22.7051 3.125L31.7871 3.125C34.5215 3.125 35.9863 1.66016 35.9863-1.02539C35.9863-3.71094 34.4727-5.17578 31.7871-5.17578L23.1934-5.17578C19.9219-5.17578 18.0664-6.88477 18.0664-10.3516L18.0664-18.7012C18.0664-21.4355 16.6016-22.9004 13.916-22.9004C11.2305-22.9004 9.76562-21.4355 9.76562-18.7012L9.76562-9.66797C9.76562-1.2207 14.209 3.125 22.7051 3.125ZM64.4531 3.125L73.4863 3.125C82.0801 3.125 86.4746-1.2207 86.4746-9.66797L86.4746-18.7012C86.4746-21.4355 84.9609-22.9004 82.3242-22.9004C79.5898-22.9004 78.125-21.4355 78.125-18.7012L78.125-10.3516C78.125-6.88477 76.3184-5.17578 73.0469-5.17578L64.4531-5.17578C61.7188-5.17578 60.2539-3.71094 60.2539-1.02539C60.2539 1.66016 61.7188 3.125 64.4531 3.125Z"/>
  </g>
  <g id="Regular-S" transform="matrix(1 0 0 1 1402.11 696)">
   <path d="M82.1777-48.2422C84.4727-48.2422 85.6934-49.5117 85.6934-51.8066L85.6934-60.8887C85.6934-69.0918 81.5918-73.1934 73.2422-73.1934L64.1602-73.1934C61.8652-73.1934 60.5957-71.9238 60.5957-69.6289C60.5957-67.3828 61.8652-66.1133 64.1602-66.1133L73.1445-66.1133C76.6602-66.1133 78.6621-64.209 78.6621-60.5469L78.6621-51.8066C78.6621-49.5117 79.9316-48.2422 82.1777-48.2422ZM13.2812-48.2422C15.5762-48.2422 16.7969-49.5117 16.7969-51.8066L16.7969-60.5469C16.7969-64.209 18.7988-66.1133 22.3145-66.1133L31.2988-66.1133C33.5938-66.1133 34.8633-67.3828 34.8633-69.6289C34.8633-71.9238 33.5938-73.1934 31.2988-73.1934L22.2168-73.1934C13.916-73.1934 9.76562-69.0918 9.76562-60.8887L9.76562-51.8066C9.76562-49.5117 11.0352-48.2422 13.2812-48.2422ZM27.1973-30.7129L43.5059-30.6641L43.5547-14.7949C43.5547-11.7188 44.873-10.1074 47.4121-10.1074C49.1699-10.1074 50.6348-11.2793 51.6602-13.5742L68.3594-49.6582C68.8477-50.6836 69.1406-51.709 69.1406-52.5391C69.1406-54.6875 67.5293-56.2988 65.3809-56.2988C64.5508-56.2988 63.5742-56.0059 62.5-55.5176L26.0742-38.7207C24.0723-37.793 22.9492-36.377 22.9492-34.5703C22.9492-32.0312 24.4141-30.7129 27.1973-30.7129ZM22.2168 2.7832L31.2988 2.7832C33.5938 2.7832 34.8633 1.51367 34.8633-0.732422C34.8633-3.02734 33.5938-4.29688 31.2988-4.29688L22.3145-4.29688C18.7988-4.29688 16.7969-6.20117 16.7969-9.86328L16.7969-18.5547C16.7969-20.8984 15.5273-22.168 13.2812-22.168C10.9863-22.168 9.76562-20.8984 9.76562-18.5547L9.76562-9.52148C9.76562-1.31836 13.916 2.7832 22.2168 2.7832ZM64.1602 2.7832L73.2422 2.7832C81.5918 2.7832 85.6934-1.31836 85.6934-9.52148L85.6934-18.5547C85.6934-20.8984 84.4238-22.168 82.1777-22.168C79.8828-22.168 78.6621-20.8984 78.6621-18.5547L78.6621-9.86328C78.6621-6.20117 76.6602-4.29688 73.1445-4.29688L64.1602-4.29688C61.8652-4.29688 60.5957-3.02734 60.5957-0.732422C60.5957 1.51367 61.8652 2.7832 64.1602 2.7832Z"/>
  </g>
  <g id="Light-S" transform="matrix(1 0 0 1 1106.36 696)">
   <path d="M81.1035-48.3398C82.8613-48.3398 83.7891-49.3164 83.7891-51.123L83.7891-60.6934C83.7891-68.3105 79.8828-72.2168 72.168-72.2168L62.5977-72.2168C60.791-72.2168 59.8145-71.2402 59.8145-69.4824C59.8145-67.7246 60.791-66.7969 62.5977-66.7969L72.0703-66.7969C76.0742-66.7969 78.3691-64.5996 78.3691-60.4004L78.3691-51.123C78.3691-49.3164 79.3457-48.3398 81.1035-48.3398ZM12.5-48.3398C14.2578-48.3398 15.1855-49.3164 15.1855-51.123L15.1855-60.4004C15.1855-64.5996 17.4316-66.7969 21.4844-66.7969L31.0059-66.7969C32.7637-66.7969 33.7402-67.7246 33.7402-69.4824C33.7402-71.2402 32.7637-72.2168 31.0059-72.2168L21.3867-72.2168C13.6719-72.2168 9.76562-68.3594 9.76562-60.6934L9.76562-51.123C9.76562-49.3164 10.7422-48.3398 12.5-48.3398ZM26.2207-31.2012L43.5547-31.1523L43.6035-14.1113C43.6035-11.7188 44.7266-10.4004 46.7285-10.4004C48.0957-10.4004 49.3164-11.3281 50.1465-13.1348L67.3828-50.1953C67.7734-51.0254 68.0176-51.8555 68.0176-52.5391C68.0176-54.2969 66.6992-55.5664 64.9414-55.5664C64.2578-55.5664 63.4277-55.3223 62.5977-54.9805L25.293-37.6465C23.6328-36.9141 22.7539-35.7422 22.7539-34.3262C22.7539-32.3242 23.9746-31.2012 26.2207-31.2012ZM21.3867 1.80664L31.0059 1.80664C32.7637 1.80664 33.7402 0.830078 33.7402-0.878906C33.7402-2.63672 32.7637-3.61328 31.0059-3.61328L21.4844-3.61328C17.4316-3.61328 15.1855-5.76172 15.1855-9.96094L15.1855-19.2871C15.1855-21.0449 14.209-22.0215 12.5-22.0215C10.6934-22.0215 9.76562-21.0449 9.76562-19.2871L9.76562-9.66797C9.76562-2.05078 13.6719 1.80664 21.3867 1.80664ZM62.5977 1.80664L72.168 1.80664C79.8828 1.80664 83.7891-2.05078 83.7891-9.66797L83.7891-19.2871C83.7891-21.0449 82.8125-22.0215 81.1035-22.0215C79.2969-22.0215 78.3691-21.0449 78.3691-19.2871L78.3691-9.96094C78.3691-5.76172 76.0742-3.61328 72.0703-3.61328L62.5977-3.61328C60.791-3.61328 59.8145-2.63672 59.8145-0.878906C59.8145 0.830078 60.791 1.80664 62.5977 1.80664Z"/>
  </g>
  <g id="Thin-S" transform="matrix(1 0 0 1 810.89 696)">
   <path d="M79.6387-48.4375C80.7129-48.4375 81.2988-49.0723 81.2988-50.1465L81.2988-60.4492C81.2988-67.2852 77.6855-70.9473 70.752-70.9473L60.4492-70.9473C59.375-70.9473 58.7891-70.3613 58.7891-69.2871C58.7891-68.2129 59.375-67.627 60.4492-67.627L70.6543-67.627C75.293-67.627 77.9785-65.0879 77.9785-60.2539L77.9785-50.1465C77.9785-49.0723 78.5645-48.4375 79.6387-48.4375ZM11.4258-48.4375C12.5-48.4375 13.0859-49.0723 13.0859-50.1465L13.0859-60.2539C13.0859-65.0879 15.625-67.627 20.4102-67.627L30.5664-67.627C31.6406-67.627 32.2754-68.2129 32.2754-69.2871C32.2754-70.3613 31.6406-70.9473 30.5664-70.9473L20.3125-70.9473C13.3789-70.9473 9.76562-67.334 9.76562-60.4492L9.76562-50.1465C9.76562-49.0723 10.3516-48.4375 11.4258-48.4375ZM24.9512-31.8359L43.6035-31.7871L43.6035-13.2812C43.6035-11.7188 44.4824-10.7422 45.752-10.7422C46.6797-10.7422 47.5586-11.3281 48.0957-12.5488L66.0645-50.9277C66.3574-51.4648 66.5039-52.0508 66.5039-52.5391C66.5039-53.8086 65.625-54.6875 64.3555-54.6875C63.8184-54.6875 63.2324-54.4922 62.6953-54.248L24.2188-36.2305C23.1445-35.7422 22.5098-34.9121 22.5098-33.9844C22.5098-32.7148 23.4375-31.8359 24.9512-31.8359ZM20.3125 0.585938L30.5664 0.585938C31.6406 0.585938 32.2754 0 32.2754-1.07422C32.2754-2.14844 31.6406-2.73438 30.5664-2.73438L20.4102-2.73438C15.625-2.73438 13.0859-5.22461 13.0859-10.0586L13.0859-20.166C13.0859-21.2402 12.5-21.875 11.4258-21.875C10.3516-21.875 9.76562-21.2402 9.76562-20.166L9.76562-9.91211C9.76562-2.97852 13.3789 0.585938 20.3125 0.585938ZM60.4492 0.585938L70.752 0.585938C77.6855 0.585938 81.2988-3.07617 81.2988-9.91211L81.2988-20.166C81.2988-21.2402 80.7129-21.875 79.6387-21.875C78.5645-21.875 77.9785-21.2402 77.9785-20.166L77.9785-10.0586C77.9785-5.22461 75.293-2.73438 70.6543-2.73438L60.4492-2.73438C59.375-2.73438 58.7891-2.14844 58.7891-1.07422C58.7891 0 59.375 0.585938 60.4492 0.585938Z"/>
  </g>
  <g id="Ultralight-S" transform="matrix(1 0 0 1 514.838 696)">
   <path d="M78.9062-48.5352C79.5898-48.5352 79.9805-48.9746 79.9805-49.6582L79.9805-60.3027C79.9805-66.748 76.5137-70.2637 69.9707-70.2637L59.375-70.2637C58.6426-70.2637 58.252-69.873 58.252-69.1895C58.252-68.457 58.6426-68.0664 59.375-68.0664L69.873-68.0664C74.9023-68.0664 77.7832-65.3809 77.7832-60.1562L77.7832-49.6582C77.7832-48.9746 78.1738-48.5352 78.9062-48.5352ZM10.8887-48.5352C11.5723-48.5352 11.9629-48.9746 11.9629-49.6582L11.9629-60.1562C11.9629-65.3809 14.6484-68.0664 19.873-68.0664L30.3711-68.0664C31.1035-68.0664 31.543-68.457 31.543-69.1895C31.543-69.873 31.1035-70.2637 30.3711-70.2637L19.7754-70.2637C13.2324-70.2637 9.76562-66.7969 9.76562-60.3027L9.76562-49.6582C9.76562-48.9746 10.1562-48.5352 10.8887-48.5352ZM24.2676-32.1777L43.6523-32.1289L43.6523-12.8418C43.6523-11.7188 44.3848-10.9375 45.2637-10.9375C45.9473-10.9375 46.6309-11.377 47.0215-12.207L65.3809-51.2695C65.5762-51.709 65.7715-52.1484 65.7715-52.5391C65.7715-53.5156 65.0879-54.1992 64.0137-54.1992C63.623-54.1992 63.1348-54.0527 62.793-53.9062L23.6816-35.498C22.8516-35.1562 22.4121-34.4727 22.4121-33.8379C22.4121-32.9102 23.0957-32.1777 24.2676-32.1777ZM19.7754-0.0488281L30.3711-0.0488281C31.1035-0.0488281 31.543-0.439453 31.543-1.17188C31.543-1.85547 31.1035-2.24609 30.3711-2.24609L19.873-2.24609C14.6484-2.24609 11.9629-4.93164 11.9629-10.1562L11.9629-20.6543C11.9629-21.3379 11.5723-21.7773 10.8887-21.7773C10.1562-21.7773 9.76562-21.3379 9.76562-20.6543L9.76562-10.0098C9.76562-3.51562 13.2324-0.0488281 19.7754-0.0488281ZM59.375-0.0488281L69.9707-0.0488281C76.5137-0.0488281 79.9805-3.61328 79.9805-10.0098L79.9805-20.6543C79.9805-21.3379 79.5898-21.7773 78.9062-21.7773C78.1738-21.7773 77.7832-21.3379 77.7832-20.6543L77.7832-10.1562C77.7832-4.93164 74.9023-2.24609 69.873-2.24609L59.375-2.24609C58.6426-2.24609 58.252-1.85547 58.252-1.17188C58.252-0.439453 58.6426-0.0488281 59.375-0.0488281Z"/>
  </g>
 </g>
</svg>
