<?xml version="1.0" encoding="UTF-8"?>
<!--Generator: Apple Native CoreSVG 149-->
<!DOCTYPE svg
PUBLIC "-//W3C//DTD SVG 1.1//EN"
       "http://www.w3.org/Graphics/SVG/1.1/DTD/svg11.dtd">
<svg version="1.1" xmlns="http://www.w3.org/2000/svg" xmlns:xlink="http://www.w3.org/1999/xlink" width="3300" height="2200">
 <!--glyph: "uni1002B1.medium", point size: 100.000000, font version: "Version 16.0d18e1", template writer version: "8"-->
 <g id="Notes">
  <rect height="2200" id="artboard" style="fill:white;opacity:1" width="3300" x="0" y="0"/>
  <line id="" style="fill:none;stroke:black;opacity:1;stroke-width:0.5;" x1="263" x2="3036" y1="292" y2="292"/>
  <text style="stroke:none;fill:black;font-family:-apple-system,&quot;SF Pro Display&quot;,&quot;SF Pro Text&quot;,Helvetica,sans-serif;font-weight:bold;" transform="matrix(1 0 0 1 263 322)">Weight/Scale Variations</text>
  <text style="stroke:none;fill:black;font-family:-apple-system,&quot;SF Pro Display&quot;,&quot;SF Pro Text&quot;,Helvetica,sans-serif;text-anchor:middle;" transform="matrix(1 0 0 1 559.711 322)">Ultralight</text>
  <text style="stroke:none;fill:black;font-family:-apple-system,&quot;SF Pro Display&quot;,&quot;SF Pro Text&quot;,Helvetica,sans-serif;text-anchor:middle;" transform="matrix(1 0 0 1 856.422 322)">Thin</text>
  <text style="stroke:none;fill:black;font-family:-apple-system,&quot;SF Pro Display&quot;,&quot;SF Pro Text&quot;,Helvetica,sans-serif;text-anchor:middle;" transform="matrix(1 0 0 1 1153.13 322)">Light</text>
  <text style="stroke:none;fill:black;font-family:-apple-system,&quot;SF Pro Display&quot;,&quot;SF Pro Text&quot;,Helvetica,sans-serif;text-anchor:middle;" transform="matrix(1 0 0 1 1449.84 322)">Regular</text>
  <text style="stroke:none;fill:black;font-family:-apple-system,&quot;SF Pro Display&quot;,&quot;SF Pro Text&quot;,Helvetica,sans-serif;text-anchor:middle;" transform="matrix(1 0 0 1 1746.56 322)">Medium</text>
  <text style="stroke:none;fill:black;font-family:-apple-system,&quot;SF Pro Display&quot;,&quot;SF Pro Text&quot;,Helvetica,sans-serif;text-anchor:middle;" transform="matrix(1 0 0 1 2043.27 322)">Semibold</text>
  <text style="stroke:none;fill:black;font-family:-apple-system,&quot;SF Pro Display&quot;,&quot;SF Pro Text&quot;,Helvetica,sans-serif;text-anchor:middle;" transform="matrix(1 0 0 1 2339.98 322)">Bold</text>
  <text style="stroke:none;fill:black;font-family:-apple-system,&quot;SF Pro Display&quot;,&quot;SF Pro Text&quot;,Helvetica,sans-serif;text-anchor:middle;" transform="matrix(1 0 0 1 2636.69 322)">Heavy</text>
  <text style="stroke:none;fill:black;font-family:-apple-system,&quot;SF Pro Display&quot;,&quot;SF Pro Text&quot;,Helvetica,sans-serif;text-anchor:middle;" transform="matrix(1 0 0 1 2933.4 322)">Black</text>
  <line id="" style="fill:none;stroke:black;opacity:1;stroke-width:0.5;" x1="263" x2="3036" y1="1903" y2="1903"/>
  <g id="" transform="matrix(1 0 0 1 263 1933)">
   <path d="M9.24805 0.830078C13.5547 0.830078 17.1387-2.74414 17.1387-7.05078C17.1387-11.3574 13.5449-14.9316 9.23828-14.9316C4.94141-14.9316 1.36719-11.3574 1.36719-7.05078C1.36719-2.74414 4.95117 0.830078 9.24805 0.830078ZM9.24805-0.654297C5.70312-0.654297 2.87109-3.49609 2.87109-7.05078C2.87109-10.6055 5.69336-13.4473 9.23828-13.4473C12.793-13.4473 15.6348-10.6055 15.6445-7.05078C15.6543-3.49609 12.8027-0.654297 9.24805-0.654297ZM6.39648-6.31836L8.50586-6.31836L8.50586-4.19922C8.50586-3.75977 8.79883-3.45703 9.22852-3.45703C9.67773-3.45703 9.9707-3.75977 9.9707-4.19922L9.9707-6.31836L12.0996-6.31836C12.5391-6.31836 12.8418-6.61133 12.8418-7.04102C12.8418-7.48047 12.5391-7.7832 12.0996-7.7832L9.9707-7.7832L9.9707-9.89258C9.9707-10.3418 9.67773-10.6445 9.22852-10.6445C8.79883-10.6445 8.50586-10.3418 8.50586-9.89258L8.50586-7.7832L6.39648-7.7832C5.94727-7.7832 5.64453-7.48047 5.64453-7.04102C5.64453-6.61133 5.94727-6.31836 6.39648-6.31836Z"/>
  </g>
  <g id="" transform="matrix(1 0 0 1 281.506 1933)">
   <path d="M11.709 2.91016C17.1582 2.91016 21.6699-1.61133 21.6699-7.05078C21.6699-12.5 17.1484-17.0117 11.6992-17.0117C6.25977-17.0117 1.74805-12.5 1.74805-7.05078C1.74805-1.61133 6.26953 2.91016 11.709 2.91016ZM11.709 1.25C7.09961 1.25 3.41797-2.44141 3.41797-7.05078C3.41797-11.6602 7.08984-15.3516 11.6992-15.3516C16.3086-15.3516 20-11.6602 20.0098-7.05078C20.0195-2.44141 16.3184 1.25 11.709 1.25ZM7.98828-6.23047L10.8789-6.23047L10.8789-3.32031C10.8789-2.83203 11.2109-2.5 11.6895-2.5C12.1777-2.5 12.5195-2.83203 12.5195-3.32031L12.5195-6.23047L15.4297-6.23047C15.918-6.23047 16.25-6.5625 16.25-7.04102C16.25-7.5293 15.918-7.87109 15.4297-7.87109L12.5195-7.87109L12.5195-10.7617C12.5195-11.2695 12.1777-11.6016 11.6895-11.6016C11.2109-11.6016 10.8789-11.2598 10.8789-10.7617L10.8789-7.87109L7.98828-7.87109C7.48047-7.87109 7.14844-7.5293 7.14844-7.04102C7.14844-6.5625 7.49023-6.23047 7.98828-6.23047Z"/>
  </g>
  <g id="" transform="matrix(1 0 0 1 304.924 1933)">
   <path d="M14.9707 5.66406C21.9336 5.66406 27.6953-0.0976562 27.6953-7.05078C27.6953-14.0137 21.9238-19.7754 14.9609-19.7754C8.00781-19.7754 2.25586-14.0137 2.25586-7.05078C2.25586-0.0976562 8.01758 5.66406 14.9707 5.66406ZM14.9707 3.84766C8.93555 3.84766 4.08203-1.01562 4.08203-7.05078C4.08203-13.0957 8.92578-17.9492 14.9609-17.9492C21.0059-17.9492 25.8594-13.0957 25.8691-7.05078C25.8789-1.01562 21.0156 3.84766 14.9707 3.84766ZM10.0586-6.14258L14.0625-6.14258L14.0625-2.12891C14.0625-1.5918 14.4336-1.2207 14.9512-1.2207C15.4883-1.2207 15.8594-1.5918 15.8594-2.12891L15.8594-6.14258L19.8828-6.14258C20.4102-6.14258 20.791-6.51367 20.791-7.03125C20.791-7.56836 20.4199-7.94922 19.8828-7.94922L15.8594-7.94922L15.8594-11.9531C15.8594-12.5098 15.4883-12.8809 14.9512-12.8809C14.4336-12.8809 14.0625-12.5 14.0625-11.9531L14.0625-7.94922L10.0586-7.94922C9.50195-7.94922 9.13086-7.56836 9.13086-7.03125C9.13086-6.51367 9.51172-6.14258 10.0586-6.14258Z"/>
  </g>
  <text style="stroke:none;fill:black;font-family:-apple-system,&quot;SF Pro Display&quot;,&quot;SF Pro Text&quot;,Helvetica,sans-serif;font-weight:bold;" transform="matrix(1 0 0 1 263 1953)">Design Variations</text>
  <text style="stroke:none;fill:black;font-family:-apple-system,&quot;SF Pro Display&quot;,&quot;SF Pro Text&quot;,Helvetica,sans-serif;" transform="matrix(1 0 0 1 263 1971)">Symbols are supported in up to nine weights and three scales.</text>
  <text style="stroke:none;fill:black;font-family:-apple-system,&quot;SF Pro Display&quot;,&quot;SF Pro Text&quot;,Helvetica,sans-serif;" transform="matrix(1 0 0 1 263 1989)">For optimal layout with text and other symbols, vertically align</text>
  <text style="stroke:none;fill:black;font-family:-apple-system,&quot;SF Pro Display&quot;,&quot;SF Pro Text&quot;,Helvetica,sans-serif;" transform="matrix(1 0 0 1 263 2007)">symbols with the adjacent text.</text>
  <line id="" style="fill:none;stroke:#00AEEF;stroke-width:0.5;opacity:1.0;" x1="776" x2="776" y1="1919" y2="1933"/>
  <g id="" transform="matrix(1 0 0 1 776 1933)">
   <path d="M3.31055 0.126953C3.82812 0.126953 4.08203-0.0683594 4.26758-0.605469L5.52734-4.0625L11.2891-4.0625L12.5488-0.605469C12.7344-0.0683594 12.9883 0.126953 13.4961 0.126953C14.0137 0.126953 14.3457-0.185547 14.3457-0.673828C14.3457-0.839844 14.3164-0.986328 14.2383-1.20117L9.6582-13.3887C9.43359-13.9941 9.0332-14.2871 8.4082-14.2871C7.80273-14.2871 7.39258-13.9941 7.17773-13.3984L2.59766-1.19141C2.51953-0.976562 2.49023-0.830078 2.49023-0.664062C2.49023-0.175781 2.80273 0.126953 3.31055 0.126953ZM6.00586-5.53711L8.37891-12.1094L8.42773-12.1094L10.8008-5.53711Z"/>
  </g>
  <line id="" style="fill:none;stroke:#00AEEF;stroke-width:0.5;opacity:1.0;" x1="792.836" x2="792.836" y1="1919" y2="1933"/>
  <text style="stroke:none;fill:black;font-family:-apple-system,&quot;SF Pro Display&quot;,&quot;SF Pro Text&quot;,Helvetica,sans-serif;font-weight:bold;" transform="matrix(1 0 0 1 776 1953)">Margins</text>
  <text style="stroke:none;fill:black;font-family:-apple-system,&quot;SF Pro Display&quot;,&quot;SF Pro Text&quot;,Helvetica,sans-serif;" transform="matrix(1 0 0 1 776 1971)">Leading and trailing margins on the left and right side of each symbol</text>
  <text style="stroke:none;fill:black;font-family:-apple-system,&quot;SF Pro Display&quot;,&quot;SF Pro Text&quot;,Helvetica,sans-serif;" transform="matrix(1 0 0 1 776 1989)">can be adjusted by modifying the x-location of the margin guidelines.</text>
  <text style="stroke:none;fill:black;font-family:-apple-system,&quot;SF Pro Display&quot;,&quot;SF Pro Text&quot;,Helvetica,sans-serif;" transform="matrix(1 0 0 1 776 2007)">Modifications are automatically applied proportionally to all</text>
  <text style="stroke:none;fill:black;font-family:-apple-system,&quot;SF Pro Display&quot;,&quot;SF Pro Text&quot;,Helvetica,sans-serif;" transform="matrix(1 0 0 1 776 2025)">scales and weights.</text>
  <g id="" transform="matrix(1 0 0 1 1289 1933)">
   <path d="M2.8418 1.86523L4.54102 3.57422C5.40039 4.44336 6.38672 4.38477 7.31445 3.35938L17.4902-7.85156C17.7539-7.76367 18.0273-7.7832 18.3398-7.8418L19.4043-8.03711L20.0684-7.36328L20.0293-6.80664C19.9902-6.30859 20.1172-5.92773 20.6055-5.44922L21.3672-4.70703C21.8457-4.22852 22.4609-4.19922 22.9297-4.66797L25.8398-7.58789C26.3086-8.05664 26.2891-8.65234 25.8105-9.13086L25.0391-9.89258C24.5605-10.3711 24.1895-10.5273 23.7109-10.4883L23.1348-10.4395L22.4902-11.0742L22.7344-12.1973C22.8613-12.7637 22.7051-13.2031 22.1191-13.7891L19.9219-15.9766C16.582-19.2969 12.1484-19.2188 9.25781-16.3281C8.83789-15.918 8.80859-15.3418 9.04297-14.9512C9.27734-14.5898 9.73633-14.3555 10.3809-14.5215C11.8457-14.8633 13.3691-14.9219 14.7949-13.9844L14.209-12.5293C14.0137-12.0508 13.9844-11.6504 14.1113-11.2891L3.04688-0.898438C2.06055 0.0195312 1.98242 0.996094 2.8418 1.86523ZM10.752-15.957C13.1836-17.7344 16.4746-17.4316 18.7012-15.2051L21.1328-12.793C21.3672-12.5586 21.4062-12.373 21.3379-12.0312L21.0156-10.5469L22.5195-9.0625L23.5059-9.12109C23.7598-9.13086 23.8379-9.11133 24.0332-8.91602L24.6094-8.33984L22.168-5.89844L21.5918-6.47461C21.3965-6.66992 21.3672-6.74805 21.377-7.01172L21.4453-7.98828L19.9512-9.47266L18.4277-9.21875C18.1055-9.15039 17.959-9.17969 17.7148-9.41406L15.7129-11.416C15.459-11.6504 15.4297-11.8164 15.5859-12.1875L16.4648-14.2773C14.9023-15.7324 12.8711-16.3574 10.8398-15.7617C10.6836-15.7227 10.625-15.8496 10.752-15.957ZM5.27344 2.30469L4.10156 1.14258C3.63281 0.683594 3.74023 0.341797 4.14062-0.0195312L14.9512-10.1953L16.416-8.71094L6.42578 2.27539C6.07422 2.67578 5.74219 2.77344 5.27344 2.30469Z"/>
  </g>
  <text style="stroke:none;fill:black;font-family:-apple-system,&quot;SF Pro Display&quot;,&quot;SF Pro Text&quot;,Helvetica,sans-serif;font-weight:bold;" transform="matrix(1 0 0 1 1289 1953)">Exporting</text>
  <text style="stroke:none;fill:black;font-family:-apple-system,&quot;SF Pro Display&quot;,&quot;SF Pro Text&quot;,Helvetica,sans-serif;" transform="matrix(1 0 0 1 1289 1971)">Symbols should be outlined when exporting to ensure the</text>
  <text style="stroke:none;fill:black;font-family:-apple-system,&quot;SF Pro Display&quot;,&quot;SF Pro Text&quot;,Helvetica,sans-serif;" transform="matrix(1 0 0 1 1289 1989)">design is preserved when submitting to Xcode.</text>
  <text id="template-version" style="stroke:none;fill:black;font-family:-apple-system,&quot;SF Pro Display&quot;,&quot;SF Pro Text&quot;,Helvetica,sans-serif;text-anchor:end;" transform="matrix(1 0 0 1 3036 1933)">Template v.2.0</text>
  <text style="stroke:none;fill:black;font-family:-apple-system,&quot;SF Pro Display&quot;,&quot;SF Pro Text&quot;,Helvetica,sans-serif;text-anchor:end;" transform="matrix(1 0 0 1 3036 1951)">Requires Xcode 12 or greater</text>
  <text style="stroke:none;fill:black;font-family:-apple-system,&quot;SF Pro Display&quot;,&quot;SF Pro Text&quot;,Helvetica,sans-serif;text-anchor:end;" transform="matrix(1 0 0 1 3036 1969)">Generated from mic.fill</text>
  <text style="stroke:none;fill:black;font-family:-apple-system,&quot;SF Pro Display&quot;,&quot;SF Pro Text&quot;,Helvetica,sans-serif;text-anchor:end;" transform="matrix(1 0 0 1 3036 1987)">Typeset at 100 points</text>
  <text style="stroke:none;fill:black;font-family:-apple-system,&quot;SF Pro Display&quot;,&quot;SF Pro Text&quot;,Helvetica,sans-serif;" transform="matrix(1 0 0 1 263 726)">Small</text>
  <text style="stroke:none;fill:black;font-family:-apple-system,&quot;SF Pro Display&quot;,&quot;SF Pro Text&quot;,Helvetica,sans-serif;" transform="matrix(1 0 0 1 263 1156)">Medium</text>
  <text style="stroke:none;fill:black;font-family:-apple-system,&quot;SF Pro Display&quot;,&quot;SF Pro Text&quot;,Helvetica,sans-serif;" transform="matrix(1 0 0 1 263 1586)">Large</text>
 </g>
 <g id="Guides">
  <g id="H-reference" style="fill:#27AAE1;stroke:none;" transform="matrix(1 0 0 1 339 696)">
   <path d="M0.976562 0L3.66211 0L12.9883-24.4629L45.752-24.4629L55.127 0L57.7637 0L30.6152-70.459L28.125-70.459ZM29.3457-67.1387L29.4434-67.1387L44.873-26.709L13.8672-26.709Z"/>
  </g>
  <line id="Baseline-S" style="fill:none;stroke:#27AAE1;opacity:1;stroke-width:0.5;" x1="263" x2="3036" y1="696" y2="696"/>
  <line id="Capline-S" style="fill:none;stroke:#27AAE1;opacity:1;stroke-width:0.5;" x1="263" x2="3036" y1="625.541" y2="625.541"/>
  <g id="H-reference" style="fill:#27AAE1;stroke:none;" transform="matrix(1 0 0 1 339 1126)">
   <path d="M0.976562 0L3.66211 0L12.9883-24.4629L45.752-24.4629L55.127 0L57.7637 0L30.6152-70.459L28.125-70.459ZM29.3457-67.1387L29.4434-67.1387L44.873-26.709L13.8672-26.709Z"/>
  </g>
  <line id="Baseline-M" style="fill:none;stroke:#27AAE1;opacity:1;stroke-width:0.5;" x1="263" x2="3036" y1="1126" y2="1126"/>
  <line id="Capline-M" style="fill:none;stroke:#27AAE1;opacity:1;stroke-width:0.5;" x1="263" x2="3036" y1="1055.54" y2="1055.54"/>
  <g id="H-reference" style="fill:#27AAE1;stroke:none;" transform="matrix(1 0 0 1 339 1556)">
   <path d="M0.976562 0L3.66211 0L12.9883-24.4629L45.752-24.4629L55.127 0L57.7637 0L30.6152-70.459L28.125-70.459ZM29.3457-67.1387L29.4434-67.1387L44.873-26.709L13.8672-26.709Z"/>
  </g>
  <line id="Baseline-L" style="fill:none;stroke:#27AAE1;opacity:1;stroke-width:0.5;" x1="263" x2="3036" y1="1556" y2="1556"/>
  <line id="Capline-L" style="fill:none;stroke:#27AAE1;opacity:1;stroke-width:0.5;" x1="263" x2="3036" y1="1485.54" y2="1485.54"/>
  <line id="left-margin" style="fill:none;stroke:#00AEEF;stroke-width:0.5;opacity:1.0;" x1="1400.06" x2="1400.06" y1="1030.79" y2="1150.12"/>
  <line id="right-margin" style="fill:none;stroke:#00AEEF;stroke-width:0.5;opacity:1.0;" x1="1499.62" x2="1499.62" y1="1030.79" y2="1150.12"/>
 </g>
 <g id="Symbols">
  <g id="Black-L" transform="matrix(1 0 0 1 2858.16 1556)">
   <path d="M75.2441-18.4082C88.7207-18.4082 101.123-28.6621 101.123-44.4336L101.123-87.7441C101.123-103.467 88.7207-113.818 75.2441-113.818C61.7188-113.818 49.2188-103.516 49.2188-87.793L49.2188-44.4336C49.2188-28.6621 61.7188-18.4082 75.2441-18.4082ZM17.6758-41.7969C17.6758-11.5723 38.2324 7.86133 65.8691 11.4258L65.8691 18.0664L43.7988 18.0664C38.3301 18.0664 33.5449 22.5098 33.5449 27.9785C33.5449 33.3008 38.3301 37.8418 43.7988 37.8418L106.738 37.8418C112.207 37.8418 116.992 33.3008 116.992 27.9785C116.992 22.5098 112.207 18.0664 106.738 18.0664L84.6191 18.0664L84.6191 11.4258C112.256 7.86133 132.812-11.5723 132.812-41.7969L132.812-53.3203C132.812-58.7402 128.32-62.9395 122.754-62.9395C117.236-62.9395 112.598-58.7402 112.598-53.3203L112.598-42.3828C112.598-20.8984 96.3867-7.22656 75.2441-7.22656C54.1016-7.22656 37.9395-20.8984 37.9395-42.3828L37.9395-53.3203C37.9395-58.7402 33.252-62.9395 27.7344-62.9395C22.2168-62.9395 17.6758-58.7402 17.6758-53.3203Z"/>
  </g>
  <g id="Heavy-L" transform="matrix(1 0 0 1 2564.33 1556)">
   <path d="M72.3633-18.6523C85.5957-18.6523 97.0215-28.6621 97.0215-43.7988L97.0215-86.8652C97.0215-101.953 85.5957-112.061 72.3633-112.061C59.082-112.061 47.6074-102.002 47.6074-86.9141L47.6074-43.7988C47.6074-28.6621 59.082-18.6523 72.3633-18.6523ZM17.9688-41.4551C17.9688-12.6953 37.5 6.20117 64.2578 9.27734L64.2578 18.2129L41.6504 18.2129C36.9629 18.2129 32.8613 22.0215 32.8613 26.7578C32.8613 31.3965 36.9629 35.2539 41.6504 35.2539L103.076 35.2539C107.764 35.2539 111.865 31.3965 111.865 26.7578C111.865 22.0215 107.764 18.2129 103.076 18.2129L80.4688 18.2129L80.4688 9.27734C107.227 6.20117 126.758-12.6953 126.758-41.4551L126.758-53.2227C126.758-57.9102 122.852-61.5234 118.066-61.5234C113.33-61.5234 109.326-57.9102 109.326-53.2227L109.326-41.9922C109.326-20.5566 93.6523-6.68945 72.3633-6.68945C51.0742-6.68945 35.4004-20.5566 35.4004-41.9922L35.4004-53.2227C35.4004-57.9102 31.3965-61.5234 26.6602-61.5234C21.875-61.5234 17.9688-57.9102 17.9688-53.2227Z"/>
  </g>
  <g id="Bold-L" transform="matrix(1 0 0 1 2270.86 1556)">
   <path d="M69.1406-18.9453C82.0801-18.9453 92.3828-28.7109 92.3828-43.1152L92.3828-85.8398C92.3828-100.293 82.0801-110.107 69.1406-110.107C56.1523-110.107 45.8008-100.293 45.8008-85.8887L45.8008-43.1152C45.8008-28.7109 56.1523-18.9453 69.1406-18.9453ZM18.3594-41.1133C18.3594-13.916 36.6211 4.29688 62.4023 6.93359L62.4023 18.4082L39.3066 18.4082C35.4492 18.4082 32.1289 21.5332 32.1289 25.3906C32.1289 29.1992 35.4492 32.373 39.3066 32.373L98.9258 32.373C102.783 32.373 106.104 29.1992 106.104 25.3906C106.104 21.5332 102.783 18.4082 98.9258 18.4082L75.8301 18.4082L75.8301 6.93359C101.611 4.29688 119.922-13.916 119.922-41.1133L119.922-53.125C119.922-56.9824 116.748-59.9609 112.842-59.9609C108.936-59.9609 105.713-56.9824 105.713-53.125L105.713-41.5527C105.713-20.166 90.5762-6.15234 69.1406-6.15234C47.7051-6.15234 32.5195-20.166 32.5195-41.5527L32.5195-53.125C32.5195-56.9824 29.2969-59.9609 25.3906-59.9609C21.5332-59.9609 18.3594-56.9824 18.3594-53.125Z"/>
  </g>
  <g id="Semibold-L" transform="matrix(1 0 0 1 1976.37 1556)">
   <path d="M66.8945-19.1406C79.6387-19.1406 89.209-28.7109 89.209-42.6758L89.209-85.1562C89.209-99.1211 79.6387-108.74 66.8945-108.74C54.1504-108.74 44.5312-99.1211 44.5312-85.2051L44.5312-42.6758C44.5312-28.7109 54.1504-19.1406 66.8945-19.1406ZM18.5547-40.8691C18.5547-14.7949 36.0352 2.97852 61.1328 5.32227L61.1328 18.5059L37.6953 18.5059C34.4238 18.5059 31.6406 21.1426 31.6406 24.4629C31.6406 27.6855 34.4238 30.3711 37.6953 30.3711L96.0938 30.3711C99.3652 30.3711 102.148 27.6855 102.148 24.4629C102.148 21.1426 99.3652 18.5059 96.0938 18.5059L72.6562 18.5059L72.6562 5.32227C97.7539 2.97852 115.234-14.7949 115.234-40.8691L115.234-53.0273C115.234-56.2988 112.549-58.8867 109.229-58.8867C105.908-58.8867 103.223-56.2988 103.223-53.0273L103.223-41.2598C103.223-19.9219 88.4277-5.71289 66.8945-5.71289C45.3613-5.71289 30.5664-19.9219 30.5664-41.2598L30.5664-53.0273C30.5664-56.2988 27.8809-58.8867 24.5605-58.8867C21.2402-58.8867 18.5547-56.2988 18.5547-53.0273Z"/>
  </g>
  <g id="Medium-L" transform="matrix(1 0 0 1 1681.35 1556)">
   <path d="M65.1855-19.2871C77.7832-19.2871 86.7676-28.7109 86.7676-42.2852L86.7676-84.668C86.7676-98.2422 77.7832-107.715 65.1855-107.715C52.5879-107.715 43.6035-98.2422 43.6035-84.668L43.6035-42.2852C43.6035-28.7109 52.5879-19.2871 65.1855-19.2871ZM18.75-40.6738C18.75-15.4297 35.5957 2.00195 60.1562 4.10156L60.1562 18.6035L36.4746 18.6035C33.5938 18.6035 31.25 20.8984 31.25 23.7305C31.25 26.5625 33.5938 28.8574 36.4746 28.8574L93.9453 28.8574C96.7773 28.8574 99.1211 26.5625 99.1211 23.7305C99.1211 20.8984 96.7773 18.6035 93.9453 18.6035L70.2148 18.6035L70.2148 4.10156C94.8242 2.00195 111.67-15.4297 111.67-40.6738L111.67-52.9785C111.67-55.8105 109.326-58.0566 106.494-58.0566C103.613-58.0566 101.318-55.8105 101.318-52.9785L101.318-41.0156C101.318-19.7266 86.8164-5.41992 65.1855-5.41992C43.5547-5.41992 29.1016-19.7266 29.1016-41.0156L29.1016-52.9785C29.1016-55.8105 26.7578-58.0566 23.9258-58.0566C21.0449-58.0566 18.75-55.8105 18.75-52.9785Z"/>
  </g>
  <g id="Regular-L" transform="matrix(1 0 0 1 1386.86 1556)">
   <path d="M62.9883-19.4336C75.3906-19.4336 83.5938-28.7109 83.5938-41.8457L83.5938-83.9844C83.5938-97.0703 75.3906-106.396 62.9883-106.396C50.6348-106.396 42.3828-97.0703 42.3828-83.9844L42.3828-41.8457C42.3828-28.7109 50.6348-19.4336 62.9883-19.4336ZM18.9941-40.4297C18.9941-16.3086 35.0098 0.732422 58.9355 2.49023L58.9355 18.75L34.8633 18.75C32.5684 18.75 30.7617 20.5566 30.7617 22.8027C30.7617 25.0488 32.5684 26.9043 34.8633 26.9043L91.1621 26.9043C93.4082 26.9043 95.2148 25.0488 95.2148 22.8027C95.2148 20.5566 93.4082 18.75 91.1621 18.75L67.0898 18.75L67.0898 2.49023C90.9668 0.732422 106.982-16.3086 106.982-40.4297L106.982-52.9297C106.982-55.1758 105.176-56.9824 102.93-56.9824C100.635-56.9824 98.8281-55.1758 98.8281-52.9297L98.8281-40.7227C98.8281-19.4336 84.7168-5.0293 62.9883-5.0293C41.2598-5.0293 27.1484-19.4336 27.1484-40.7227L27.1484-52.9297C27.1484-55.1758 25.3418-56.9824 23.0957-56.9824C20.8008-56.9824 18.9941-55.1758 18.9941-52.9297Z"/>
  </g>
  <g id="Light-L" transform="matrix(1 0 0 1 1091.81 1556)">
   <path d="M61.3281-20.3613C73.4863-20.3613 81.3965-29.5898 81.3965-42.1875L81.3965-84.375C81.3965-96.9727 73.4863-106.201 61.3281-106.201C49.1699-106.201 41.2598-96.9727 41.2598-84.375L41.2598-42.1875C41.2598-29.5898 49.1699-20.3613 61.3281-20.3613ZM18.7988-40.2344C18.7988-16.9434 34.4727-0.341797 58.2031 1.02539L58.2031 19.4824L33.2031 19.4824C31.4453 19.4824 30.0293 20.8496 30.0293 22.6074C30.0293 24.3652 31.4453 25.7812 33.2031 25.7812L89.502 25.7812C91.2109 25.7812 92.627 24.3652 92.627 22.6074C92.627 20.8496 91.2109 19.4824 89.502 19.4824L64.502 19.4824L64.502 1.02539C88.1836-0.341797 103.857-16.9434 103.857-40.2344L103.857-52.3438C103.857-54.1016 102.441-55.5176 100.684-55.5176C98.9746-55.5176 97.5586-54.1016 97.5586-52.3438L97.5586-40.4297C97.5586-19.3848 83.3496-4.88281 61.3281-4.88281C39.3066-4.88281 25.0977-19.3848 25.0977-40.4297L25.0977-52.3438C25.0977-54.1016 23.7305-55.5176 21.9727-55.5176C20.2148-55.5176 18.7988-54.1016 18.7988-52.3438Z"/>
  </g>
  <g id="Thin-L" transform="matrix(1 0 0 1 797.291 1556)">
   <path d="M59.1309-21.582C70.9473-21.582 78.4668-30.7129 78.4668-42.6758L78.4668-84.8633C78.4668-96.8262 70.9473-105.957 59.1309-105.957C47.3145-105.957 39.7949-96.8262 39.7949-84.8633L39.7949-42.6758C39.7949-30.7129 47.3145-21.582 59.1309-21.582ZM18.5547-39.9902C18.5547-17.7734 33.7402-1.70898 57.2266-0.830078L57.2266 20.459L31.0059 20.459C29.9316 20.459 29.0527 21.2891 29.0527 22.3633C29.0527 23.4375 29.9316 24.3164 31.0059 24.3164L87.3047 24.3164C88.3301 24.3164 89.209 23.4375 89.209 22.3633C89.209 21.2891 88.3301 20.459 87.3047 20.459L61.084 20.459L61.084-0.830078C84.5215-1.70898 99.707-17.7734 99.707-39.9902L99.707-51.6113C99.707-52.6855 98.8281-53.5645 97.7539-53.5645C96.7285-53.5645 95.8496-52.6855 95.8496-51.6113L95.8496-40.0391C95.8496-19.3359 81.4941-4.58984 59.1309-4.58984C36.8164-4.58984 22.4609-19.3359 22.4609-40.0391L22.4609-51.6113C22.4609-52.6855 21.582-53.5645 20.5078-53.5645C19.4336-53.5645 18.5547-52.6855 18.5547-51.6113Z"/>
  </g>
  <g id="Ultralight-L" transform="matrix(1 0 0 1 501.703 1556)">
   <path d="M58.0078-22.2168C69.6777-22.2168 76.9531-31.2988 76.9531-42.9688L76.9531-85.1074C76.9531-96.7773 69.6777-105.811 58.0078-105.811C46.3379-105.811 39.0625-96.7773 39.0625-85.1074L39.0625-42.9688C39.0625-31.2988 46.3379-22.2168 58.0078-22.2168ZM18.457-39.8926C18.457-18.1641 33.3496-2.39258 56.6895-1.80664L56.6895 20.9473L29.8828 20.9473C29.1504 20.9473 28.5645 21.5332 28.5645 22.2656C28.5645 22.9492 29.1504 23.5352 29.8828 23.5352L86.1816 23.5352C86.8652 23.5352 87.4512 22.9492 87.4512 22.2656C87.4512 21.5332 86.8652 20.9473 86.1816 20.9473L59.3262 20.9473L59.3262-1.80664C82.666-2.39258 97.5586-18.1641 97.5586-39.8926L97.5586-51.2695C97.5586-51.9531 96.9727-52.5391 96.2891-52.5391C95.5566-52.5391 94.9707-51.9531 94.9707-51.2695L94.9707-39.8438C94.9707-19.3359 80.5176-4.49219 58.0078-4.49219C35.498-4.49219 21.0449-19.3359 21.0449-39.8438L21.0449-51.2695C21.0449-51.9531 20.459-52.5391 19.7754-52.5391C19.043-52.5391 18.457-51.9531 18.457-51.2695Z"/>
  </g>
  <g id="Black-M" transform="matrix(1 0 0 1 2872.07 1126)">
   <path d="M61.3281-22.3633C72.0215-22.3633 82.7637-30.5664 82.7637-43.4082L82.7637-77.2949C82.7637-90.0879 72.0215-98.3887 61.3281-98.3887C50.5859-98.3887 39.6973-90.1367 39.6973-77.3926L39.6973-43.4082C39.6973-30.5664 50.5859-22.3633 61.3281-22.3633ZM13.1836-40.625C13.1836-15.7227 30.3711-0.0976562 52.8809 2.97852L52.8809 6.25L35.8887 6.25C30.9082 6.25 26.4648 10.3027 26.4648 15.2832C26.4648 20.166 30.9082 24.3164 35.8887 24.3164L86.7676 24.3164C91.7969 24.3164 96.1914 20.166 96.1914 15.2832C96.1914 10.3027 91.7969 6.25 86.7676 6.25L69.7754 6.25L69.7754 2.97852C92.334-0.0976562 109.473-15.7227 109.473-40.625L109.473-49.0723C109.473-54.0039 105.322-57.7637 100.293-57.7637C95.2148-57.7637 90.918-54.0039 90.918-49.0723L90.918-41.1621C90.918-24.5605 77.6855-14.1113 61.3281-14.1113C45.0195-14.1113 31.7383-24.5605 31.7383-41.1621L31.7383-49.0723C31.7383-54.0039 27.4414-57.7637 22.4121-57.7637C17.334-57.7637 13.1836-54.0039 13.1836-49.0723Z"/>
  </g>
  <g id="Heavy-M" transform="matrix(1 0 0 1 2578.07 1126)">
   <path d="M58.5938-22.4121C69.043-22.4121 78.8086-30.3711 78.8086-42.627L78.8086-76.2695C78.8086-88.4766 69.043-96.5332 58.5938-96.5332C48.0957-96.5332 38.2324-88.5254 38.2324-76.3184L38.2324-42.627C38.2324-30.3711 48.0957-22.4121 58.5938-22.4121ZM13.5742-40.332C13.5742-16.7969 29.6875-1.66016 51.2695 1.07422L51.2695 6.25L34.0332 6.25C29.7363 6.25 25.9766 9.7168 25.9766 14.0137C25.9766 18.2129 29.7363 21.7773 34.0332 21.7773L83.2031 21.7773C87.5 21.7773 91.2598 18.2129 91.2598 14.0137C91.2598 9.7168 87.5 6.25 83.2031 6.25L65.918 6.25L65.918 1.07422C87.5488-1.66016 103.662-16.7969 103.662-40.332L103.662-49.1211C103.662-53.3691 100.098-56.6406 95.752-56.6406C91.4062-56.6406 87.7441-53.3691 87.7441-49.1211L87.7441-40.8203C87.7441-24.2188 75.0488-13.623 58.5938-13.623C42.1875-13.623 29.4922-24.2188 29.4922-40.8203L29.4922-49.1211C29.4922-53.3691 25.8301-56.6406 21.4844-56.6406C17.1387-56.6406 13.5742-53.3691 13.5742-49.1211Z"/>
  </g>
  <g id="Bold-M" transform="matrix(1 0 0 1 2284.41 1126)">
   <path d="M55.5664-22.4121C65.7715-22.4121 74.4141-30.127 74.4141-41.748L74.4141-75.0488C74.4141-86.6699 65.7715-94.4336 55.5664-94.4336C45.3125-94.4336 36.6211-86.6699 36.6211-75.0977L36.6211-41.748C36.6211-30.127 45.3125-22.4121 55.5664-22.4121ZM14.0137-39.9902C14.0137-17.9688 28.9062-3.41797 49.5117-1.12305L49.5117 6.20117L31.9336 6.20117C28.418 6.20117 25.3906 9.0332 25.3906 12.5488C25.3906 16.0156 28.418 18.9453 31.9336 18.9453L79.1992 18.9453C82.7148 18.9453 85.7422 16.0156 85.7422 12.5488C85.7422 9.0332 82.7148 6.20117 79.1992 6.20117L61.6211 6.20117L61.6211-1.12305C82.2266-3.41797 97.1191-17.9688 97.1191-39.9902L97.1191-49.1699C97.1191-52.6367 94.1895-55.3711 90.6738-55.3711C87.1094-55.3711 84.1309-52.6367 84.1309-49.1699L84.1309-40.3809C84.1309-23.7793 72.0703-13.0371 55.5664-13.0371C39.0625-13.0371 27.002-23.7793 27.002-40.3809L27.002-49.1699C27.002-52.6367 24.0234-55.3711 20.459-55.3711C16.8945-55.3711 14.0137-52.6367 14.0137-49.1699Z"/>
  </g>
  <g id="Semibold-M" transform="matrix(1 0 0 1 1989.8 1126)">
   <path d="M53.4668-22.4609C63.4766-22.4609 71.3867-29.9805 71.3867-41.1621L71.3867-74.2188C71.3867-85.4004 63.4766-92.9688 53.4668-92.9688C43.4082-92.9688 35.4492-85.4492 35.4492-74.2676L35.4492-41.1621C35.4492-29.9805 43.4082-22.4609 53.4668-22.4609ZM14.3066-39.7949C14.3066-18.7988 28.3691-4.63867 48.2422-2.58789L48.2422 6.20117L30.4688 6.20117C27.4902 6.20117 25 8.59375 25 11.5723C25 14.502 27.4902 16.9434 30.4688 16.9434L76.416 16.9434C79.3945 16.9434 81.9336 14.502 81.9336 11.5723C81.9336 8.59375 79.3945 6.20117 76.416 6.20117L58.6426 6.20117L58.6426-2.58789C78.5156-4.63867 92.5781-18.7988 92.5781-39.7949L92.5781-49.2188C92.5781-52.1484 90.1855-54.4922 87.1582-54.4922C84.1309-54.4922 81.6895-52.1484 81.6895-49.2188L81.6895-40.1367C81.6895-23.5352 70.0195-12.6465 53.4668-12.6465C36.8652-12.6465 25.2441-23.5352 25.2441-40.1367L25.2441-49.2188C25.2441-52.1484 22.7539-54.4922 19.7754-54.4922C16.748-54.4922 14.3066-52.1484 14.3066-49.2188Z"/>
  </g>
  <g id="Medium-M" transform="matrix(1 0 0 1 1694.7 1126)">
   <path d="M51.8555-22.4609C61.7676-22.4609 69.0918-29.8828 69.0918-40.7227L69.0918-73.6328C69.0918-84.4727 61.7676-91.8945 51.8555-91.8945C41.9434-91.8945 34.6191-84.4727 34.6191-73.6328L34.6191-40.7227C34.6191-29.8828 41.9434-22.4609 51.8555-22.4609ZM14.5508-39.5996C14.5508-19.3848 27.9785-5.56641 47.3145-3.71094L47.3145 6.20117L29.3945 6.20117C26.8066 6.20117 24.6582 8.25195 24.6582 10.8398C24.6582 13.3789 26.8066 15.4785 29.3945 15.4785L74.3164 15.4785C76.9043 15.4785 79.0527 13.3789 79.0527 10.8398C79.0527 8.25195 76.9043 6.20117 74.3164 6.20117L56.3965 6.20117L56.3965-3.71094C75.7324-5.56641 89.1602-19.3848 89.1602-39.5996L89.1602-49.2188C89.1602-51.8066 87.1094-53.8086 84.5215-53.8086C81.9336-53.8086 79.7852-51.8066 79.7852-49.2188L79.7852-39.9414C79.7852-23.291 68.5059-12.3535 51.8555-12.3535C35.2051-12.3535 23.9258-23.291 23.9258-39.9414L23.9258-49.2188C23.9258-51.8066 21.8262-53.8086 19.2383-53.8086C16.6504-53.8086 14.5508-51.8066 14.5508-49.2188Z"/>
  </g>
  <g id="Regular-M" transform="matrix(1 0 0 1 1400.06 1126)">
   <path d="M49.8047-22.4609C59.5215-22.4609 66.0645-29.7363 66.0645-40.1367L66.0645-72.8027C66.0645-83.252 59.5215-90.4785 49.8047-90.4785C40.0391-90.4785 33.4961-83.252 33.4961-72.8027L33.4961-40.1367C33.4961-29.7363 40.0391-22.4609 49.8047-22.4609ZM14.8438-39.3555C14.8438-20.2148 27.4902-6.78711 46.0938-5.22461L46.0938 6.15234L27.9785 6.15234C25.9277 6.15234 24.2676 7.8125 24.2676 9.86328C24.2676 11.9141 25.9277 13.5254 27.9785 13.5254L71.582 13.5254C73.6328 13.5254 75.293 11.9141 75.293 9.86328C75.293 7.8125 73.6328 6.15234 71.582 6.15234L53.4668 6.15234L53.4668-5.22461C72.1191-6.78711 84.7168-20.2148 84.7168-39.3555L84.7168-49.2676C84.7168-51.3184 83.1055-52.9297 81.0547-52.9297C79.0039-52.9297 77.3438-51.3184 77.3438-49.2676L77.3438-39.6484C77.3438-22.998 66.5039-11.9629 49.8047-11.9629C33.0566-11.9629 22.2168-22.998 22.2168-39.6484L22.2168-49.2676C22.2168-51.3184 20.6055-52.9297 18.5059-52.9297C16.4551-52.9297 14.8438-51.3184 14.8438-49.2676Z"/>
  </g>
  <g id="Light-M" transform="matrix(1 0 0 1 1104.84 1126)">
   <path d="M48.291-23.291C57.8125-23.291 64.1113-30.4688 64.1113-40.4785L64.1113-73.1445C64.1113-83.1543 57.8125-90.2832 48.291-90.2832C38.7695-90.2832 32.4707-83.1543 32.4707-73.1445L32.4707-40.4785C32.4707-30.4688 38.7695-23.291 48.291-23.291ZM14.6973-39.209C14.6973-20.752 26.9531-7.71484 45.459-6.49414L45.459 6.83594L26.4648 6.83594C24.9023 6.83594 23.6328 8.10547 23.6328 9.66797C23.6328 11.2793 24.9023 12.5488 26.4648 12.5488L70.1172 12.5488C71.6797 12.5488 72.9492 11.2793 72.9492 9.66797C72.9492 8.10547 71.6797 6.83594 70.1172 6.83594L51.1719 6.83594L51.1719-6.49414C69.6289-7.71484 81.8848-20.752 81.8848-39.209L81.8848-48.7305C81.8848-50.3418 80.6152-51.6113 79.0527-51.6113C77.4414-51.6113 76.1719-50.3418 76.1719-48.7305L76.1719-39.4043C76.1719-22.998 65.2344-11.7676 48.291-11.7676C31.3477-11.7676 20.4102-22.998 20.4102-39.4043L20.4102-48.7305C20.4102-50.3418 19.1406-51.6113 17.5293-51.6113C15.9668-51.6113 14.6973-50.3418 14.6973-48.7305Z"/>
  </g>
  <g id="Thin-M" transform="matrix(1 0 0 1 810.109 1126)">
   <path d="M46.3379-24.4141C55.5664-24.4141 61.4746-31.4941 61.4746-40.918L61.4746-73.584C61.4746-83.0078 55.5664-90.0879 46.3379-90.0879C37.1094-90.0879 31.2012-83.0078 31.2012-73.584L31.2012-40.918C31.2012-31.4941 37.1094-24.4141 46.3379-24.4141ZM14.4531-38.9648C14.4531-21.5332 26.3184-8.93555 44.5801-8.1543L44.5801 7.71484L24.5117 7.71484C23.5352 7.71484 22.7539 8.49609 22.7539 9.47266C22.7539 10.4492 23.5352 11.2305 24.5117 11.2305L68.1152 11.2305C69.0918 11.2305 69.873 10.4492 69.873 9.47266C69.873 8.49609 69.0918 7.71484 68.1152 7.71484L48.0957 7.71484L48.0957-8.1543C66.3086-8.93555 78.1738-21.5332 78.1738-38.9648L78.1738-48.0957C78.1738-49.0723 77.3926-49.8535 76.416-49.8535C75.4395-49.8535 74.6582-49.0723 74.6582-48.0957L74.6582-39.0625C74.6582-22.9492 63.5742-11.5723 46.3379-11.5723C29.0527-11.5723 17.9688-22.9492 17.9688-39.0625L17.9688-48.0957C17.9688-49.0723 17.1875-49.8535 16.2109-49.8535C15.2344-49.8535 14.4531-49.0723 14.4531-48.0957Z"/>
  </g>
  <g id="Ultralight-M" transform="matrix(1 0 0 1 514.399 1126)">
   <path d="M45.3125-24.9512C54.3945-24.9512 60.1074-31.9824 60.1074-41.1133L60.1074-73.7793C60.1074-82.9102 54.3945-89.9902 45.3125-89.9902C36.2305-89.9902 30.5176-82.9102 30.5176-73.7793L30.5176-41.1133C30.5176-31.9824 36.2305-24.9512 45.3125-24.9512ZM14.3555-38.8672C14.3555-21.875 25.9766-9.57031 44.0918-9.0332L44.0918 8.1543L23.4863 8.1543C22.8516 8.1543 22.3145 8.69141 22.3145 9.375C22.3145 10.0098 22.8516 10.5469 23.4863 10.5469L67.1387 10.5469C67.7734 10.5469 68.3105 10.0098 68.3105 9.375C68.3105 8.69141 67.7734 8.1543 67.1387 8.1543L46.5332 8.1543L46.5332-9.0332C64.6484-9.57031 76.2695-21.875 76.2695-38.8672L76.2695-47.7539C76.2695-48.4375 75.7324-48.9746 75.0488-48.9746C74.4141-48.9746 73.877-48.4375 73.877-47.7539L73.877-38.8672C73.877-22.9004 62.6953-11.4258 45.3125-11.4258C27.9297-11.4258 16.748-22.9004 16.748-38.8672L16.748-47.7539C16.748-48.4375 16.2109-48.9746 15.5273-48.9746C14.8926-48.9746 14.3555-48.4375 14.3555-47.7539Z"/>
  </g>
  <g id="Black-S" transform="matrix(1 0 0 1 2885.55 696)">
   <path d="M47.8516-25.1465C56.2012-25.1465 64.5508-31.543 64.5508-41.5527L64.5508-68.1152C64.5508-78.0762 56.2012-84.5703 47.8516-84.5703C39.4531-84.5703 31.0059-78.125 31.0059-68.1641L31.0059-41.5527C31.0059-31.543 39.4531-25.1465 47.8516-25.1465ZM10.3516-39.4531C10.3516-20.0195 23.7305-7.8125 41.3086-5.41992L41.3086-2.73438L27.9785-2.73438C24.1211-2.73438 20.7031 0.390625 20.7031 4.24805C20.7031 8.00781 24.1211 11.2305 27.9785 11.2305L67.7246 11.2305C71.582 11.2305 75 8.00781 75 4.24805C75 0.390625 71.582-2.73438 67.7246-2.73438L54.3945-2.73438L54.3945-5.41992C71.9727-7.8125 85.3516-20.0195 85.3516-39.4531L85.3516-46.0938C85.3516-49.9023 82.1289-52.832 78.2227-52.832C74.3164-52.832 70.9961-49.9023 70.9961-46.0938L70.9961-39.8438C70.9961-26.8555 60.6445-18.6523 47.8516-18.6523C35.0586-18.6523 24.707-26.8555 24.707-39.8438L24.707-46.0938C24.707-49.9023 21.3867-52.832 17.4805-52.832C13.5742-52.832 10.3516-49.9023 10.3516-46.0938Z"/>
  </g>
  <g id="Heavy-S" transform="matrix(1 0 0 1 2590.77 696)">
   <path d="M45.9473-25.0488C54.1504-25.0488 61.7676-31.2988 61.7676-40.918L61.7676-67.2852C61.7676-76.8555 54.1504-83.1543 45.9473-83.1543C37.6953-83.1543 29.9805-76.9043 29.9805-67.2852L29.9805-40.918C29.9805-31.2988 37.6953-25.0488 45.9473-25.0488ZM10.6445-39.2578C10.6445-20.752 23.2422-8.93555 40.1367-6.73828L40.1367-2.83203L26.709-2.83203C23.3398-2.83203 20.3613-0.0976562 20.3613 3.27148C20.3613 6.5918 23.3398 9.375 26.709 9.375L65.1367 9.375C68.5059 9.375 71.4844 6.5918 71.4844 3.27148C71.4844-0.0976562 68.5059-2.83203 65.1367-2.83203L51.709-2.83203L51.709-6.73828C68.6035-8.93555 81.2012-20.752 81.2012-39.2578L81.2012-46.1914C81.2012-49.5117 78.3691-52.0996 74.9512-52.0996C71.5332-52.0996 68.6523-49.5117 68.6523-46.1914L68.6523-39.5996C68.6523-26.5625 58.7402-18.2617 45.9473-18.2617C33.1055-18.2617 23.1934-26.5625 23.1934-39.5996L23.1934-46.1914C23.1934-49.5117 20.3125-52.0996 16.8945-52.0996C13.4766-52.0996 10.6445-49.5117 10.6445-46.1914Z"/>
  </g>
  <g id="Bold-S" transform="matrix(1 0 0 1 2296.2 696)">
   <path d="M43.75-25C51.8066-25 58.6426-31.0547 58.6426-40.2344L58.6426-66.3086C58.6426-75.4883 51.8066-81.5918 43.75-81.5918C35.6934-81.5918 28.8574-75.4883 28.8574-66.3574L28.8574-40.2344C28.8574-31.0547 35.6934-25 43.75-25ZM11.0352-39.0137C11.0352-21.582 22.7051-10.1562 38.8672-8.25195L38.8672-2.92969L25.293-2.92969C22.4609-2.92969 20.0195-0.634766 20.0195 2.19727C20.0195 5.0293 22.4609 7.32422 25.293 7.32422L62.2559 7.32422C65.0879 7.32422 67.5293 5.0293 67.5293 2.19727C67.5293-0.634766 65.0879-2.92969 62.2559-2.92969L48.6816-2.92969L48.6816-8.25195C64.7949-10.1562 76.5137-21.582 76.5137-39.0137L76.5137-46.2891C76.5137-49.0723 74.1699-51.2695 71.3379-51.2695C68.457-51.2695 66.0645-49.0723 66.0645-46.2891L66.0645-39.3555C66.0645-26.2695 56.6406-17.8711 43.75-17.8711C30.9082-17.8711 21.4844-26.2695 21.4844-39.3555L21.4844-46.2891C21.4844-49.0723 19.0918-51.2695 16.2109-51.2695C13.3301-51.2695 11.0352-49.0723 11.0352-46.2891Z"/>
  </g>
  <g id="Semibold-S" transform="matrix(1 0 0 1 2000.98 696)">
   <path d="M42.2852-24.9512C50.1953-24.9512 56.4453-30.8594 56.4453-39.7461L56.4453-65.6738C56.4453-74.5117 50.1953-80.4688 42.2852-80.4688C34.3262-80.4688 28.0762-74.5605 28.0762-65.6738L28.0762-39.7461C28.0762-30.8594 34.3262-24.9512 42.2852-24.9512ZM11.2305-38.8184C11.2305-22.168 22.3633-10.9863 37.9395-9.27734L37.9395-2.97852L24.3164-2.97852C21.8262-2.97852 19.7754-1.02539 19.7754 1.46484C19.7754 3.90625 21.8262 5.9082 24.3164 5.9082L60.2539 5.9082C62.7441 5.9082 64.7949 3.90625 64.7949 1.46484C64.7949-1.02539 62.7441-2.97852 60.2539-2.97852L46.6309-2.97852L46.6309-9.27734C62.207-10.9863 73.3398-22.168 73.3398-38.8184L73.3398-46.3379C73.3398-48.7793 71.2891-50.7324 68.7988-50.7324C66.3086-50.7324 64.2578-48.7793 64.2578-46.3379L64.2578-39.1602C64.2578-26.0742 55.2246-17.5781 42.2852-17.5781C29.3457-17.5781 20.3125-26.0742 20.3125-39.1602L20.3125-46.3379C20.3125-48.7793 18.2617-50.7324 15.7715-50.7324C13.2812-50.7324 11.2305-48.7793 11.2305-46.3379Z"/>
  </g>
  <g id="Medium-S" transform="matrix(1 0 0 1 1705.39 696)">
   <path d="M41.1621-24.9023C48.9746-24.9023 54.834-30.7129 54.834-39.4043L54.834-65.1367C54.834-73.8281 48.9746-79.6875 41.1621-79.6875C33.3008-79.6875 27.4414-73.8281 27.4414-65.1855L27.4414-39.4043C27.4414-30.7129 33.3008-24.9023 41.1621-24.9023ZM11.4258-38.7207C11.4258-22.6074 22.0703-11.6699 37.3047-10.0586L37.3047-3.02734L23.584-3.02734C21.3867-3.02734 19.5801-1.26953 19.5801 0.927734C19.5801 3.07617 21.3867 4.83398 23.584 4.83398L58.7402 4.83398C60.9375 4.83398 62.7441 3.07617 62.7441 0.927734C62.7441-1.26953 60.9375-3.02734 58.7402-3.02734L45.0195-3.02734L45.0195-10.0586C60.2051-11.6699 70.8984-22.6074 70.8984-38.7207L70.8984-46.3867C70.8984-48.584 69.0918-50.293 66.8945-50.293C64.6973-50.293 62.8906-48.584 62.8906-46.3867L62.8906-39.0137C62.8906-25.8789 54.1016-17.334 41.1621-17.334C28.2227-17.334 19.4336-25.8789 19.4336-39.0137L19.4336-46.3867C19.4336-48.584 17.627-50.293 15.4297-50.293C13.1836-50.293 11.4258-48.584 11.4258-46.3867Z"/>
  </g>
  <g id="Regular-S" transform="matrix(1 0 0 1 1410.15 696)">
   <path d="M39.6973-24.8535C47.4121-24.8535 52.6855-30.5176 52.6855-38.916L52.6855-64.502C52.6855-72.9004 47.4121-78.5645 39.6973-78.5645C31.9336-78.5645 26.6602-72.9004 26.6602-64.502L26.6602-38.916C26.6602-30.5176 31.9336-24.8535 39.6973-24.8535ZM11.6699-38.5254C11.6699-23.1934 21.7285-12.5 36.377-11.084L36.377-3.125L22.6074-3.125C20.752-3.125 19.2871-1.66016 19.2871 0.146484C19.2871 2.00195 20.752 3.4668 22.6074 3.4668L56.7871 3.4668C58.5938 3.4668 60.0586 2.00195 60.0586 0.146484C60.0586-1.66016 58.5938-3.125 56.7871-3.125L42.9688-3.125L42.9688-11.084C57.666-12.5 67.7246-23.1934 67.7246-38.5254L67.7246-46.4355C67.7246-48.291 66.2598-49.7559 64.4043-49.7559C62.5977-49.7559 61.1328-48.291 61.1328-46.4355L61.1328-38.8184C61.1328-25.6836 52.6855-17.041 39.6973-17.041C26.709-17.041 18.2617-25.6836 18.2617-38.8184L18.2617-46.4355C18.2617-48.291 16.7969-49.7559 14.9414-49.7559C13.1348-49.7559 11.6699-48.291 11.6699-46.4355Z"/>
  </g>
  <g id="Light-S" transform="matrix(1 0 0 1 1114.75 696)">
   <path d="M38.3789-25.5859C45.8984-25.5859 50.9277-31.2012 50.9277-39.209L50.9277-64.7949C50.9277-72.8027 45.8984-78.418 38.3789-78.418C30.8594-78.418 25.8301-72.8027 25.8301-64.7949L25.8301-39.209C25.8301-31.2012 30.8594-25.5859 38.3789-25.5859ZM11.5234-38.3789C11.5234-23.6816 21.2891-13.3301 35.8398-12.207L35.8398-2.53906L21.2891-2.53906C19.873-2.53906 18.75-1.41602 18.75 0C18.75 1.46484 19.873 2.58789 21.2891 2.58789L55.4688 2.58789C56.8848 2.58789 58.0078 1.46484 58.0078 0C58.0078-1.41602 56.8848-2.53906 55.4688-2.53906L40.918-2.53906L40.918-12.207C55.4688-13.3301 65.2344-23.6816 65.2344-38.3789L65.2344-45.9961C65.2344-47.4609 64.1113-48.584 62.6465-48.584C61.2305-48.584 60.1074-47.4609 60.1074-45.9961L60.1074-38.5742C60.1074-25.6348 51.5625-16.8945 38.3789-16.8945C25.1953-16.8945 16.6504-25.6348 16.6504-38.5742L16.6504-45.9961C16.6504-47.4609 15.5273-48.584 14.1113-48.584C12.6465-48.584 11.5234-47.4609 11.5234-45.9961Z"/>
  </g>
  <g id="Thin-S" transform="matrix(1 0 0 1 819.777 696)">
   <path d="M36.6699-26.5137C43.9453-26.5137 48.6328-32.0801 48.6328-39.5996L48.6328-65.1855C48.6328-72.7051 43.9453-78.2715 36.6699-78.2715C29.3457-78.2715 24.6582-72.7051 24.6582-65.1855L24.6582-39.5996C24.6582-32.0801 29.3457-26.5137 36.6699-26.5137ZM11.377-38.2324C11.377-24.3164 20.752-14.4043 35.0586-13.7207L35.0586-1.75781L19.5801-1.75781C18.7012-1.75781 17.9688-1.07422 17.9688-0.146484C17.9688 0.732422 18.7012 1.41602 19.5801 1.41602L53.7598 1.41602C54.6387 1.41602 55.3223 0.732422 55.3223-0.146484C55.3223-1.07422 54.6387-1.75781 53.7598-1.75781L38.2324-1.75781L38.2324-13.7207C52.5879-14.4043 61.9629-24.3164 61.9629-38.2324L61.9629-45.459C61.9629-46.3379 61.2305-47.0215 60.3516-47.0215C59.4727-47.0215 58.7891-46.3379 58.7891-45.459L58.7891-38.2812C58.7891-25.6348 50.0977-16.748 36.6699-16.748C23.1934-16.748 14.5508-25.6348 14.5508-38.2812L14.5508-45.459C14.5508-46.3379 13.8184-47.0215 12.9395-47.0215C12.0605-47.0215 11.377-46.3379 11.377-45.459Z"/>
  </g>
  <g id="Ultralight-S" transform="matrix(1 0 0 1 523.945 696)">
   <path d="M35.7422-27.0508C42.9199-27.0508 47.4609-32.5684 47.4609-39.7949L47.4609-65.3809C47.4609-72.6074 42.9199-78.125 35.7422-78.125C28.6133-78.125 24.0723-72.6074 24.0723-65.3809L24.0723-39.7949C24.0723-32.5684 28.6133-27.0508 35.7422-27.0508ZM11.2793-38.0859C11.2793-24.6582 20.459-14.9414 34.668-14.4531L34.668-1.36719L18.6523-1.36719C18.0664-1.36719 17.5781-0.878906 17.5781-0.292969C17.5781 0.341797 18.0664 0.830078 18.6523 0.830078L52.832 0.830078C53.4668 0.830078 53.9551 0.341797 53.9551-0.292969C53.9551-0.878906 53.4668-1.36719 52.832-1.36719L36.8652-1.36719L36.8652-14.4531C51.0742-14.9414 60.2539-24.6582 60.2539-38.0859L60.2539-45.1172C60.2539-45.752 59.7656-46.2402 59.1797-46.2402C58.5449-46.2402 58.0566-45.752 58.0566-45.1172L58.0566-38.1348C58.0566-25.5859 49.3652-16.6016 35.7422-16.6016C22.168-16.6016 13.4277-25.5859 13.4277-38.1348L13.4277-45.1172C13.4277-45.752 12.9395-46.2402 12.3535-46.2402C11.7676-46.2402 11.2793-45.752 11.2793-45.1172Z"/>
  </g>
 </g>
</svg>
