<?xml version="1.0" encoding="UTF-8"?>
<!--Generator: Apple Native CoreSVG 149-->
<!DOCTYPE svg
PUBLIC "-//W3C//DTD SVG 1.1//EN"
       "http://www.w3.org/Graphics/SVG/1.1/DTD/svg11.dtd">
<svg version="1.1" xmlns="http://www.w3.org/2000/svg" xmlns:xlink="http://www.w3.org/1999/xlink" width="3300" height="2200">
 <!--glyph: "uni1003C5.medium", point size: 100.000000, font version: "Version 16.0d18e1", template writer version: "8"-->
 <g id="Notes">
  <rect height="2200" id="artboard" style="fill:white;opacity:1" width="3300" x="0" y="0"/>
  <line id="" style="fill:none;stroke:black;opacity:1;stroke-width:0.5;" x1="263" x2="3036" y1="292" y2="292"/>
  <text style="stroke:none;fill:black;font-family:-apple-system,&quot;SF Pro Display&quot;,&quot;SF Pro Text&quot;,Helvetica,sans-serif;font-weight:bold;" transform="matrix(1 0 0 1 263 322)">Weight/Scale Variations</text>
  <text style="stroke:none;fill:black;font-family:-apple-system,&quot;SF Pro Display&quot;,&quot;SF Pro Text&quot;,Helvetica,sans-serif;text-anchor:middle;" transform="matrix(1 0 0 1 559.711 322)">Ultralight</text>
  <text style="stroke:none;fill:black;font-family:-apple-system,&quot;SF Pro Display&quot;,&quot;SF Pro Text&quot;,Helvetica,sans-serif;text-anchor:middle;" transform="matrix(1 0 0 1 856.422 322)">Thin</text>
  <text style="stroke:none;fill:black;font-family:-apple-system,&quot;SF Pro Display&quot;,&quot;SF Pro Text&quot;,Helvetica,sans-serif;text-anchor:middle;" transform="matrix(1 0 0 1 1153.13 322)">Light</text>
  <text style="stroke:none;fill:black;font-family:-apple-system,&quot;SF Pro Display&quot;,&quot;SF Pro Text&quot;,Helvetica,sans-serif;text-anchor:middle;" transform="matrix(1 0 0 1 1449.84 322)">Regular</text>
  <text style="stroke:none;fill:black;font-family:-apple-system,&quot;SF Pro Display&quot;,&quot;SF Pro Text&quot;,Helvetica,sans-serif;text-anchor:middle;" transform="matrix(1 0 0 1 1746.56 322)">Medium</text>
  <text style="stroke:none;fill:black;font-family:-apple-system,&quot;SF Pro Display&quot;,&quot;SF Pro Text&quot;,Helvetica,sans-serif;text-anchor:middle;" transform="matrix(1 0 0 1 2043.27 322)">Semibold</text>
  <text style="stroke:none;fill:black;font-family:-apple-system,&quot;SF Pro Display&quot;,&quot;SF Pro Text&quot;,Helvetica,sans-serif;text-anchor:middle;" transform="matrix(1 0 0 1 2339.98 322)">Bold</text>
  <text style="stroke:none;fill:black;font-family:-apple-system,&quot;SF Pro Display&quot;,&quot;SF Pro Text&quot;,Helvetica,sans-serif;text-anchor:middle;" transform="matrix(1 0 0 1 2636.69 322)">Heavy</text>
  <text style="stroke:none;fill:black;font-family:-apple-system,&quot;SF Pro Display&quot;,&quot;SF Pro Text&quot;,Helvetica,sans-serif;text-anchor:middle;" transform="matrix(1 0 0 1 2933.4 322)">Black</text>
  <line id="" style="fill:none;stroke:black;opacity:1;stroke-width:0.5;" x1="263" x2="3036" y1="1903" y2="1903"/>
  <g id="" transform="matrix(1 0 0 1 263 1933)">
   <path d="M9.24805 0.830078C13.5547 0.830078 17.1387-2.74414 17.1387-7.05078C17.1387-11.3574 13.5449-14.9316 9.23828-14.9316C4.94141-14.9316 1.36719-11.3574 1.36719-7.05078C1.36719-2.74414 4.95117 0.830078 9.24805 0.830078ZM9.24805-0.654297C5.70312-0.654297 2.87109-3.49609 2.87109-7.05078C2.87109-10.6055 5.69336-13.4473 9.23828-13.4473C12.793-13.4473 15.6348-10.6055 15.6445-7.05078C15.6543-3.49609 12.8027-0.654297 9.24805-0.654297ZM6.39648-6.31836L8.50586-6.31836L8.50586-4.19922C8.50586-3.75977 8.79883-3.45703 9.22852-3.45703C9.67773-3.45703 9.9707-3.75977 9.9707-4.19922L9.9707-6.31836L12.0996-6.31836C12.5391-6.31836 12.8418-6.61133 12.8418-7.04102C12.8418-7.48047 12.5391-7.7832 12.0996-7.7832L9.9707-7.7832L9.9707-9.89258C9.9707-10.3418 9.67773-10.6445 9.22852-10.6445C8.79883-10.6445 8.50586-10.3418 8.50586-9.89258L8.50586-7.7832L6.39648-7.7832C5.94727-7.7832 5.64453-7.48047 5.64453-7.04102C5.64453-6.61133 5.94727-6.31836 6.39648-6.31836Z"/>
  </g>
  <g id="" transform="matrix(1 0 0 1 281.506 1933)">
   <path d="M11.709 2.91016C17.1582 2.91016 21.6699-1.61133 21.6699-7.05078C21.6699-12.5 17.1484-17.0117 11.6992-17.0117C6.25977-17.0117 1.74805-12.5 1.74805-7.05078C1.74805-1.61133 6.26953 2.91016 11.709 2.91016ZM11.709 1.25C7.09961 1.25 3.41797-2.44141 3.41797-7.05078C3.41797-11.6602 7.08984-15.3516 11.6992-15.3516C16.3086-15.3516 20-11.6602 20.0098-7.05078C20.0195-2.44141 16.3184 1.25 11.709 1.25ZM7.98828-6.23047L10.8789-6.23047L10.8789-3.32031C10.8789-2.83203 11.2109-2.5 11.6895-2.5C12.1777-2.5 12.5195-2.83203 12.5195-3.32031L12.5195-6.23047L15.4297-6.23047C15.918-6.23047 16.25-6.5625 16.25-7.04102C16.25-7.5293 15.918-7.87109 15.4297-7.87109L12.5195-7.87109L12.5195-10.7617C12.5195-11.2695 12.1777-11.6016 11.6895-11.6016C11.2109-11.6016 10.8789-11.2598 10.8789-10.7617L10.8789-7.87109L7.98828-7.87109C7.48047-7.87109 7.14844-7.5293 7.14844-7.04102C7.14844-6.5625 7.49023-6.23047 7.98828-6.23047Z"/>
  </g>
  <g id="" transform="matrix(1 0 0 1 304.924 1933)">
   <path d="M14.9707 5.66406C21.9336 5.66406 27.6953-0.0976562 27.6953-7.05078C27.6953-14.0137 21.9238-19.7754 14.9609-19.7754C8.00781-19.7754 2.25586-14.0137 2.25586-7.05078C2.25586-0.0976562 8.01758 5.66406 14.9707 5.66406ZM14.9707 3.84766C8.93555 3.84766 4.08203-1.01562 4.08203-7.05078C4.08203-13.0957 8.92578-17.9492 14.9609-17.9492C21.0059-17.9492 25.8594-13.0957 25.8691-7.05078C25.8789-1.01562 21.0156 3.84766 14.9707 3.84766ZM10.0586-6.14258L14.0625-6.14258L14.0625-2.12891C14.0625-1.5918 14.4336-1.2207 14.9512-1.2207C15.4883-1.2207 15.8594-1.5918 15.8594-2.12891L15.8594-6.14258L19.8828-6.14258C20.4102-6.14258 20.791-6.51367 20.791-7.03125C20.791-7.56836 20.4199-7.94922 19.8828-7.94922L15.8594-7.94922L15.8594-11.9531C15.8594-12.5098 15.4883-12.8809 14.9512-12.8809C14.4336-12.8809 14.0625-12.5 14.0625-11.9531L14.0625-7.94922L10.0586-7.94922C9.50195-7.94922 9.13086-7.56836 9.13086-7.03125C9.13086-6.51367 9.51172-6.14258 10.0586-6.14258Z"/>
  </g>
  <text style="stroke:none;fill:black;font-family:-apple-system,&quot;SF Pro Display&quot;,&quot;SF Pro Text&quot;,Helvetica,sans-serif;font-weight:bold;" transform="matrix(1 0 0 1 263 1953)">Design Variations</text>
  <text style="stroke:none;fill:black;font-family:-apple-system,&quot;SF Pro Display&quot;,&quot;SF Pro Text&quot;,Helvetica,sans-serif;" transform="matrix(1 0 0 1 263 1971)">Symbols are supported in up to nine weights and three scales.</text>
  <text style="stroke:none;fill:black;font-family:-apple-system,&quot;SF Pro Display&quot;,&quot;SF Pro Text&quot;,Helvetica,sans-serif;" transform="matrix(1 0 0 1 263 1989)">For optimal layout with text and other symbols, vertically align</text>
  <text style="stroke:none;fill:black;font-family:-apple-system,&quot;SF Pro Display&quot;,&quot;SF Pro Text&quot;,Helvetica,sans-serif;" transform="matrix(1 0 0 1 263 2007)">symbols with the adjacent text.</text>
  <line id="" style="fill:none;stroke:#00AEEF;stroke-width:0.5;opacity:1.0;" x1="776" x2="776" y1="1919" y2="1933"/>
  <g id="" transform="matrix(1 0 0 1 776 1933)">
   <path d="M3.31055 0.126953C3.82812 0.126953 4.08203-0.0683594 4.26758-0.605469L5.52734-4.0625L11.2891-4.0625L12.5488-0.605469C12.7344-0.0683594 12.9883 0.126953 13.4961 0.126953C14.0137 0.126953 14.3457-0.185547 14.3457-0.673828C14.3457-0.839844 14.3164-0.986328 14.2383-1.20117L9.6582-13.3887C9.43359-13.9941 9.0332-14.2871 8.4082-14.2871C7.80273-14.2871 7.39258-13.9941 7.17773-13.3984L2.59766-1.19141C2.51953-0.976562 2.49023-0.830078 2.49023-0.664062C2.49023-0.175781 2.80273 0.126953 3.31055 0.126953ZM6.00586-5.53711L8.37891-12.1094L8.42773-12.1094L10.8008-5.53711Z"/>
  </g>
  <line id="" style="fill:none;stroke:#00AEEF;stroke-width:0.5;opacity:1.0;" x1="792.836" x2="792.836" y1="1919" y2="1933"/>
  <text style="stroke:none;fill:black;font-family:-apple-system,&quot;SF Pro Display&quot;,&quot;SF Pro Text&quot;,Helvetica,sans-serif;font-weight:bold;" transform="matrix(1 0 0 1 776 1953)">Margins</text>
  <text style="stroke:none;fill:black;font-family:-apple-system,&quot;SF Pro Display&quot;,&quot;SF Pro Text&quot;,Helvetica,sans-serif;" transform="matrix(1 0 0 1 776 1971)">Leading and trailing margins on the left and right side of each symbol</text>
  <text style="stroke:none;fill:black;font-family:-apple-system,&quot;SF Pro Display&quot;,&quot;SF Pro Text&quot;,Helvetica,sans-serif;" transform="matrix(1 0 0 1 776 1989)">can be adjusted by modifying the x-location of the margin guidelines.</text>
  <text style="stroke:none;fill:black;font-family:-apple-system,&quot;SF Pro Display&quot;,&quot;SF Pro Text&quot;,Helvetica,sans-serif;" transform="matrix(1 0 0 1 776 2007)">Modifications are automatically applied proportionally to all</text>
  <text style="stroke:none;fill:black;font-family:-apple-system,&quot;SF Pro Display&quot;,&quot;SF Pro Text&quot;,Helvetica,sans-serif;" transform="matrix(1 0 0 1 776 2025)">scales and weights.</text>
  <g id="" transform="matrix(1 0 0 1 1289 1933)">
   <path d="M2.8418 1.86523L4.54102 3.57422C5.40039 4.44336 6.38672 4.38477 7.31445 3.35938L17.4902-7.85156C17.7539-7.76367 18.0273-7.7832 18.3398-7.8418L19.4043-8.03711L20.0684-7.36328L20.0293-6.80664C19.9902-6.30859 20.1172-5.92773 20.6055-5.44922L21.3672-4.70703C21.8457-4.22852 22.4609-4.19922 22.9297-4.66797L25.8398-7.58789C26.3086-8.05664 26.2891-8.65234 25.8105-9.13086L25.0391-9.89258C24.5605-10.3711 24.1895-10.5273 23.7109-10.4883L23.1348-10.4395L22.4902-11.0742L22.7344-12.1973C22.8613-12.7637 22.7051-13.2031 22.1191-13.7891L19.9219-15.9766C16.582-19.2969 12.1484-19.2188 9.25781-16.3281C8.83789-15.918 8.80859-15.3418 9.04297-14.9512C9.27734-14.5898 9.73633-14.3555 10.3809-14.5215C11.8457-14.8633 13.3691-14.9219 14.7949-13.9844L14.209-12.5293C14.0137-12.0508 13.9844-11.6504 14.1113-11.2891L3.04688-0.898438C2.06055 0.0195312 1.98242 0.996094 2.8418 1.86523ZM10.752-15.957C13.1836-17.7344 16.4746-17.4316 18.7012-15.2051L21.1328-12.793C21.3672-12.5586 21.4062-12.373 21.3379-12.0312L21.0156-10.5469L22.5195-9.0625L23.5059-9.12109C23.7598-9.13086 23.8379-9.11133 24.0332-8.91602L24.6094-8.33984L22.168-5.89844L21.5918-6.47461C21.3965-6.66992 21.3672-6.74805 21.377-7.01172L21.4453-7.98828L19.9512-9.47266L18.4277-9.21875C18.1055-9.15039 17.959-9.17969 17.7148-9.41406L15.7129-11.416C15.459-11.6504 15.4297-11.8164 15.5859-12.1875L16.4648-14.2773C14.9023-15.7324 12.8711-16.3574 10.8398-15.7617C10.6836-15.7227 10.625-15.8496 10.752-15.957ZM5.27344 2.30469L4.10156 1.14258C3.63281 0.683594 3.74023 0.341797 4.14062-0.0195312L14.9512-10.1953L16.416-8.71094L6.42578 2.27539C6.07422 2.67578 5.74219 2.77344 5.27344 2.30469Z"/>
  </g>
  <text style="stroke:none;fill:black;font-family:-apple-system,&quot;SF Pro Display&quot;,&quot;SF Pro Text&quot;,Helvetica,sans-serif;font-weight:bold;" transform="matrix(1 0 0 1 1289 1953)">Exporting</text>
  <text style="stroke:none;fill:black;font-family:-apple-system,&quot;SF Pro Display&quot;,&quot;SF Pro Text&quot;,Helvetica,sans-serif;" transform="matrix(1 0 0 1 1289 1971)">Symbols should be outlined when exporting to ensure the</text>
  <text style="stroke:none;fill:black;font-family:-apple-system,&quot;SF Pro Display&quot;,&quot;SF Pro Text&quot;,Helvetica,sans-serif;" transform="matrix(1 0 0 1 1289 1989)">design is preserved when submitting to Xcode.</text>
  <text id="template-version" style="stroke:none;fill:black;font-family:-apple-system,&quot;SF Pro Display&quot;,&quot;SF Pro Text&quot;,Helvetica,sans-serif;text-anchor:end;" transform="matrix(1 0 0 1 3036 1933)">Template v.2.0</text>
  <text style="stroke:none;fill:black;font-family:-apple-system,&quot;SF Pro Display&quot;,&quot;SF Pro Text&quot;,Helvetica,sans-serif;text-anchor:end;" transform="matrix(1 0 0 1 3036 1951)">Requires Xcode 12 or greater</text>
  <text style="stroke:none;fill:black;font-family:-apple-system,&quot;SF Pro Display&quot;,&quot;SF Pro Text&quot;,Helvetica,sans-serif;text-anchor:end;" transform="matrix(1 0 0 1 3036 1969)">Generated from photo</text>
  <text style="stroke:none;fill:black;font-family:-apple-system,&quot;SF Pro Display&quot;,&quot;SF Pro Text&quot;,Helvetica,sans-serif;text-anchor:end;" transform="matrix(1 0 0 1 3036 1987)">Typeset at 100 points</text>
  <text style="stroke:none;fill:black;font-family:-apple-system,&quot;SF Pro Display&quot;,&quot;SF Pro Text&quot;,Helvetica,sans-serif;" transform="matrix(1 0 0 1 263 726)">Small</text>
  <text style="stroke:none;fill:black;font-family:-apple-system,&quot;SF Pro Display&quot;,&quot;SF Pro Text&quot;,Helvetica,sans-serif;" transform="matrix(1 0 0 1 263 1156)">Medium</text>
  <text style="stroke:none;fill:black;font-family:-apple-system,&quot;SF Pro Display&quot;,&quot;SF Pro Text&quot;,Helvetica,sans-serif;" transform="matrix(1 0 0 1 263 1586)">Large</text>
 </g>
 <g id="Guides">
  <g id="H-reference" style="fill:#27AAE1;stroke:none;" transform="matrix(1 0 0 1 339 696)">
   <path d="M0.976562 0L3.66211 0L12.9883-24.4629L45.752-24.4629L55.127 0L57.7637 0L30.6152-70.459L28.125-70.459ZM29.3457-67.1387L29.4434-67.1387L44.873-26.709L13.8672-26.709Z"/>
  </g>
  <line id="Baseline-S" style="fill:none;stroke:#27AAE1;opacity:1;stroke-width:0.5;" x1="263" x2="3036" y1="696" y2="696"/>
  <line id="Capline-S" style="fill:none;stroke:#27AAE1;opacity:1;stroke-width:0.5;" x1="263" x2="3036" y1="625.541" y2="625.541"/>
  <g id="H-reference" style="fill:#27AAE1;stroke:none;" transform="matrix(1 0 0 1 339 1126)">
   <path d="M0.976562 0L3.66211 0L12.9883-24.4629L45.752-24.4629L55.127 0L57.7637 0L30.6152-70.459L28.125-70.459ZM29.3457-67.1387L29.4434-67.1387L44.873-26.709L13.8672-26.709Z"/>
  </g>
  <line id="Baseline-M" style="fill:none;stroke:#27AAE1;opacity:1;stroke-width:0.5;" x1="263" x2="3036" y1="1126" y2="1126"/>
  <line id="Capline-M" style="fill:none;stroke:#27AAE1;opacity:1;stroke-width:0.5;" x1="263" x2="3036" y1="1055.54" y2="1055.54"/>
  <g id="H-reference" style="fill:#27AAE1;stroke:none;" transform="matrix(1 0 0 1 339 1556)">
   <path d="M0.976562 0L3.66211 0L12.9883-24.4629L45.752-24.4629L55.127 0L57.7637 0L30.6152-70.459L28.125-70.459ZM29.3457-67.1387L29.4434-67.1387L44.873-26.709L13.8672-26.709Z"/>
  </g>
  <line id="Baseline-L" style="fill:none;stroke:#27AAE1;opacity:1;stroke-width:0.5;" x1="263" x2="3036" y1="1556" y2="1556"/>
  <line id="Capline-L" style="fill:none;stroke:#27AAE1;opacity:1;stroke-width:0.5;" x1="263" x2="3036" y1="1485.54" y2="1485.54"/>
  <line id="left-margin" style="fill:none;stroke:#00AEEF;stroke-width:0.5;opacity:1.0;" x1="1379.82" x2="1379.82" y1="1030.79" y2="1150.12"/>
  <line id="right-margin" style="fill:none;stroke:#00AEEF;stroke-width:0.5;opacity:1.0;" x1="1519.86" x2="1519.86" y1="1030.79" y2="1150.12"/>
 </g>
 <g id="Symbols">
  <g id="Black-L" transform="matrix(1 0 0 1 2841.51 1556)">
   <path d="M39.9902 26.5137L143.799 26.5137C159.082 26.5137 167.725 17.8711 167.725 2.68555L167.725-73.0957C167.725-88.2812 159.082-96.875 143.799-96.875L39.9902-96.875C24.7559-96.875 16.0645-88.2812 16.0645-73.0957L16.0645 2.68555C16.0645 17.8711 24.7559 26.5137 39.9902 26.5137ZM36.3281-70.2148C36.3281-74.7559 38.4766-76.6602 42.6758-76.6602L141.064-76.6602C145.312-76.6602 147.461-74.7559 147.461-70.2148L147.461-14.209L123.779-36.377C121.045-38.8672 117.725-40.0879 114.502-40.0879C111.133-40.0879 108.008-38.9648 105.176-36.4746L76.9043-11.1328L65.3809-21.4355C62.7441-23.7793 59.7656-24.9512 56.8848-24.9512C53.7598-24.9512 51.4648-23.8281 48.8281-21.4844L36.3281-10.5957ZM71.3379-32.2266C80.0293-32.2266 87.2559-39.4531 87.2559-48.2422C87.2559-56.9336 80.0293-64.209 71.3379-64.209C62.5488-64.209 55.3711-56.9336 55.3711-48.2422C55.3711-39.4531 62.5488-32.2266 71.3379-32.2266Z"/>
  </g>
  <g id="Heavy-L" transform="matrix(1 0 0 1 2545.23 1556)">
   <path d="M38.8184 25.4883L144.092 25.4883C158.74 25.4883 166.846 17.4316 166.846 2.88086L166.846-73.2422C166.846-87.793 158.74-95.8496 144.092-95.8496L38.8184-95.8496C24.2188-95.8496 16.0645-87.793 16.0645-73.2422L16.0645 2.88086C16.0645 17.4316 24.2188 25.4883 38.8184 25.4883ZM33.5938-70.9473C33.5938-76.0742 36.084-78.3691 40.918-78.3691L141.943-78.3691C146.777-78.3691 149.316-76.0742 149.316-70.9473L149.316-11.3281L123.047-35.8887C120.264-38.3789 116.992-39.6484 113.672-39.6484C110.254-39.6484 107.129-38.5254 104.297-35.9863L75.9277-10.5957L64.3555-20.9961C61.6699-23.3398 58.7402-24.5605 55.8105-24.5605C52.7344-24.5605 50.3906-23.4375 47.7539-21.0938L33.5938-8.59375ZM69.2871-32.7637C77.832-32.7637 84.9121-39.8438 84.9121-48.4863C84.9121-57.0801 77.832-64.209 69.2871-64.209C60.6445-64.209 53.5645-57.0801 53.5645-48.4863C53.5645-39.8438 60.6445-32.7637 69.2871-32.7637Z"/>
  </g>
  <g id="Bold-L" transform="matrix(1 0 0 1 2249.01 1556)">
   <path d="M37.5 24.3652L144.385 24.3652C158.35 24.3652 165.869 16.8945 165.869 3.07617L165.869-73.3887C165.869-87.207 158.35-94.7266 144.385-94.7266L37.5-94.7266C23.6328-94.7266 16.0645-87.2559 16.0645-73.3887L16.0645 3.07617C16.0645 16.8945 23.6328 24.3652 37.5 24.3652ZM30.5176-71.7285C30.5176-77.5391 33.4473-80.2734 38.9648-80.2734L142.969-80.2734C148.389-80.2734 151.416-77.5391 151.416-71.7285L151.416-8.10547L122.168-35.3516C119.336-37.8906 116.113-39.209 112.744-39.209C109.229-39.209 106.152-38.0371 103.271-35.4492L74.8047-10.0098L63.1836-20.5566C60.5469-22.9004 57.6172-24.1211 54.6387-24.1211C51.6113-24.1211 49.1699-22.9492 46.582-20.6055L30.5176-6.29883ZM66.9922-33.3496C75.3906-33.3496 82.3242-40.2832 82.3242-48.7793C82.3242-57.1777 75.3906-64.209 66.9922-64.209C58.4961-64.209 51.5625-57.1777 51.5625-48.7793C51.5625-40.2832 58.4961-33.3496 66.9922-33.3496Z"/>
  </g>
  <g id="Semibold-L" transform="matrix(1 0 0 1 1952.64 1556)">
   <path d="M36.6211 23.584L144.629 23.584C158.057 23.584 165.186 16.5039 165.186 3.17383L165.186-73.5352C165.186-86.8164 158.057-93.9453 144.629-93.9453L36.6211-93.9453C23.1934-93.9453 16.0645-86.8652 16.0645-73.5352L16.0645 3.17383C16.0645 16.5527 23.1934 23.584 36.6211 23.584ZM28.418-72.3145C28.418-78.5156 31.6406-81.5918 37.5977-81.5918L143.652-81.5918C149.512-81.5918 152.832-78.5156 152.832-72.3145L152.832-5.85938L121.631-35.0098C118.75-37.5 115.527-38.8672 112.061-38.8672C108.545-38.8672 105.469-37.6953 102.588-35.0586L74.0723-9.61914L62.4023-20.2148C59.7168-22.6074 56.8359-23.8281 53.8574-23.8281C50.8789-23.8281 48.3398-22.6562 45.752-20.3125L28.418-4.6875ZM65.3809-33.7402C73.6816-33.7402 80.5176-40.5762 80.5176-48.9746C80.5176-57.2754 73.6816-64.209 65.3809-64.209C56.9824-64.209 50.1465-57.2754 50.1465-48.9746C50.1465-40.5762 56.9824-33.7402 65.3809-33.7402Z"/>
  </g>
  <g id="Medium-L" transform="matrix(1 0 0 1 1656.2 1556)">
   <path d="M35.9375 22.998L144.775 22.998C157.861 22.998 164.648 16.2109 164.648 3.27148L164.648-73.6328C164.648-86.5234 157.861-93.3105 144.775-93.3105L35.9375-93.3105C22.9004-93.3105 16.0645-86.5723 16.0645-73.6328L16.0645 3.27148C16.0645 16.2598 22.9004 22.998 35.9375 22.998ZM26.8066-72.7051C26.8066-79.2969 30.2246-82.6172 36.5723-82.6172L144.141-82.6172C150.391-82.6172 153.906-79.2969 153.906-72.7051L153.906-4.19922L121.191-34.7168C118.262-37.2559 115.088-38.623 111.572-38.623C108.057-38.623 104.98-37.4023 102.051-34.8145L73.4863-9.27734L61.7676-19.9707C59.1309-22.3633 56.25-23.584 53.2227-23.584C50.293-23.584 47.7539-22.4121 45.1172-20.0684L26.8066-3.4668ZM64.1602-34.082C72.4121-34.082 79.1992-40.8203 79.1992-49.1211C79.1992-57.373 72.4121-64.209 64.1602-64.209C55.8594-64.209 49.1211-57.373 49.1211-49.1211C49.1211-40.8203 55.8594-34.082 64.1602-34.082Z"/>
  </g>
  <g id="Regular-L" transform="matrix(1 0 0 1 1359.81 1556)">
   <path d="M35.0586 22.2168L144.971 22.2168C157.617 22.2168 164.014 15.8691 164.014 3.41797L164.014-73.7305C164.014-86.1816 157.617-92.5293 144.971-92.5293L35.0586-92.5293C22.4609-92.5293 16.0645-86.2305 16.0645-73.7305L16.0645 3.41797C16.0645 15.918 22.4609 22.2168 35.0586 22.2168ZM24.707-73.291C24.707-80.2734 28.418-83.8867 35.2539-83.8867L144.824-83.8867C151.514-83.8867 155.322-80.2734 155.322-73.291L155.322-1.95312L120.605-34.375C117.627-36.8652 114.502-38.3301 110.938-38.3301C107.373-38.3301 104.297-37.0605 101.367-34.4238L72.7539-8.88672L60.9863-19.6289C58.3008-22.0215 55.5176-23.291 52.4414-23.291C49.5117-23.291 46.9238-22.0703 44.3359-19.7266L24.707-1.85547ZM62.5977-34.4727C70.752-34.4727 77.3926-41.1621 77.3926-49.3652C77.3926-57.4707 70.752-64.209 62.5977-64.209C54.3945-64.209 47.7539-57.4707 47.7539-49.3652C47.7539-41.1621 54.3945-34.4727 62.5977-34.4727Z"/>
  </g>
  <g id="Light-L" transform="matrix(1 0 0 1 1063.56 1556)">
   <path d="M34.0332 21.4355L145.117 21.4355C157.031 21.4355 163.086 15.2344 163.086 3.56445L163.086-73.8281C163.086-85.5469 157.031-91.6992 145.117-91.6992L34.0332-91.6992C22.168-91.6992 16.0645-85.6445 16.0645-73.8281L16.0645 3.56445C16.0645 15.3809 22.168 21.4355 34.0332 21.4355ZM22.7051-73.4863C22.7051-81.1523 26.709-85.0586 34.1797-85.0586L144.971-85.0586C152.295-85.0586 156.494-81.1523 156.494-73.4863L156.494 0.244141L120.459-33.0566C117.285-35.5957 114.258-37.207 110.498-37.207C106.836-37.207 103.857-35.8398 100.781-33.1055L72.0215-7.42188L60.1074-18.457C57.4219-20.8984 54.6875-22.2168 51.5137-22.2168C48.4863-22.2168 45.9961-20.9473 43.3594-18.5547L22.7051 0.585938ZM62.0605-34.2285C70.2148-34.2285 76.8555-40.918 76.8555-49.1211C76.8555-57.2266 70.2148-63.9648 62.0605-63.9648C53.8574-63.9648 47.2168-57.2266 47.2168-49.1211C47.2168-40.918 53.8574-34.2285 62.0605-34.2285Z"/>
  </g>
  <g id="Thin-L" transform="matrix(1 0 0 1 767.433 1556)">
   <path d="M32.666 20.3613L145.312 20.3613C156.201 20.3613 161.914 14.4531 161.914 3.75977L161.914-73.9746C161.914-84.7168 156.201-90.5762 145.312-90.5762L32.666-90.5762C21.7773-90.5762 16.0645-84.8633 16.0645-73.9746L16.0645 3.75977C16.0645 14.6484 21.7773 20.3613 32.666 20.3613ZM19.9707 3.56445L19.9707-73.7793C19.9707-82.2754 24.4141-86.6699 32.8125-86.6699L145.166-86.6699C153.32-86.6699 158.008-82.2754 158.008-73.7793L158.008 3.125L120.264-31.2988C116.846-33.8867 114.014-35.6934 109.961-35.6934C106.152-35.6934 103.223-34.2285 100.049-31.3965L71.0938-5.51758L58.9355-16.9434C56.25-19.4336 53.6621-20.752 50.3418-20.752C47.0703-20.752 44.7754-19.4336 42.1387-17.041L20.0195 3.85742C19.9707 3.56445 19.9707 3.56445 19.9707 3.56445ZM61.377-33.8867C69.4824-33.8867 76.1719-40.5762 76.1719-48.7793C76.1719-56.8848 69.4824-63.6719 61.377-63.6719C53.1738-63.6719 46.4844-56.8848 46.4844-48.7793C46.4844-40.5762 53.1738-33.8867 61.377-33.8867Z"/>
  </g>
  <g id="Ultralight-L" transform="matrix(1 0 0 1 471.015 1556)">
   <path d="M31.9824 19.7754L145.41 19.7754C155.811 19.7754 161.328 14.0625 161.328 3.85742L161.328-74.0723C161.328-84.2773 155.811-89.9902 145.41-89.9902L31.9824-89.9902C21.582-89.9902 16.0645-84.4727 16.0645-74.0723L16.0645 3.85742C16.0645 14.2578 21.582 19.7754 31.9824 19.7754ZM18.6035 3.75977L18.6035-73.9258C18.6035-82.8125 23.1934-87.4512 32.1289-87.4512L145.264-87.4512C153.857-87.4512 158.789-82.8125 158.789-73.9258L158.789 3.75977C158.789 4.05273 158.789 4.29688 158.789 4.58984L120.166-30.4199C116.65-33.0078 113.867-34.9121 109.717-34.9121C105.811-34.9121 102.93-33.4473 99.6582-30.5176L70.6055-4.54102L58.3008-16.1621C55.6641-18.6523 53.125-20.0195 49.707-20.0195C46.3379-20.0195 44.1406-18.6523 41.5039-16.2109L18.7012 5.51758C18.6523 4.93164 18.6035 4.3457 18.6035 3.75977ZM60.9863-33.7402C69.1406-33.7402 75.7812-40.4297 75.7812-48.6328C75.7812-56.7383 69.1406-63.4766 60.9863-63.4766C52.7832-63.4766 46.1426-56.7383 46.1426-48.6328C46.1426-40.4297 52.7832-33.7402 60.9863-33.7402Z"/>
  </g>
  <g id="Black-M" transform="matrix(1 0 0 1 2861.84 1126)">
   <path d="M31.9824 13.5742L111.133 13.5742C123.389 13.5742 130.664 6.29883 130.664-5.95703L130.664-64.4043C130.664-76.6602 123.389-83.9355 111.133-83.9355L31.9824-83.9355C19.7266-83.9355 12.4512-76.6602 12.4512-64.4043L12.4512-5.95703C12.4512 6.29883 19.7266 13.5742 31.9824 13.5742ZM51.6113-24.4629C49.5605-26.2695 47.2656-27.1973 45.0195-27.1973C42.4316-27.1973 40.8203-26.3672 38.7695-24.5605L30.7617-17.627L30.7617-61.4746C30.7617-64.5508 32.0801-65.6738 34.9121-65.6738L108.203-65.6738C111.035-65.6738 112.402-64.5508 112.402-61.4746L112.402-21.6309L96.875-36.084C94.7266-37.9883 92.1875-38.916 89.6973-38.916C87.0605-38.916 84.6191-38.0371 82.4707-36.1328L60.498-16.5039ZM57.7637-32.0801C64.6973-32.0801 70.459-37.8418 70.459-44.8242C70.459-51.7578 64.6973-57.5684 57.7637-57.5684C50.7812-57.5684 45.0195-51.7578 45.0195-44.8242C45.0195-37.8418 50.7812-32.0801 57.7637-32.0801Z"/>
  </g>
  <g id="Heavy-M" transform="matrix(1 0 0 1 2565.5 1126)">
   <path d="M31.0059 12.6465L111.426 12.6465C123.193 12.6465 129.932 5.9082 129.932-5.81055L129.932-64.5508C129.932-76.2695 123.193-83.0566 111.426-83.0566L31.0059-83.0566C19.2383-83.0566 12.4512-76.3184 12.4512-64.5508L12.4512-5.81055C12.4512 5.9082 19.2383 12.6465 31.0059 12.6465ZM28.2715-62.207C28.2715-65.7715 29.9316-67.2363 33.252-67.2363L109.131-67.2363C112.451-67.2363 114.111-65.7715 114.111-62.207L114.111-19.043L96.0938-35.8887C93.9453-37.8418 91.4062-38.7695 88.8672-38.7695C86.2305-38.7695 83.7891-37.8906 81.5918-35.9375L59.6191-16.3086L50.6836-24.3164C48.6328-26.123 46.3379-27.0508 44.0918-27.0508C41.6016-27.0508 39.8926-26.1719 37.8418-24.3652L28.2715-16.0645ZM55.6641-32.7148C62.4512-32.7148 68.0664-38.3301 68.0664-45.166C68.0664-51.9531 62.4512-57.6172 55.6641-57.6172C48.8281-57.6172 43.2129-51.9531 43.2129-45.166C43.2129-38.3301 48.8281-32.7148 55.6641-32.7148Z"/>
  </g>
  <g id="Bold-M" transform="matrix(1 0 0 1 2269.18 1126)">
   <path d="M29.8828 11.6699L111.719 11.6699C122.949 11.6699 129.15 5.46875 129.15-5.66406L129.15-64.6973C129.15-75.8789 122.949-82.0312 111.719-82.0312L29.8828-82.0312C18.6523-82.0312 12.4512-75.8789 12.4512-64.6973L12.4512-5.66406C12.4512 5.51758 18.6523 11.6699 29.8828 11.6699ZM25.5371-63.0371C25.5371-67.1387 27.5391-68.9453 31.3965-68.9453L110.205-68.9453C114.014-68.9453 116.064-67.1387 116.064-63.0371L116.064-16.2109L95.2148-35.6934C93.0664-37.5977 90.5273-38.623 87.9395-38.623C85.3027-38.623 82.8613-37.6953 80.6641-35.7422L58.6426-16.0645L49.707-24.1211C47.6074-25.9766 45.3613-26.9043 43.0664-26.9043C40.7227-26.9043 38.8672-26.0254 36.8164-24.2188L25.5371-14.2578ZM53.3203-33.4473C59.9121-33.4473 65.3809-38.8672 65.3809-45.5566C65.3809-52.1973 59.9121-57.7148 53.3203-57.7148C46.6309-57.7148 41.1621-52.1973 41.1621-45.5566C41.1621-38.8672 46.6309-33.4473 53.3203-33.4473Z"/>
  </g>
  <g id="Semibold-M" transform="matrix(1 0 0 1 1972.76 1126)">
   <path d="M29.1016 10.9863L111.914 10.9863C122.803 10.9863 128.564 5.17578 128.564-5.56641L128.564-64.8438C128.564-75.5859 122.803-81.3477 111.914-81.3477L29.1016-81.3477C18.2617-81.3477 12.4512-75.5859 12.4512-64.8438L12.4512-5.56641C12.4512 5.22461 18.2617 10.9863 29.1016 10.9863ZM23.6328-63.623C23.6328-68.0664 25.8789-70.166 30.127-70.166L110.889-70.166C115.088-70.166 117.383-68.0664 117.383-63.623L117.383-14.209L94.5801-35.5469C92.4316-37.5 89.8926-38.4766 87.3047-38.4766C84.6191-38.4766 82.2266-37.5977 79.9805-35.5957L57.959-15.918L48.9746-24.0234C46.9238-25.8301 44.6777-26.8066 42.3828-26.8066C40.0879-26.8066 38.1348-25.8789 36.1328-24.0723L23.6328-12.9883ZM51.6602-33.9355C58.1543-33.9355 63.5254-39.2578 63.5254-45.8496C63.5254-52.3438 58.1543-57.7637 51.6602-57.7637C45.1172-57.7637 39.7461-52.3438 39.7461-45.8496C39.7461-39.2578 45.1172-33.9355 51.6602-33.9355Z"/>
  </g>
  <g id="Medium-M" transform="matrix(1 0 0 1 1676.24 1126)">
   <path d="M28.5156 10.4492L112.061 10.4492C122.656 10.4492 128.174 4.98047 128.174-5.46875L128.174-64.8926C128.174-75.3418 122.656-80.8105 112.061-80.8105L28.5156-80.8105C17.9688-80.8105 12.4512-75.3906 12.4512-64.8926L12.4512-5.46875C12.4512 4.98047 17.9688 10.4492 28.5156 10.4492ZM22.168-64.0137C22.168-68.75 24.6582-71.0938 29.1504-71.0938L111.426-71.0938C115.918-71.0938 118.408-68.75 118.408-64.0137L118.408-12.6953L94.1406-35.4492C91.9434-37.4023 89.4531-38.3789 86.8164-38.3789C84.1309-38.3789 81.7383-37.5 79.4922-35.498L57.4707-15.7715L48.4375-23.9258C46.3867-25.7812 44.1406-26.709 41.8457-26.709C39.5996-26.709 37.5977-25.8301 35.5957-23.9746L22.168-12.0117ZM50.4395-34.2773C56.8359-34.2773 62.1094-39.5508 62.1094-46.0449C62.1094-52.4414 56.8359-57.7637 50.4395-57.7637C43.9453-57.7637 38.6719-52.4414 38.6719-46.0449C38.6719-39.5508 43.9453-34.2773 50.4395-34.2773Z"/>
  </g>
  <g id="Regular-M" transform="matrix(1 0 0 1 1379.82 1126)">
   <path d="M27.7832 9.76562L112.256 9.76562C122.51 9.76562 127.588 4.6875 127.588-5.37109L127.588-64.9902C127.588-75.0488 122.51-80.127 112.256-80.127L27.7832-80.127C17.5781-80.127 12.4512-75.0977 12.4512-64.9902L12.4512-5.37109C12.4512 4.73633 17.5781 9.76562 27.7832 9.76562ZM93.5547-35.3027C91.3574-37.2559 88.8184-38.2812 86.1816-38.2812C83.4961-38.2812 81.1035-37.3535 78.8574-35.3516L56.7871-15.625L47.7539-23.8281C45.7031-25.6348 43.457-26.6113 41.1621-26.6113C38.9648-26.6113 36.9141-25.6836 34.8633-23.877L20.3125-10.7422L20.3125-64.5996C20.3125-69.6777 22.998-72.2656 27.8809-72.2656L112.158-72.2656C116.992-72.2656 119.727-69.6777 119.727-64.5996L119.727-10.6934ZM48.8281-34.7656C55.127-34.7656 60.3027-39.9414 60.3027-46.2891C60.3027-52.5879 55.127-57.8125 48.8281-57.8125C42.4805-57.8125 37.3047-52.5879 37.3047-46.2891C37.3047-39.9414 42.4805-34.7656 48.8281-34.7656Z"/>
  </g>
  <g id="Light-M" transform="matrix(1 0 0 1 1083.5 1126)">
   <path d="M26.8555 9.0332L112.402 9.0332C121.973 9.0332 126.807 4.15039 126.807-5.22461L126.807-65.0879C126.807-74.5117 121.973-79.3945 112.402-79.3945L26.8555-79.3945C17.334-79.3945 12.4512-74.5605 12.4512-65.0879L12.4512-5.22461C12.4512 4.19922 17.334 9.0332 26.8555 9.0332ZM18.5059-64.7949C18.5059-70.4102 21.4844-73.3398 26.9531-73.3398L112.305-73.3398C117.676-73.3398 120.752-70.4102 120.752-64.7949L120.752-8.74023L93.4082-34.1309C91.0645-36.084 88.6719-37.2559 85.8398-37.2559C83.0078-37.2559 80.7129-36.2793 78.3691-34.1797L56.1523-14.3555L46.9727-22.7539C44.9219-24.6582 42.7734-25.6348 40.332-25.6348C38.0371-25.6348 36.084-24.6582 34.0332-22.8516L18.5059-8.54492ZM48.3398-34.5703C54.6387-34.5703 59.8145-39.7461 59.8145-46.0938C59.8145-52.3926 54.6387-57.6172 48.3398-57.6172C41.9922-57.6172 36.8164-52.3926 36.8164-46.0938C36.8164-39.7461 41.9922-34.5703 48.3398-34.5703Z"/>
  </g>
  <g id="Thin-M" transform="matrix(1 0 0 1 787.33 1126)">
   <path d="M25.6348 8.05664L112.598 8.05664C121.24 8.05664 125.732 3.4668 125.732-5.0293L125.732-65.2344C125.732-73.7305 121.24-78.3691 112.598-78.3691L25.6348-78.3691C16.9922-78.3691 12.4512-73.877 12.4512-65.2344L12.4512-5.0293C12.4512 3.56445 16.9922 8.05664 25.6348 8.05664ZM16.0645-65.0391C16.0645-71.4355 19.3848-74.7559 25.7324-74.7559L112.451-74.7559C118.604-74.7559 122.119-71.4355 122.119-65.0391L122.119-6.15234L93.2617-32.5684C90.6738-34.5703 88.4277-35.8887 85.3516-35.8887C82.4219-35.8887 80.127-34.8145 77.6855-32.6172L55.2734-12.6465L45.8984-21.3867C43.8477-23.291 41.7969-24.3164 39.2578-24.3164C36.7676-24.3164 34.9609-23.291 32.9102-21.4355L16.0645-5.66406ZM47.7051-34.2773C54.0039-34.2773 59.1797-39.4531 59.1797-45.8008C59.1797-52.0996 54.0039-57.3242 47.7051-57.3242C41.3574-57.3242 36.1816-52.0996 36.1816-45.8008C36.1816-39.4531 41.3574-34.2773 47.7051-34.2773Z"/>
  </g>
  <g id="Ultralight-M" transform="matrix(1 0 0 1 490.888 1126)">
   <path d="M25 7.56836L112.695 7.56836C120.85 7.56836 125.195 3.125 125.195-4.98047L125.195-65.2832C125.195-73.3887 120.85-77.832 112.695-77.832L25-77.832C16.7969-77.832 12.4512-73.4863 12.4512-65.2832L12.4512-4.98047C12.4512 3.22266 16.7969 7.56836 25 7.56836ZM14.8438-5.07812L14.8438-65.1855C14.8438-71.9727 18.3594-75.4395 25.0977-75.4395L112.549-75.4395C119.043-75.4395 122.803-71.9727 122.803-65.1855L122.803-4.78516L93.1641-31.7871C90.4785-33.7402 88.2812-35.2051 85.1074-35.2051C82.0801-35.2051 79.8828-34.082 77.3438-31.8359L54.834-11.7676L45.3613-20.7031C43.3105-22.6074 41.3086-23.6816 38.7207-23.6816C36.1328-23.6816 34.4238-22.6074 32.3242-20.752L14.8438-4.15039C14.8438-4.44336 14.8438-4.78516 14.8438-5.07812ZM47.4121-34.1309C53.6621-34.1309 58.8379-39.3066 58.8379-45.6543C58.8379-51.9531 53.6621-57.1777 47.4121-57.1777C41.0156-57.1777 35.8398-51.9531 35.8398-45.6543C35.8398-39.3066 41.0156-34.1309 47.4121-34.1309Z"/>
  </g>
  <g id="Black-S" transform="matrix(1 0 0 1 2877.35 696)">
   <path d="M25 2.92969L87.1094 2.92969C96.6797 2.92969 102.344-2.73438 102.344-12.3047L102.344-58.1055C102.344-67.6758 96.6797-73.3398 87.1094-73.3398L25-73.3398C15.4297-73.3398 9.76562-67.6758 9.76562-58.1055L9.76562-12.3047C9.76562-2.73438 15.4297 2.92969 25 2.92969ZM40.3809-26.8066C38.7695-28.2227 36.9629-28.9551 35.2051-28.9551C33.2031-28.9551 31.9336-28.2715 30.3223-26.8555L23.9258-21.3379L23.9258-55.8594C23.9258-58.3008 25-59.1797 27.2461-59.1797L84.8633-59.1797C87.1094-59.1797 88.1836-58.3008 88.1836-55.8594L88.1836-24.4141L75.8301-35.8887C74.1699-37.4023 72.168-38.1348 70.2148-38.1348C68.1641-38.1348 66.2598-37.4512 64.5508-35.9375L47.3633-20.5566ZM45.1172-32.8125C50.5371-32.8125 55.0293-37.3047 55.0293-42.7734C55.0293-48.1934 50.5371-52.7344 45.1172-52.7344C39.6484-52.7344 35.1562-48.1934 35.1562-42.7734C35.1562-37.3047 39.6484-32.8125 45.1172-32.8125Z"/>
  </g>
  <g id="Heavy-S" transform="matrix(1 0 0 1 2580.88 696)">
   <path d="M24.3652 2.34375L87.3047 2.34375C96.582 2.34375 101.855-2.97852 101.855-12.207L101.855-58.2031C101.855-67.4316 96.582-72.7539 87.3047-72.7539L24.3652-72.7539C15.0879-72.7539 9.76562-67.4316 9.76562-58.2031L9.76562-12.207C9.76562-2.97852 15.0879 2.34375 24.3652 2.34375ZM22.2656-56.3965C22.2656-59.1309 23.5352-60.2539 26.0742-60.2539L85.5469-60.2539C88.0859-60.2539 89.4043-59.1309 89.4043-56.3965L89.4043-22.6562L75.2441-35.8887C73.584-37.4023 71.582-38.1348 69.6289-38.1348C67.5781-38.1348 65.6738-37.4512 63.9648-35.9375L46.7773-20.5566L39.7949-26.8066C38.1836-28.2227 36.377-28.9551 34.6191-28.9551C32.666-28.9551 31.2988-28.2715 29.7363-26.8555L22.2656-20.3613ZM43.5547-33.3008C48.877-33.3008 53.2715-37.6953 53.2715-43.0664C53.2715-48.3887 48.877-52.7832 43.5547-52.7832C38.1836-52.7832 33.7891-48.3887 33.7891-43.0664C33.7891-37.6953 38.1836-33.3008 43.5547-33.3008Z"/>
  </g>
  <g id="Bold-S" transform="matrix(1 0 0 1 2284.41 696)">
   <path d="M23.6328 1.66016L87.5 1.66016C96.4844 1.66016 101.367-3.22266 101.367-12.1094L101.367-58.3008C101.367-67.1875 96.4844-72.0703 87.5-72.0703L23.6328-72.0703C14.6973-72.0703 9.76562-67.1875 9.76562-58.3008L9.76562-12.1094C9.76562-3.22266 14.6973 1.66016 23.6328 1.66016ZM20.3613-56.9824C20.3613-60.0586 21.9238-61.4746 24.8047-61.4746L86.3281-61.4746C89.209-61.4746 90.7715-60.0586 90.7715-56.9824L90.7715-20.7031L74.6094-35.8887C72.9492-37.4023 70.9473-38.1348 68.9453-38.1348C66.8945-38.1348 64.9902-37.4512 63.2812-35.9375L46.0938-20.5078L39.1113-26.8066C37.5-28.2227 35.6934-28.9551 33.9355-28.9551C32.1289-28.9551 30.6152-28.2715 29.0527-26.8555L20.3613-19.2383ZM41.7969-33.8867C46.9727-33.8867 51.2695-38.1836 51.2695-43.4082C51.2695-48.584 46.9727-52.8809 41.7969-52.8809C36.5723-52.8809 32.3242-48.584 32.3242-43.4082C32.3242-38.1836 36.5723-33.8867 41.7969-33.8867Z"/>
  </g>
  <g id="Semibold-S" transform="matrix(1 0 0 1 1987.9 696)">
   <path d="M23.0957 1.17188L87.6465 1.17188C96.3867 1.17188 100.977-3.36914 100.977-12.0117L100.977-58.3984C100.977-67.041 96.3867-71.582 87.6465-71.582L23.0957-71.582C14.4043-71.582 9.76562-67.041 9.76562-58.3984L9.76562-12.0117C9.76562-3.36914 14.4043 1.17188 23.0957 1.17188ZM19.0918-57.4219C19.0918-60.6934 20.752-62.3047 23.877-62.3047L86.8652-62.3047C89.9902-62.3047 91.6992-60.6934 91.6992-57.4219L91.6992-19.3848L74.1699-35.8398C72.5098-37.4023 70.5078-38.1348 68.5059-38.1348C66.4551-38.1348 64.5508-37.4512 62.8418-35.8887L45.6543-20.5078L38.623-26.8066C37.0117-28.2227 35.2051-28.9551 33.4473-28.9551C31.6895-28.9551 30.127-28.2715 28.5645-26.8555L19.0918-18.457ZM40.625-34.2773C45.7031-34.2773 49.9023-38.4766 49.9023-43.6035C49.9023-48.6816 45.7031-52.9297 40.625-52.9297C35.4492-52.9297 31.2988-48.6816 31.2988-43.6035C31.2988-38.4766 35.4492-34.2773 40.625-34.2773Z"/>
  </g>
  <g id="Medium-S" transform="matrix(1 0 0 1 1691.31 696)">
   <path d="M22.7051 0.830078L87.7441 0.830078C96.3379 0.830078 100.732-3.51562 100.732-11.9629L100.732-58.4473C100.732-66.8945 96.3379-71.2402 87.7441-71.2402L22.7051-71.2402C14.209-71.2402 9.76562-66.8945 9.76562-58.4473L9.76562-11.9629C9.76562-3.51562 14.209 0.830078 22.7051 0.830078ZM18.0664-57.7148C18.0664-61.1816 19.9219-62.9395 23.1934-62.9395L87.3047-62.9395C90.5762-62.9395 92.3828-61.1816 92.3828-57.7148L92.3828-18.3594L73.8281-35.8398C72.168-37.3535 70.166-38.1348 68.1641-38.1348C66.1133-38.1348 64.209-37.4512 62.5-35.8887L45.2637-20.5078L38.2812-26.8066C36.6699-28.2227 34.8633-28.9551 33.1055-28.9551C31.3965-28.9551 29.7852-28.2715 28.2227-26.8555L18.0664-17.8711ZM39.6973-34.5703C44.7266-34.5703 48.8281-38.7207 48.8281-43.7988C48.8281-48.8281 44.7266-52.9785 39.6973-52.9785C34.6191-52.9785 30.4688-48.8281 30.4688-43.7988C30.4688-38.7207 34.6191-34.5703 39.6973-34.5703Z"/>
  </g>
  <g id="Regular-S" transform="matrix(1 0 0 1 1394.79 696)">
   <path d="M22.2168 0.390625L87.8906 0.390625C96.2402 0.390625 100.342-3.71094 100.342-11.9141L100.342-58.4961C100.342-66.6992 96.2402-70.8008 87.8906-70.8008L22.2168-70.8008C13.916-70.8008 9.76562-66.6992 9.76562-58.4961L9.76562-11.9141C9.76562-3.71094 13.916 0.390625 22.2168 0.390625ZM73.3887-35.8398C71.7285-37.3535 69.6777-38.1348 67.7246-38.1348C65.6738-38.1348 63.7695-37.4512 62.0117-35.8887L44.8242-20.5078L37.793-26.8066C36.1816-28.2227 34.4238-28.9551 32.6172-28.9551C31.0059-28.9551 29.2969-28.2715 27.7344-26.8555L16.7969-17.041L16.7969-58.1543C16.7969-61.8164 18.7988-63.7207 22.3145-63.7207L87.793-63.7207C91.3086-63.7207 93.3105-61.8164 93.3105-58.1543L93.3105-16.9922ZM38.4766-34.9609C43.4082-34.9609 47.4609-39.0137 47.4609-43.9941C47.4609-48.9258 43.4082-53.0273 38.4766-53.0273C33.4961-53.0273 29.4434-48.9258 29.4434-43.9941C29.4434-39.0137 33.4961-34.9609 38.4766-34.9609Z"/>
  </g>
  <g id="Light-S" transform="matrix(1 0 0 1 1098.42 696)">
   <path d="M21.3867-0.292969L88.0371-0.292969C95.752-0.292969 99.6582-4.15039 99.6582-11.7676L99.6582-58.5938C99.6582-66.2109 95.752-70.1172 88.0371-70.1172L21.3867-70.1172C13.6719-70.1172 9.76562-66.2598 9.76562-58.5938L9.76562-11.7676C9.76562-4.15039 13.6719-0.292969 21.3867-0.292969ZM15.1855-58.3008C15.1855-62.5 17.4316-64.6973 21.4844-64.6973L87.9395-64.6973C91.9434-64.6973 94.2383-62.5 94.2383-58.3008L94.2383-15.2344L73.2422-34.8145C71.4844-36.3281 69.5312-37.207 67.3828-37.207C65.2344-37.207 63.3789-36.4746 61.5723-34.8633L44.2383-19.3359L37.1094-25.8789C35.498-27.2949 33.7891-28.0762 31.9336-28.0762C30.1758-28.0762 28.5645-27.3438 27.002-25.9277L15.1855-15.1855ZM38.0859-34.7656C43.0176-34.7656 47.0703-38.8184 47.0703-43.7988C47.0703-48.7305 43.0176-52.832 38.0859-52.832C33.1055-52.832 29.0527-48.7305 29.0527-43.7988C29.0527-38.8184 33.1055-34.7656 38.0859-34.7656Z"/>
  </g>
  <g id="Thin-S" transform="matrix(1 0 0 1 802.174 696)">
   <path d="M20.3125-1.12305L88.1836-1.12305C95.1172-1.12305 98.7305-4.78516 98.7305-11.6211L98.7305-58.6914C98.7305-65.5762 95.1172-69.2383 88.1836-69.2383L20.3125-69.2383C13.3789-69.2383 9.76562-65.625 9.76562-58.6914L9.76562-11.6211C9.76562-4.6875 13.3789-1.12305 20.3125-1.12305ZM13.0859-58.5449C13.0859-63.3789 15.625-65.918 20.4102-65.918L88.0859-65.918C92.7246-65.918 95.4102-63.3789 95.4102-58.5449L95.4102-12.9395L73.0957-33.4473C71.1426-35.0098 69.3359-36.0352 66.9922-36.0352C64.6973-36.0352 62.8906-35.2051 61.0352-33.4961L43.5059-17.8711L36.1816-24.6582C34.5703-26.123 32.959-26.9531 30.957-26.9531C29.0527-26.9531 27.6367-26.1719 26.0254-24.707L13.0859-12.5977ZM37.5-34.5215C42.4316-34.5215 46.4844-38.5742 46.4844-43.5547C46.4844-48.4863 42.4316-52.5879 37.5-52.5879C32.5195-52.5879 28.4668-48.4863 28.4668-43.5547C28.4668-38.5742 32.5195-34.5215 37.5-34.5215Z"/>
  </g>
  <g id="Ultralight-S" transform="matrix(1 0 0 1 505.707 696)">
   <path d="M19.7754-1.5625L88.2812-1.5625C94.8242-1.5625 98.2422-5.12695 98.2422-11.5234L98.2422-58.7891C98.2422-65.2344 94.8242-68.75 88.2812-68.75L19.7754-68.75C13.2324-68.75 9.76562-65.2832 9.76562-58.7891L9.76562-11.5234C9.76562-5.0293 13.2324-1.5625 19.7754-1.5625ZM11.9629-11.6699L11.9629-58.6426C11.9629-63.8672 14.6484-66.5527 19.873-66.5527L88.1836-66.5527C93.1641-66.5527 96.0449-63.8672 96.0449-58.6426L96.0449-11.7676L72.998-32.7148C70.9473-34.2773 69.2383-35.4004 66.748-35.4004C64.4043-35.4004 62.6465-34.5215 60.6934-32.7637L43.1152-17.0898L35.6934-24.0234C34.082-25.5371 32.5195-26.3672 30.4688-26.3672C28.5156-26.3672 27.0996-25.5371 25.4883-24.0723L11.9629-11.2793C11.9629-11.6699 11.9629-11.6699 11.9629-11.6699ZM37.207-34.4238C42.1387-34.4238 46.1914-38.4766 46.1914-43.457C46.1914-48.3887 42.1387-52.4902 37.207-52.4902C32.2266-52.4902 28.1738-48.3887 28.1738-43.457C28.1738-38.4766 32.2266-34.4238 37.207-34.4238Z"/>
  </g>
 </g>
</svg>
