<?xml version="1.0" encoding="UTF-8"?>
<!--Generator: Apple Native CoreSVG 149-->
<!DOCTYPE svg
PUBLIC "-//W3C//DTD SVG 1.1//EN"
       "http://www.w3.org/Graphics/SVG/1.1/DTD/svg11.dtd">
<svg version="1.1" xmlns="http://www.w3.org/2000/svg" xmlns:xlink="http://www.w3.org/1999/xlink" width="3300" height="2200">
 <!--glyph: "uni100B04.medium", point size: 100.000000, font version: "Version 16.0d18e1", template writer version: "8"-->
 <g id="Notes">
  <rect height="2200" id="artboard" style="fill:white;opacity:1" width="3300" x="0" y="0"/>
  <line id="" style="fill:none;stroke:black;opacity:1;stroke-width:0.5;" x1="263" x2="3036" y1="292" y2="292"/>
  <text style="stroke:none;fill:black;font-family:-apple-system,&quot;SF Pro Display&quot;,&quot;SF Pro Text&quot;,Helvetica,sans-serif;font-weight:bold;" transform="matrix(1 0 0 1 263 322)">Weight/Scale Variations</text>
  <text style="stroke:none;fill:black;font-family:-apple-system,&quot;SF Pro Display&quot;,&quot;SF Pro Text&quot;,Helvetica,sans-serif;text-anchor:middle;" transform="matrix(1 0 0 1 559.711 322)">Ultralight</text>
  <text style="stroke:none;fill:black;font-family:-apple-system,&quot;SF Pro Display&quot;,&quot;SF Pro Text&quot;,Helvetica,sans-serif;text-anchor:middle;" transform="matrix(1 0 0 1 856.422 322)">Thin</text>
  <text style="stroke:none;fill:black;font-family:-apple-system,&quot;SF Pro Display&quot;,&quot;SF Pro Text&quot;,Helvetica,sans-serif;text-anchor:middle;" transform="matrix(1 0 0 1 1153.13 322)">Light</text>
  <text style="stroke:none;fill:black;font-family:-apple-system,&quot;SF Pro Display&quot;,&quot;SF Pro Text&quot;,Helvetica,sans-serif;text-anchor:middle;" transform="matrix(1 0 0 1 1449.84 322)">Regular</text>
  <text style="stroke:none;fill:black;font-family:-apple-system,&quot;SF Pro Display&quot;,&quot;SF Pro Text&quot;,Helvetica,sans-serif;text-anchor:middle;" transform="matrix(1 0 0 1 1746.56 322)">Medium</text>
  <text style="stroke:none;fill:black;font-family:-apple-system,&quot;SF Pro Display&quot;,&quot;SF Pro Text&quot;,Helvetica,sans-serif;text-anchor:middle;" transform="matrix(1 0 0 1 2043.27 322)">Semibold</text>
  <text style="stroke:none;fill:black;font-family:-apple-system,&quot;SF Pro Display&quot;,&quot;SF Pro Text&quot;,Helvetica,sans-serif;text-anchor:middle;" transform="matrix(1 0 0 1 2339.98 322)">Bold</text>
  <text style="stroke:none;fill:black;font-family:-apple-system,&quot;SF Pro Display&quot;,&quot;SF Pro Text&quot;,Helvetica,sans-serif;text-anchor:middle;" transform="matrix(1 0 0 1 2636.69 322)">Heavy</text>
  <text style="stroke:none;fill:black;font-family:-apple-system,&quot;SF Pro Display&quot;,&quot;SF Pro Text&quot;,Helvetica,sans-serif;text-anchor:middle;" transform="matrix(1 0 0 1 2933.4 322)">Black</text>
  <line id="" style="fill:none;stroke:black;opacity:1;stroke-width:0.5;" x1="263" x2="3036" y1="1903" y2="1903"/>
  <g id="" transform="matrix(1 0 0 1 263 1933)">
   <path d="M9.24805 0.830078C13.5547 0.830078 17.1387-2.74414 17.1387-7.05078C17.1387-11.3574 13.5449-14.9316 9.23828-14.9316C4.94141-14.9316 1.36719-11.3574 1.36719-7.05078C1.36719-2.74414 4.95117 0.830078 9.24805 0.830078ZM9.24805-0.654297C5.70312-0.654297 2.87109-3.49609 2.87109-7.05078C2.87109-10.6055 5.69336-13.4473 9.23828-13.4473C12.793-13.4473 15.6348-10.6055 15.6445-7.05078C15.6543-3.49609 12.8027-0.654297 9.24805-0.654297ZM6.39648-6.31836L8.50586-6.31836L8.50586-4.19922C8.50586-3.75977 8.79883-3.45703 9.22852-3.45703C9.67773-3.45703 9.9707-3.75977 9.9707-4.19922L9.9707-6.31836L12.0996-6.31836C12.5391-6.31836 12.8418-6.61133 12.8418-7.04102C12.8418-7.48047 12.5391-7.7832 12.0996-7.7832L9.9707-7.7832L9.9707-9.89258C9.9707-10.3418 9.67773-10.6445 9.22852-10.6445C8.79883-10.6445 8.50586-10.3418 8.50586-9.89258L8.50586-7.7832L6.39648-7.7832C5.94727-7.7832 5.64453-7.48047 5.64453-7.04102C5.64453-6.61133 5.94727-6.31836 6.39648-6.31836Z"/>
  </g>
  <g id="" transform="matrix(1 0 0 1 281.506 1933)">
   <path d="M11.709 2.91016C17.1582 2.91016 21.6699-1.61133 21.6699-7.05078C21.6699-12.5 17.1484-17.0117 11.6992-17.0117C6.25977-17.0117 1.74805-12.5 1.74805-7.05078C1.74805-1.61133 6.26953 2.91016 11.709 2.91016ZM11.709 1.25C7.09961 1.25 3.41797-2.44141 3.41797-7.05078C3.41797-11.6602 7.08984-15.3516 11.6992-15.3516C16.3086-15.3516 20-11.6602 20.0098-7.05078C20.0195-2.44141 16.3184 1.25 11.709 1.25ZM7.98828-6.23047L10.8789-6.23047L10.8789-3.32031C10.8789-2.83203 11.2109-2.5 11.6895-2.5C12.1777-2.5 12.5195-2.83203 12.5195-3.32031L12.5195-6.23047L15.4297-6.23047C15.918-6.23047 16.25-6.5625 16.25-7.04102C16.25-7.5293 15.918-7.87109 15.4297-7.87109L12.5195-7.87109L12.5195-10.7617C12.5195-11.2695 12.1777-11.6016 11.6895-11.6016C11.2109-11.6016 10.8789-11.2598 10.8789-10.7617L10.8789-7.87109L7.98828-7.87109C7.48047-7.87109 7.14844-7.5293 7.14844-7.04102C7.14844-6.5625 7.49023-6.23047 7.98828-6.23047Z"/>
  </g>
  <g id="" transform="matrix(1 0 0 1 304.924 1933)">
   <path d="M14.9707 5.66406C21.9336 5.66406 27.6953-0.0976562 27.6953-7.05078C27.6953-14.0137 21.9238-19.7754 14.9609-19.7754C8.00781-19.7754 2.25586-14.0137 2.25586-7.05078C2.25586-0.0976562 8.01758 5.66406 14.9707 5.66406ZM14.9707 3.84766C8.93555 3.84766 4.08203-1.01562 4.08203-7.05078C4.08203-13.0957 8.92578-17.9492 14.9609-17.9492C21.0059-17.9492 25.8594-13.0957 25.8691-7.05078C25.8789-1.01562 21.0156 3.84766 14.9707 3.84766ZM10.0586-6.14258L14.0625-6.14258L14.0625-2.12891C14.0625-1.5918 14.4336-1.2207 14.9512-1.2207C15.4883-1.2207 15.8594-1.5918 15.8594-2.12891L15.8594-6.14258L19.8828-6.14258C20.4102-6.14258 20.791-6.51367 20.791-7.03125C20.791-7.56836 20.4199-7.94922 19.8828-7.94922L15.8594-7.94922L15.8594-11.9531C15.8594-12.5098 15.4883-12.8809 14.9512-12.8809C14.4336-12.8809 14.0625-12.5 14.0625-11.9531L14.0625-7.94922L10.0586-7.94922C9.50195-7.94922 9.13086-7.56836 9.13086-7.03125C9.13086-6.51367 9.51172-6.14258 10.0586-6.14258Z"/>
  </g>
  <text style="stroke:none;fill:black;font-family:-apple-system,&quot;SF Pro Display&quot;,&quot;SF Pro Text&quot;,Helvetica,sans-serif;font-weight:bold;" transform="matrix(1 0 0 1 263 1953)">Design Variations</text>
  <text style="stroke:none;fill:black;font-family:-apple-system,&quot;SF Pro Display&quot;,&quot;SF Pro Text&quot;,Helvetica,sans-serif;" transform="matrix(1 0 0 1 263 1971)">Symbols are supported in up to nine weights and three scales.</text>
  <text style="stroke:none;fill:black;font-family:-apple-system,&quot;SF Pro Display&quot;,&quot;SF Pro Text&quot;,Helvetica,sans-serif;" transform="matrix(1 0 0 1 263 1989)">For optimal layout with text and other symbols, vertically align</text>
  <text style="stroke:none;fill:black;font-family:-apple-system,&quot;SF Pro Display&quot;,&quot;SF Pro Text&quot;,Helvetica,sans-serif;" transform="matrix(1 0 0 1 263 2007)">symbols with the adjacent text.</text>
  <line id="" style="fill:none;stroke:#00AEEF;stroke-width:0.5;opacity:1.0;" x1="776" x2="776" y1="1919" y2="1933"/>
  <g id="" transform="matrix(1 0 0 1 776 1933)">
   <path d="M3.31055 0.126953C3.82812 0.126953 4.08203-0.0683594 4.26758-0.605469L5.52734-4.0625L11.2891-4.0625L12.5488-0.605469C12.7344-0.0683594 12.9883 0.126953 13.4961 0.126953C14.0137 0.126953 14.3457-0.185547 14.3457-0.673828C14.3457-0.839844 14.3164-0.986328 14.2383-1.20117L9.6582-13.3887C9.43359-13.9941 9.0332-14.2871 8.4082-14.2871C7.80273-14.2871 7.39258-13.9941 7.17773-13.3984L2.59766-1.19141C2.51953-0.976562 2.49023-0.830078 2.49023-0.664062C2.49023-0.175781 2.80273 0.126953 3.31055 0.126953ZM6.00586-5.53711L8.37891-12.1094L8.42773-12.1094L10.8008-5.53711Z"/>
  </g>
  <line id="" style="fill:none;stroke:#00AEEF;stroke-width:0.5;opacity:1.0;" x1="792.836" x2="792.836" y1="1919" y2="1933"/>
  <text style="stroke:none;fill:black;font-family:-apple-system,&quot;SF Pro Display&quot;,&quot;SF Pro Text&quot;,Helvetica,sans-serif;font-weight:bold;" transform="matrix(1 0 0 1 776 1953)">Margins</text>
  <text style="stroke:none;fill:black;font-family:-apple-system,&quot;SF Pro Display&quot;,&quot;SF Pro Text&quot;,Helvetica,sans-serif;" transform="matrix(1 0 0 1 776 1971)">Leading and trailing margins on the left and right side of each symbol</text>
  <text style="stroke:none;fill:black;font-family:-apple-system,&quot;SF Pro Display&quot;,&quot;SF Pro Text&quot;,Helvetica,sans-serif;" transform="matrix(1 0 0 1 776 1989)">can be adjusted by modifying the x-location of the margin guidelines.</text>
  <text style="stroke:none;fill:black;font-family:-apple-system,&quot;SF Pro Display&quot;,&quot;SF Pro Text&quot;,Helvetica,sans-serif;" transform="matrix(1 0 0 1 776 2007)">Modifications are automatically applied proportionally to all</text>
  <text style="stroke:none;fill:black;font-family:-apple-system,&quot;SF Pro Display&quot;,&quot;SF Pro Text&quot;,Helvetica,sans-serif;" transform="matrix(1 0 0 1 776 2025)">scales and weights.</text>
  <g id="" transform="matrix(1 0 0 1 1289 1933)">
   <path d="M2.8418 1.86523L4.54102 3.57422C5.40039 4.44336 6.38672 4.38477 7.31445 3.35938L17.4902-7.85156C17.7539-7.76367 18.0273-7.7832 18.3398-7.8418L19.4043-8.03711L20.0684-7.36328L20.0293-6.80664C19.9902-6.30859 20.1172-5.92773 20.6055-5.44922L21.3672-4.70703C21.8457-4.22852 22.4609-4.19922 22.9297-4.66797L25.8398-7.58789C26.3086-8.05664 26.2891-8.65234 25.8105-9.13086L25.0391-9.89258C24.5605-10.3711 24.1895-10.5273 23.7109-10.4883L23.1348-10.4395L22.4902-11.0742L22.7344-12.1973C22.8613-12.7637 22.7051-13.2031 22.1191-13.7891L19.9219-15.9766C16.582-19.2969 12.1484-19.2188 9.25781-16.3281C8.83789-15.918 8.80859-15.3418 9.04297-14.9512C9.27734-14.5898 9.73633-14.3555 10.3809-14.5215C11.8457-14.8633 13.3691-14.9219 14.7949-13.9844L14.209-12.5293C14.0137-12.0508 13.9844-11.6504 14.1113-11.2891L3.04688-0.898438C2.06055 0.0195312 1.98242 0.996094 2.8418 1.86523ZM10.752-15.957C13.1836-17.7344 16.4746-17.4316 18.7012-15.2051L21.1328-12.793C21.3672-12.5586 21.4062-12.373 21.3379-12.0312L21.0156-10.5469L22.5195-9.0625L23.5059-9.12109C23.7598-9.13086 23.8379-9.11133 24.0332-8.91602L24.6094-8.33984L22.168-5.89844L21.5918-6.47461C21.3965-6.66992 21.3672-6.74805 21.377-7.01172L21.4453-7.98828L19.9512-9.47266L18.4277-9.21875C18.1055-9.15039 17.959-9.17969 17.7148-9.41406L15.7129-11.416C15.459-11.6504 15.4297-11.8164 15.5859-12.1875L16.4648-14.2773C14.9023-15.7324 12.8711-16.3574 10.8398-15.7617C10.6836-15.7227 10.625-15.8496 10.752-15.957ZM5.27344 2.30469L4.10156 1.14258C3.63281 0.683594 3.74023 0.341797 4.14062-0.0195312L14.9512-10.1953L16.416-8.71094L6.42578 2.27539C6.07422 2.67578 5.74219 2.77344 5.27344 2.30469Z"/>
  </g>
  <text style="stroke:none;fill:black;font-family:-apple-system,&quot;SF Pro Display&quot;,&quot;SF Pro Text&quot;,Helvetica,sans-serif;font-weight:bold;" transform="matrix(1 0 0 1 1289 1953)">Exporting</text>
  <text style="stroke:none;fill:black;font-family:-apple-system,&quot;SF Pro Display&quot;,&quot;SF Pro Text&quot;,Helvetica,sans-serif;" transform="matrix(1 0 0 1 1289 1971)">Symbols should be outlined when exporting to ensure the</text>
  <text style="stroke:none;fill:black;font-family:-apple-system,&quot;SF Pro Display&quot;,&quot;SF Pro Text&quot;,Helvetica,sans-serif;" transform="matrix(1 0 0 1 1289 1989)">design is preserved when submitting to Xcode.</text>
  <text id="template-version" style="stroke:none;fill:black;font-family:-apple-system,&quot;SF Pro Display&quot;,&quot;SF Pro Text&quot;,Helvetica,sans-serif;text-anchor:end;" transform="matrix(1 0 0 1 3036 1933)">Template v.2.0</text>
  <text style="stroke:none;fill:black;font-family:-apple-system,&quot;SF Pro Display&quot;,&quot;SF Pro Text&quot;,Helvetica,sans-serif;text-anchor:end;" transform="matrix(1 0 0 1 3036 1951)">Requires Xcode 12 or greater</text>
  <text style="stroke:none;fill:black;font-family:-apple-system,&quot;SF Pro Display&quot;,&quot;SF Pro Text&quot;,Helvetica,sans-serif;text-anchor:end;" transform="matrix(1 0 0 1 3036 1969)">Generated from rectangle.3.offgrid.bubble.left</text>
  <text style="stroke:none;fill:black;font-family:-apple-system,&quot;SF Pro Display&quot;,&quot;SF Pro Text&quot;,Helvetica,sans-serif;text-anchor:end;" transform="matrix(1 0 0 1 3036 1987)">Typeset at 100 points</text>
  <text style="stroke:none;fill:black;font-family:-apple-system,&quot;SF Pro Display&quot;,&quot;SF Pro Text&quot;,Helvetica,sans-serif;" transform="matrix(1 0 0 1 263 726)">Small</text>
  <text style="stroke:none;fill:black;font-family:-apple-system,&quot;SF Pro Display&quot;,&quot;SF Pro Text&quot;,Helvetica,sans-serif;" transform="matrix(1 0 0 1 263 1156)">Medium</text>
  <text style="stroke:none;fill:black;font-family:-apple-system,&quot;SF Pro Display&quot;,&quot;SF Pro Text&quot;,Helvetica,sans-serif;" transform="matrix(1 0 0 1 263 1586)">Large</text>
 </g>
 <g id="Guides">
  <g id="H-reference" style="fill:#27AAE1;stroke:none;" transform="matrix(1 0 0 1 339 696)">
   <path d="M0.976562 0L3.66211 0L12.9883-24.4629L45.752-24.4629L55.127 0L57.7637 0L30.6152-70.459L28.125-70.459ZM29.3457-67.1387L29.4434-67.1387L44.873-26.709L13.8672-26.709Z"/>
  </g>
  <line id="Baseline-S" style="fill:none;stroke:#27AAE1;opacity:1;stroke-width:0.5;" x1="263" x2="3036" y1="696" y2="696"/>
  <line id="Capline-S" style="fill:none;stroke:#27AAE1;opacity:1;stroke-width:0.5;" x1="263" x2="3036" y1="625.541" y2="625.541"/>
  <g id="H-reference" style="fill:#27AAE1;stroke:none;" transform="matrix(1 0 0 1 339 1126)">
   <path d="M0.976562 0L3.66211 0L12.9883-24.4629L45.752-24.4629L55.127 0L57.7637 0L30.6152-70.459L28.125-70.459ZM29.3457-67.1387L29.4434-67.1387L44.873-26.709L13.8672-26.709Z"/>
  </g>
  <line id="Baseline-M" style="fill:none;stroke:#27AAE1;opacity:1;stroke-width:0.5;" x1="263" x2="3036" y1="1126" y2="1126"/>
  <line id="Capline-M" style="fill:none;stroke:#27AAE1;opacity:1;stroke-width:0.5;" x1="263" x2="3036" y1="1055.54" y2="1055.54"/>
  <g id="H-reference" style="fill:#27AAE1;stroke:none;" transform="matrix(1 0 0 1 339 1556)">
   <path d="M0.976562 0L3.66211 0L12.9883-24.4629L45.752-24.4629L55.127 0L57.7637 0L30.6152-70.459L28.125-70.459ZM29.3457-67.1387L29.4434-67.1387L44.873-26.709L13.8672-26.709Z"/>
  </g>
  <line id="Baseline-L" style="fill:none;stroke:#27AAE1;opacity:1;stroke-width:0.5;" x1="263" x2="3036" y1="1556" y2="1556"/>
  <line id="Capline-L" style="fill:none;stroke:#27AAE1;opacity:1;stroke-width:0.5;" x1="263" x2="3036" y1="1485.54" y2="1485.54"/>
  <line id="left-margin" style="fill:none;stroke:#00AEEF;stroke-width:0.5;opacity:1.0;" x1="1383.58" x2="1383.58" y1="1030.79" y2="1150.12"/>
  <line id="right-margin" style="fill:none;stroke:#00AEEF;stroke-width:0.5;opacity:1.0;" x1="1516.1" x2="1516.1" y1="1030.79" y2="1150.12"/>
 </g>
 <g id="Symbols">
  <g id="Black-L" transform="matrix(1 0 0 1 2846.24 1556)">
   <path d="M59.7168 38.5742C64.8438 38.5742 69.0918 36.5234 75.3418 31.1035L96.2891 12.8418L125.83 12.8418C145.703 12.8418 158.252 0.195312 158.252-19.5801L158.252-70.1172C158.252-89.8926 145.703-102.539 125.83-102.539L48.4863-102.539C28.6133-102.539 16.0645-89.8926 16.0645-70.1172L16.0645-19.5801C16.0645 0.195312 29.7852 12.8418 46.7285 12.8418L47.7051 12.8418L47.7051 25.3906C47.7051 33.5938 52.2949 38.5742 59.7168 38.5742ZM64.5508 16.2598L64.5508-0.732422C64.5508-5.56641 62.0117-7.37305 57.8613-7.37305L50-7.37305C40.8203-7.37305 36.3281-11.8652 36.3281-21.0938L36.3281-68.6035C36.3281-77.832 40.8203-82.2754 50-82.2754L124.316-82.2754C133.496-82.2754 138.037-77.832 138.037-68.6035L138.037-21.0938C138.037-11.8652 133.496-7.37305 124.316-7.37305L94.5801-7.37305C89.5996-7.37305 87.5488-6.34766 83.8867-2.7832ZM55.8105-46.1914L77.9785-46.1914C83.5938-46.1914 86.1816-48.7793 86.1816-54.3457L86.1816-63.4277C86.1816-68.9941 83.5938-71.582 77.9785-71.582L55.8105-71.582C50.2441-71.582 47.6074-68.9941 47.6074-63.4277L47.6074-54.3457C47.6074-48.7793 50.2441-46.1914 55.8105-46.1914ZM102.979-22.4121L118.848-22.4121C124.463-22.4121 127.051-25 127.051-30.5664L127.051-59.3262C127.051-64.8926 124.463-67.5293 118.848-67.5293L102.979-67.5293C97.4121-67.5293 94.8242-64.8926 94.8242-59.3262L94.8242-30.5664C94.8242-25 97.4121-22.4121 102.979-22.4121ZM61.1328-18.3105L80.8594-18.3105C86.4746-18.3105 89.0625-20.8984 89.0625-26.5137L89.0625-32.1777C89.0625-37.7441 86.4746-40.3809 80.8594-40.3809L61.1328-40.3809C55.5176-40.3809 52.9297-37.7441 52.9297-32.1777L52.9297-26.5137C52.9297-20.8984 55.5176-18.3105 61.1328-18.3105Z"/>
  </g>
  <g id="Heavy-L" transform="matrix(1 0 0 1 2550.07 1556)">
   <path d="M58.1543 37.2559C62.6953 37.2559 66.4062 35.3516 71.9238 30.5176L93.1152 12.0117L125.879 12.0117C145.264 12.0117 157.178-0.0488281 157.178-19.2383L157.178-69.6289C157.178-88.8184 145.264-100.879 125.879-100.879L47.3145-100.879C27.9785-100.879 16.0645-88.8672 16.0645-69.6289L16.0645-19.2383C16.0645 0 28.8574 12.0117 45.9961 12.0117L47.5586 12.0117L47.5586 25.5371C47.5586 32.8125 51.6113 37.2559 58.1543 37.2559ZM62.3535 17.8711L62.3535 0.585938C62.3535-3.80859 60.2051-5.46875 56.2988-5.46875L48.4863-5.46875C38.5254-5.46875 33.5938-10.498 33.5938-20.4102L33.5938-68.4082C33.5938-78.3691 38.5254-83.3496 48.4863-83.3496L124.707-83.3496C134.668-83.3496 139.648-78.3691 139.648-68.4082L139.648-20.4102C139.648-10.498 134.668-5.46875 124.707-5.46875L91.7969-5.46875C87.2559-5.46875 85.3027-4.58984 81.9824-1.31836ZM53.8086-45.8984L77.5391-45.8984C82.8125-45.8984 85.3027-48.3398 85.3027-53.6133L85.3027-63.7207C85.3027-68.9453 82.8125-71.3867 77.5391-71.3867L53.8086-71.3867C48.5352-71.3867 46.0449-68.9453 46.0449-63.7207L46.0449-53.6133C46.0449-48.3398 48.5352-45.8984 53.8086-45.8984ZM102.344-21.6797L119.336-21.6797C124.609-21.6797 127.1-24.1699 127.1-29.3945L127.1-59.5215C127.1-64.7949 124.609-67.2363 119.336-67.2363L102.344-67.2363C97.1191-67.2363 94.6289-64.7949 94.6289-59.5215L94.6289-29.3945C94.6289-24.1699 97.1191-21.6797 102.344-21.6797ZM59.7168-17.6758L80.6152-17.6758C85.8887-17.6758 88.3789-20.1172 88.3789-25.3906L88.3789-31.9336C88.3789-37.207 85.8887-39.6484 80.6152-39.6484L59.7168-39.6484C54.4434-39.6484 51.9531-37.207 51.9531-31.9336L51.9531-25.3906C51.9531-20.1172 54.4434-17.6758 59.7168-17.6758Z"/>
  </g>
  <g id="Bold-L" transform="matrix(1 0 0 1 2253.97 1556)">
   <path d="M56.4453 35.791C60.3516 35.791 63.3789 34.0332 68.1152 29.9316L89.5996 11.084L125.977 11.084C144.727 11.084 155.957-0.292969 155.957-18.8965L155.957-69.043C155.957-87.6465 144.727-99.0234 125.977-99.0234L46.0449-99.0234C27.2461-99.0234 16.0645-87.6953 16.0645-69.043L16.0645-18.8965C16.0645-0.244141 27.832 11.084 45.166 11.084L47.4609 11.084L47.4609 25.7324C47.4609 31.9336 50.8301 35.791 56.4453 35.791ZM59.9609 19.6777L59.9609 2.00195C59.9609-1.9043 58.1055-3.36914 54.5898-3.36914L46.8262-3.36914C35.9375-3.36914 30.5176-8.93555 30.5176-19.6777L30.5176-68.2617C30.5176-78.9551 35.9375-84.5703 46.8262-84.5703L125.195-84.5703C135.986-84.5703 141.504-78.9551 141.504-68.2617L141.504-19.6777C141.504-8.93555 135.986-3.36914 125.195-3.36914L88.6719-3.36914C84.6191-3.36914 82.8125-2.58789 79.8828 0.292969ZM51.5625-45.5566L77.0508-45.5566C81.9336-45.5566 84.2773-47.8516 84.2773-52.7832L84.2773-64.0137C84.2773-68.9453 81.9336-71.1914 77.0508-71.1914L51.5625-71.1914C46.6797-71.1914 44.2871-68.9453 44.2871-64.0137L44.2871-52.7832C44.2871-47.8516 46.6797-45.5566 51.5625-45.5566ZM101.66-20.8984L119.873-20.8984C124.756-20.8984 127.148-23.1934 127.148-28.0762L127.148-59.7656C127.148-64.6484 124.756-66.9434 119.873-66.9434L101.66-66.9434C96.7773-66.9434 94.4336-64.6484 94.4336-59.7656L94.4336-28.0762C94.4336-23.1934 96.7773-20.8984 101.66-20.8984ZM58.1055-16.8945L80.3711-16.8945C85.2539-16.8945 87.5977-19.1895 87.5977-24.1211L87.5977-31.6895C87.5977-36.5723 85.2539-38.8672 80.3711-38.8672L58.1055-38.8672C53.2227-38.8672 50.8789-36.5723 50.8789-31.6895L50.8789-24.1211C50.8789-19.1895 53.2227-16.8945 58.1055-16.8945Z"/>
  </g>
  <g id="Semibold-L" transform="matrix(1 0 0 1 1957.7 1556)">
   <path d="M55.2734 34.7656C58.6914 34.7656 61.3281 33.1055 65.4785 29.4922L87.1582 10.4492L126.025 10.4492C144.385 10.4492 155.078-0.439453 155.078-18.6035L155.078-68.6523C155.078-86.8164 144.385-97.7539 126.025-97.7539L45.166-97.7539C26.7578-97.7539 16.0645-86.8652 16.0645-68.6523L16.0645-18.6035C16.0645-0.390625 27.1484 10.4492 44.5801 10.4492L47.3633 10.4492L47.3633 25.8789C47.3633 31.3477 50.3418 34.7656 55.2734 34.7656ZM58.252 20.9473L58.252 3.02734C58.252-0.537109 56.6895-1.9043 53.3691-1.9043L45.6543-1.9043C34.1797-1.9043 28.418-7.91016 28.418-19.1406L28.418-68.1152C28.418-79.3945 34.1797-85.4004 45.6543-85.4004L125.488-85.4004C136.914-85.4004 142.773-79.3945 142.773-68.1152L142.773-19.1406C142.773-7.91016 136.914-1.9043 125.488-1.9043L86.5234-1.9043C82.8125-1.9043 81.0547-1.2207 78.418 1.41602ZM50-45.3125L76.709-45.3125C81.2988-45.3125 83.5938-47.5586 83.5938-52.1973L83.5938-64.2578C83.5938-68.8965 81.2988-71.0449 76.709-71.0449L50-71.0449C45.4102-71.0449 43.1152-68.8965 43.1152-64.2578L43.1152-52.1973C43.1152-47.5586 45.4102-45.3125 50-45.3125ZM101.172-20.3613L120.264-20.3613C124.854-20.3613 127.148-22.5586 127.148-27.1973L127.148-59.9121C127.148-64.5508 124.854-66.748 120.264-66.748L101.172-66.748C96.5332-66.748 94.2871-64.5508 94.2871-59.9121L94.2871-27.1973C94.2871-22.5586 96.5332-20.3613 101.172-20.3613ZM57.0312-16.4062L80.2246-16.4062C84.8145-16.4062 87.1094-18.5547 87.1094-23.2422L87.1094-31.4941C87.1094-36.1328 84.8145-38.3301 80.2246-38.3301L57.0312-38.3301C52.3926-38.3301 50.1465-36.1328 50.1465-31.4941L50.1465-23.2422C50.1465-18.5547 52.3926-16.4062 57.0312-16.4062Z"/>
  </g>
  <g id="Medium-L" transform="matrix(1 0 0 1 1661.3 1556)">
   <path d="M54.3457 33.9844C57.4707 33.9844 59.7656 32.4219 63.4766 29.1504L85.3027 9.96094L126.025 9.96094C144.092 9.96094 154.443-0.585938 154.443-18.457L154.443-68.3594C154.443-86.2305 144.092-96.7773 126.025-96.7773L44.4824-96.7773C26.3672-96.7773 16.0645-86.2793 16.0645-68.3594L16.0645-18.457C16.0645-0.537109 26.6113 9.96094 44.1406 9.96094L47.3145 9.96094L47.3145 25.9766C47.3145 30.9082 49.9512 33.9844 54.3457 33.9844ZM56.9824 21.9238L56.9824 3.75977C56.9824 0.488281 55.6152-0.78125 52.4414-0.78125L44.7754-0.78125C32.8125-0.78125 26.8066-7.08008 26.8066-18.75L26.8066-68.0176C26.8066-79.6875 32.8125-86.0352 44.7754-86.0352L125.732-86.0352C137.598-86.0352 143.701-79.6875 143.701-68.0176L143.701-18.75C143.701-7.08008 137.598-0.78125 125.732-0.78125L84.8633-0.78125C81.4453-0.78125 79.7363-0.195312 77.2949 2.24609ZM48.8281-45.166L76.416-45.166C80.8594-45.166 83.0566-47.3145 83.0566-51.7578L83.0566-64.4531C83.0566-68.8965 80.8594-70.9473 76.416-70.9473L48.8281-70.9473C44.4336-70.9473 42.1875-68.8965 42.1875-64.4531L42.1875-51.7578C42.1875-47.3145 44.4336-45.166 48.8281-45.166ZM100.781-19.9219L120.557-19.9219C124.951-19.9219 127.148-22.0215 127.148-26.5137L127.148-60.0586C127.148-64.502 124.951-66.6016 120.557-66.6016L100.781-66.6016C96.3379-66.6016 94.1895-64.502 94.1895-60.0586L94.1895-26.5137C94.1895-22.0215 96.3379-19.9219 100.781-19.9219ZM56.2012-16.0156L80.0781-16.0156C84.5215-16.0156 86.6699-18.0664 86.6699-22.6074L86.6699-31.3477C86.6699-35.791 84.5215-37.8906 80.0781-37.8906L56.2012-37.8906C51.7578-37.8906 49.5605-35.791 49.5605-31.3477L49.5605-22.6074C49.5605-18.0664 51.7578-16.0156 56.2012-16.0156Z"/>
  </g>
  <g id="Regular-L" transform="matrix(1 0 0 1 1365.01 1556)">
   <path d="M53.1738 32.959C55.8594 32.959 57.7148 31.543 60.8887 28.7109L82.9102 9.32617L126.074 9.32617C143.75 9.32617 153.613-0.78125 153.613-18.1641L153.613-67.9688C153.613-85.4004 143.75-95.5078 126.074-95.5078L43.6035-95.5078C25.8789-95.5078 16.0645-85.4492 16.0645-67.9688L16.0645-18.1641C16.0645-0.683594 25.8789 9.32617 43.6035 9.32617L47.2656 9.32617L47.2656 26.123C47.2656 30.2734 49.4141 32.959 53.1738 32.959ZM55.3223 23.1445L55.3223 4.78516C55.3223 1.80664 54.1992 0.683594 51.2695 0.683594L43.6523 0.683594C31.0547 0.683594 24.707-6.05469 24.707-18.2617L24.707-67.9199C24.707-80.127 31.0547-86.8652 43.6523-86.8652L126.025-86.8652C138.477-86.8652 144.971-80.127 144.971-67.9199L144.971-18.2617C144.971-6.05469 138.477 0.683594 126.025 0.683594L82.7148 0.683594C79.6387 0.683594 78.0273 1.17188 75.8789 3.36914ZM47.3145-44.9219L76.0742-44.9219C80.2246-44.9219 82.373-46.9727 82.373-51.1719L82.373-64.6484C82.373-68.8477 80.2246-70.8008 76.0742-70.8008L47.3145-70.8008C43.1641-70.8008 41.0156-68.8477 41.0156-64.6484L41.0156-51.1719C41.0156-46.9727 43.1641-44.9219 47.3145-44.9219ZM100.293-19.3848L120.947-19.3848C125.098-19.3848 127.197-21.3867 127.197-25.5859L127.197-60.2051C127.197-64.4043 125.098-66.4062 120.947-66.4062L100.293-66.4062C96.1426-66.4062 94.043-64.4043 94.043-60.2051L94.043-25.5859C94.043-21.3867 96.1426-19.3848 100.293-19.3848ZM55.127-15.4785L79.9316-15.4785C84.082-15.4785 86.1816-17.4805 86.1816-21.7285L86.1816-31.1523C86.1816-35.3516 84.082-37.3535 79.9316-37.3535L55.127-37.3535C50.9277-37.3535 48.8281-35.3516 48.8281-31.1523L48.8281-21.7285C48.8281-17.4805 50.9277-15.4785 55.127-15.4785Z"/>
  </g>
  <g id="Light-L" transform="matrix(1 0 0 1 1069.2 1556)">
   <path d="M50.9277 31.5918C52.9785 31.5918 54.4922 30.4688 56.7871 28.418L79.1504 8.98438L126.074 8.98438C142.334 8.98438 151.807-0.683594 151.807-16.6992L151.807-68.6035C151.807-84.6191 142.334-94.2871 126.074-94.2871L41.7969-94.2871C25.5371-94.2871 16.0645-84.7168 16.0645-68.6035L16.0645-16.6992C16.0645-0.585938 25.5371 8.98438 41.7969 8.98438L46.3379 8.98438L46.3379 26.3184C46.3379 29.541 48.0957 31.5918 50.9277 31.5918ZM52.5391 24.1211L52.5391 5.51758C52.5391 3.27148 51.6602 2.34375 49.3652 2.34375L41.8945 2.34375C29.541 2.34375 22.7051-4.73633 22.7051-16.8457L22.7051-68.5059C22.7051-80.5664 29.541-87.6953 41.8945-87.6953L125.977-87.6953C138.135-87.6953 145.166-80.5664 145.166-68.5059L145.166-16.8457C145.166-4.73633 138.135 2.34375 125.977 2.34375L79.3457 2.34375C76.8066 2.34375 75.4883 2.7832 73.584 4.63867ZM44.6777-44.9219L74.9512-44.9219C78.6133-44.9219 80.5176-46.6309 80.5176-50.3906L80.5176-65.1367C80.5176-68.8965 78.6133-70.5566 74.9512-70.5566L44.6777-70.5566C41.0645-70.5566 39.1602-68.8965 39.1602-65.1367L39.1602-50.3906C39.1602-46.6309 41.0645-44.9219 44.6777-44.9219ZM98.8281-18.8965L120.85-18.8965C124.414-18.8965 126.318-20.6055 126.318-24.3652L126.318-60.5469C126.318-64.2578 124.414-65.9668 120.85-65.9668L98.8281-65.9668C95.2148-65.9668 93.3594-64.2578 93.3594-60.5469L93.3594-24.3652C93.3594-20.6055 95.2148-18.8965 98.8281-18.8965ZM52.6855-14.7461L78.9551-14.7461C82.5684-14.7461 84.4238-16.5039 84.4238-20.2637L84.4238-30.957C84.4238-34.7168 82.5684-36.377 78.9551-36.377L52.6855-36.377C49.0234-36.377 47.1191-34.7168 47.1191-30.957L47.1191-20.2637C47.1191-16.5039 49.0234-14.7461 52.6855-14.7461Z"/>
  </g>
  <g id="Thin-L" transform="matrix(1 0 0 1 773.683 1556)">
   <path d="M47.9492 29.7852C49.2188 29.7852 50.2441 29.0527 51.416 28.0273L74.2188 8.54492L126.074 8.54492C140.43 8.54492 149.414-0.634766 149.414-14.7949L149.414-69.3848C149.414-83.5449 140.43-92.7246 126.074-92.7246L39.3555-92.7246C25.0488-92.7246 16.0645-83.6914 16.0645-69.3848L16.0645-14.7949C16.0645-0.488281 25.0488 8.54492 39.3555 8.54492L45.1172 8.54492L45.1172 26.5137C45.1172 28.5156 46.2891 29.7852 47.9492 29.7852ZM48.8281 25.4395L48.8281 6.54297C48.8281 5.17578 48.2422 4.58984 46.875 4.58984L39.502 4.58984C27.5391 4.58984 19.9707-2.97852 19.9707-14.9414L19.9707-69.2383C19.9707-81.2012 27.5391-88.7695 39.502-88.7695L125.928-88.7695C137.646-88.7695 145.459-81.2012 145.459-69.2383L145.459-14.9414C145.459-2.97852 137.646 4.58984 125.928 4.58984L74.8535 4.58984C73.0469 4.58984 72.1191 4.93164 70.6055 6.34766ZM41.2109-44.873L73.4863-44.873C76.416-44.873 78.0273-46.2402 78.0273-49.3652L78.0273-65.8203C78.0273-68.9453 76.416-70.2637 73.4863-70.2637L41.2109-70.2637C38.2812-70.2637 36.7676-68.9453 36.7676-65.8203L36.7676-49.3652C36.7676-46.2402 38.2812-44.873 41.2109-44.873ZM96.9238-18.2129L120.703-18.2129C123.535-18.2129 125.146-19.5312 125.146-22.7051L125.146-60.9863C125.146-64.1113 123.535-65.4297 120.703-65.4297L96.9238-65.4297C94.043-65.4297 92.4805-64.1113 92.4805-60.9863L92.4805-22.7051C92.4805-19.5312 94.043-18.2129 96.9238-18.2129ZM49.4629-13.8184L77.6367-13.8184C80.5664-13.8184 82.0801-15.1855 82.0801-18.3105L82.0801-30.6641C82.0801-33.8379 80.5664-35.1074 77.6367-35.1074L49.4629-35.1074C46.5332-35.1074 44.9219-33.8379 44.9219-30.6641L44.9219-18.3105C44.9219-15.1855 46.5332-13.8184 49.4629-13.8184Z"/>
  </g>
  <g id="Ultralight-L" transform="matrix(1 0 0 1 477.607 1556)">
   <path d="M46.4355 28.8574C47.3145 28.8574 48.0469 28.3203 48.6816 27.832L71.6797 8.30078L126.074 8.30078C139.453 8.30078 148.145-0.585938 148.145-13.8184L148.145-69.8242C148.145-83.0078 139.453-91.8945 126.074-91.8945L38.1348-91.8945C24.8047-91.8945 16.0645-83.2031 16.0645-69.8242L16.0645-13.8184C16.0645-0.439453 24.8047 8.30078 38.1348 8.30078L44.4824 8.30078L44.4824 26.6113C44.4824 28.0273 45.3613 28.8574 46.4355 28.8574ZM46.9238 26.0742L46.9238 7.03125C46.9238 6.15234 46.4844 5.71289 45.6055 5.71289L38.3301 5.71289C26.5137 5.71289 18.6035-2.09961 18.6035-13.9648L18.6035-69.6289C18.6035-81.4941 26.5137-89.3555 38.3301-89.3555L125.928-89.3555C137.354-89.3555 145.605-81.4941 145.605-69.6289L145.605-13.9648C145.605-2.09961 137.354 5.71289 125.928 5.71289L72.5098 5.71289C71.0938 5.71289 70.4102 6.05469 69.043 7.22656ZM39.4531-44.8242L72.7539-44.8242C75.293-44.8242 76.7578-46.0449 76.7578-48.8281L76.7578-66.1621C76.7578-68.9941 75.293-70.1172 72.7539-70.1172L39.4531-70.1172C36.8652-70.1172 35.5469-68.9941 35.5469-66.1621L35.5469-48.8281C35.5469-46.0449 36.8652-44.8242 39.4531-44.8242ZM95.9473-17.9199L120.605-17.9199C123.096-17.9199 124.561-18.9941 124.561-21.8262L124.561-61.1816C124.561-64.0137 123.096-65.1367 120.605-65.1367L95.9473-65.1367C93.4082-65.1367 92.041-64.0137 92.041-61.1816L92.041-21.8262C92.041-18.9941 93.4082-17.9199 95.9473-17.9199ZM47.8027-13.3301L77.002-13.3301C79.541-13.3301 80.9082-14.502 80.9082-17.334L80.9082-30.5176C80.9082-33.3496 79.541-34.4727 77.002-34.4727L47.8027-34.4727C45.2148-34.4727 43.7988-33.3496 43.7988-30.5176L43.7988-17.334C43.7988-14.502 45.2148-13.3301 47.8027-13.3301Z"/>
  </g>
  <g id="Black-M" transform="matrix(1 0 0 1 2865.58 1126)">
   <path d="M47.168 23.0469C51.5625 23.0469 55.4199 21.4355 60.8398 16.748L76.9043 2.97852L97.4609 2.97852C112.793 2.97852 123.193-7.42188 123.193-22.7539L123.193-63.2812C123.193-78.6133 112.793-89.0137 97.4609-89.0137L38.1836-89.0137C22.8516-89.0137 12.4512-78.6133 12.4512-63.2812L12.4512-22.7539C12.4512-7.42188 24.1211 2.97852 36.2793 2.97852L36.6211 2.97852L36.6211 11.5723C36.6211 18.75 40.7227 23.0469 47.168 23.0469ZM51.4648 2.97852L51.4648-9.81445C51.4648-13.8184 49.1699-15.332 45.9473-15.332L39.8438-15.332C33.9355-15.332 30.7617-18.2617 30.7617-24.4141L30.7617-61.6211C30.7617-67.7734 33.9355-70.7031 39.8438-70.7031L95.8008-70.7031C101.66-70.7031 104.883-67.7734 104.883-61.6211L104.883-24.4141C104.883-18.2617 101.66-15.332 95.8008-15.332L75.2441-15.332C71.0938-15.332 69.4824-14.4043 66.3574-11.377ZM44.5801-44.0918L60.4492-44.0918C64.9902-44.0918 67.041-46.1426 67.041-50.6348L67.041-56.9336C67.041-61.4258 64.9902-63.5254 60.4492-63.5254L44.5801-63.5254C40.0391-63.5254 37.9883-61.4258 37.9883-56.9336L37.9883-50.6348C37.9883-46.1426 40.0391-44.0918 44.5801-44.0918ZM79.9316-25.9766L91.4062-25.9766C95.8984-25.9766 97.9492-28.0273 97.9492-32.5195L97.9492-53.8086C97.9492-58.3496 95.8984-60.4004 91.4062-60.4004L79.9316-60.4004C75.4395-60.4004 73.3398-58.3496 73.3398-53.8086L73.3398-32.5195C73.3398-28.0273 75.4395-25.9766 79.9316-25.9766ZM47.998-22.6562L62.4512-22.6562C66.9434-22.6562 68.9941-24.707 68.9941-29.1992L68.9941-33.1055C68.9941-37.5977 66.9434-39.6484 62.4512-39.6484L47.998-39.6484C43.5059-39.6484 41.4551-37.5977 41.4551-33.1055L41.4551-29.1992C41.4551-24.707 43.5059-22.6562 47.998-22.6562Z"/>
  </g>
  <g id="Heavy-M" transform="matrix(1 0 0 1 2569.23 1126)">
   <path d="M46.0449 21.9238C50 21.9238 53.3203 20.4102 58.1543 16.2109L74.4141 2.14844L97.5098 2.14844C112.646 2.14844 122.461-7.71484 122.461-22.8027L122.461-62.5488C122.461-77.6367 112.646-87.5 97.5098-87.5L37.4023-87.5C22.2656-87.5 12.4512-77.6367 12.4512-62.5488L12.4512-22.8027C12.4512-7.71484 23.2422 2.14844 35.9375 2.14844L36.7188 2.14844L36.7188 11.7676C36.7188 18.1152 40.332 21.9238 46.0449 21.9238ZM49.8047 4.54102L49.8047-8.59375C49.8047-12.3047 47.8516-13.6719 44.7266-13.6719L38.6719-13.6719C31.8359-13.6719 28.2715-17.1387 28.2715-24.0723L28.2715-61.2793C28.2715-68.2129 31.8359-71.6797 38.6719-71.6797L96.2402-71.6797C103.076-71.6797 106.641-68.2129 106.641-61.2793L106.641-24.0723C106.641-17.1387 103.076-13.6719 96.2402-13.6719L73.0957-13.6719C69.2871-13.6719 67.7246-12.8418 64.8926-10.1074ZM43.0664-43.75L60.2539-43.75C64.5508-43.75 66.5527-45.752 66.5527-50.0488L66.5527-57.1289C66.5527-61.4258 64.5508-63.3789 60.2539-63.3789L43.0664-63.3789C38.7695-63.3789 36.7676-61.4258 36.7676-57.1289L36.7676-50.0488C36.7676-45.752 38.7695-43.75 43.0664-43.75ZM79.5898-25.3418L91.9434-25.3418C96.2402-25.3418 98.1934-27.2949 98.1934-31.5918L98.1934-53.9551C98.1934-58.252 96.2402-60.2051 91.9434-60.2051L79.5898-60.2051C75.3418-60.2051 73.3398-58.252 73.3398-53.9551L73.3398-31.5918C73.3398-27.2949 75.3418-25.3418 79.5898-25.3418ZM47.0703-22.1191L62.4512-22.1191C66.748-22.1191 68.7012-24.0723 68.7012-28.3691L68.7012-32.8613C68.7012-37.1582 66.748-39.1113 62.4512-39.1113L47.0703-39.1113C42.8223-39.1113 40.8203-37.1582 40.8203-32.8613L40.8203-28.3691C40.8203-24.0723 42.8223-22.1191 47.0703-22.1191Z"/>
  </g>
  <g id="Bold-M" transform="matrix(1 0 0 1 2272.94 1126)">
   <path d="M44.8242 20.7031C48.2422 20.7031 50.9766 19.2871 55.1758 15.625L71.6309 1.2207L97.5586 1.2207C112.5 1.2207 121.631-8.00781 121.631-22.8027L121.631-61.7676C121.631-76.5625 112.5-85.791 97.5586-85.791L36.4746-85.791C21.582-85.791 12.4512-76.6113 12.4512-61.7676L12.4512-22.8027C12.4512-7.95898 22.2168 1.2207 35.5469 1.2207L36.8652 1.2207L36.8652 11.9141C36.8652 17.3828 39.8926 20.7031 44.8242 20.7031ZM47.9492 6.20117L47.9492-7.22656C47.9492-10.5957 46.3379-11.8652 43.3594-11.8652L37.3535-11.8652C29.4434-11.8652 25.5371-15.8203 25.5371-23.6328L25.5371-60.9375C25.5371-68.75 29.4434-72.7539 37.3535-72.7539L96.7285-72.7539C104.59-72.7539 108.545-68.75 108.545-60.9375L108.545-23.6328C108.545-15.8203 104.59-11.8652 96.7285-11.8652L70.6543-11.8652C67.2363-11.8652 65.7227-11.1816 63.2324-8.69141ZM41.3574-43.4082L60.0586-43.4082C64.0625-43.4082 65.9668-45.3125 65.9668-49.3164L65.9668-57.3242C65.9668-61.377 64.0625-63.2324 60.0586-63.2324L41.3574-63.2324C37.3535-63.2324 35.4004-61.377 35.4004-57.3242L35.4004-49.3164C35.4004-45.3125 37.3535-43.4082 41.3574-43.4082ZM79.248-24.6094L92.5781-24.6094C96.582-24.6094 98.5352-26.5137 98.5352-30.5176L98.5352-54.1016C98.5352-58.1055 96.582-60.0098 92.5781-60.0098L79.248-60.0098C75.2441-60.0098 73.291-58.1055 73.291-54.1016L73.291-30.5176C73.291-26.5137 75.2441-24.6094 79.248-24.6094ZM46.0449-21.4844L62.4512-21.4844C66.5039-21.4844 68.4082-23.3887 68.4082-27.3926L68.4082-32.6172C68.4082-36.6699 66.5039-38.5254 62.4512-38.5254L46.0449-38.5254C42.041-38.5254 40.1367-36.6699 40.1367-32.6172L40.1367-27.3926C40.1367-23.3887 42.041-21.4844 46.0449-21.4844Z"/>
  </g>
  <g id="Semibold-M" transform="matrix(1 0 0 1 1976.52 1126)">
   <path d="M43.9941 19.873C47.0215 19.873 49.3652 18.5059 53.0762 15.2344L69.7266 0.585938L97.6074 0.585938C112.402 0.585938 121.045-8.20312 121.045-22.8027L121.045-61.2305C121.045-75.8301 112.402-84.668 97.6074-84.668L35.8887-84.668C21.0938-84.668 12.4512-75.8789 12.4512-61.2305L12.4512-22.8027C12.4512-8.1543 21.4844 0.585938 35.2539 0.585938L36.9629 0.585938L36.9629 12.0117C36.9629 16.8457 39.5996 19.873 43.9941 19.873ZM46.6797 7.42188L46.6797-6.29883C46.6797-9.42383 45.3125-10.5469 42.4316-10.5469L36.4258-10.5469C27.7832-10.5469 23.6328-14.9414 23.6328-23.3887L23.6328-60.6934C23.6328-69.1406 27.7832-73.4863 36.4258-73.4863L97.0703-73.4863C105.664-73.4863 109.863-69.1406 109.863-60.6934L109.863-23.3887C109.863-14.9414 105.664-10.5469 97.0703-10.5469L68.9941-10.5469C65.8203-10.5469 64.3555-10.0098 62.0605-7.71484ZM40.1855-43.2129L59.8633-43.2129C63.7207-43.2129 65.5762-45.0195 65.5762-48.877L65.5762-57.4707C65.5762-61.3281 63.7207-63.1348 59.8633-63.1348L40.1855-63.1348C36.377-63.1348 34.4727-61.3281 34.4727-57.4707L34.4727-48.877C34.4727-45.0195 36.377-43.2129 40.1855-43.2129ZM79.0039-24.1211L93.0176-24.1211C96.875-24.1211 98.7305-25.9277 98.7305-29.7852L98.7305-54.1992C98.7305-58.0566 96.875-59.8633 93.0176-59.8633L79.0039-59.8633C75.1465-59.8633 73.291-58.0566 73.291-54.1992L73.291-29.7852C73.291-25.9277 75.1465-24.1211 79.0039-24.1211ZM45.3613-21.0938L62.5-21.0938C66.3086-21.0938 68.1641-22.8516 68.1641-26.7578L68.1641-32.4707C68.1641-36.3281 66.3086-38.1348 62.5-38.1348L45.3613-38.1348C41.5039-38.1348 39.6484-36.3281 39.6484-32.4707L39.6484-26.7578C39.6484-22.8516 41.5039-21.0938 45.3613-21.0938Z"/>
  </g>
  <g id="Medium-M" transform="matrix(1 0 0 1 1680.03 1126)">
   <path d="M43.3105 19.2383C46.0938 19.2383 48.1445 17.8711 51.5137 14.8926L68.2617 0.146484L97.6562 0.146484C112.354 0.146484 120.605-8.34961 120.605-22.8516L120.605-60.791C120.605-75.293 112.354-83.7891 97.6562-83.7891L35.4004-83.7891C20.752-83.7891 12.4512-75.293 12.4512-60.791L12.4512-22.8516C12.4512-8.30078 20.9961 0.146484 35.0586 0.146484L37.0605 0.146484L37.0605 12.1094C37.0605 16.4551 39.3555 19.2383 43.3105 19.2383ZM45.752 8.30078L45.752-5.61523C45.752-8.49609 44.4824-9.61914 41.748-9.61914L35.7422-9.61914C26.5625-9.61914 22.168-14.2578 22.168-23.1445L22.168-60.498C22.168-69.3848 26.5625-74.0234 35.7422-74.0234L97.3633-74.0234C106.494-74.0234 110.889-69.3848 110.889-60.498L110.889-23.1445C110.889-14.2578 106.494-9.61914 97.3633-9.61914L67.7246-9.61914C64.7461-9.61914 63.2812-9.13086 61.2305-6.98242ZM39.3066-43.0176L59.7656-43.0176C63.4766-43.0176 65.2832-44.7754 65.2832-48.4863L65.2832-57.6172C65.2832-61.3281 63.4766-63.0371 59.7656-63.0371L39.3066-63.0371C35.5957-63.0371 33.7402-61.3281 33.7402-57.6172L33.7402-48.4863C33.7402-44.7754 35.5957-43.0176 39.3066-43.0176ZM78.8086-23.7305L93.3594-23.7305C97.0703-23.7305 98.877-25.4883 98.877-29.1992L98.877-54.2969C98.877-58.0078 97.0703-59.7656 93.3594-59.7656L78.8086-59.7656C75.0977-59.7656 73.291-58.0078 73.291-54.2969L73.291-29.1992C73.291-25.4883 75.0977-23.7305 78.8086-23.7305ZM44.8242-20.752L62.5-20.752C66.2109-20.752 68.0176-22.5098 68.0176-26.2207L68.0176-32.3242C68.0176-36.0352 66.2109-37.8418 62.5-37.8418L44.8242-37.8418C41.1133-37.8418 39.2578-36.0352 39.2578-32.3242L39.2578-26.2207C39.2578-22.5098 41.1133-20.752 44.8242-20.752Z"/>
  </g>
  <g id="Regular-M" transform="matrix(1 0 0 1 1383.58 1126)">
   <path d="M42.4805 18.4082C44.873 18.4082 46.5332 17.1387 49.5117 14.502L66.3574-0.488281L97.7051-0.488281C112.256-0.488281 120.068-8.54492 120.068-22.8516L120.068-60.2539C120.068-74.5605 112.256-82.6172 97.7051-82.6172L34.8145-82.6172C20.2637-82.6172 12.4512-74.6094 12.4512-60.2539L12.4512-22.8516C12.4512-8.49609 20.2637-0.488281 34.8145-0.488281L37.1582-0.488281L37.1582 12.207C37.1582 15.9668 39.0625 18.4082 42.4805 18.4082ZM44.4824 9.47266L44.4824-4.6875C44.4824-7.32422 43.457-8.34961 40.8203-8.34961L34.8145-8.34961C24.9512-8.34961 20.3125-13.3789 20.3125-22.9004L20.3125-60.2539C20.3125-69.7754 24.9512-74.7559 34.8145-74.7559L97.7051-74.7559C107.52-74.7559 112.207-69.7754 112.207-60.2539L112.207-22.9004C112.207-13.3789 107.52-8.34961 97.7051-8.34961L66.0645-8.34961C63.3301-8.34961 61.9629-7.95898 60.1074-6.05469ZM38.1836-42.7734L59.6191-42.7734C63.1348-42.7734 64.8926-44.4824 64.8926-48.0469L64.8926-57.7637C64.8926-61.2793 63.1348-62.9395 59.6191-62.9395L38.1836-62.9395C34.6191-62.9395 32.8125-61.2793 32.8125-57.7637L32.8125-48.0469C32.8125-44.4824 34.6191-42.7734 38.1836-42.7734ZM78.5645-23.2422L93.7988-23.2422C97.3145-23.2422 99.0723-24.9512 99.0723-28.4668L99.0723-54.3945C99.0723-57.9102 97.3145-59.6191 93.7988-59.6191L78.5645-59.6191C75-59.6191 73.2422-57.9102 73.2422-54.3945L73.2422-28.4668C73.2422-24.9512 75-23.2422 78.5645-23.2422ZM44.0918-20.3125L62.5-20.3125C66.0156-20.3125 67.7734-22.0215 67.7734-25.5859L67.7734-32.1777C67.7734-35.6934 66.0156-37.4023 62.5-37.4023L44.0918-37.4023C40.5762-37.4023 38.8184-35.6934 38.8184-32.1777L38.8184-25.5859C38.8184-22.0215 40.5762-20.3125 44.0918-20.3125Z"/>
  </g>
  <g id="Light-M" transform="matrix(1 0 0 1 1087.68 1126)">
   <path d="M40.4785 17.1875C42.334 17.1875 43.6523 16.1621 45.8496 14.2578L63.0371-0.830078L97.7051-0.830078C110.938-0.830078 118.457-8.49609 118.457-21.5332L118.457-60.791C118.457-73.877 110.938-81.543 97.7051-81.543L33.2031-81.543C19.9707-81.543 12.4512-73.9258 12.4512-60.791L12.4512-21.5332C12.4512-8.44727 19.9707-0.830078 33.2031-0.830078L36.3281-0.830078L36.3281 12.3535C36.3281 15.2832 37.8418 17.1875 40.4785 17.1875ZM41.9922 10.3516L41.9922-4.00391C41.9922-6.05469 41.1621-6.83594 39.1113-6.83594L33.252-6.83594C23.584-6.83594 18.5059-12.207 18.5059-21.582L18.5059-60.7422C18.5059-70.166 23.584-75.4883 33.252-75.4883L97.6562-75.4883C107.227-75.4883 112.402-70.166 112.402-60.7422L112.402-21.582C112.402-12.207 107.227-6.83594 97.6562-6.83594L62.9883-6.83594C60.791-6.83594 59.668-6.49414 58.0566-4.88281ZM35.8398-42.7246L58.5938-42.7246C61.6699-42.7246 63.2324-44.2383 63.2324-47.3145L63.2324-58.2031C63.2324-61.3281 61.6699-62.7441 58.5938-62.7441L35.8398-62.7441C32.7637-62.7441 31.2012-61.3281 31.2012-58.2031L31.2012-47.3145C31.2012-44.2383 32.7637-42.7246 35.8398-42.7246ZM77.2461-22.8027L93.7012-22.8027C96.7285-22.8027 98.291-24.2676 98.291-27.3438L98.291-54.6875C98.291-57.8125 96.7285-59.2285 93.7012-59.2285L77.2461-59.2285C74.2188-59.2285 72.6562-57.8125 72.6562-54.6875L72.6562-27.3438C72.6562-24.2676 74.2188-22.8027 77.2461-22.8027ZM41.8945-19.6777L61.6211-19.6777C64.6973-19.6777 66.2109-21.1426 66.2109-24.2676L66.2109-31.9824C66.2109-35.1074 64.6973-36.5723 61.6211-36.5723L41.8945-36.5723C38.8672-36.5723 37.3047-35.1074 37.3047-31.9824L37.3047-24.2676C37.3047-21.1426 38.8672-19.6777 41.8945-19.6777Z"/>
  </g>
  <g id="Thin-M" transform="matrix(1 0 0 1 792.042 1126)">
   <path d="M37.8418 15.5273C38.9648 15.5273 39.8438 14.8926 41.0156 13.8672L58.5938-1.2207L97.7051-1.2207C109.229-1.2207 116.309-8.44727 116.309-19.8242L116.309-61.5234C116.309-72.9004 109.229-80.127 97.7051-80.127L31.0547-80.127C19.5312-80.127 12.4512-72.998 12.4512-61.5234L12.4512-19.8242C12.4512-8.34961 19.5312-1.2207 31.0547-1.2207L35.2051-1.2207L35.2051 12.5977C35.2051 14.4043 36.2793 15.5273 37.8418 15.5273ZM38.623 11.4746L38.623-3.07617C38.623-4.3457 38.1348-4.83398 36.8652-4.83398L31.1523-4.83398C21.7773-4.83398 16.0645-10.6445 16.0645-19.9219L16.0645-61.4258C16.0645-70.7031 21.7773-76.5137 31.1523-76.5137L97.6074-76.5137C106.787-76.5137 112.646-70.7031 112.646-61.4258L112.646-19.9219C112.646-10.6445 106.787-4.83398 97.6074-4.83398L58.9844-4.83398C57.4219-4.83398 56.6406-4.58984 55.3711-3.36914ZM32.7148-42.6758L57.2754-42.6758C59.7168-42.6758 61.0352-43.8477 61.0352-46.4355L61.0352-58.7891C61.0352-61.377 59.7168-62.4512 57.2754-62.4512L32.7148-62.4512C30.2734-62.4512 29.0039-61.377 29.0039-58.7891L29.0039-46.4355C29.0039-43.8477 30.2734-42.6758 32.7148-42.6758ZM75.5371-22.2168L93.5547-22.2168C95.9473-22.2168 97.2168-23.291 97.2168-25.8789L97.2168-55.0781C97.2168-57.666 95.9473-58.7402 93.5547-58.7402L75.5371-58.7402C73.1445-58.7402 71.875-57.666 71.875-55.0781L71.875-25.8789C71.875-23.291 73.1445-22.2168 75.5371-22.2168ZM39.0137-18.8477L60.4492-18.8477C62.8906-18.8477 64.1113-19.9707 64.1113-22.5586L64.1113-31.7383C64.1113-34.3262 62.8906-35.4004 60.4492-35.4004L39.0137-35.4004C36.6211-35.4004 35.3027-34.3262 35.3027-31.7383L35.3027-22.5586C35.3027-19.9707 36.6211-18.8477 39.0137-18.8477Z"/>
  </g>
  <g id="Ultralight-M" transform="matrix(1 0 0 1 495.893 1126)">
   <path d="M36.4746 14.6973C37.2559 14.6973 37.8906 14.2578 38.5742 13.7207L56.3477-1.41602L97.7051-1.41602C108.35-1.41602 115.186-8.39844 115.186-18.9453L115.186-61.9141C115.186-72.4121 108.35-79.3945 97.7051-79.3945L29.9316-79.3945C19.2871-79.3945 12.4512-72.5586 12.4512-61.9141L12.4512-18.9453C12.4512-8.25195 19.2871-1.41602 29.9316-1.41602L34.668-1.41602L34.668 12.6953C34.668 13.916 35.4492 14.6973 36.4746 14.6973ZM36.9141 12.1094L36.9141-2.63672C36.9141-3.4668 36.5723-3.80859 35.7422-3.80859L30.0781-3.80859C20.8496-3.80859 14.8438-9.81445 14.8438-19.043L14.8438-61.7676C14.8438-70.9961 20.8496-77.002 30.0781-77.002L97.6074-77.002C106.543-77.002 112.793-70.9961 112.793-61.7676L112.793-19.043C112.793-9.81445 106.543-3.80859 97.6074-3.80859L56.8848-3.80859C55.6641-3.80859 55.0781-3.56445 53.9551-2.58789ZM31.1035-42.6758L56.5918-42.6758C58.6914-42.6758 59.8633-43.6523 59.8633-45.9473L59.8633-59.082C59.8633-61.377 58.6914-62.3047 56.5918-62.3047L31.1035-62.3047C29.0039-62.3047 27.9297-61.377 27.9297-59.082L27.9297-45.9473C27.9297-43.6523 29.0039-42.6758 31.1035-42.6758ZM74.6582-21.875L93.5059-21.875C95.5078-21.875 96.6797-22.8027 96.6797-25.0977L96.6797-55.2734C96.6797-57.5684 95.5078-58.4961 93.5059-58.4961L74.6582-58.4961C72.5586-58.4961 71.4844-57.5684 71.4844-55.2734L71.4844-25.0977C71.4844-22.8027 72.5586-21.875 74.6582-21.875ZM37.5488-18.4082L59.8633-18.4082C61.9629-18.4082 63.0859-19.3848 63.0859-21.6797L63.0859-31.6406C63.0859-33.9355 61.9629-34.8633 59.8633-34.8633L37.5488-34.8633C35.4492-34.8633 34.2773-33.9355 34.2773-31.6406L34.2773-21.6797C34.2773-19.3848 35.4492-18.4082 37.5488-18.4082Z"/>
  </g>
  <g id="Black-S" transform="matrix(1 0 0 1 2880.28 696)">
   <path d="M36.9141 10.3516C40.332 10.3516 43.3105 9.08203 47.5098 5.46875L60.1074-5.37109L76.3672-5.37109C88.3789-5.37109 96.4844-13.4766 96.4844-25.4883L96.4844-57.1289C96.4844-69.1406 88.3789-77.2461 76.3672-77.2461L29.8828-77.2461C17.8711-77.2461 9.76562-69.1406 9.76562-57.1289L9.76562-25.4883C9.76562-13.4766 18.8477-5.37109 28.418-5.37109L28.7109-5.37109L28.7109 1.46484C28.7109 7.03125 31.8848 10.3516 36.9141 10.3516ZM40.2344-5.17578L40.2344-15.2344C40.2344-18.3594 38.4766-19.5312 35.9375-19.5312L31.1523-19.5312C26.4648-19.5312 23.9258-21.875 23.9258-26.7578L23.9258-55.8594C23.9258-60.7422 26.4648-63.0859 31.1523-63.0859L75.0977-63.0859C79.7852-63.0859 82.3242-60.7422 82.3242-55.8594L82.3242-26.7578C82.3242-21.875 79.7852-19.5312 75.0977-19.5312L58.8379-19.5312C55.6152-19.5312 54.3457-18.7988 51.9043-16.4551ZM34.8145-42.1387L47.3633-42.1387C50.8789-42.1387 52.4902-43.75 52.4902-47.2656L52.4902-52.2461C52.4902-55.7617 50.8789-57.373 47.3633-57.373L34.8145-57.373C31.2988-57.373 29.6875-55.7617 29.6875-52.2461L29.6875-47.2656C29.6875-43.75 31.2988-42.1387 34.8145-42.1387ZM62.5977-27.9297L71.6309-27.9297C75.1465-27.9297 76.7578-29.541 76.7578-33.0566L76.7578-49.8047C76.7578-53.3203 75.1465-54.9316 71.6309-54.9316L62.5977-54.9316C59.082-54.9316 57.4707-53.3203 57.4707-49.8047L57.4707-33.0566C57.4707-29.541 59.082-27.9297 62.5977-27.9297ZM37.5488-25.3418L48.9258-25.3418C52.4414-25.3418 54.0527-26.9531 54.0527-30.4688L54.0527-33.5449C54.0527-37.0605 52.4414-38.6719 48.9258-38.6719L37.5488-38.6719C34.0332-38.6719 32.4219-37.0605 32.4219-33.5449L32.4219-30.4688C32.4219-26.9531 34.0332-25.3418 37.5488-25.3418Z"/>
  </g>
  <g id="Heavy-S" transform="matrix(1 0 0 1 2583.76 696)">
   <path d="M36.2793 9.66797C39.4043 9.66797 42.041 8.39844 45.8496 5.07812L58.5938-5.95703L76.416-5.95703C88.4277-5.95703 96.0938-13.6719 96.0938-25.6348L96.0938-56.543C96.0938-68.5059 88.4277-76.2207 76.416-76.2207L29.4434-76.2207C17.4316-76.2207 9.76562-68.5059 9.76562-56.543L9.76562-25.6348C9.76562-13.6719 18.2129-5.95703 28.3203-5.95703L28.9062-5.95703L28.9062 1.5625C28.9062 6.5918 31.7383 9.66797 36.2793 9.66797ZM39.2578-4.10156L39.2578-14.3555C39.2578-17.334 37.6953-18.457 35.2051-18.457L30.4199-18.457C25-18.457 22.2656-21.0938 22.2656-26.6113L22.2656-55.5664C22.2656-61.0352 25-63.7207 30.4199-63.7207L75.4395-63.7207C80.8594-63.7207 83.6426-61.0352 83.6426-55.5664L83.6426-26.6113C83.6426-21.0938 80.8594-18.457 75.4395-18.457L57.5195-18.457C54.4922-18.457 53.2227-17.8223 50.9766-15.625ZM33.9355-41.8945L47.3145-41.8945C50.7324-41.8945 52.2949-43.5059 52.2949-46.875L52.2949-52.3438C52.2949-55.7129 50.7324-57.2754 47.3145-57.2754L33.9355-57.2754C30.5176-57.2754 28.9551-55.7129 28.9551-52.3438L28.9551-46.875C28.9551-43.5059 30.5176-41.8945 33.9355-41.8945ZM62.5-27.4902L72.0703-27.4902C75.4883-27.4902 77.0508-29.0527 77.0508-32.4707L77.0508-49.8535C77.0508-53.2715 75.4883-54.834 72.0703-54.834L62.5-54.834C59.082-54.834 57.5195-53.2715 57.5195-49.8535L57.5195-32.4707C57.5195-29.0527 59.082-27.4902 62.5-27.4902ZM37.1094-25L49.0234-25C52.4414-25 54.0039-26.5625 54.0039-29.9805L54.0039-33.3984C54.0039-36.7676 52.4414-38.3789 49.0234-38.3789L37.1094-38.3789C33.6914-38.3789 32.1289-36.7676 32.1289-33.3984L32.1289-29.9805C32.1289-26.5625 33.6914-25 37.1094-25Z"/>
  </g>
  <g id="Bold-S" transform="matrix(1 0 0 1 2287.27 696)">
   <path d="M35.5957 8.88672C38.3789 8.88672 40.5762 7.66602 44.043 4.6875L56.8848-6.64062L76.4648-6.64062C88.4766-6.64062 95.6543-13.916 95.6543-25.8301L95.6543-55.8594C95.6543-67.7734 88.4766-75.0488 76.4648-75.0488L28.9551-75.0488C16.9434-75.0488 9.76562-67.7734 9.76562-55.8594L9.76562-25.8301C9.76562-13.916 17.4316-6.64062 28.2227-6.64062L29.1016-6.64062L29.1016 1.66016C29.1016 6.10352 31.543 8.88672 35.5957 8.88672ZM38.1836-2.92969L38.1836-13.4277C38.1836-16.1621 36.8164-17.2363 34.375-17.2363L29.5898-17.2363C23.3398-17.2363 20.3613-20.2637 20.3613-26.4648L20.3613-55.2246C20.3613-61.4258 23.3398-64.4531 29.5898-64.4531L75.8301-64.4531C82.0801-64.4531 85.0586-61.4258 85.0586-55.2246L85.0586-26.4648C85.0586-20.2637 82.0801-17.2363 75.8301-17.2363L56.0547-17.2363C53.2227-17.2363 52.002-16.6992 50-14.6973ZM32.9102-41.6504L47.2656-41.6504C50.5371-41.6504 52.0508-43.2129 52.0508-46.4355L52.0508-52.4414C52.0508-55.7129 50.5371-57.2266 47.2656-57.2266L32.9102-57.2266C29.6875-57.2266 28.0762-55.7129 28.0762-52.4414L28.0762-46.4355C28.0762-43.2129 29.6875-41.6504 32.9102-41.6504ZM62.3535-27.002L72.5586-27.002C75.8301-27.002 77.3926-28.5156 77.3926-31.7871L77.3926-49.9512C77.3926-53.1738 75.8301-54.7363 72.5586-54.7363L62.3535-54.7363C59.1309-54.7363 57.5684-53.1738 57.5684-49.9512L57.5684-31.7871C57.5684-28.5156 59.1309-27.002 62.3535-27.002ZM36.5723-24.6094L49.1699-24.6094C52.3926-24.6094 53.9551-26.123 53.9551-29.3945L53.9551-33.252C53.9551-36.4746 52.3926-38.0371 49.1699-38.0371L36.5723-38.0371C33.3008-38.0371 31.7871-36.4746 31.7871-33.252L31.7871-29.3945C31.7871-26.123 33.3008-24.6094 36.5723-24.6094Z"/>
  </g>
  <g id="Semibold-S" transform="matrix(1 0 0 1 1990.7 696)">
   <path d="M35.1074 8.30078C37.6465 8.30078 39.5996 7.12891 42.7734 4.39453L55.7129-7.08008L76.5137-7.08008C88.5254-7.08008 95.3613-14.0625 95.3613-25.9277L95.3613-55.3711C95.3613-67.2852 88.5254-74.2676 76.5137-74.2676L28.6621-74.2676C16.6504-74.2676 9.76562-67.2852 9.76562-55.3711L9.76562-25.9277C9.76562-14.0625 16.9434-7.08008 28.1738-7.08008L29.248-7.08008L29.248 1.75781C29.248 5.81055 31.4453 8.30078 35.1074 8.30078ZM37.4023-2.09961L37.4023-12.7441C37.4023-15.3809 36.2305-16.3574 33.7891-16.3574L29.0527-16.3574C22.168-16.3574 19.0918-19.6777 19.0918-26.3672L19.0918-54.9805C19.0918-61.6699 22.168-64.9414 29.0527-64.9414L76.0742-64.9414C82.959-64.9414 86.084-61.6699 86.084-54.9805L86.084-26.3672C86.084-19.6777 82.959-16.3574 76.0742-16.3574L55.0293-16.3574C52.3926-16.3574 51.123-15.918 49.2676-14.0137ZM32.2266-41.4551L47.2168-41.4551C50.3906-41.4551 51.9043-42.9688 51.9043-46.1426L51.9043-52.5391C51.9043-55.6641 50.3906-57.1289 47.2168-57.1289L32.2266-57.1289C29.0527-57.1289 27.5391-55.6641 27.5391-52.5391L27.5391-46.1426C27.5391-42.9688 29.0527-41.4551 32.2266-41.4551ZM62.3047-26.6602L72.9004-26.6602C76.0742-26.6602 77.5879-28.1738 77.5879-31.2988L77.5879-50C77.5879-53.125 76.0742-54.6387 72.9004-54.6387L62.3047-54.6387C59.1309-54.6387 57.6172-53.125 57.6172-50L57.6172-31.2988C57.6172-28.1738 59.1309-26.6602 62.3047-26.6602ZM36.2305-24.3652L49.2188-24.3652C52.3926-24.3652 53.9062-25.8301 53.9062-29.0039L53.9062-33.1055C53.9062-36.2793 52.3926-37.793 49.2188-37.793L36.2305-37.793C33.0566-37.793 31.543-36.2793 31.543-33.1055L31.543-29.0039C31.543-25.8301 33.0566-24.3652 36.2305-24.3652Z"/>
  </g>
  <g id="Medium-S" transform="matrix(1 0 0 1 1694.09 696)">
   <path d="M34.7168 7.91016C37.1094 7.91016 38.8672 6.73828 41.7969 4.15039L54.7852-7.42188L76.5137-7.42188C88.5254-7.42188 95.166-14.209 95.166-26.0254L95.166-55.0293C95.166-66.8945 88.5254-73.6816 76.5137-73.6816L28.418-73.6816C16.4062-73.6816 9.76562-66.8945 9.76562-55.0293L9.76562-26.0254C9.76562-14.209 16.5527-7.42188 28.125-7.42188L29.3457-7.42188L29.3457 1.80664C29.3457 5.56641 31.3477 7.91016 34.7168 7.91016ZM36.8164-1.46484L36.8164-12.2559C36.8164-14.7949 35.791-15.7227 33.3496-15.7227L28.6133-15.7227C21.3379-15.7227 18.0664-19.2383 18.0664-26.2695L18.0664-54.7852C18.0664-61.8164 21.3379-65.332 28.6133-65.332L76.3184-65.332C83.5938-65.332 86.8164-61.8164 86.8164-54.7852L86.8164-26.2695C86.8164-19.2383 83.5938-15.7227 76.3184-15.7227L54.248-15.7227C51.709-15.7227 50.4883-15.332 48.7793-13.5254ZM31.6895-41.3574L47.2168-41.3574C50.293-41.3574 51.8066-42.8223 51.8066-45.8984L51.8066-52.5879C51.8066-55.6641 50.293-57.1289 47.2168-57.1289L31.6895-57.1289C28.6133-57.1289 27.0996-55.6641 27.0996-52.5879L27.0996-45.8984C27.0996-42.8223 28.6133-41.3574 31.6895-41.3574ZM62.2559-26.3672L73.1934-26.3672C76.2695-26.3672 77.7832-27.8809 77.7832-30.957L77.7832-50.0488C77.7832-53.125 76.2695-54.5898 73.1934-54.5898L62.2559-54.5898C59.1309-54.5898 57.6172-53.125 57.6172-50.0488L57.6172-30.957C57.6172-27.8809 59.1309-26.3672 62.2559-26.3672ZM35.9375-24.1211L49.3164-24.1211C52.3926-24.1211 53.9062-25.5859 53.9062-28.7109L53.9062-33.0566C53.9062-36.084 52.3926-37.5977 49.3164-37.5977L35.9375-37.5977C32.8613-37.5977 31.3477-36.084 31.3477-33.0566L31.3477-28.7109C31.3477-25.5859 32.8613-24.1211 35.9375-24.1211Z"/>
  </g>
  <g id="Regular-S" transform="matrix(1 0 0 1 1397.53 696)">
   <path d="M34.2773 7.37305C36.4258 7.37305 37.8906 6.25 40.5273 3.85742L53.6133-7.86133L76.5625-7.86133C88.5742-7.86133 94.873-14.3555 94.873-26.1719L94.873-54.5898C94.873-66.4062 88.5742-72.9004 76.5625-72.9004L28.0762-72.9004C16.0645-72.9004 9.76562-66.4062 9.76562-54.5898L9.76562-26.1719C9.76562-14.3555 16.0645-7.86133 28.0762-7.86133L29.4922-7.86133L29.4922 1.85547C29.4922 5.22461 31.2012 7.37305 34.2773 7.37305ZM36.084-0.634766L36.084-11.6211C36.084-14.0137 35.2051-14.8926 32.8125-14.8926L28.0762-14.8926C20.2148-14.8926 16.7969-18.6523 16.7969-26.1719L16.7969-54.5898C16.7969-62.0605 20.2148-65.8203 28.0762-65.8203L76.5625-65.8203C84.4238-65.8203 87.8418-62.0605 87.8418-54.5898L87.8418-26.1719C87.8418-18.6523 84.4238-14.8926 76.5625-14.8926L53.2227-14.8926C50.8789-14.8926 49.6582-14.5508 48.0957-12.8906ZM31.0547-41.1621L47.168-41.1621C50.1465-41.1621 51.6602-42.627 51.6602-45.6055L51.6602-52.6367C51.6602-55.6152 50.1465-57.0312 47.168-57.0312L31.0547-57.0312C28.0273-57.0312 26.5137-55.6152 26.5137-52.6367L26.5137-45.6055C26.5137-42.627 28.0273-41.1621 31.0547-41.1621ZM62.1582-26.0742L73.5352-26.0742C76.5137-26.0742 77.9785-27.5391 77.9785-30.4688L77.9785-50.0977C77.9785-53.0762 76.5137-54.541 73.5352-54.541L62.1582-54.541C59.1309-54.541 57.666-53.0762 57.666-50.0977L57.666-30.4688C57.666-27.5391 59.1309-26.0742 62.1582-26.0742ZM35.5957-23.877L49.3652-23.877C52.3926-23.877 53.8574-25.293 53.8574-28.3203L53.8574-32.9102C53.8574-35.8887 52.3926-37.3535 49.3652-37.3535L35.5957-37.3535C32.6172-37.3535 31.1035-35.8887 31.1035-32.9102L31.1035-28.3203C31.1035-25.293 32.6172-23.877 35.5957-23.877Z"/>
  </g>
  <g id="Light-S" transform="matrix(1 0 0 1 1101.55 696)">
   <path d="M32.4707 6.29883C34.1797 6.29883 35.3516 5.41992 37.3047 3.61328L50.6836-8.1543L76.5625-8.1543C87.4023-8.1543 93.4082-14.3066 93.4082-25L93.4082-55.0781C93.4082-65.7715 87.4023-71.9238 76.5625-71.9238L26.6113-71.9238C15.7715-71.9238 9.76562-65.8203 9.76562-55.0781L9.76562-25C9.76562-14.2578 15.7715-8.1543 26.6113-8.1543L28.7598-8.1543L28.7598 2.00195C28.7598 4.63867 30.127 6.29883 32.4707 6.29883ZM33.8379 0.146484L33.8379-11.0352C33.8379-12.8418 33.1543-13.5742 31.2988-13.5742L26.6602-13.5742C18.9941-13.5742 15.1855-17.627 15.1855-25.0488L15.1855-55.0293C15.1855-62.4512 18.9941-66.5039 26.6602-66.5039L76.5137-66.5039C84.1309-66.5039 87.9883-62.4512 87.9883-55.0293L87.9883-25.0488C87.9883-17.627 84.1309-13.5742 76.5137-13.5742L50.5371-13.5742C48.6328-13.5742 47.6074-13.2812 46.2891-11.9141ZM28.9551-41.1133L46.2891-41.1133C48.877-41.1133 50.1465-42.3828 50.1465-44.9707L50.1465-53.0762C50.1465-55.6641 48.877-56.8359 46.2891-56.8359L28.9551-56.8359C26.3672-56.8359 25.0488-55.6641 25.0488-53.0762L25.0488-44.9707C25.0488-42.3828 26.3672-41.1133 28.9551-41.1133ZM60.9863-25.6348L73.4375-25.6348C75.9766-25.6348 77.2949-26.9043 77.2949-29.4922L77.2949-50.3418C77.2949-52.9785 75.9766-54.1992 73.4375-54.1992L60.9863-54.1992C58.4473-54.1992 57.1289-52.9785 57.1289-50.3418L57.1289-29.4922C57.1289-26.9043 58.4473-25.6348 60.9863-25.6348ZM33.6426-23.291L48.584-23.291C51.1719-23.291 52.4414-24.5117 52.4414-27.1484L52.4414-32.7637C52.4414-35.3516 51.1719-36.6211 48.584-36.6211L33.6426-36.6211C31.1035-36.6211 29.7852-35.3516 29.7852-32.7637L29.7852-27.1484C29.7852-24.5117 31.1035-23.291 33.6426-23.291Z"/>
  </g>
  <g id="Thin-S" transform="matrix(1 0 0 1 805.763 696)">
   <path d="M30.127 4.88281C31.2012 4.88281 31.9824 4.29688 33.0566 3.32031L46.7773-8.49609L76.5625-8.49609C85.9375-8.49609 91.5527-14.2578 91.5527-23.4863L91.5527-55.7129C91.5527-64.9414 85.9375-70.6543 76.5625-70.6543L24.7559-70.6543C15.3809-70.6543 9.76562-64.9902 9.76562-55.7129L9.76562-23.4863C9.76562-14.1602 15.3809-8.49609 24.7559-8.49609L27.832-8.49609L27.832 2.19727C27.832 3.80859 28.7109 4.88281 30.127 4.88281ZM30.9082 1.17188L30.9082-10.2051C30.9082-11.377 30.4688-11.8164 29.3457-11.8164L24.8047-11.8164C17.4316-11.8164 13.0859-16.2598 13.0859-23.5352L13.0859-55.6152C13.0859-62.9395 17.4316-67.3828 24.8047-67.3828L76.5137-67.3828C83.7402-67.3828 88.2324-62.9395 88.2324-55.6152L88.2324-23.5352C88.2324-16.2598 83.7402-11.8164 76.5137-11.8164L46.9727-11.8164C45.6543-11.8164 44.9707-11.5723 43.8965-10.5469ZM26.2207-41.1133L45.1172-41.1133C47.1191-41.1133 48.1934-42.041 48.1934-44.1895L48.1934-53.5645C48.1934-55.6641 47.1191-56.5918 45.1172-56.5918L26.2207-56.5918C24.1699-56.5918 23.1445-55.6641 23.1445-53.5645L23.1445-44.1895C23.1445-42.041 24.1699-41.1133 26.2207-41.1133ZM59.5215-25.1465L73.3398-25.1465C75.293-25.1465 76.3672-26.0742 76.3672-28.1738L76.3672-50.6836C76.3672-52.832 75.293-53.7598 73.3398-53.7598L59.5215-53.7598C57.4707-53.7598 56.4453-52.832 56.4453-50.6836L56.4453-28.1738C56.4453-26.0742 57.4707-25.1465 59.5215-25.1465ZM31.1035-22.5586L47.5586-22.5586C49.6094-22.5586 50.6348-23.4863 50.6348-25.6348L50.6348-32.5684C50.6348-34.668 49.6094-35.5957 47.5586-35.5957L31.1035-35.5957C29.1016-35.5957 28.0273-34.668 28.0273-32.5684L28.0273-25.6348C28.0273-23.4863 29.1016-22.5586 31.1035-22.5586Z"/>
  </g>
  <g id="Ultralight-S" transform="matrix(1 0 0 1 509.54 696)">
   <path d="M28.9551 4.10156C29.6387 4.10156 30.2246 3.71094 30.8594 3.17383L44.7266-8.69141L76.5625-8.69141C85.1562-8.69141 90.5762-14.209 90.5762-22.7051L90.5762-56.0059C90.5762-64.502 85.1562-70.0195 76.5625-70.0195L23.7793-70.0195C15.1855-70.0195 9.76562-64.5996 9.76562-56.0059L9.76562-22.7051C9.76562-14.1113 15.1855-8.69141 23.7793-8.69141L27.2949-8.69141L27.2949 2.29492C27.2949 3.41797 27.9785 4.10156 28.9551 4.10156ZM29.3945 1.70898L29.3945-9.81445C29.3945-10.5957 29.0527-10.8887 28.3203-10.8887L23.8281-10.8887C16.6016-10.8887 11.9629-15.5273 11.9629-22.8027L11.9629-55.957C11.9629-63.1836 16.6016-67.8223 23.8281-67.8223L76.4648-67.8223C83.5449-67.8223 88.3301-63.1836 88.3301-55.957L88.3301-22.8027C88.3301-15.5273 83.5449-10.8887 76.4648-10.8887L45.166-10.8887C44.0918-10.8887 43.5547-10.6934 42.6758-9.86328ZM24.8047-41.0645L44.5312-41.0645C46.2402-41.0645 47.2168-41.8945 47.2168-43.75L47.2168-53.8574C47.2168-55.7129 46.2402-56.4941 44.5312-56.4941L24.8047-56.4941C23.0469-56.4941 22.168-55.7129 22.168-53.8574L22.168-43.75C22.168-41.8945 23.0469-41.0645 24.8047-41.0645ZM58.7402-24.8535L73.2422-24.8535C74.9512-24.8535 75.8789-25.6348 75.8789-27.4902L75.8789-50.8789C75.8789-52.7344 74.9512-53.5156 73.2422-53.5156L58.7402-53.5156C56.9824-53.5156 56.1035-52.7344 56.1035-50.8789L56.1035-27.4902C56.1035-25.6348 56.9824-24.8535 58.7402-24.8535ZM29.7852-22.168L47.0215-22.168C48.7793-22.168 49.6582-22.9492 49.6582-24.8535L49.6582-32.4707C49.6582-34.3262 48.7793-35.0586 47.0215-35.0586L29.7852-35.0586C28.0762-35.0586 27.0996-34.3262 27.0996-32.4707L27.0996-24.8535C27.0996-22.9492 28.0762-22.168 29.7852-22.168Z"/>
  </g>
 </g>
</svg>
