<?xml version="1.0" encoding="UTF-8"?>
<!--Generator: Apple Native CoreSVG 149-->
<!DOCTYPE svg
PUBLIC "-//W3C//DTD SVG 1.1//EN"
       "http://www.w3.org/Graphics/SVG/1.1/DTD/svg11.dtd">
<svg version="1.1" xmlns="http://www.w3.org/2000/svg" xmlns:xlink="http://www.w3.org/1999/xlink" width="3300" height="2200">
 <!--glyph: "uni100B78.medium", point size: 100.000000, font version: "Version 16.0d18e1", template writer version: "8"-->
 <g id="Notes">
  <rect height="2200" id="artboard" style="fill:white;opacity:1" width="3300" x="0" y="0"/>
  <line id="" style="fill:none;stroke:black;opacity:1;stroke-width:0.5;" x1="263" x2="3036" y1="292" y2="292"/>
  <text style="stroke:none;fill:black;font-family:-apple-system,&quot;SF Pro Display&quot;,&quot;SF Pro Text&quot;,Helvetica,sans-serif;font-weight:bold;" transform="matrix(1 0 0 1 263 322)">Weight/Scale Variations</text>
  <text style="stroke:none;fill:black;font-family:-apple-system,&quot;SF Pro Display&quot;,&quot;SF Pro Text&quot;,Helvetica,sans-serif;text-anchor:middle;" transform="matrix(1 0 0 1 559.711 322)">Ultralight</text>
  <text style="stroke:none;fill:black;font-family:-apple-system,&quot;SF Pro Display&quot;,&quot;SF Pro Text&quot;,Helvetica,sans-serif;text-anchor:middle;" transform="matrix(1 0 0 1 856.422 322)">Thin</text>
  <text style="stroke:none;fill:black;font-family:-apple-system,&quot;SF Pro Display&quot;,&quot;SF Pro Text&quot;,Helvetica,sans-serif;text-anchor:middle;" transform="matrix(1 0 0 1 1153.13 322)">Light</text>
  <text style="stroke:none;fill:black;font-family:-apple-system,&quot;SF Pro Display&quot;,&quot;SF Pro Text&quot;,Helvetica,sans-serif;text-anchor:middle;" transform="matrix(1 0 0 1 1449.84 322)">Regular</text>
  <text style="stroke:none;fill:black;font-family:-apple-system,&quot;SF Pro Display&quot;,&quot;SF Pro Text&quot;,Helvetica,sans-serif;text-anchor:middle;" transform="matrix(1 0 0 1 1746.56 322)">Medium</text>
  <text style="stroke:none;fill:black;font-family:-apple-system,&quot;SF Pro Display&quot;,&quot;SF Pro Text&quot;,Helvetica,sans-serif;text-anchor:middle;" transform="matrix(1 0 0 1 2043.27 322)">Semibold</text>
  <text style="stroke:none;fill:black;font-family:-apple-system,&quot;SF Pro Display&quot;,&quot;SF Pro Text&quot;,Helvetica,sans-serif;text-anchor:middle;" transform="matrix(1 0 0 1 2339.98 322)">Bold</text>
  <text style="stroke:none;fill:black;font-family:-apple-system,&quot;SF Pro Display&quot;,&quot;SF Pro Text&quot;,Helvetica,sans-serif;text-anchor:middle;" transform="matrix(1 0 0 1 2636.69 322)">Heavy</text>
  <text style="stroke:none;fill:black;font-family:-apple-system,&quot;SF Pro Display&quot;,&quot;SF Pro Text&quot;,Helvetica,sans-serif;text-anchor:middle;" transform="matrix(1 0 0 1 2933.4 322)">Black</text>
  <line id="" style="fill:none;stroke:black;opacity:1;stroke-width:0.5;" x1="263" x2="3036" y1="1903" y2="1903"/>
  <g id="" transform="matrix(1 0 0 1 263 1933)">
   <path d="M9.24805 0.830078C13.5547 0.830078 17.1387-2.74414 17.1387-7.05078C17.1387-11.3574 13.5449-14.9316 9.23828-14.9316C4.94141-14.9316 1.36719-11.3574 1.36719-7.05078C1.36719-2.74414 4.95117 0.830078 9.24805 0.830078ZM9.24805-0.654297C5.70312-0.654297 2.87109-3.49609 2.87109-7.05078C2.87109-10.6055 5.69336-13.4473 9.23828-13.4473C12.793-13.4473 15.6348-10.6055 15.6445-7.05078C15.6543-3.49609 12.8027-0.654297 9.24805-0.654297ZM6.39648-6.31836L8.50586-6.31836L8.50586-4.19922C8.50586-3.75977 8.79883-3.45703 9.22852-3.45703C9.67773-3.45703 9.9707-3.75977 9.9707-4.19922L9.9707-6.31836L12.0996-6.31836C12.5391-6.31836 12.8418-6.61133 12.8418-7.04102C12.8418-7.48047 12.5391-7.7832 12.0996-7.7832L9.9707-7.7832L9.9707-9.89258C9.9707-10.3418 9.67773-10.6445 9.22852-10.6445C8.79883-10.6445 8.50586-10.3418 8.50586-9.89258L8.50586-7.7832L6.39648-7.7832C5.94727-7.7832 5.64453-7.48047 5.64453-7.04102C5.64453-6.61133 5.94727-6.31836 6.39648-6.31836Z"/>
  </g>
  <g id="" transform="matrix(1 0 0 1 281.506 1933)">
   <path d="M11.709 2.91016C17.1582 2.91016 21.6699-1.61133 21.6699-7.05078C21.6699-12.5 17.1484-17.0117 11.6992-17.0117C6.25977-17.0117 1.74805-12.5 1.74805-7.05078C1.74805-1.61133 6.26953 2.91016 11.709 2.91016ZM11.709 1.25C7.09961 1.25 3.41797-2.44141 3.41797-7.05078C3.41797-11.6602 7.08984-15.3516 11.6992-15.3516C16.3086-15.3516 20-11.6602 20.0098-7.05078C20.0195-2.44141 16.3184 1.25 11.709 1.25ZM7.98828-6.23047L10.8789-6.23047L10.8789-3.32031C10.8789-2.83203 11.2109-2.5 11.6895-2.5C12.1777-2.5 12.5195-2.83203 12.5195-3.32031L12.5195-6.23047L15.4297-6.23047C15.918-6.23047 16.25-6.5625 16.25-7.04102C16.25-7.5293 15.918-7.87109 15.4297-7.87109L12.5195-7.87109L12.5195-10.7617C12.5195-11.2695 12.1777-11.6016 11.6895-11.6016C11.2109-11.6016 10.8789-11.2598 10.8789-10.7617L10.8789-7.87109L7.98828-7.87109C7.48047-7.87109 7.14844-7.5293 7.14844-7.04102C7.14844-6.5625 7.49023-6.23047 7.98828-6.23047Z"/>
  </g>
  <g id="" transform="matrix(1 0 0 1 304.924 1933)">
   <path d="M14.9707 5.66406C21.9336 5.66406 27.6953-0.0976562 27.6953-7.05078C27.6953-14.0137 21.9238-19.7754 14.9609-19.7754C8.00781-19.7754 2.25586-14.0137 2.25586-7.05078C2.25586-0.0976562 8.01758 5.66406 14.9707 5.66406ZM14.9707 3.84766C8.93555 3.84766 4.08203-1.01562 4.08203-7.05078C4.08203-13.0957 8.92578-17.9492 14.9609-17.9492C21.0059-17.9492 25.8594-13.0957 25.8691-7.05078C25.8789-1.01562 21.0156 3.84766 14.9707 3.84766ZM10.0586-6.14258L14.0625-6.14258L14.0625-2.12891C14.0625-1.5918 14.4336-1.2207 14.9512-1.2207C15.4883-1.2207 15.8594-1.5918 15.8594-2.12891L15.8594-6.14258L19.8828-6.14258C20.4102-6.14258 20.791-6.51367 20.791-7.03125C20.791-7.56836 20.4199-7.94922 19.8828-7.94922L15.8594-7.94922L15.8594-11.9531C15.8594-12.5098 15.4883-12.8809 14.9512-12.8809C14.4336-12.8809 14.0625-12.5 14.0625-11.9531L14.0625-7.94922L10.0586-7.94922C9.50195-7.94922 9.13086-7.56836 9.13086-7.03125C9.13086-6.51367 9.51172-6.14258 10.0586-6.14258Z"/>
  </g>
  <text style="stroke:none;fill:black;font-family:-apple-system,&quot;SF Pro Display&quot;,&quot;SF Pro Text&quot;,Helvetica,sans-serif;font-weight:bold;" transform="matrix(1 0 0 1 263 1953)">Design Variations</text>
  <text style="stroke:none;fill:black;font-family:-apple-system,&quot;SF Pro Display&quot;,&quot;SF Pro Text&quot;,Helvetica,sans-serif;" transform="matrix(1 0 0 1 263 1971)">Symbols are supported in up to nine weights and three scales.</text>
  <text style="stroke:none;fill:black;font-family:-apple-system,&quot;SF Pro Display&quot;,&quot;SF Pro Text&quot;,Helvetica,sans-serif;" transform="matrix(1 0 0 1 263 1989)">For optimal layout with text and other symbols, vertically align</text>
  <text style="stroke:none;fill:black;font-family:-apple-system,&quot;SF Pro Display&quot;,&quot;SF Pro Text&quot;,Helvetica,sans-serif;" transform="matrix(1 0 0 1 263 2007)">symbols with the adjacent text.</text>
  <line id="" style="fill:none;stroke:#00AEEF;stroke-width:0.5;opacity:1.0;" x1="776" x2="776" y1="1919" y2="1933"/>
  <g id="" transform="matrix(1 0 0 1 776 1933)">
   <path d="M3.31055 0.126953C3.82812 0.126953 4.08203-0.0683594 4.26758-0.605469L5.52734-4.0625L11.2891-4.0625L12.5488-0.605469C12.7344-0.0683594 12.9883 0.126953 13.4961 0.126953C14.0137 0.126953 14.3457-0.185547 14.3457-0.673828C14.3457-0.839844 14.3164-0.986328 14.2383-1.20117L9.6582-13.3887C9.43359-13.9941 9.0332-14.2871 8.4082-14.2871C7.80273-14.2871 7.39258-13.9941 7.17773-13.3984L2.59766-1.19141C2.51953-0.976562 2.49023-0.830078 2.49023-0.664062C2.49023-0.175781 2.80273 0.126953 3.31055 0.126953ZM6.00586-5.53711L8.37891-12.1094L8.42773-12.1094L10.8008-5.53711Z"/>
  </g>
  <line id="" style="fill:none;stroke:#00AEEF;stroke-width:0.5;opacity:1.0;" x1="792.836" x2="792.836" y1="1919" y2="1933"/>
  <text style="stroke:none;fill:black;font-family:-apple-system,&quot;SF Pro Display&quot;,&quot;SF Pro Text&quot;,Helvetica,sans-serif;font-weight:bold;" transform="matrix(1 0 0 1 776 1953)">Margins</text>
  <text style="stroke:none;fill:black;font-family:-apple-system,&quot;SF Pro Display&quot;,&quot;SF Pro Text&quot;,Helvetica,sans-serif;" transform="matrix(1 0 0 1 776 1971)">Leading and trailing margins on the left and right side of each symbol</text>
  <text style="stroke:none;fill:black;font-family:-apple-system,&quot;SF Pro Display&quot;,&quot;SF Pro Text&quot;,Helvetica,sans-serif;" transform="matrix(1 0 0 1 776 1989)">can be adjusted by modifying the x-location of the margin guidelines.</text>
  <text style="stroke:none;fill:black;font-family:-apple-system,&quot;SF Pro Display&quot;,&quot;SF Pro Text&quot;,Helvetica,sans-serif;" transform="matrix(1 0 0 1 776 2007)">Modifications are automatically applied proportionally to all</text>
  <text style="stroke:none;fill:black;font-family:-apple-system,&quot;SF Pro Display&quot;,&quot;SF Pro Text&quot;,Helvetica,sans-serif;" transform="matrix(1 0 0 1 776 2025)">scales and weights.</text>
  <g id="" transform="matrix(1 0 0 1 1289 1933)">
   <path d="M2.8418 1.86523L4.54102 3.57422C5.40039 4.44336 6.38672 4.38477 7.31445 3.35938L17.4902-7.85156C17.7539-7.76367 18.0273-7.7832 18.3398-7.8418L19.4043-8.03711L20.0684-7.36328L20.0293-6.80664C19.9902-6.30859 20.1172-5.92773 20.6055-5.44922L21.3672-4.70703C21.8457-4.22852 22.4609-4.19922 22.9297-4.66797L25.8398-7.58789C26.3086-8.05664 26.2891-8.65234 25.8105-9.13086L25.0391-9.89258C24.5605-10.3711 24.1895-10.5273 23.7109-10.4883L23.1348-10.4395L22.4902-11.0742L22.7344-12.1973C22.8613-12.7637 22.7051-13.2031 22.1191-13.7891L19.9219-15.9766C16.582-19.2969 12.1484-19.2188 9.25781-16.3281C8.83789-15.918 8.80859-15.3418 9.04297-14.9512C9.27734-14.5898 9.73633-14.3555 10.3809-14.5215C11.8457-14.8633 13.3691-14.9219 14.7949-13.9844L14.209-12.5293C14.0137-12.0508 13.9844-11.6504 14.1113-11.2891L3.04688-0.898438C2.06055 0.0195312 1.98242 0.996094 2.8418 1.86523ZM10.752-15.957C13.1836-17.7344 16.4746-17.4316 18.7012-15.2051L21.1328-12.793C21.3672-12.5586 21.4062-12.373 21.3379-12.0312L21.0156-10.5469L22.5195-9.0625L23.5059-9.12109C23.7598-9.13086 23.8379-9.11133 24.0332-8.91602L24.6094-8.33984L22.168-5.89844L21.5918-6.47461C21.3965-6.66992 21.3672-6.74805 21.377-7.01172L21.4453-7.98828L19.9512-9.47266L18.4277-9.21875C18.1055-9.15039 17.959-9.17969 17.7148-9.41406L15.7129-11.416C15.459-11.6504 15.4297-11.8164 15.5859-12.1875L16.4648-14.2773C14.9023-15.7324 12.8711-16.3574 10.8398-15.7617C10.6836-15.7227 10.625-15.8496 10.752-15.957ZM5.27344 2.30469L4.10156 1.14258C3.63281 0.683594 3.74023 0.341797 4.14062-0.0195312L14.9512-10.1953L16.416-8.71094L6.42578 2.27539C6.07422 2.67578 5.74219 2.77344 5.27344 2.30469Z"/>
  </g>
  <text style="stroke:none;fill:black;font-family:-apple-system,&quot;SF Pro Display&quot;,&quot;SF Pro Text&quot;,Helvetica,sans-serif;font-weight:bold;" transform="matrix(1 0 0 1 1289 1953)">Exporting</text>
  <text style="stroke:none;fill:black;font-family:-apple-system,&quot;SF Pro Display&quot;,&quot;SF Pro Text&quot;,Helvetica,sans-serif;" transform="matrix(1 0 0 1 1289 1971)">Symbols should be outlined when exporting to ensure the</text>
  <text style="stroke:none;fill:black;font-family:-apple-system,&quot;SF Pro Display&quot;,&quot;SF Pro Text&quot;,Helvetica,sans-serif;" transform="matrix(1 0 0 1 1289 1989)">design is preserved when submitting to Xcode.</text>
  <text id="template-version" style="stroke:none;fill:black;font-family:-apple-system,&quot;SF Pro Display&quot;,&quot;SF Pro Text&quot;,Helvetica,sans-serif;text-anchor:end;" transform="matrix(1 0 0 1 3036 1933)">Template v.2.0</text>
  <text style="stroke:none;fill:black;font-family:-apple-system,&quot;SF Pro Display&quot;,&quot;SF Pro Text&quot;,Helvetica,sans-serif;text-anchor:end;" transform="matrix(1 0 0 1 3036 1951)">Requires Xcode 12 or greater</text>
  <text style="stroke:none;fill:black;font-family:-apple-system,&quot;SF Pro Display&quot;,&quot;SF Pro Text&quot;,Helvetica,sans-serif;text-anchor:end;" transform="matrix(1 0 0 1 3036 1969)">Generated from wave.3.left.circle.fill</text>
  <text style="stroke:none;fill:black;font-family:-apple-system,&quot;SF Pro Display&quot;,&quot;SF Pro Text&quot;,Helvetica,sans-serif;text-anchor:end;" transform="matrix(1 0 0 1 3036 1987)">Typeset at 100 points</text>
  <text style="stroke:none;fill:black;font-family:-apple-system,&quot;SF Pro Display&quot;,&quot;SF Pro Text&quot;,Helvetica,sans-serif;" transform="matrix(1 0 0 1 263 726)">Small</text>
  <text style="stroke:none;fill:black;font-family:-apple-system,&quot;SF Pro Display&quot;,&quot;SF Pro Text&quot;,Helvetica,sans-serif;" transform="matrix(1 0 0 1 263 1156)">Medium</text>
  <text style="stroke:none;fill:black;font-family:-apple-system,&quot;SF Pro Display&quot;,&quot;SF Pro Text&quot;,Helvetica,sans-serif;" transform="matrix(1 0 0 1 263 1586)">Large</text>
 </g>
 <g id="Guides">
  <g id="H-reference" style="fill:#27AAE1;stroke:none;" transform="matrix(1 0 0 1 339 696)">
   <path d="M0.976562 0L3.66211 0L12.9883-24.4629L45.752-24.4629L55.127 0L57.7637 0L30.6152-70.459L28.125-70.459ZM29.3457-67.1387L29.4434-67.1387L44.873-26.709L13.8672-26.709Z"/>
  </g>
  <line id="Baseline-S" style="fill:none;stroke:#27AAE1;opacity:1;stroke-width:0.5;" x1="263" x2="3036" y1="696" y2="696"/>
  <line id="Capline-S" style="fill:none;stroke:#27AAE1;opacity:1;stroke-width:0.5;" x1="263" x2="3036" y1="625.541" y2="625.541"/>
  <g id="H-reference" style="fill:#27AAE1;stroke:none;" transform="matrix(1 0 0 1 339 1126)">
   <path d="M0.976562 0L3.66211 0L12.9883-24.4629L45.752-24.4629L55.127 0L57.7637 0L30.6152-70.459L28.125-70.459ZM29.3457-67.1387L29.4434-67.1387L44.873-26.709L13.8672-26.709Z"/>
  </g>
  <line id="Baseline-M" style="fill:none;stroke:#27AAE1;opacity:1;stroke-width:0.5;" x1="263" x2="3036" y1="1126" y2="1126"/>
  <line id="Capline-M" style="fill:none;stroke:#27AAE1;opacity:1;stroke-width:0.5;" x1="263" x2="3036" y1="1055.54" y2="1055.54"/>
  <g id="H-reference" style="fill:#27AAE1;stroke:none;" transform="matrix(1 0 0 1 339 1556)">
   <path d="M0.976562 0L3.66211 0L12.9883-24.4629L45.752-24.4629L55.127 0L57.7637 0L30.6152-70.459L28.125-70.459ZM29.3457-67.1387L29.4434-67.1387L44.873-26.709L13.8672-26.709Z"/>
  </g>
  <line id="Baseline-L" style="fill:none;stroke:#27AAE1;opacity:1;stroke-width:0.5;" x1="263" x2="3036" y1="1556" y2="1556"/>
  <line id="Capline-L" style="fill:none;stroke:#27AAE1;opacity:1;stroke-width:0.5;" x1="263" x2="3036" y1="1485.54" y2="1485.54"/>
  <line id="left-margin" style="fill:none;stroke:#00AEEF;stroke-width:0.5;opacity:1.0;" x1="1391.3" x2="1391.3" y1="1030.79" y2="1150.12"/>
  <line id="right-margin" style="fill:none;stroke:#00AEEF;stroke-width:0.5;opacity:1.0;" x1="1508.39" x2="1508.39" y1="1030.79" y2="1150.12"/>
 </g>
 <g id="Symbols">
  <g id="Black-L" transform="matrix(1 0 0 1 2854.05 1556)">
   <path d="M79.3457 32.9102C116.748 32.9102 147.412 2.29492 147.412-35.1074C147.412-72.5586 116.748-103.174 79.2969-103.174C41.8945-103.174 11.2793-72.5586 11.2793-35.1074C11.2793 2.29492 41.9434 32.9102 79.3457 32.9102ZM50.5371-35.0098C50.5371-48.1934 54.1504-61.084 60.9375-72.1191C63.0371-75.5859 67.3828-76.6113 70.8008-74.5117C74.4141-72.4609 75.293-67.9688 72.998-63.9648C67.627-55.3223 64.8926-45.4102 64.8926-35.0098C64.8926-24.6582 67.6758-14.6973 72.998-6.05469C75.293-2.05078 74.4141 2.39258 70.8008 4.49219C67.3828 6.5918 63.0371 5.51758 60.9375 2.05078C54.1504-8.88672 50.5371-21.8262 50.5371-35.0098ZM70.5078-35.0098C70.5078-44.8242 73.2422-54.3457 78.4668-62.207C80.5176-65.5273 84.6191-66.5039 88.0859-64.502C91.7969-62.3535 92.627-57.8613 90.1367-53.6621C86.7676-48.291 84.9609-41.7969 84.9609-35.0098C84.9609-28.2227 86.7676-21.7773 90.1367-16.3574C92.627-12.1582 91.7969-7.66602 88.0859-5.51758C84.6191-3.51562 80.5176-4.49219 78.4668-7.8125C73.2422-15.7715 70.5078-25.293 70.5078-35.0098ZM90.625-35.0098C90.625-41.3086 92.5781-47.6562 96.0449-52.5391C98.0957-55.5176 102.197-56.2988 105.518-54.3457C109.229-52.0996 109.912-47.6562 107.275-43.3594C105.811-40.918 105.029-38.0859 105.029-35.0098C105.029-31.9824 105.811-29.1504 107.275-26.6602C109.863-22.3633 109.18-17.9688 105.518-15.7227C102.197-13.7695 98.0469-14.502 96.0449-17.4805C92.5781-22.2656 90.625-28.6621 90.625-35.0098Z"/>
  </g>
  <g id="Heavy-L" transform="matrix(1 0 0 1 2558.39 1556)">
   <path d="M78.2715 31.8848C115.088 31.8848 145.312 1.66016 145.312-35.1562C145.312-71.9238 115.039-102.148 78.2715-102.148C41.4551-102.148 11.2793-71.9238 11.2793-35.1562C11.2793 1.66016 41.5039 31.8848 78.2715 31.8848ZM49.9512-35.0586C49.9512-48.6328 53.8086-61.8652 60.8398-73.0469C62.793-76.1719 66.6504-77.0508 69.7266-75.1465C72.8516-73.2422 73.584-69.2871 71.5332-65.8203C65.7715-56.8848 62.7441-46.2402 62.7441-35.0586C62.7441-23.9746 65.7715-13.2812 71.5332-4.29688C73.584-0.830078 72.8516 3.125 69.7266 5.0293C66.6504 6.88477 62.793 6.00586 60.8398 2.92969C53.8086-8.20312 49.9512-21.4844 49.9512-35.0586ZM70.0684-35.0586C70.0684-45.166 72.9004-54.9316 78.2715-62.793C80.1758-65.7715 83.8379-66.6016 86.9141-64.7949C90.0879-62.8906 90.8691-58.8867 88.6719-55.2246C84.9121-49.5117 82.8613-42.4805 82.8613-35.0586C82.8613-27.6855 84.9121-20.6055 88.6719-14.9414C90.8691-11.2793 90.0879-7.27539 86.9141-5.32227C83.8379-3.51562 80.1758-4.39453 78.2715-7.32422C72.9004-15.332 70.0684-25.0488 70.0684-35.0586ZM90.2344-35.0586C90.2344-41.4551 92.1875-47.9004 95.7031-52.7344C97.5586-55.4199 101.27-56.1035 104.199-54.3457C107.471-52.3438 108.057-48.3887 105.713-44.5801C104.004-41.9434 103.027-38.623 103.027-35.0586C103.027-31.5918 104.004-28.2715 105.713-25.5371C108.057-21.7773 107.422-17.8711 104.199-15.8203C101.27-14.0137 97.5098-14.6973 95.7031-17.4316C92.1875-22.168 90.2344-28.6133 90.2344-35.0586Z"/>
  </g>
  <g id="Bold-L" transform="matrix(1 0 0 1 2262.88 1556)">
   <path d="M77.0996 30.6641C113.232 30.6641 142.92 0.927734 142.92-35.1562C142.92-71.2891 113.184-100.977 77.0508-100.977C40.9668-100.977 11.2793-71.2891 11.2793-35.1562C11.2793 0.927734 41.0156 30.6641 77.0996 30.6641ZM49.3652-35.1562C49.3652-49.1211 53.3691-62.7441 60.791-74.1211C62.5-76.8066 65.8203-77.5879 68.457-75.8789C71.1426-74.1699 71.7285-70.8008 69.9219-67.8711C63.6719-58.5938 60.3027-47.168 60.3027-35.1562C60.3027-23.1934 63.6719-11.6699 69.9219-2.39258C71.7285 0.537109 71.1426 3.90625 68.457 5.61523C65.8691 7.27539 62.5488 6.49414 60.791 3.85742C53.3691-7.42188 49.3652-21.0938 49.3652-35.1562ZM69.5312-35.1562C69.5312-45.6055 72.5098-55.5664 78.0762-63.4766C79.7852-66.0156 82.959-66.748 85.5469-65.1367C88.2324-63.4766 88.916-60.0098 86.9629-56.9336C82.8613-50.9277 80.5664-43.2129 80.5664-35.1562C80.5664-27.0508 82.8613-19.3359 86.9629-13.3301C88.916-10.2539 88.2324-6.78711 85.5469-5.12695C82.959-3.51562 79.7852-4.24805 78.0762-6.78711C72.5098-14.7949 69.5312-24.7559 69.5312-35.1562ZM89.7949-35.1562C89.7949-41.6016 91.7969-48.0957 95.2637-52.9785C96.9727-55.3223 100.195-55.9082 102.686-54.3945C105.518-52.5879 106.006-49.1211 104.004-45.9473C101.953-43.0664 100.83-39.209 100.83-35.1562C100.83-31.1523 101.953-27.2461 104.004-24.3164C106.006-21.1426 105.469-17.7734 102.686-15.918C100.195-14.3555 96.9238-14.9414 95.2637-17.334C91.7969-22.0215 89.7949-28.5645 89.7949-35.1562Z"/>
  </g>
  <g id="Semibold-L" transform="matrix(1 0 0 1 1966.97 1556)">
   <path d="M76.2695 29.834C111.914 29.834 141.309 0.439453 141.309-35.1562C141.309-70.8008 111.865-100.195 76.2695-100.195C40.625-100.195 11.2793-70.8008 11.2793-35.1562C11.2793 0.439453 40.6738 29.834 76.2695 29.834ZM48.9258-35.1562C48.9258-49.5117 53.0762-63.3789 60.7422-74.8535C62.3047-77.2949 65.2832-77.9297 67.5781-76.3672C69.9707-74.8047 70.4102-71.8262 68.7988-69.2871C62.207-59.7656 58.6426-47.8027 58.6426-35.1562C58.6426-22.6562 62.2559-10.5957 68.7988-1.07422C70.4102 1.46484 69.9707 4.44336 67.5781 6.00586C65.2832 7.51953 62.3535 6.88477 60.7422 4.49219C53.0762-6.88477 48.9258-20.8008 48.9258-35.1562ZM69.1895-35.1562C69.1895-45.8984 72.2656-56.0059 77.9297-63.916C79.4922-66.2109 82.3242-66.8457 84.6191-65.332C86.9629-63.8672 87.5488-60.791 85.8398-58.1543C81.4453-51.9043 79.0039-43.75 79.0039-35.1562C79.0039-26.6113 81.4453-18.457 85.8398-12.207C87.5488-9.57031 86.9629-6.49414 84.6191-5.0293C82.3242-3.51562 79.4922-4.15039 77.9297-6.44531C72.2656-14.4531 69.1895-24.6094 69.1895-35.1562ZM89.502-35.1562C89.502-41.6992 91.5039-48.291 95.0195-53.125C96.5332-55.2246 99.4141-55.8105 101.66-54.3945C104.199-52.7344 104.639-49.6582 102.783-46.9238C100.586-43.8965 99.3164-39.5996 99.3164-35.1562C99.3164-30.8105 100.586-26.5625 102.783-23.4375C104.59-20.7031 104.15-17.6758 101.66-16.0156C99.4141-14.5508 96.4844-15.1367 95.0195-17.2852C91.5039-21.9238 89.502-28.5156 89.502-35.1562Z"/>
  </g>
  <g id="Medium-L" transform="matrix(1 0 0 1 1670.87 1556)">
   <path d="M75.6836 29.1992C110.938 29.1992 140.088 0.0976562 140.088-35.1562C140.088-70.459 110.889-99.5605 75.6348-99.5605C40.3809-99.5605 11.2793-70.459 11.2793-35.1562C11.2793 0.0976562 40.3809 29.1992 75.6836 29.1992ZM48.584-35.2051C48.584-49.7559 52.832-63.8672 60.6934-75.3906C62.1582-77.6367 64.8438-78.1738 66.9434-76.7578C69.043-75.293 69.4336-72.6074 67.9688-70.3613C61.084-60.6445 57.373-48.291 57.373-35.2051C57.373-22.2168 61.1328-9.76562 67.9688-0.0488281C69.4336 2.19727 69.043 4.88281 66.9434 6.34766C64.8926 7.71484 62.207 7.17773 60.6934 4.98047C52.832-6.49414 48.584-20.6055 48.584-35.2051ZM68.8965-35.2051C68.8965-46.0938 72.0215-56.3477 77.832-64.2578C79.2969-66.3574 81.8359-66.8945 83.9355-65.5273C85.9863-64.1602 86.5234-61.377 84.9609-59.0332C80.3711-52.6367 77.7832-44.1406 77.7832-35.2051C77.7832-26.2695 80.3711-17.7734 84.9609-11.377C86.5234-9.0332 85.9863-6.25 83.9355-4.93164C81.8359-3.51562 79.2969-4.05273 77.832-6.15234C72.0215-14.1602 68.8965-24.4629 68.8965-35.2051ZM89.2578-35.2051C89.2578-41.7969 91.3086-48.3887 94.8242-53.2227C96.2402-55.1758 98.877-55.7129 100.879-54.3945C103.174-52.8809 103.564-50.0488 101.855-47.6562C99.5117-44.4824 98.1445-39.9414 98.1445-35.2051C98.1445-30.5664 99.5117-26.0254 101.855-22.8027C103.516-20.3613 103.125-17.627 100.879-16.0645C98.877-14.7461 96.1914-15.2344 94.8242-17.2363C91.3086-21.8262 89.2578-28.5156 89.2578-35.2051Z"/>
  </g>
  <g id="Regular-L" transform="matrix(1 0 0 1 1374.97 1556)">
   <path d="M74.8535 28.418C109.668 28.418 138.477-0.390625 138.477-35.2051C138.477-69.9707 109.619-98.7793 74.8047-98.7793C40.0391-98.7793 11.2793-69.9707 11.2793-35.2051C11.2793-0.390625 40.0879 28.418 74.8535 28.418ZM48.1934-35.2539C48.1934-50.0977 52.5391-64.4531 60.6445-76.123C61.9629-78.0762 64.3066-78.5156 66.0645-77.2461C67.8711-75.9277 68.1641-73.6328 66.8945-71.7773C59.668-61.8164 55.7617-48.9258 55.7617-35.2539C55.7617-21.6797 59.7168-8.69141 66.8945 1.26953C68.1641 3.125 67.8711 5.41992 66.0645 6.73828C64.3555 7.95898 62.0117 7.51953 60.6445 5.61523C52.5391-5.95703 48.1934-20.3613 48.1934-35.2539ZM68.5547-35.2539C68.5547-46.3867 71.7773-56.8359 77.6855-64.7461C79.0527-66.5527 81.25-66.9922 83.0078-65.7227C84.7168-64.5508 85.2051-62.1582 83.8379-60.2051C79.0039-53.6133 76.2207-44.6777 76.2207-35.2539C76.2207-25.8301 79.0039-16.8945 83.8379-10.3027C85.2051-8.34961 84.7168-5.95703 83.0078-4.78516C81.25-3.51562 79.0527-3.95508 77.6855-5.76172C71.7773-13.8184 68.5547-24.2676 68.5547-35.2539ZM88.9648-35.2539C88.9648-41.8945 91.0156-48.584 94.5312-53.418C95.8008-55.127 98.1445-55.5664 99.8535-54.3945C101.855-53.0273 102.148-50.5859 100.684-48.584C98.1445-45.2637 96.6309-40.332 96.6309-35.2539C96.6309-30.2734 98.1445-25.3418 100.684-21.9238C102.1-19.9219 101.807-17.5781 99.8535-16.1621C98.1445-14.9414 95.752-15.3809 94.5312-17.1387C91.0156-21.7285 88.9648-28.4668 88.9648-35.2539Z"/>
  </g>
  <g id="Light-L" transform="matrix(1 0 0 1 1079.18 1556)">
   <path d="M73.9258 27.4902C108.301 27.4902 136.621-0.830078 136.621-35.2051C136.621-69.5312 108.252-97.8516 73.9258-97.8516C39.5508-97.8516 11.2793-69.5312 11.2793-35.2051C11.2793-0.830078 39.5996 27.4902 73.9258 27.4902ZM47.7539-35.3027C47.7539-50.1953 52.1484-64.4531 60.4492-76.3672C61.4746-77.8809 63.2812-78.2227 64.6973-77.2461C66.1133-76.1719 66.3574-74.3652 65.332-72.9492C57.8125-62.8418 53.7109-49.6094 53.7109-35.3027C53.7109-21.0449 57.8613-7.71484 65.332 2.34375C66.3574 3.80859 66.1133 5.61523 64.6973 6.68945C63.2812 7.61719 61.5234 7.27539 60.4492 5.81055C52.1484-6.05469 47.7539-20.3613 47.7539-35.3027ZM68.3105-35.3027C68.3105-46.582 71.5332-56.8848 77.5391-64.8438C78.6133-66.2598 80.3223-66.6016 81.6895-65.625C83.0566-64.6973 83.4473-62.8418 82.4219-61.3281C77.1973-54.3945 74.3164-45.2637 74.3164-35.3027C74.3164-25.3418 77.1973-16.1621 82.4219-9.27734C83.4473-7.76367 83.0566-5.85938 81.6895-4.98047C80.3223-4.00391 78.6133-4.3457 77.5391-5.71289C71.5332-13.7695 68.3105-24.0723 68.3105-35.3027ZM88.8184-35.3027C88.8184-41.9434 90.918-48.584 94.4824-53.418C95.5078-54.7363 97.3633-55.0781 98.6816-54.1504C100.244-53.0273 100.439-51.1719 99.2676-49.5605C96.4844-45.8984 94.8242-40.6738 94.8242-35.3027C94.8242-29.9805 96.4844-24.7559 99.2676-21.0449C100.391-19.4336 100.244-17.5781 98.6816-16.4551C97.3633-15.4785 95.5078-15.8203 94.4824-17.1875C90.918-21.875 88.8184-28.5645 88.8184-35.3027Z"/>
  </g>
  <g id="Thin-L" transform="matrix(1 0 0 1 783.693 1556)">
   <path d="M72.7051 26.2695C106.494 26.2695 134.18-1.41602 134.18-35.2051C134.18-68.9453 106.494-96.6309 72.7051-96.6309C38.9648-96.6309 11.2793-68.9453 11.2793-35.2051C11.2793-1.41602 38.9648 26.2695 72.7051 26.2695ZM47.2656-35.3516C47.2656-50.293 51.6602-64.4531 60.2051-76.6602C60.8398-77.6367 61.9141-77.832 62.8418-77.2461C63.8184-76.5137 63.9648-75.3906 63.3301-74.5117C55.3711-64.209 51.0254-50.5371 51.0254-35.3516C51.0254-20.166 55.3711-6.49414 63.3301 3.80859C63.9648 4.6875 63.8184 5.85938 62.8418 6.5918C61.9141 7.17773 60.8887 6.93359 60.2051 6.00586C51.6602-6.20117 47.2656-20.3613 47.2656-35.3516ZM68.0176-35.3516C68.0176-46.875 71.2402-57.0312 77.3926-64.9902C78.0273-65.8691 79.1016-66.0645 79.9805-65.4785C80.8105-64.8926 81.1523-63.7207 80.5176-62.793C74.8047-55.4688 71.8262-45.9961 71.8262-35.3516C71.8262-24.6582 74.8047-15.1855 80.5176-7.91016C81.1523-6.93359 80.8105-5.76172 79.9805-5.22461C79.1016-4.63867 78.0273-4.83398 77.3926-5.66406C71.2402-13.6719 68.0176-23.8281 68.0176-35.3516ZM88.6719-35.3516C88.6719-41.9922 90.7227-48.6328 94.3848-53.418C95.1172-54.2969 96.3379-54.4922 97.1191-53.8574C98.1445-53.0273 98.1445-51.9043 97.3633-50.8301C94.2383-46.7285 92.4316-41.1133 92.4316-35.3516C92.4316-29.5898 94.2383-23.9746 97.3633-19.8242C98.1445-18.7988 98.1445-17.627 97.1191-16.8457C96.3379-16.1621 95.1172-16.4062 94.3848-17.2363C90.7227-22.0215 88.6719-28.6621 88.6719-35.3516Z"/>
  </g>
  <g id="Ultralight-L" transform="matrix(1 0 0 1 487.616 1556)">
   <path d="M72.1191 25.6348C105.566 25.6348 132.91-1.70898 132.91-35.2051C132.91-68.6523 105.566-95.9961 72.1191-95.9961C38.623-95.9961 11.2793-68.6523 11.2793-35.2051C11.2793-1.70898 38.623 25.6348 72.1191 25.6348ZM46.9727-35.3516C46.9727-50.3418 51.416-64.4531 60.0586-76.8555C60.5469-77.4902 61.2305-77.6367 61.9141-77.2461C62.5977-76.709 62.7441-75.8789 62.3047-75.293C54.1504-64.8926 49.6582-51.0254 49.6582-35.3516C49.6582-19.6777 54.1504-5.85938 62.3047 4.58984C62.7441 5.17578 62.5977 5.95703 61.9141 6.54297C61.2305 6.93359 60.5469 6.78711 60.0586 6.10352C51.416-6.25 46.9727-20.4102 46.9727-35.3516ZM67.8711-35.3516C67.8711-47.0215 71.0449-57.0801 77.2949-65.0391C77.7832-65.6738 78.4668-65.7715 79.1016-65.3809C79.6875-64.9902 79.9805-64.209 79.541-63.5254C73.6328-56.0547 70.5078-46.3867 70.5078-35.3516C70.5078-24.3164 73.6328-14.6973 79.541-7.17773C79.9805-6.54297 79.6875-5.71289 79.1016-5.32227C78.4668-4.93164 77.7832-5.07812 77.2949-5.66406C71.0449-13.623 67.8711-23.7305 67.8711-35.3516ZM88.5254-35.3516C88.5254-42.041 90.625-48.6328 94.3848-53.4668C94.9219-54.0527 95.8008-54.1992 96.3379-53.7109C97.0703-53.0273 96.9727-52.2461 96.4355-51.5137C93.1152-47.1191 91.2109-41.3086 91.2109-35.3516C91.2109-29.3945 93.1152-23.584 96.4355-19.1895C96.9727-18.457 97.0703-17.6758 96.3379-17.041C95.8008-16.5527 94.9219-16.6504 94.3848-17.2852C90.625-22.1191 88.5254-28.7109 88.5254-35.3516Z"/>
  </g>
  <g id="Black-M" transform="matrix(1 0 0 1 2870.97 1126)">
   <path d="M62.4023 18.5547C91.9922 18.5547 116.113-5.56641 116.113-35.1562C116.113-64.7461 91.9922-88.8184 62.4023-88.8184C32.8125-88.8184 8.74023-64.7461 8.74023-35.1562C8.74023-5.56641 32.8125 18.5547 62.4023 18.5547ZM39.6973-35.0098C39.6973-44.6777 42.2852-54.1992 47.2168-62.6465C48.9258-65.625 52.6367-66.5527 55.6641-64.7949C58.8379-63.0859 59.668-59.1797 57.7148-55.6641C54.0039-49.2676 52.1484-42.3828 52.1484-35.0098C52.1484-27.6367 54.0039-20.752 57.7148-14.3555C59.668-10.791 58.8379-6.93359 55.6641-5.22461C52.6367-3.4668 48.9258-4.39453 47.2168-7.37305C42.2852-15.8203 39.6973-25.3418 39.6973-35.0098ZM55.1758-35.0098C55.1758-42.2852 57.1289-49.2676 60.9863-55.3711C62.6953-58.2031 66.2109-59.082 69.1895-57.4707C72.5098-55.6641 73.2422-51.7578 71.0938-48.0469C68.75-44.0918 67.5781-39.6973 67.5781-35.0098C67.5781-30.3223 68.75-25.9277 71.0938-21.9727C73.2422-18.2617 72.5098-14.3555 69.1895-12.5488C66.2109-10.9375 62.6953-11.8164 60.9863-14.5996C57.1289-20.7031 55.1758-27.7344 55.1758-35.0098ZM70.6543-35.0098C70.6543-39.7949 72.168-44.5801 74.9023-48.3887C76.6113-50.8789 80.127-51.5137 82.959-49.9023C86.1328-47.998 86.7188-44.2383 84.5215-40.3809C83.5449-38.623 83.1055-36.9141 83.1055-35.0098C83.1055-33.1055 83.5449-31.3965 84.5215-29.5898C86.7188-25.7812 86.1328-22.0215 82.959-20.1172C80.127-18.5059 76.6113-19.0918 74.9023-21.6309C72.168-25.4395 70.6543-30.2246 70.6543-35.0098Z"/>
  </g>
  <g id="Heavy-M" transform="matrix(1 0 0 1 2575.19 1126)">
   <path d="M61.5234 17.627C90.5273 17.627 114.258-6.10352 114.258-35.1562C114.258-64.1602 90.5273-87.8906 61.4746-87.8906C32.4707-87.8906 8.74023-64.1602 8.74023-35.1562C8.74023-6.10352 32.4707 17.627 61.5234 17.627ZM39.209-35.0586C39.209-45.166 41.9922-55.0781 47.168-63.623C48.7793-66.3086 52.0996-67.0898 54.7852-65.4785C57.5684-63.916 58.3008-60.4492 56.4941-57.373C52.3926-50.6836 50.293-43.1152 50.293-35.0586C50.293-27.0508 52.4414-19.4336 56.4941-12.7441C58.3008-9.66797 57.5684-6.20117 54.7852-4.63867C52.1484-3.02734 48.8281-3.85742 47.168-6.49414C41.9922-15.0391 39.209-24.9512 39.209-35.0586ZM54.6875-35.0586C54.6875-42.627 56.7871-49.9023 60.8398-56.0059C62.4023-58.5449 65.5762-59.3262 68.2129-57.8125C71.0938-56.1523 71.7773-52.6855 69.873-49.4141C67.2363-45.2148 65.8203-40.2832 65.8203-35.0586C65.8203-29.834 67.2363-24.9023 69.873-20.7031C71.7773-17.4316 71.0938-13.9648 68.2129-12.3047C65.5762-10.791 62.4023-11.5723 60.8398-14.1113C56.7871-20.2637 54.6875-27.5391 54.6875-35.0586ZM70.2637-35.0586C70.2637-39.9414 71.7773-44.8242 74.5117-48.584C76.0742-50.8789 79.248-51.4648 81.7871-49.9512C84.668-48.2422 85.1562-44.873 83.1543-41.5039C81.9824-39.5508 81.3965-37.4023 81.3965-35.0586C81.3965-32.7637 81.9824-30.5664 83.1543-28.6133C85.1562-25.2441 84.668-21.875 81.7871-20.166C79.248-18.6523 76.0742-19.2383 74.5117-21.5332C71.7773-25.2441 70.2637-30.1758 70.2637-35.0586Z"/>
  </g>
  <g id="Bold-M" transform="matrix(1 0 0 1 2279.5 1126)">
   <path d="M60.498 16.5527C88.8672 16.5527 112.207-6.73828 112.207-35.1562C112.207-63.5742 88.8672-86.9141 60.4492-86.9141C32.0312-86.9141 8.74023-63.5742 8.74023-35.1562C8.74023-6.73828 32.0801 16.5527 60.498 16.5527ZM38.623-35.1074C38.623-45.7031 41.6016-56.0547 47.168-64.6973C48.6328-67.0898 51.5137-67.7246 53.8574-66.3086C56.2012-64.8438 56.7383-61.8652 55.1758-59.2773C50.6348-52.2949 48.2422-43.8965 48.2422-35.1074C48.2422-26.3672 50.6836-17.9688 55.1758-10.9863C56.7383-8.34961 56.2012-5.37109 53.8574-3.95508C51.5625-2.49023 48.6328-3.17383 47.168-5.51758C41.6016-14.1602 38.623-24.5117 38.623-35.1074ZM54.1992-35.1074C54.1992-43.0176 56.4453-50.5859 60.6445-56.6895C62.0605-58.9355 64.8438-59.5703 67.1387-58.2031C69.5312-56.7383 70.1172-53.7109 68.457-50.9766C65.4785-46.5332 63.8672-40.9668 63.8672-35.1074C63.8672-29.248 65.4785-23.6816 68.457-19.2383C70.1172-16.5039 69.5312-13.4766 67.1387-12.0117C64.8438-10.6445 62.0605-11.2793 60.6445-13.5254C56.4453-19.7266 54.1992-27.2949 54.1992-35.1074ZM69.873-35.1074C69.873-40.0879 71.3867-45.0684 74.0723-48.8281C75.4883-50.8789 78.3203-51.3672 80.5176-50.0488C83.0078-48.5352 83.4473-45.5566 81.6895-42.7246C80.2734-40.625 79.541-37.9395 79.541-35.1074C79.541-32.3242 80.2734-29.6387 81.6895-27.5391C83.3984-24.707 82.959-21.7773 80.5176-20.2148C78.3203-18.8477 75.4883-19.3848 74.0723-21.4355C71.3867-25.0488 69.873-30.0781 69.873-35.1074Z"/>
  </g>
  <g id="Semibold-M" transform="matrix(1 0 0 1 1983.5 1126)">
   <path d="M59.7656 15.8691C87.7441 15.8691 110.791-7.22656 110.791-35.1562C110.791-63.1348 87.6953-86.2305 59.7656-86.2305C31.7871-86.2305 8.74023-63.1348 8.74023-35.1562C8.74023-7.22656 31.7871 15.8691 59.7656 15.8691ZM38.2324-35.1562C38.2324-46.0938 41.3574-56.6895 47.168-65.4785C48.4863-67.5781 51.123-68.1641 53.1738-66.8457C55.2734-65.4785 55.7129-62.8418 54.2969-60.5957C49.4141-53.3691 46.8262-44.4824 46.8262-35.1562C46.8262-25.9277 49.4629-16.9434 54.2969-9.7168C55.7129-7.4707 55.2734-4.83398 53.1738-3.4668C51.123-2.14844 48.5352-2.73438 47.168-4.83398C41.3574-13.5254 38.2324-24.2188 38.2324-35.1562ZM53.8574-35.1562C53.8574-43.3105 56.2012-51.0742 60.498-57.1777C61.8652-59.1797 64.3555-59.7656 66.4062-58.4473C68.457-57.1777 68.9941-54.4434 67.4805-52.0996C64.3066-47.4121 62.5-41.4062 62.5-35.1562C62.5-28.9062 64.3066-22.8516 67.4805-18.2129C68.9941-15.8691 68.457-13.1348 66.4062-11.8652C64.3555-10.5469 61.8652-11.1328 60.498-13.1348C56.2012-19.3359 53.8574-27.0996 53.8574-35.1562ZM69.5801-35.1562C69.5801-40.1855 71.0938-45.2637 73.7793-49.0234C75.0977-50.8789 77.6367-51.3184 79.6387-50.1465C81.8359-48.7305 82.2266-45.9961 80.6152-43.5547C79.1016-41.3574 78.2227-38.3301 78.2227-35.1562C78.2227-32.0312 79.1016-29.0039 80.6152-26.7578C82.2266-24.3164 81.7871-21.6797 79.6387-20.2148C77.6367-18.9941 75.0977-19.4336 73.7793-21.3379C71.0938-24.9512 69.5801-30.0293 69.5801-35.1562Z"/>
  </g>
  <g id="Medium-M" transform="matrix(1 0 0 1 1687.3 1126)">
   <path d="M59.2285 15.332C86.9141 15.332 109.766-7.51953 109.766-35.2051C109.766-62.8418 86.8652-85.6934 59.1797-85.6934C31.543-85.6934 8.74023-62.8418 8.74023-35.2051C8.74023-7.51953 31.5918 15.332 59.2285 15.332ZM37.9395-35.2051C37.9395-46.3379 41.2109-57.2266 47.1191-66.0645C48.3887-68.0176 50.7812-68.5059 52.6367-67.2363C54.541-65.9668 54.8828-63.5742 53.6133-61.5723C48.4863-54.1992 45.752-44.873 45.752-35.2051C45.752-25.5859 48.5352-16.1621 53.6133-8.78906C54.8828-6.78711 54.541-4.39453 52.6367-3.125C50.8301-1.9043 48.4375-2.39258 47.1191-4.3457C41.2109-13.0859 37.9395-23.9746 37.9395-35.2051ZM53.6133-35.2051C53.6133-43.5059 56.0059-51.416 60.4004-57.5684C61.7188-59.4238 63.9648-59.9121 65.8203-58.6426C67.6758-57.4707 68.1152-54.9805 66.748-52.8809C63.4277-48.0957 61.4746-41.748 61.4746-35.2051C61.4746-28.6133 63.4277-22.2656 66.748-17.4805C68.1152-15.3809 67.6758-12.8906 65.8203-11.7188C63.9648-10.4492 61.7188-10.9863 60.4004-12.8418C56.0059-19.043 53.6133-27.002 53.6133-35.2051ZM69.3359-35.2051C69.3359-40.2344 70.8984-45.3613 73.584-49.1211C74.8047-50.8301 77.1484-51.3184 78.9551-50.1465C80.957-48.8281 81.3477-46.3379 79.834-44.1895C78.1738-41.8945 77.1973-38.623 77.1973-35.2051C77.1973-31.8359 78.1738-28.5156 79.834-26.1719C81.2988-24.0234 80.9082-21.582 78.9551-20.2637C77.1484-19.0918 74.7559-19.5312 73.584-21.2891C70.8984-24.8535 69.3359-29.9805 69.3359-35.2051Z"/>
  </g>
  <g id="Regular-M" transform="matrix(1 0 0 1 1391.3 1126)">
   <path d="M58.5449 14.5996C85.791 14.5996 108.35-7.95898 108.35-35.2051C108.35-62.4023 85.7422-85.0098 58.4961-85.0098C31.2988-85.0098 8.74023-62.4023 8.74023-35.2051C8.74023-7.95898 31.3477 14.5996 58.5449 14.5996ZM37.5488-35.2051C37.5488-46.7285 40.9668-57.8613 47.1191-66.7969C48.291-68.5547 50.3906-68.9453 52.002-67.7734C53.6133-66.6016 53.8574-64.5508 52.6855-62.8418C47.3145-55.2734 44.3359-45.459 44.3359-35.2051C44.3359-25.0977 47.3633-15.1855 52.6855-7.56836C53.8574-5.9082 53.6133-3.85742 52.002-2.63672C50.4395-1.5625 48.3398-1.95312 47.1191-3.66211C40.9668-12.4512 37.5488-23.6816 37.5488-35.2051ZM53.2715-35.2051C53.2715-43.75 55.7617-51.9043 60.2539-58.0078C61.4746-59.668 63.4766-60.0586 65.0879-58.9355C66.6016-57.8613 66.9922-55.7129 65.7715-53.9551C62.207-49.0234 60.1562-42.2363 60.1562-35.2051C60.1562-28.2227 62.207-21.4355 65.7715-16.5039C66.9922-14.7461 66.6016-12.5977 65.0879-11.5234C63.4766-10.3516 61.4746-10.791 60.2539-12.4023C55.7617-18.7012 53.2715-26.8555 53.2715-35.2051ZM69.043-35.2051C69.043-40.332 70.6055-45.5566 73.291-49.3164C74.4141-50.8301 76.5137-51.2695 78.0762-50.2441C79.834-49.0234 80.1758-46.8262 78.8086-45.0195C77.002-42.627 75.9277-39.0137 75.9277-35.2051C75.9277-31.543 77.002-27.9297 78.8086-25.4395C80.127-23.6328 79.7852-21.5332 78.0762-20.2637C76.5137-19.1895 74.3652-19.6289 73.291-21.1914C70.6055-24.707 69.043-29.9316 69.043-35.2051Z"/>
  </g>
  <g id="Light-M" transform="matrix(1 0 0 1 1095.42 1126)">
   <path d="M57.7148 13.7695C84.5215 13.7695 106.689-8.34961 106.689-35.2051C106.689-62.0117 84.5215-84.1797 57.666-84.1797C30.8594-84.1797 8.74023-62.0117 8.74023-35.2051C8.74023-8.34961 30.9082 13.7695 57.7148 13.7695ZM37.207-35.2539C37.207-46.7773 40.5762-57.8613 46.9238-66.9922C47.8516-68.3594 49.4629-68.7012 50.7324-67.7734C52.002-66.8457 52.2461-65.2344 51.3184-63.916C45.6543-56.1523 42.5293-46.0449 42.5293-35.2539C42.5293-24.5117 45.6543-14.3555 51.3184-6.5918C52.2461-5.27344 52.002-3.66211 50.7324-2.73438C49.5117-1.85547 47.9004-2.19727 46.9238-3.51562C40.5762-12.5488 37.207-23.6816 37.207-35.2539ZM53.0762-35.2539C53.0762-43.9453 55.5664-52.002 60.1562-58.1055C61.084-59.375 62.6465-59.7168 63.916-58.8379C65.0879-58.0078 65.4297-56.2988 64.502-54.9316C60.6445-49.7559 58.4473-42.7246 58.4473-35.2539C58.4473-27.7832 60.6445-20.8008 64.502-15.5762C65.4297-14.209 65.0879-12.5 63.916-11.6699C62.6465-10.791 61.084-11.1328 60.1562-12.4023C55.5664-18.6035 53.0762-26.6602 53.0762-35.2539ZM68.8965-35.2539C68.8965-40.3809 70.5078-45.5566 73.2422-49.3164C74.1699-50.5371 75.7812-50.8301 77.002-50C78.418-49.0234 78.6133-47.3145 77.5391-45.8984C75.4883-43.2129 74.3164-39.3066 74.3164-35.2539C74.3164-31.2988 75.4883-27.3926 77.5391-24.6094C78.5645-23.1934 78.3691-21.5332 77.002-20.5566C75.7812-19.6777 74.1211-20.0195 73.2422-21.2402C70.5078-24.8047 68.8965-30.0293 68.8965-35.2539Z"/>
  </g>
  <g id="Thin-M" transform="matrix(1 0 0 1 799.806 1126)">
   <path d="M56.6406 12.6953C82.9102 12.6953 104.492-8.88672 104.492-35.2051C104.492-61.4746 82.9102-83.0566 56.5918-83.0566C30.3223-83.0566 8.74023-61.4746 8.74023-35.2051C8.74023-8.88672 30.3223 12.6953 56.6406 12.6953ZM36.7188-35.3027C36.7188-46.875 40.1367-57.8613 46.6797-67.2852C47.3145-68.1641 48.291-68.3105 49.1211-67.7734C49.9512-67.1387 50.0977-66.1133 49.5117-65.332C43.457-57.373 40.1367-46.875 40.1367-35.3027C40.1367-23.7305 43.457-13.2324 49.5117-5.27344C50.0977-4.49219 49.9512-3.4668 49.1211-2.83203C48.291-2.29492 47.3145-2.49023 46.6797-3.32031C40.1367-12.6953 36.7188-23.7305 36.7188-35.3027ZM52.7832-35.3027C52.7832-44.1895 55.2734-52.0996 60.0098-58.252C60.5957-59.0332 61.5723-59.2285 62.3535-58.6914C63.0859-58.1543 63.3789-57.1289 62.793-56.25C58.4961-50.6836 56.2012-43.4082 56.2012-35.3027C56.2012-27.1973 58.4961-19.9219 62.793-14.3555C63.3789-13.4766 63.0859-12.4512 62.3535-11.9141C61.5723-11.377 60.5957-11.5723 60.0098-12.3535C55.2734-18.5547 52.7832-26.4648 52.7832-35.3027ZM68.75-35.3027C68.75-40.4785 70.3613-45.6055 73.1934-49.3164C73.8281-50.0977 74.9023-50.293 75.5859-49.707C76.5137-49.0234 76.5625-47.998 75.8789-47.0703C73.5352-43.9453 72.168-39.6973 72.168-35.3027C72.168-30.957 73.5352-26.6602 75.8789-23.5352C76.5137-22.6074 76.5137-21.582 75.5859-20.8984C74.9023-20.3125 73.7793-20.5078 73.1934-21.2891C70.3613-24.9512 68.75-30.127 68.75-35.3027Z"/>
  </g>
  <g id="Ultralight-M" transform="matrix(1 0 0 1 503.656 1126)">
   <path d="M56.0547 12.1094C82.0801 12.1094 103.369-9.17969 103.369-35.2051C103.369-61.2305 82.0801-82.5195 56.0547-82.5195C30.0293-82.5195 8.74023-61.2305 8.74023-35.2051C8.74023-9.17969 30.0293 12.1094 56.0547 12.1094ZM36.4746-35.3027C36.4746-46.9238 39.8926-57.8613 46.582-67.4316C47.0215-68.0176 47.6562-68.1641 48.291-67.7734C48.877-67.2852 48.9746-66.6016 48.584-66.0645C42.334-58.0078 38.8672-47.3145 38.8672-35.3027C38.8672-23.3398 42.334-12.6465 48.584-4.58984C48.9746-4.05273 48.877-3.32031 48.291-2.83203C47.6562-2.49023 47.0215-2.63672 46.582-3.22266C39.8926-12.7441 36.4746-23.7305 36.4746-35.3027ZM52.6367-35.3027C52.6367-44.2871 55.127-52.1484 59.9121-58.3496C60.3516-58.8867 60.9863-58.9844 61.5234-58.6426C62.1094-58.252 62.3535-57.5684 61.9141-56.9336C57.4219-51.1719 55.0293-43.75 55.0293-35.3027C55.0293-26.9043 57.4219-19.4336 61.9141-13.7207C62.3535-13.0859 62.1094-12.4023 61.5234-12.0117C60.9863-11.6699 60.3516-11.7676 59.9121-12.3047C55.127-18.5059 52.6367-26.3184 52.6367-35.3027ZM68.6523-35.3027C68.6523-40.4785 70.2637-45.6055 73.1445-49.3652C73.6328-49.9023 74.4141-50 74.9023-49.5605C75.5371-49.0234 75.4883-48.291 75-47.6562C72.5098-44.3359 71.0449-39.8926 71.0449-35.3027C71.0449-30.7617 72.5098-26.3184 75-22.998C75.4883-22.3145 75.5371-21.6309 74.9023-21.0449C74.4141-20.6543 73.6328-20.752 73.1445-21.2891C70.2637-25.0488 68.6523-30.1758 68.6523-35.3027Z"/>
  </g>
  <g id="Black-S" transform="matrix(1 0 0 1 2884.57 696)">
   <path d="M48.8281 6.83594C71.9727 6.83594 90.8203-12.0117 90.8203-35.1562C90.8203-58.3008 71.9727-77.1484 48.8281-77.1484C25.6836-77.1484 6.83594-58.3008 6.83594-35.1562C6.83594-12.0117 25.6836 6.83594 48.8281 6.83594ZM31.0547-35.0586C31.0547-42.6758 33.1055-50.1465 36.9629-56.7871C38.3301-59.082 41.2109-59.8145 43.5547-58.4473C45.9961-57.1289 46.6309-54.1016 45.1172-51.3672C42.1875-46.3379 40.7227-40.8691 40.7227-35.0586C40.7227-29.248 42.1875-23.7793 45.1172-18.75C46.6309-16.0156 45.9961-12.9883 43.5547-11.6699C41.2109-10.3027 38.3301-11.0352 36.9629-13.3301C33.1055-19.9707 31.0547-27.4414 31.0547-35.0586ZM43.1641-35.0586C43.1641-40.7715 44.7266-46.2891 47.7539-51.0742C49.0723-53.2715 51.8066-53.9551 54.1504-52.6855C56.6895-51.2695 57.2754-48.2422 55.6152-45.3613C53.7598-42.2363 52.832-38.7695 52.832-35.0586C52.832-31.3477 53.7598-27.8809 55.6152-24.7559C57.2754-21.875 56.6895-18.8477 54.1504-17.4316C51.8066-16.1621 49.0723-16.8457 47.7539-19.043C44.7266-23.8281 43.1641-29.3457 43.1641-35.0586ZM55.3223-35.0586C55.3223-38.8184 56.4941-42.5781 58.6426-45.5566C59.9609-47.5098 62.6953-47.998 64.8926-46.7285C67.3828-45.2637 67.8223-42.334 66.1133-39.3555C65.332-37.9395 64.9902-36.5723 64.9902-35.0586C64.9902-33.5449 65.332-32.1777 66.1133-30.7617C67.8223-27.7832 67.3828-24.8535 64.8926-23.3887C62.6953-22.1191 59.9609-22.6074 58.6426-24.5605C56.4941-27.5391 55.3223-31.2988 55.3223-35.0586Z"/>
  </g>
  <g id="Heavy-S" transform="matrix(1 0 0 1 2588.47 696)">
   <path d="M48.2422 6.20117C70.9961 6.20117 89.5996-12.4023 89.5996-35.1562C89.5996-57.9102 70.9961-76.5625 48.1934-76.5625C25.4395-76.5625 6.83594-57.9102 6.83594-35.1562C6.83594-12.4023 25.4395 6.20117 48.2422 6.20117ZM30.7129-35.1074C30.7129-43.0176 32.9102-50.8301 36.9629-57.5195C38.2812-59.6191 40.918-60.2539 43.0176-58.9844C45.2148-57.7148 45.752-54.9805 44.3848-52.5391C41.1621-47.3145 39.502-41.3574 39.502-35.1074C39.502-28.8574 41.1621-22.8516 44.3848-17.627C45.752-15.1855 45.2148-12.4512 43.0176-11.1816C40.918-9.91211 38.2812-10.5469 36.9629-12.6953C32.9102-19.3359 30.7129-27.1484 30.7129-35.1074ZM42.8223-35.1074C42.8223-41.0156 44.4824-46.7773 47.6562-51.5625C48.877-53.5645 51.416-54.1504 53.5156-52.9785C55.8105-51.6602 56.2988-48.877 54.7852-46.3379C52.7344-43.0664 51.6602-39.1602 51.6602-35.1074C51.6602-31.0059 52.7344-27.1484 54.7852-23.877C56.2988-21.2891 55.8105-18.5547 53.5156-17.2363C51.416-16.0156 48.877-16.6504 47.6562-18.6523C44.4824-23.4863 42.8223-29.1992 42.8223-35.1074ZM55.0293-35.1074C55.0293-38.916 56.2012-42.7734 58.3496-45.7031C59.5703-47.5098 62.1094-47.998 64.1113-46.8262C66.4062-45.459 66.7969-42.7246 65.2344-40.0879C64.3066-38.623 63.8672-36.9141 63.8672-35.1074C63.8672-33.3008 64.3066-31.5918 65.2344-30.0781C66.7969-27.4414 66.4062-24.7559 64.1113-23.3887C62.1094-22.2168 59.5703-22.6562 58.3496-24.4629C56.2012-27.3926 55.0293-31.25 55.0293-35.1074Z"/>
  </g>
  <g id="Bold-S" transform="matrix(1 0 0 1 2292.44 696)">
   <path d="M47.5586 5.51758C69.873 5.51758 88.2324-12.8418 88.2324-35.2051C88.2324-57.5195 69.873-75.8789 47.5098-75.8789C25.1953-75.8789 6.83594-57.5195 6.83594-35.2051C6.83594-12.8418 25.1953 5.51758 47.5586 5.51758ZM30.3223-35.1562C30.3223-43.457 32.666-51.5625 36.9629-58.3008C38.1836-60.2539 40.5762-60.791 42.4316-59.5703C44.3848-58.3984 44.7754-56.0059 43.5059-53.8574C39.9902-48.3887 38.1836-41.8945 38.1836-35.1562C38.1836-28.418 40.0391-21.875 43.5059-16.4062C44.7754-14.3066 44.3848-11.8652 42.4316-10.6934C40.5762-9.52148 38.1836-10.0586 36.9629-11.9629C32.666-18.6523 30.3223-26.8066 30.3223-35.1562ZM42.4805-35.1562C42.4805-41.3086 44.2383-47.2656 47.5098-52.0508C48.6816-53.9062 50.9766-54.3945 52.832-53.2715C54.7852-52.0996 55.2734-49.6094 53.8574-47.4121C51.6113-43.9453 50.3906-39.5996 50.3906-35.1562C50.3906-30.6641 51.6113-26.3184 53.8574-22.9004C55.2734-20.6543 54.7852-18.1641 52.832-16.9922C50.9766-15.8691 48.6816-16.4062 47.5098-18.2129C44.2383-23.0469 42.4805-29.0527 42.4805-35.1562ZM54.7363-35.1562C54.7363-39.0137 55.9082-42.9688 58.0078-45.8984C59.1797-47.5586 61.4746-47.998 63.2812-46.9238C65.2832-45.6543 65.6738-43.2129 64.2578-40.918C63.1836-39.3555 62.5977-37.3047 62.5977-35.1562C62.5977-33.0078 63.1836-30.957 64.2578-29.3457C65.6738-27.0508 65.2832-24.6582 63.2812-23.3887C61.4746-22.2656 59.1797-22.7051 58.0078-24.4141C55.9082-27.2461 54.7363-31.2012 54.7363-35.1562Z"/>
  </g>
  <g id="Semibold-S" transform="matrix(1 0 0 1 1996.2 696)">
   <path d="M47.0703 5.0293C69.0918 5.0293 87.3047-13.1348 87.3047-35.2051C87.3047-57.2266 69.0918-75.4395 47.0215-75.4395C25-75.4395 6.83594-57.2266 6.83594-35.2051C6.83594-13.1348 25.0488 5.0293 47.0703 5.0293ZM30.0293-35.1562C30.0293-43.7012 32.5195-52.0996 36.9629-58.8867C38.1348-60.6445 40.332-61.1328 42.041-60.0098C43.75-58.8867 44.1406-56.6895 42.9199-54.7852C39.209-49.1699 37.2559-42.2852 37.2559-35.1562C37.2559-28.125 39.2578-21.1426 42.9199-15.5273C44.1406-13.6719 43.75-11.4258 42.041-10.3027C40.332-9.17969 38.1348-9.7168 36.9629-11.4258C32.5195-18.1641 30.0293-26.5625 30.0293-35.1562ZM42.2363-35.1562C42.2363-41.5039 44.0918-47.6074 47.4121-52.3926C48.584-54.1016 50.6348-54.5898 52.3438-53.4668C54.1016-52.3926 54.4922-50.0977 53.2715-48.1445C50.8789-44.5801 49.5117-39.9414 49.5117-35.1562C49.5117-30.4199 50.8789-25.7324 53.2715-22.2168C54.4922-20.2148 54.1016-17.9199 52.3438-16.8457C50.6348-15.7227 48.584-16.2109 47.4121-17.9199C44.0918-22.8027 42.2363-28.9062 42.2363-35.1562ZM54.4922-35.1562C54.4922-39.1113 55.7129-43.0664 57.8125-46.0449C58.8867-47.5586 61.0352-47.998 62.6953-46.9727C64.5508-45.8008 64.8926-43.5059 63.5254-41.5039C62.4023-39.8438 61.7676-37.5488 61.7676-35.1562C61.7676-32.8125 62.4023-30.5176 63.5254-28.8574C64.8438-26.8066 64.502-24.6094 62.6953-23.3887C61.0352-22.3145 58.8867-22.7539 57.8125-24.3164C55.7129-27.0996 54.4922-31.1523 54.4922-35.1562Z"/>
  </g>
  <g id="Medium-S" transform="matrix(1 0 0 1 1699.83 696)">
   <path d="M46.7285 4.6875C68.5547 4.6875 86.6211-13.3789 86.6211-35.2051C86.6211-57.0312 68.5059-75.0977 46.6797-75.0977C24.8535-75.0977 6.83594-57.0312 6.83594-35.2051C6.83594-13.3789 24.9023 4.6875 46.7285 4.6875ZM29.834-35.2051C29.834-43.9453 32.373-52.4902 36.9629-59.2773C38.0859-60.9863 40.1367-61.4258 41.6992-60.3516C43.3105-59.2285 43.6035-57.1777 42.4805-55.4688C38.623-49.7559 36.5234-42.5293 36.5234-35.2051C36.5234-27.8809 38.6719-20.6055 42.4805-14.8926C43.6035-13.1836 43.3105-11.1328 41.6992-10.0586C40.1855-8.98438 38.1348-9.42383 36.9629-11.084C32.373-17.8223 29.834-26.416 29.834-35.2051ZM42.041-35.2051C42.041-41.6504 43.9453-47.9004 47.3633-52.6855C48.4863-54.2969 50.4395-54.6875 52.002-53.6133C53.5645-52.5879 53.9551-50.4883 52.7832-48.6816C50.293-45.0684 48.8281-40.1367 48.8281-35.2051C48.8281-30.2246 50.293-25.293 52.7832-21.6797C53.9551-19.873 53.5645-17.7734 52.002-16.748C50.4395-15.6738 48.4863-16.0645 47.3633-17.6758C43.9453-22.5586 42.041-28.8574 42.041-35.2051ZM54.3457-35.2051C54.3457-39.1602 55.5664-43.1641 57.6172-46.1426C58.6914-47.6074 60.6934-47.998 62.2559-47.0215C63.9648-45.8984 64.3066-43.75 63.0371-41.8945C61.8164-40.2344 61.084-37.793 61.084-35.2051C61.084-32.666 61.8164-30.1758 63.0371-28.4668C64.2578-26.6113 63.916-24.5605 62.2559-23.3887C60.6934-22.3633 58.6426-22.7539 57.6172-24.2676C55.5664-27.0508 54.3457-31.1035 54.3457-35.2051Z"/>
  </g>
  <g id="Regular-S" transform="matrix(1 0 0 1 1403.58 696)">
   <path d="M46.2402 4.19922C67.7734 4.19922 85.6934-13.6719 85.6934-35.2051C85.6934-56.7383 67.7246-74.6094 46.1914-74.6094C24.707-74.6094 6.83594-56.7383 6.83594-35.2051C6.83594-13.6719 24.7559 4.19922 46.2402 4.19922ZM29.5898-35.2051C29.5898-44.1895 32.2266-52.9785 36.9629-59.8633C38.0371-61.377 39.8926-61.7676 41.3086-60.7422C42.7246-59.7168 42.9688-57.8613 41.9434-56.3477C37.8418-50.4883 35.5957-42.9199 35.5957-35.2051C35.5957-27.5879 37.8906-19.9219 41.9434-14.0625C42.9688-12.5488 42.7246-10.6934 41.3086-9.66797C39.9414-8.69141 38.0859-9.08203 36.9629-10.5957C32.2266-17.334 29.5898-26.1719 29.5898-35.2051ZM41.7969-35.2051C41.7969-41.8457 43.75-48.2422 47.2656-53.0273C48.3398-54.4922 50.0977-54.8828 51.5137-53.8574C52.8809-52.8809 53.2227-50.9766 52.1484-49.4141C49.5117-45.6543 47.9492-40.4785 47.9492-35.2051C47.9492-29.9805 49.5117-24.7559 52.1484-20.9961C53.2227-19.4336 52.8809-17.5293 51.5137-16.6016C50.0977-15.5273 48.3398-15.918 47.2656-17.3828C43.75-22.3145 41.7969-28.7109 41.7969-35.2051ZM54.1504-35.2051C54.1504-39.209 55.3711-43.3105 57.4219-46.2402C58.3984-47.6074 60.2539-47.998 61.6699-47.0703C63.2324-46.0449 63.5254-44.0918 62.3535-42.4805C61.0352-40.7715 60.2539-38.0371 60.2539-35.2051C60.2539-32.4707 61.0352-29.7363 62.3535-27.9297C63.4766-26.3672 63.1836-24.4629 61.6699-23.3887C60.2539-22.4609 58.3496-22.8027 57.4219-24.2188C55.3711-26.9043 54.1504-31.0547 54.1504-35.2051Z"/>
  </g>
  <g id="Light-S" transform="matrix(1 0 0 1 1107.6 696)">
   <path d="M45.5078 3.4668C66.6992 3.4668 84.2285-14.0137 84.2285-35.2051C84.2285-56.3965 66.6504-73.877 45.5078-73.877C24.3164-73.877 6.83594-56.3965 6.83594-35.2051C6.83594-14.0137 24.3652 3.4668 45.5078 3.4668ZM29.2969-35.2539C29.2969-44.2383 31.9336-52.9785 36.8164-60.0586C37.6465-61.2305 39.1113-61.5234 40.2344-60.7422C41.3574-59.9121 41.5527-58.4473 40.7227-57.3242C36.377-51.2695 34.0332-43.457 34.0332-35.2539C34.0332-27.0508 36.4258-19.1895 40.7227-13.1836C41.5527-12.0117 41.3574-10.5469 40.2344-9.7168C39.1602-8.98438 37.6953-9.27734 36.8164-10.4492C31.9336-17.4316 29.2969-26.1719 29.2969-35.2539ZM41.6504-35.2539C41.6504-41.9922 43.6035-48.3398 47.168-53.125C47.998-54.248 49.4141-54.541 50.4883-53.7598C51.5625-53.0273 51.8555-51.5137 51.0254-50.293C48.0957-46.3379 46.4355-40.918 46.4355-35.2539C46.4355-29.541 48.0957-24.1699 51.0254-20.166C51.8555-18.9453 51.5625-17.4805 50.4883-16.748C49.4141-15.918 47.998-16.2109 47.168-17.334C43.6035-22.2656 41.6504-28.5645 41.6504-35.2539ZM54.0527-35.2539C54.0527-39.2578 55.2734-43.3105 57.373-46.2402C58.2031-47.3145 59.668-47.6074 60.7422-46.875C61.9629-46.0449 62.1582-44.5312 61.2305-43.2617C59.7168-41.2598 58.8379-38.2812 58.8379-35.2539C58.8379-32.2266 59.7168-29.2969 61.2305-27.2461C62.1582-25.9766 61.9141-24.5117 60.7422-23.6328C59.668-22.8516 58.1543-23.1445 57.373-24.2676C55.2734-27.002 54.0527-31.1035 54.0527-35.2539Z"/>
  </g>
  <g id="Thin-S" transform="matrix(1 0 0 1 811.867 696)">
   <path d="M44.5801 2.53906C65.2832 2.53906 82.2754-14.502 82.2754-35.2051C82.2754-55.9082 65.2344-72.9492 44.5312-72.9492C23.8281-72.9492 6.83594-55.9082 6.83594-35.2051C6.83594-14.502 23.877 2.53906 44.5801 2.53906ZM28.8574-35.2539C28.8574-44.3359 31.543-52.9785 36.6699-60.3027C37.1582-61.084 38.0859-61.2305 38.8184-60.7422C39.5508-60.1562 39.6484-59.2773 39.1602-58.5449C34.4727-52.3438 31.8848-44.1895 31.8848-35.2539C31.8848-26.3672 34.4727-18.2129 39.1602-12.0117C39.6484-11.2793 39.5508-10.4004 38.8184-9.81445C38.0859-9.32617 37.207-9.52148 36.6699-10.2539C31.543-17.5293 28.8574-26.2207 28.8574-35.2539ZM41.4062-35.2539C41.4062-42.1875 43.3594-48.4375 47.0703-53.2227C47.6074-53.9551 48.4375-54.1504 49.1699-53.6621C49.8535-53.1738 50.0488-52.2461 49.5117-51.4648C46.2402-47.168 44.4824-41.5039 44.4824-35.2539C44.4824-29.0527 46.2402-23.3887 49.5117-19.0918C50.0488-18.3105 49.8535-17.3828 49.1699-16.8945C48.4375-16.4062 47.6074-16.6016 47.0703-17.334C43.3594-22.168 41.4062-28.418 41.4062-35.2539ZM53.9062-35.2539C53.9062-39.3066 55.1758-43.3594 57.373-46.2891C57.9102-46.9727 58.8379-47.1191 59.5215-46.6309C60.3027-46.0449 60.3516-45.0684 59.7656-44.2871C58.0078-41.8945 56.9336-38.623 56.9336-35.2539C56.9336-31.9336 58.0078-28.6621 59.7656-26.2695C60.3516-25.4883 60.3027-24.5117 59.5215-23.9258C58.8379-23.4375 57.9102-23.584 57.373-24.2676C55.1758-27.1484 53.9062-31.2012 53.9062-35.2539Z"/>
  </g>
  <g id="Ultralight-S" transform="matrix(1 0 0 1 515.644 696)">
   <path d="M44.043 2.00195C64.502 2.00195 81.2988-14.7461 81.2988-35.2051C81.2988-55.6641 64.502-72.4121 44.043-72.4121C23.584-72.4121 6.83594-55.6641 6.83594-35.2051C6.83594-14.7461 23.584 2.00195 44.043 2.00195ZM28.6621-35.3027C28.6621-44.3848 31.3477-52.9785 36.5234-60.4004C36.9141-60.9375 37.5488-61.084 38.0371-60.7422C38.5742-60.3027 38.7207-59.668 38.3301-59.1797C33.4961-52.8809 30.8105-44.5801 30.8105-35.3027C30.8105-26.0254 33.4961-17.6758 38.3301-11.4258C38.7207-10.9375 38.5742-10.2539 38.0371-9.86328C37.5488-9.52148 36.9141-9.61914 36.5234-10.1562C31.3477-17.627 28.6621-26.2207 28.6621-35.3027ZM41.3086-35.3027C41.3086-42.2852 43.2617-48.4863 46.9727-53.3203C47.3633-53.8086 47.9492-53.9062 48.4375-53.5645C48.9258-53.2715 49.1211-52.5879 48.7793-52.0508C45.2637-47.6074 43.457-41.8457 43.457-35.3027C43.457-28.7598 45.2637-22.998 48.7793-18.5547C49.1211-18.0176 48.9258-17.334 48.4375-17.041C47.9492-16.6992 47.3633-16.7969 46.9727-17.2852C43.2617-22.1191 41.3086-28.2715 41.3086-35.3027ZM53.8086-35.3027C53.8086-39.3555 55.0781-43.3594 57.3242-46.2891C57.7637-46.7773 58.4473-46.875 58.8867-46.5332C59.4727-46.0449 59.4238-45.4102 59.0332-44.8242C57.0801-42.2363 56.0059-38.8184 56.0059-35.3027C56.0059-31.7871 57.0801-28.3203 59.0332-25.7812C59.4238-25.1953 59.4727-24.5605 58.8867-24.0723C58.4473-23.7305 57.7637-23.8281 57.3242-24.3164C55.0781-27.2461 53.8086-31.25 53.8086-35.3027Z"/>
  </g>
 </g>
</svg>
